<svg id="svg5124" xmlns:rdf="http://www.w3.org/1999/02/22-rdf-syntax-ns#" xmlns="http://www.w3.org/2000/svg" height="32.366mm" width="32.366mm" version="1.1" xmlns:cc="http://creativecommons.org/ns#" xmlns:dc="http://purl.org/dc/elements/1.1/" viewBox="0 0 114.68101 114.681">
 <g id="layer1" transform="translate(372.14 394.78)">
  <g id="g5684" fill="#444547" transform="matrix(3.8228 0 0 3.8228 1050.5 854.94)">
   <path id="path252" d="m-371.63-318.12v10.886h-0.517v1.542h3.707c0-1.63 1.465-3 3.103-3s3.103 1.37 3.103 3h8.793v-12.43h-18.19zm29.224 10.887v-2.058c0-0.857-0.69-1.63-1.638-1.63h-1.207c-0.173 0-0.346-0.084-0.518-0.256l-2.328-3.6c-0.086-0.17-0.345-0.257-0.517-0.257h-4.396v9.342h0.863c0.086-1.63 1.465-3 3.103-3s3.017 1.37 3.103 3h3.793v-1.543h-0.26zm-8.88-2.315h-0.948v-0.515h0.95v0.515zm-0.948-1.8v-3.172h2.76c0.516 0 0.86 0.257 1.206 0.6l1.552 2.572h-5.518z"/>
   <path id="path254" d="m-348.98-308.18c-1.541 0-2.6565 1.2-2.6565 2.657s1.2 2.657 2.6565 2.657c1.4575 0 2.6575-1.2 2.6575-2.657 0.0865-1.457-1.1135-2.657-2.6565-2.657zm0 4.03c-0.77052 0-1.372-0.6-1.372-1.373 0-0.77 0.60149-1.37 1.372-1.37 0.77151 0 1.372 0.6 1.372 1.37 0 0.772-0.51401 1.372-1.372 1.372zm-16.37-4.116c-1.543 0-2.6565 1.2-2.6565 2.658 0 1.457 1.2 2.657 2.6575 2.657 1.4565 0 2.6565-1.2 2.6565-2.657 0.0865-1.372-1.2-2.658-2.6565-2.658zm0 4.115c-0.7715 0-1.372-0.6-1.372-1.372 0-0.77 0.60051-1.37 1.372-1.37 0.77151 0 1.372 0.6 1.372 1.37 0 0.772-0.60051 1.372-1.372 1.372z"/>
  </g>
 </g>
</svg>
