<?xml version="1.0" encoding="UTF-8" standalone="no"?>
<svg
   xmlns:dc="http://purl.org/dc/elements/1.1/"
   xmlns:cc="http://creativecommons.org/ns#"
   xmlns:rdf="http://www.w3.org/1999/02/22-rdf-syntax-ns#"
   xmlns:svg="http://www.w3.org/2000/svg"
   xmlns="http://www.w3.org/2000/svg"
   xmlns:sodipodi="http://sodipodi.sourceforge.net/DTD/sodipodi-0.dtd"
   xmlns:inkscape="http://www.inkscape.org/namespaces/inkscape"
   id="svg5124"
   height="32.366mm"
   width="32.366mm"
   version="1.1"
   viewBox="0 0 114.68101 114.681"
   inkscape:version="0.91 r13725"
   sodipodi:docname="passenger_transport.svg">
  <metadata
     id="metadata19">
    <rdf:RDF>
      <cc:Work
         rdf:about="">
        <dc:format>image/svg+xml</dc:format>
        <dc:type
           rdf:resource="http://purl.org/dc/dcmitype/StillImage" />
      </cc:Work>
    </rdf:RDF>
  </metadata>
  <defs
     id="defs17" />
  <sodipodi:namedview
     pagecolor="#ffffff"
     bordercolor="#666666"
     borderopacity="1"
     objecttolerance="10"
     gridtolerance="10"
     guidetolerance="10"
     inkscape:pageopacity="0"
     inkscape:pageshadow="2"
     inkscape:window-width="1855"
     inkscape:window-height="1056"
     id="namedview15"
     showgrid="false"
     inkscape:zoom="8.2314085"
     inkscape:cx="55.85213"
     inkscape:cy="65.502874"
     inkscape:window-x="65"
     inkscape:window-y="24"
     inkscape:window-maximized="1"
     inkscape:current-layer="svg5124" />
  <path
     style="fill:#00a2ff;fill-opacity:1"
     d="M 46.939453 30.912109 C 43.97956 30.964553 40.783817 31.122842 38.300781 31.369141 C 32.134892 31.9808 27.653778 32.643464 21.429688 33.863281 C 19.412554 34.258667 17.184526 34.634035 16.478516 34.697266 C 14.331284 34.889568 13.691596 35.474989 13.558594 37.373047 C 13.495593 38.27782 13.434438 38.382445 12.515625 39.160156 C 8.7245699 42.369203 7.5588596 43.464136 6.6855469 44.626953 C 5.7263329 45.904172 5.6662676 45.947266 4.9101562 45.947266 C 2.8831268 45.947266 2.2708218 47.610439 1.6328125 54.839844 C 1.2837074 58.795901 1.2857636 58.786643 0.56445312 60.984375 C 0.029745361 62.613499 -0.0069062936 62.898229 -0.00390625 65.384766 C -0.00390625 67.803301 0.043446469 68.177399 0.50195312 69.511719 C 1.0987618 71.247244 1.8323008 72.450533 2.8535156 73.373047 C 3.7296284 74.164548 5.5815902 75.07163 6.4707031 75.144531 L 7.0976562 75.195312 L 7.1347656 73.636719 C 7.2658675 68.150739 11.033213 63.458847 16.337891 62.173828 C 18.051516 61.758782 20.899569 61.873213 22.621094 62.425781 C 26.115945 63.547598 29.199605 66.626792 30.357422 70.152344 C 30.654326 71.056267 30.763646 71.916865 30.810547 73.712891 C 30.844547 75.01551 30.906518 76.115903 30.949219 76.158203 C 31.02022 76.229004 40.020217 76.453657 61.865234 76.929688 C 66.555103 77.031879 72.323559 77.169787 74.683594 77.236328 L 78.972656 77.357422 L 78.859375 76.458984 C 78.398468 72.831032 78.614504 71.122904 79.857422 68.539062 C 81.295843 65.548819 84.543331 62.935992 87.767578 62.175781 C 90.211714 61.599513 93.587131 61.974631 95.726562 63.060547 C 98.915613 64.67917 101.41677 67.88616 102.14258 71.287109 C 102.45288 72.741131 102.38808 75.510047 102.01367 76.822266 C 101.90237 77.212581 101.88094 77.598392 101.96484 77.679688 C 102.14015 77.84989 107.29885 78.045201 108.25977 77.917969 C 111.46081 77.494133 113.3302 76.491576 114.22852 74.71875 C 114.67582 73.835927 114.67773 73.806839 114.67773 68.318359 C 114.67773 63.939896 114.62563 62.720942 114.42383 62.398438 C 114.28423 62.17505 114.03851 61.396579 113.87891 60.667969 C 113.5176 59.018045 113.07121 58.130212 111.9668 56.871094 C 111.49109 56.328846 110.86312 55.496591 110.57031 55.021484 C 109.04919 52.552948 104.65834 50.590403 96.861328 48.892578 C 87.039085 46.753747 86.68218 46.628401 83.994141 44.417969 C 75.03241 37.047962 64.264213 32.235907 54.164062 31.087891 C 52.62444 30.912863 49.899346 30.859666 46.939453 30.912109 z M 49.791016 33.214844 C 51.642235 33.233489 54.400448 33.336152 57.333984 33.710938 C 60.250527 34.083543 64.002664 35.319857 66.058594 36.105469 C 71.790877 38.295601 87.070012 48.141672 83.001953 48.138672 L 49.068359 48.113281 L 47.460938 33.236328 C 47.460938 33.236328 47.751435 33.224412 48.269531 33.216797 C 48.658104 33.211086 49.173943 33.208629 49.791016 33.214844 z M 44.308594 33.275391 L 46.140625 48.113281 L 24.359375 48.113281 L 27.705078 35.611328 C 34.263174 34.315809 38.282506 33.826799 44.308594 33.275391 z M 24.738281 35.925781 L 21.267578 48.111328 L 9.0175781 48.175781 C 11.306611 44.797932 15.585641 39.106626 20.066406 36.871094 C 21.175822 36.493168 23.601865 36.084554 24.738281 35.925781 z M 19.132812 63.759766 C 17.154914 63.737953 15.153972 64.295714 13.404297 65.457031 C 8.9075311 68.441775 7.642674 74.747447 10.636719 79.257812 C 11.854336 81.092243 14.062398 82.75721 16.111328 83.386719 C 17.057342 83.677343 18.996463 83.822358 20.238281 83.695312 C 23.284026 83.383698 26.176961 81.455857 27.742188 78.695312 C 29.94482 74.810456 29.254053 69.845449 26.066406 66.658203 C 24.180823 64.772619 21.675829 63.78781 19.132812 63.759766 z M 90.025391 63.791016 C 89.054802 63.835349 88.088098 63.988576 87.335938 64.240234 C 84.253889 65.271449 81.944713 67.698904 80.841797 71.064453 C 80.125386 73.250685 80.52736 76.561788 81.767578 78.699219 C 83.2917 81.325857 86.163764 83.327908 88.845703 83.632812 C 89.386511 83.694317 89.995563 83.768345 90.197266 83.796875 C 90.398969 83.825375 91.10035 83.786439 91.755859 83.710938 C 95.448513 83.285277 98.51427 80.838563 99.962891 77.162109 C 100.382 76.098294 100.44958 75.652235 100.45508 73.912109 C 100.45508 72.414788 100.3749 71.63543 100.12109 70.886719 C 98.912792 67.316867 96.236438 64.818053 92.742188 63.994141 C 91.970122 63.812103 90.99598 63.746682 90.025391 63.791016 z M 19.253906 68.390625 A 5.0616738 5.420479 0 0 1 24.316406 73.810547 A 5.0616738 5.420479 0 0 1 19.253906 79.232422 A 5.0616738 5.420479 0 0 1 14.193359 73.810547 A 5.0616738 5.420479 0 0 1 19.253906 68.390625 z M 90.865234 68.390625 A 5.0616738 5.420479 0 0 1 95.927734 73.810547 A 5.0616738 5.420479 0 0 1 90.865234 79.232422 A 5.0616738 5.420479 0 0 1 85.802734 73.810547 A 5.0616738 5.420479 0 0 1 90.865234 68.390625 z "
     id="path5793"
     transform="matrix(0.99998546,0,0,0.99998546,0,-3.8146418e-6)" />
</svg>
