<svg id="svg5124" xmlns:rdf="http://www.w3.org/1999/02/22-rdf-syntax-ns#" xmlns="http://www.w3.org/2000/svg" height="32.366mm" width="32.366mm" version="1.1" xmlns:cc="http://creativecommons.org/ns#" xmlns:dc="http://purl.org/dc/elements/1.1/" viewBox="0 0 114.68101 114.681">
 <g id="layer1" transform="translate(372.14 394.78)">
  <g id="g5819" transform="translate(-4.8561 -102.29)">
   <path id="path5793" d="m-275.53-208.78c3.6926-0.42565 6.759-2.8723 8.2076-6.5487 0.4191-1.0638 0.4868-1.5102 0.4923-3.2503 0-1.4973-0.081-2.277-0.3348-3.0257-1.2083-3.5698-3.8831-6.069-7.3773-6.8929-1.5441-0.36407-3.9022-0.25636-5.4065 0.24695-3.082 1.0312-5.3916 3.4576-6.4945 6.8231-0.7164 2.1862-0.3153 5.4976 0.9249 7.635 1.5241 2.6266 4.3976 4.6295 7.0795 4.9344 0.5408 0.0615 1.1484 0.13517 1.3501 0.1637 0.2017 0.0285 0.9032-0.01 1.5587-0.0855zm-71.516-0.0154c3.0457-0.31161 5.9394-2.2396 7.5046-5.0001 2.2026-3.8848 1.5111-8.8498-1.6765-12.037-3.3521-3.3521-8.6628-3.8562-12.662-1.2018-4.4967 2.9847-5.761 9.2907-2.767 13.801 1.2176 1.8344 3.4259 3.5 5.4748 4.1295 0.946 0.29062 2.8841 0.43552 4.1259 0.30848zm88.02-5.778c3.201-0.42383 5.0704-1.4255 5.9687-3.1983 0.4473-0.88281 0.4494-0.9123 0.4494-6.4007 0-4.3784-0.052-5.5974-0.2538-5.9199-0.1396-0.22338-0.3844-1.0023-0.544-1.7309-0.3613-1.6499-0.8088-2.538-1.9132-3.7971-0.4757-0.54224-1.1044-1.3747-1.3972-1.8498-1.5211-2.4685-5.9101-4.4309-13.707-6.1287-9.8221-2.1388-10.18-2.2634-12.868-4.4738-8.9616-7.3699-19.73-12.182-29.83-13.33-3.0792-0.35005-10.896-0.21155-15.862 0.28104-6.1658 0.61165-10.647 1.2742-16.871 2.494-2.0171 0.39538-4.2451 0.7706-4.9511 0.83383-2.1472 0.1923-2.7865 0.77837-2.9195 2.6764-0.063 0.90476-0.1247 1.0098-1.0435 1.7875-3.791 3.209-4.9576 4.3024-5.8309 5.4652-0.9592 1.2772-1.0177 1.3207-1.7738 1.3207-2.027 0-2.6405 1.6644-3.2785 8.8937-0.3491 3.956-0.3473 3.9454-1.0686 6.1431-0.5347 1.6291-0.5716 1.9145-0.5686 4.401 0 2.4185 0.049 2.7916 0.5075 4.1259 0.5968 1.7355 1.3294 2.9392 2.3506 3.8617 0.8761 0.79149 2.7282 1.6985 3.6173 1.7714l0.6277 0.0515 0.037-1.5587c0.1311-5.4859 3.8983-10.178 9.2029-11.463 1.7136-0.41504 4.5617-0.30103 6.2832 0.25153 3.4948 1.1218 6.5783 4.2018 7.7361 7.7273 0.2969 0.90391 0.4064 1.7642 0.4533 3.5602 0.034 1.3026 0.096 2.4029 0.1387 2.4452 0.071 0.0708 9.0693 0.29531 30.914 0.77133 4.6898 0.10219 10.458 0.24024 12.818 0.30678l4.2906 0.12098-0.114-0.89746c-0.4609-3.6279-0.2458-5.3364 0.9971-7.9202 1.4384-2.9902 4.6866-5.603 7.9108-6.3632 2.4441-0.57626 5.8195-0.20094 7.9589 0.88496 3.189 1.6186 5.6903 4.8258 6.4161 8.2267 0.3103 1.454 0.2462 4.2218-0.1282 5.534-0.1113 0.39031-0.1339 0.77616-0.05 0.85745 0.1753 0.1702 5.3344 0.36532 6.2953 0.23809z" fill="#444547"/>
   <g fill="#fff">
    <ellipse id="path5795" rx="5.0616" ry="5.4204" cy="-218.68" cx="-348.03"/>
    <ellipse id="ellipse5797" rx="5.0616" ry="5.4204" cy="-218.68" cx="-276.42"/>
    <g fill-rule="evenodd">
     <path id="path5801" d="m-301.59-256.75c5.7322 2.1901 21.01 12.036 16.942 12.033l-33.932-0.0258-1.6083-14.876s4.6571-0.19227 9.8722 0.474c2.9165 0.3726 6.6702 1.6094 8.7261 2.395z"/>
     <path id="path5803" d="m-323.34-259.58 1.8309 14.838h-21.781l3.3461-12.502c6.558-1.2955 10.578-1.7846 16.604-2.336z"/>
     <path id="path5805" d="m-358.63-244.68 12.248-0.0631 3.4724-12.187c-1.1364 0.15877-3.5626 0.56909-4.672 0.94701-4.4807 2.2355-8.76 7.9252-11.049 11.303z"/>
    </g>
   </g>
  </g>
 </g>
</svg>
