<?xml version="1.0" encoding="UTF-8" standalone="no"?>
<!-- Created with Inkscape (http://www.inkscape.org/) -->

<svg
   xmlns:dc="http://purl.org/dc/elements/1.1/"
   xmlns:cc="http://creativecommons.org/ns#"
   xmlns:rdf="http://www.w3.org/1999/02/22-rdf-syntax-ns#"
   xmlns:svg="http://www.w3.org/2000/svg"
   xmlns="http://www.w3.org/2000/svg"
   xmlns:sodipodi="http://sodipodi.sourceforge.net/DTD/sodipodi-0.dtd"
   xmlns:inkscape="http://www.inkscape.org/namespaces/inkscape"
   width="150"
   height="75"
   viewBox="0 0 150.00001 75.000004"
   id="svg3807"
   version="1.1"
   inkscape:version="0.91 r13725"
   sodipodi:docname="hotel.svg">
  <defs
     id="defs3809" />
  <sodipodi:namedview
     id="base"
     pagecolor="#ffffff"
     bordercolor="#666666"
     borderopacity="1.0"
     inkscape:pageopacity="0.0"
     inkscape:pageshadow="2"
     inkscape:zoom="5.6568543"
     inkscape:cx="72.254236"
     inkscape:cy="28.302893"
     inkscape:document-units="px"
     inkscape:current-layer="layer1"
     showgrid="false"
     units="px"
     inkscape:snap-bbox="true"
     inkscape:bbox-paths="true"
     inkscape:snap-bbox-edge-midpoints="true"
     inkscape:bbox-nodes="true"
     inkscape:snap-bbox-midpoints="true"
     inkscape:object-paths="true"
     inkscape:snap-intersection-paths="true"
     inkscape:object-nodes="true"
     inkscape:snap-smooth-nodes="true"
     showguides="true"
     inkscape:guide-bbox="true"
     inkscape:window-width="1280"
     inkscape:window-height="947"
     inkscape:window-x="0"
     inkscape:window-y="24"
     inkscape:window-maximized="1">
    <sodipodi:guide
       position="75.000004,74.999991"
       orientation="1,0"
       id="guide3817" />
    <sodipodi:guide
       position="150.00001,37.49999"
       orientation="0,1"
       id="guide3819" />
    <sodipodi:guide
       position="37.500002,74.999991"
       orientation="1,0"
       id="guide3825" />
    <sodipodi:guide
       position="112.50001,74.999991"
       orientation="1,0"
       id="guide3829" />
  </sodipodi:namedview>
  <metadata
     id="metadata3812">
    <rdf:RDF>
      <cc:Work
         rdf:about="">
        <dc:format>image/svg+xml</dc:format>
        <dc:type
           rdf:resource="http://purl.org/dc/dcmitype/StillImage" />
        <dc:title></dc:title>
      </cc:Work>
    </rdf:RDF>
  </metadata>
  <g
     inkscape:label="Layer 1"
     inkscape:groupmode="layer"
     id="layer1"
     transform="translate(0,-977.36217)">
    <g
       transform="matrix(0.63469684,0,0,0.75000009,-120.50777,934.87468)"
       id="g5401"
       style="fill:#444547;fill-opacity:1;stroke:none;stroke-opacity:1">
      <path
         style="fill:#444547;fill-opacity:1;stroke:none;stroke-opacity:1"
         inkscape:connector-curvature="0"
         id="path5403"
         d="m 277.8,96.6 0,12.6 -57.5,0 0,-19.2 c 0,-1.8 -1.5,-3.4 -3.4,-3.4 l 0,0 c -1.8,0 -3.4,1.6 -3.4,3.4 l 0,36.7 6.7,0 0,-11.4 57.5,0 0,11.3 6.7,0 0,-30 c 0,-1.8 -1.5,-3.4 -3.4,-3.4 l 0,0 c -1.7,-0.1 -3.2,1.5 -3.2,3.4 z" />
      <path
         style="fill:#444547;fill-opacity:1;stroke:none;stroke-opacity:1"
         inkscape:connector-curvature="0"
         id="path5405"
         d="m 239.9,107.5 -17.6,0 0,-3 c 0,-0.9 0.7,-1.7 1.7,-1.7 l 14.3,0 c 0.9,0 1.7,0.7 1.7,1.7 l 0,3 z" />
    </g>
    <g
       style="fill:#00a2ff;fill-opacity:1;stroke:none;stroke-opacity:1"
       id="g4612"
       transform="matrix(0.63469684,0,0,0.75000009,-45.507762,934.87468)">
      <path
         d="m 277.8,96.6 0,12.6 -57.5,0 0,-19.2 c 0,-1.8 -1.5,-3.4 -3.4,-3.4 l 0,0 c -1.8,0 -3.4,1.6 -3.4,3.4 l 0,36.7 6.7,0 0,-11.4 57.5,0 0,11.3 6.7,0 0,-30 c 0,-1.8 -1.5,-3.4 -3.4,-3.4 l 0,0 c -1.7,-0.1 -3.2,1.5 -3.2,3.4 z"
         id="path4614"
         inkscape:connector-curvature="0"
         style="fill:#00a2ff;fill-opacity:1;stroke:none;stroke-opacity:1" />
      <path
         d="m 239.9,107.5 -17.6,0 0,-3 c 0,-0.9 0.7,-1.7 1.7,-1.7 l 14.3,0 c 0.9,0 1.7,0.7 1.7,1.7 l 0,3 z"
         id="path4616"
         inkscape:connector-curvature="0"
         style="fill:#00a2ff;fill-opacity:1;stroke:none;stroke-opacity:1" />
    </g>
  </g>
</svg>
