<?xml version="1.0" encoding="UTF-8" standalone="no"?>
<!-- Created with Inkscape (http://www.inkscape.org/) -->

<svg
   xmlns:dc="http://purl.org/dc/elements/1.1/"
   xmlns:cc="http://creativecommons.org/ns#"
   xmlns:rdf="http://www.w3.org/1999/02/22-rdf-syntax-ns#"
   xmlns:svg="http://www.w3.org/2000/svg"
   xmlns="http://www.w3.org/2000/svg"
   xmlns:sodipodi="http://sodipodi.sourceforge.net/DTD/sodipodi-0.dtd"
   xmlns:inkscape="http://www.inkscape.org/namespaces/inkscape"
   width="150"
   height="75"
   viewBox="0 0 150.00001 75.000004"
   id="svg3807"
   version="1.1"
   inkscape:version="0.91 r13725"
   sodipodi:docname="insurance.svg">
  <defs
     id="defs3809" />
  <sodipodi:namedview
     id="base"
     pagecolor="#ffffff"
     bordercolor="#666666"
     borderopacity="1.0"
     inkscape:pageopacity="0.0"
     inkscape:pageshadow="2"
     inkscape:zoom="5.6568543"
     inkscape:cx="72.254236"
     inkscape:cy="28.302893"
     inkscape:document-units="px"
     inkscape:current-layer="layer1"
     showgrid="false"
     units="px"
     inkscape:snap-bbox="true"
     inkscape:bbox-paths="true"
     inkscape:snap-bbox-edge-midpoints="true"
     inkscape:bbox-nodes="true"
     inkscape:snap-bbox-midpoints="true"
     inkscape:object-paths="true"
     inkscape:snap-intersection-paths="true"
     inkscape:object-nodes="true"
     inkscape:snap-smooth-nodes="true"
     showguides="true"
     inkscape:guide-bbox="true"
     inkscape:window-width="1280"
     inkscape:window-height="947"
     inkscape:window-x="0"
     inkscape:window-y="24"
     inkscape:window-maximized="1">
    <sodipodi:guide
       position="75.000004,74.999991"
       orientation="1,0"
       id="guide3817" />
    <sodipodi:guide
       position="150.00001,37.49999"
       orientation="0,1"
       id="guide3819" />
    <sodipodi:guide
       position="37.500002,74.999991"
       orientation="1,0"
       id="guide3825" />
    <sodipodi:guide
       position="112.50001,74.999991"
       orientation="1,0"
       id="guide3829" />
  </sodipodi:namedview>
  <metadata
     id="metadata3812">
    <rdf:RDF>
      <cc:Work
         rdf:about="">
        <dc:format>image/svg+xml</dc:format>
        <dc:type
           rdf:resource="http://purl.org/dc/dcmitype/StillImage" />
        <dc:title></dc:title>
      </cc:Work>
    </rdf:RDF>
  </metadata>
  <g
     inkscape:label="Layer 1"
     inkscape:groupmode="layer"
     id="layer1"
     transform="translate(0,-977.36217)">
    <g
       id="g4398"
       transform="matrix(1.2072807,0,0,1.2072807,-499.523,559.37433)">
      <g
         style="fill:#444547;fill-opacity:1;stroke:none;stroke-opacity:1"
         id="g3966"
         transform="matrix(0.63984646,0,0,0.72811701,376.59728,351.39329)">
        <path
           d="m 125.9,24.3 c -0.6,-2.5 -1.5,-4.4 -2.7,-5.7 -2,-2.2 -6.5,-2.2 -7.5,-2.5 -1,-0.3 -7.3,-1.1 -9,-1.1 -1.7,0 -10.6,1.6 -12.2,1.8 -1.4,0.3 -6.1,0.9 -6.8,7.5 0.1,0 38.2,0 38.2,0 z"
           id="path3968"
           inkscape:connector-curvature="0"
           style="fill:#444547;fill-opacity:1;stroke:none;stroke-opacity:1" />
        <path
           d="m 89.4,37.9 c 2.3,6.2 7.2,12.6 17.4,18.2 0,0 12.6,-5 16.9,-18.2 0,0 -34.3,0 -34.3,0 z"
           id="path3970"
           inkscape:connector-curvature="0"
           style="fill:#444547;fill-opacity:1;stroke:none;stroke-opacity:1" />
      </g>
      <g
         transform="translate(624.317,-8.117749)"
         id="g4340">
        <path
           sodipodi:nodetypes="cccsccc"
           stroke-miterlimit="10"
           d="m -164.73166,377.20428 c -0.31993,-2.98528 -1.15173,-5.16963 -2.23947,-6.62586 -1.53563,-1.89311 -4.92681,-1.89311 -5.69463,-2.18435 -0.8318,-0.29125 -5.56666,-0.94655 -6.78237,-0.94655 -1.2797,0 -8.06207,1.31061 -9.27778,1.52904 -1.15172,0.21844 -5.31072,0.94655 -5.24674,7.93648 29.24099,0.29124 0,0 29.24099,0.29124 z"
           id="path3974"
           inkscape:connector-curvature="0"
           style="fill:none;fill-opacity:1;stroke:#444547;stroke-width:1.36511254;stroke-miterlimit:10;stroke-opacity:1" />
        <path
           stroke-miterlimit="10"
           d="m -192.88491,387.10667 c 1.6636,5.53369 5.31073,11.21301 13.43678,16.1642 0,0 9.78965,-4.29589 12.86091,-15.65451 0.064,-0.14563 0.064,-0.29125 0.12797,-0.43687 l -26.42566,-0.0728 0,0 z"
           id="path3976"
           inkscape:connector-curvature="0"
           style="fill:none;fill-opacity:1;stroke:#444547;stroke-width:1.36511254;stroke-miterlimit:10;stroke-opacity:1" />
      </g>
      <g
         id="text3978"
         style="font-size:9.43869972px;font-family:Arial-BoldMT;fill:#444547;fill-opacity:1;stroke:none;stroke-opacity:1"
         transform="matrix(0.63984646,0,0,0.72811701,376.59728,351.39329)">
        <path
           id="path4668"
           style="font-size:9.43869972px;font-family:Arial-BoldMT;fill:#444547;fill-opacity:1;stroke:none;stroke-opacity:1"
           d="m 77.008341,28.455438 0,0.981662 q -0.470091,-0.43783 -1.004705,-0.654441 -0.530005,-0.216611 -1.129142,-0.216611 -1.179837,0 -1.806626,0.723572 -0.626788,0.718964 -0.626788,2.083151 0,1.359578 0.626788,2.08315 0.626789,0.718964 1.806626,0.718964 0.599137,0 1.129142,-0.216611 0.534614,-0.216611 1.004705,-0.654441 l 0,0.972444 q -0.488526,0.331829 -1.036966,0.497744 -0.543832,0.165915 -1.152186,0.165915 -1.562362,0 -2.461067,-0.95401 -0.898704,-0.958618 -0.898704,-2.613155 0,-1.659147 0.898704,-2.613156 0.898705,-0.958618 2.461067,-0.958618 0.617572,0 1.161403,0.165915 0.54844,0.161306 1.027749,0.488526 z"
           inkscape:connector-curvature="0" />
        <path
           id="path4670"
           style="font-size:9.43869972px;font-family:Arial-BoldMT;fill:#444547;fill-opacity:1;stroke:none;stroke-opacity:1"
           d="m 77.501476,27.925433 5.820839,0 0,0.783486 -2.442632,0 0,6.097363 -0.935575,0 0,-6.097363 -2.442632,0 0,-0.783486 z"
           inkscape:connector-curvature="0" />
        <path
           id="path4672"
           style="font-size:9.43869972px;font-family:Arial-BoldMT;fill:#444547;fill-opacity:1;stroke:none;stroke-opacity:1"
           d="m 85.156593,28.690484 0,2.585503 1.17062,0 q 0.649832,0 1.004705,-0.336438 0.354873,-0.336438 0.354873,-0.958618 0,-0.617571 -0.354873,-0.954009 -0.354873,-0.336438 -1.004705,-0.336438 l -1.17062,0 z m -0.930966,-0.765051 2.101586,0 q 1.156794,0 1.746712,0.525396 0.594528,0.520788 0.594528,1.530102 0,1.018532 -0.594528,1.539319 -0.589918,0.520788 -1.746712,0.520788 l -1.17062,0 0,2.765244 -0.930966,0 0,-6.880849 z"
           inkscape:connector-curvature="0" />
        <path
           id="path4674"
           style="font-size:9.43869972px;font-family:Arial-BoldMT;fill:#444547;fill-opacity:1;stroke:none;stroke-opacity:1"
           d="m 92.221792,28.842572 -1.262795,3.424294 2.530199,0 -1.267404,-3.424294 z m -0.525396,-0.917139 1.055401,0 2.622373,6.880849 -0.967835,0 -0.626789,-1.765147 -3.101682,0 -0.626788,1.765147 -0.981662,0 2.626982,-6.880849 z"
           inkscape:connector-curvature="0" />
        <path
           id="path4676"
           style="font-size:9.43869972px;font-family:Arial-BoldMT;fill:#444547;fill-opacity:1;stroke:none;stroke-opacity:1"
           d="m 96.042438,27.925433 1.000096,0 1.709843,2.557851 1.719063,-2.557851 1.00009,0 -2.212192,3.304467 2.359672,3.576382 -1.00009,0 -1.935674,-2.92655 -1.949497,2.92655 -1.004706,0 2.456459,-3.673166 -2.143064,-3.207683 z"
           inkscape:connector-curvature="0" />
        <path
           id="path4678"
           style="font-size:9.43869972px;font-family:Arial-BoldMT;fill:#444547;fill-opacity:1;stroke:none;stroke-opacity:1"
           d="m 105.63783,28.55683 q -1.01392,0 -1.61305,0.755834 -0.59453,0.755833 -0.59453,2.060107 0,1.299664 0.59453,2.055498 0.59913,0.755833 1.61305,0.755833 1.01393,0 1.60385,-0.755833 0.59452,-0.755834 0.59452,-2.055498 0,-1.304274 -0.59452,-2.060107 -0.58992,-0.755834 -1.60385,-0.755834 z m 0,-0.755833 q 1.44715,0 2.31359,0.972444 0.86644,0.967836 0.86644,2.59933 0,1.626885 -0.86644,2.599329 -0.86644,0.967836 -2.31359,0.967836 -1.45175,0 -2.3228,-0.967836 -0.86644,-0.967835 -0.86644,-2.599329 0,-1.631494 0.86644,-2.59933 0.87105,-0.972444 2.3228,-0.972444 z"
           inkscape:connector-curvature="0" />
        <path
           id="path4680"
           style="font-size:9.43869972px;font-family:Arial-BoldMT;fill:#444547;fill-opacity:1;stroke:none;stroke-opacity:1"
           d="m 111.20519,31.52025 0,2.520981 1.49323,0 q 0.75123,0 1.11071,-0.308785 0.36409,-0.313395 0.36409,-0.95401 0,-0.645223 -0.36409,-0.9494 -0.35948,-0.308786 -1.11071,-0.308786 l -1.49323,0 z m 0,-2.829766 0,2.073933 1.37802,0 q 0.68209,0 1.01392,-0.253481 0.33644,-0.258089 0.33644,-0.783486 0,-0.520787 -0.33644,-0.778877 -0.33183,-0.258089 -1.01392,-0.258089 l -1.37802,0 z m -0.93096,-0.765051 2.37811,0 q 1.06462,0 1.64071,0.442439 0.57609,0.442439 0.57609,1.258186 0,0.631398 -0.29496,1.004706 -0.29496,0.373307 -0.86644,0.465482 0.6867,0.14748 1.06462,0.617571 0.38252,0.465483 0.38252,1.166012 0,0.921748 -0.62679,1.4241 -0.62678,0.502353 -1.78358,0.502353 l -2.47028,0 0,-6.880849 z"
           inkscape:connector-curvature="0" />
        <path
           id="path4682"
           style="font-size:9.43869972px;font-family:Arial-BoldMT;fill:#444547;fill-opacity:1;stroke:none;stroke-opacity:1"
           d="m 119.04466,28.842572 -1.26279,3.424294 2.53019,0 -1.2674,-3.424294 z m -0.5254,-0.917139 1.05541,0 2.62237,6.880849 -0.96784,0 -0.62679,-1.765147 -3.10168,0 -0.62679,1.765147 -0.98166,0 2.62698,-6.880849 z"
           inkscape:connector-curvature="0" />
        <path
           id="path4684"
           style="font-size:9.43869972px;font-family:Arial-BoldMT;fill:#444547;fill-opacity:1;stroke:none;stroke-opacity:1"
           d="m 123.19714,27.925433 0.93096,0 0,2.820549 3.38282,0 0,-2.820549 0.93096,0 0,6.880849 -0.93096,0 0,-3.276814 -3.38282,0 0,3.276814 -0.93096,0 0,-6.880849 z"
           inkscape:connector-curvature="0" />
        <path
           id="path4686"
           style="font-size:9.43869972px;font-family:Arial-BoldMT;fill:#444547;fill-opacity:1;stroke:none;stroke-opacity:1"
           d="m 135.50247,27.925433 0,6.880849 -0.90331,0 0,-5.756316 -3.05099,5.756316 -1.25358,0 0,-6.880849 0.90332,0 0,5.756316 3.05098,-5.756316 1.25358,0 z"
           inkscape:connector-curvature="0" />
        <path
           id="path4688"
           style="font-size:9.43869972px;font-family:Arial-BoldMT;fill:#444547;fill-opacity:1;stroke:none;stroke-opacity:1"
           d="m 137.35518,27.925433 4.35065,0 0,0.783486 -3.41968,0 0,2.037063 3.27681,0 0,0.783486 -3.27681,0 0,2.493328 3.50264,0 0,0.783486 -4.43361,0 0,-6.880849 z"
           inkscape:connector-curvature="0" />
      </g>
    </g>
    <g
       transform="matrix(1.2072807,0,0,1.2072807,-424.52299,559.37433)"
       id="g4418">
      <g
         transform="matrix(0.63984646,0,0,0.72811701,376.59728,351.39329)"
         id="g4420"
         style="fill:#00a2ff;fill-opacity:1;stroke:none;stroke-opacity:1">
        <path
           style="fill:#00a2ff;fill-opacity:1;stroke:none;stroke-opacity:1"
           inkscape:connector-curvature="0"
           id="path4422"
           d="m 125.9,24.3 c -0.6,-2.5 -1.5,-4.4 -2.7,-5.7 -2,-2.2 -6.5,-2.2 -7.5,-2.5 -1,-0.3 -7.3,-1.1 -9,-1.1 -1.7,0 -10.6,1.6 -12.2,1.8 -1.4,0.3 -6.1,0.9 -6.8,7.5 0.1,0 38.2,0 38.2,0 z" />
        <path
           style="fill:#00a2ff;fill-opacity:1;stroke:none;stroke-opacity:1"
           inkscape:connector-curvature="0"
           id="path4424"
           d="m 89.4,37.9 c 2.3,6.2 7.2,12.6 17.4,18.2 0,0 12.6,-5 16.9,-18.2 0,0 -34.3,0 -34.3,0 z" />
      </g>
      <g
         id="g4426"
         transform="translate(624.317,-8.117749)"
         style="stroke:#00a2ff;stroke-opacity:0.94117647">
        <path
           style="fill:none;fill-opacity:1;stroke:#00a2ff;stroke-width:1.36511254;stroke-miterlimit:10;stroke-opacity:0.94117647"
           inkscape:connector-curvature="0"
           id="path4428"
           d="m -164.73166,377.20428 c -0.31993,-2.98528 -1.15173,-5.16963 -2.23947,-6.62586 -1.53563,-1.89311 -4.92681,-1.89311 -5.69463,-2.18435 -0.8318,-0.29125 -5.56666,-0.94655 -6.78237,-0.94655 -1.2797,0 -8.06207,1.31061 -9.27778,1.52904 -1.15172,0.21844 -5.31072,0.94655 -5.24674,7.93648 29.24099,0.29124 0,0 29.24099,0.29124 z"
           stroke-miterlimit="10"
           sodipodi:nodetypes="cccsccc" />
        <path
           style="fill:none;fill-opacity:1;stroke:#00a2ff;stroke-width:1.36511254;stroke-miterlimit:10;stroke-opacity:0.94117647"
           inkscape:connector-curvature="0"
           id="path4430"
           d="m -192.88491,387.10667 c 1.6636,5.53369 5.31073,11.21301 13.43678,16.1642 0,0 9.78965,-4.29589 12.86091,-15.65451 0.064,-0.14563 0.064,-0.29125 0.12797,-0.43687 l -26.42566,-0.0728 0,0 z"
           stroke-miterlimit="10" />
      </g>
      <g
         transform="matrix(0.63984646,0,0,0.72811701,376.59728,351.39329)"
         style="font-size:9.43869972px;font-family:Arial-BoldMT;fill:#00a2ff;fill-opacity:1;stroke:none;stroke-opacity:1"
         id="g4432">
        <path
           inkscape:connector-curvature="0"
           d="m 77.008341,28.455438 0,0.981662 q -0.470091,-0.43783 -1.004705,-0.654441 -0.530005,-0.216611 -1.129142,-0.216611 -1.179837,0 -1.806626,0.723572 -0.626788,0.718964 -0.626788,2.083151 0,1.359578 0.626788,2.08315 0.626789,0.718964 1.806626,0.718964 0.599137,0 1.129142,-0.216611 0.534614,-0.216611 1.004705,-0.654441 l 0,0.972444 q -0.488526,0.331829 -1.036966,0.497744 -0.543832,0.165915 -1.152186,0.165915 -1.562362,0 -2.461067,-0.95401 -0.898704,-0.958618 -0.898704,-2.613155 0,-1.659147 0.898704,-2.613156 0.898705,-0.958618 2.461067,-0.958618 0.617572,0 1.161403,0.165915 0.54844,0.161306 1.027749,0.488526 z"
           style="font-size:9.43869972px;font-family:Arial-BoldMT;fill:#00a2ff;fill-opacity:1;stroke:none;stroke-opacity:1"
           id="path4434" />
        <path
           inkscape:connector-curvature="0"
           d="m 77.501476,27.925433 5.820839,0 0,0.783486 -2.442632,0 0,6.097363 -0.935575,0 0,-6.097363 -2.442632,0 0,-0.783486 z"
           style="font-size:9.43869972px;font-family:Arial-BoldMT;fill:#00a2ff;fill-opacity:1;stroke:none;stroke-opacity:1"
           id="path4436" />
        <path
           inkscape:connector-curvature="0"
           d="m 85.156593,28.690484 0,2.585503 1.17062,0 q 0.649832,0 1.004705,-0.336438 0.354873,-0.336438 0.354873,-0.958618 0,-0.617571 -0.354873,-0.954009 -0.354873,-0.336438 -1.004705,-0.336438 l -1.17062,0 z m -0.930966,-0.765051 2.101586,0 q 1.156794,0 1.746712,0.525396 0.594528,0.520788 0.594528,1.530102 0,1.018532 -0.594528,1.539319 -0.589918,0.520788 -1.746712,0.520788 l -1.17062,0 0,2.765244 -0.930966,0 0,-6.880849 z"
           style="font-size:9.43869972px;font-family:Arial-BoldMT;fill:#00a2ff;fill-opacity:1;stroke:none;stroke-opacity:1"
           id="path4438" />
        <path
           inkscape:connector-curvature="0"
           d="m 92.221792,28.842572 -1.262795,3.424294 2.530199,0 -1.267404,-3.424294 z m -0.525396,-0.917139 1.055401,0 2.622373,6.880849 -0.967835,0 -0.626789,-1.765147 -3.101682,0 -0.626788,1.765147 -0.981662,0 2.626982,-6.880849 z"
           style="font-size:9.43869972px;font-family:Arial-BoldMT;fill:#00a2ff;fill-opacity:1;stroke:none;stroke-opacity:1"
           id="path4440" />
        <path
           inkscape:connector-curvature="0"
           d="m 96.042438,27.925433 1.000096,0 1.709843,2.557851 1.719063,-2.557851 1.00009,0 -2.212192,3.304467 2.359672,3.576382 -1.00009,0 -1.935674,-2.92655 -1.949497,2.92655 -1.004706,0 2.456459,-3.673166 -2.143064,-3.207683 z"
           style="font-size:9.43869972px;font-family:Arial-BoldMT;fill:#00a2ff;fill-opacity:1;stroke:none;stroke-opacity:1"
           id="path4442" />
        <path
           inkscape:connector-curvature="0"
           d="m 105.63783,28.55683 q -1.01392,0 -1.61305,0.755834 -0.59453,0.755833 -0.59453,2.060107 0,1.299664 0.59453,2.055498 0.59913,0.755833 1.61305,0.755833 1.01393,0 1.60385,-0.755833 0.59452,-0.755834 0.59452,-2.055498 0,-1.304274 -0.59452,-2.060107 -0.58992,-0.755834 -1.60385,-0.755834 z m 0,-0.755833 q 1.44715,0 2.31359,0.972444 0.86644,0.967836 0.86644,2.59933 0,1.626885 -0.86644,2.599329 -0.86644,0.967836 -2.31359,0.967836 -1.45175,0 -2.3228,-0.967836 -0.86644,-0.967835 -0.86644,-2.599329 0,-1.631494 0.86644,-2.59933 0.87105,-0.972444 2.3228,-0.972444 z"
           style="font-size:9.43869972px;font-family:Arial-BoldMT;fill:#00a2ff;fill-opacity:1;stroke:none;stroke-opacity:1"
           id="path4444" />
        <path
           inkscape:connector-curvature="0"
           d="m 111.20519,31.52025 0,2.520981 1.49323,0 q 0.75123,0 1.11071,-0.308785 0.36409,-0.313395 0.36409,-0.95401 0,-0.645223 -0.36409,-0.9494 -0.35948,-0.308786 -1.11071,-0.308786 l -1.49323,0 z m 0,-2.829766 0,2.073933 1.37802,0 q 0.68209,0 1.01392,-0.253481 0.33644,-0.258089 0.33644,-0.783486 0,-0.520787 -0.33644,-0.778877 -0.33183,-0.258089 -1.01392,-0.258089 l -1.37802,0 z m -0.93096,-0.765051 2.37811,0 q 1.06462,0 1.64071,0.442439 0.57609,0.442439 0.57609,1.258186 0,0.631398 -0.29496,1.004706 -0.29496,0.373307 -0.86644,0.465482 0.6867,0.14748 1.06462,0.617571 0.38252,0.465483 0.38252,1.166012 0,0.921748 -0.62679,1.4241 -0.62678,0.502353 -1.78358,0.502353 l -2.47028,0 0,-6.880849 z"
           style="font-size:9.43869972px;font-family:Arial-BoldMT;fill:#00a2ff;fill-opacity:1;stroke:none;stroke-opacity:1"
           id="path4446" />
        <path
           inkscape:connector-curvature="0"
           d="m 119.04466,28.842572 -1.26279,3.424294 2.53019,0 -1.2674,-3.424294 z m -0.5254,-0.917139 1.05541,0 2.62237,6.880849 -0.96784,0 -0.62679,-1.765147 -3.10168,0 -0.62679,1.765147 -0.98166,0 2.62698,-6.880849 z"
           style="font-size:9.43869972px;font-family:Arial-BoldMT;fill:#00a2ff;fill-opacity:1;stroke:none;stroke-opacity:1"
           id="path4448" />
        <path
           inkscape:connector-curvature="0"
           d="m 123.19714,27.925433 0.93096,0 0,2.820549 3.38282,0 0,-2.820549 0.93096,0 0,6.880849 -0.93096,0 0,-3.276814 -3.38282,0 0,3.276814 -0.93096,0 0,-6.880849 z"
           style="font-size:9.43869972px;font-family:Arial-BoldMT;fill:#00a2ff;fill-opacity:1;stroke:none;stroke-opacity:1"
           id="path4450" />
        <path
           inkscape:connector-curvature="0"
           d="m 135.50247,27.925433 0,6.880849 -0.90331,0 0,-5.756316 -3.05099,5.756316 -1.25358,0 0,-6.880849 0.90332,0 0,5.756316 3.05098,-5.756316 1.25358,0 z"
           style="font-size:9.43869972px;font-family:Arial-BoldMT;fill:#00a2ff;fill-opacity:1;stroke:none;stroke-opacity:1"
           id="path4452" />
        <path
           inkscape:connector-curvature="0"
           d="m 137.35518,27.925433 4.35065,0 0,0.783486 -3.41968,0 0,2.037063 3.27681,0 0,0.783486 -3.27681,0 0,2.493328 3.50264,0 0,0.783486 -4.43361,0 0,-6.880849 z"
           style="font-size:9.43869972px;font-family:Arial-BoldMT;fill:#00a2ff;fill-opacity:1;stroke:none;stroke-opacity:1"
           id="path4454" />
      </g>
    </g>
  </g>
</svg>
