<?xml version="1.0" encoding="UTF-8" standalone="no"?>
<!-- Created with Inkscape (http://www.inkscape.org/) -->

<svg
   xmlns:dc="http://purl.org/dc/elements/1.1/"
   xmlns:cc="http://creativecommons.org/ns#"
   xmlns:rdf="http://www.w3.org/1999/02/22-rdf-syntax-ns#"
   xmlns:svg="http://www.w3.org/2000/svg"
   xmlns="http://www.w3.org/2000/svg"
   xmlns:sodipodi="http://sodipodi.sourceforge.net/DTD/sodipodi-0.dtd"
   xmlns:inkscape="http://www.inkscape.org/namespaces/inkscape"
   width="150"
   height="75"
   viewBox="0 0 150.00001 75.000004"
   id="svg3807"
   version="1.1"
   inkscape:version="0.91 r13725"
   sodipodi:docname="parking.svg">
  <defs
     id="defs3809" />
  <sodipodi:namedview
     id="base"
     pagecolor="#ffffff"
     bordercolor="#666666"
     borderopacity="1.0"
     inkscape:pageopacity="0.0"
     inkscape:pageshadow="2"
     inkscape:zoom="5.6568543"
     inkscape:cx="46.179674"
     inkscape:cy="28.302893"
     inkscape:document-units="px"
     inkscape:current-layer="layer1"
     showgrid="false"
     units="px"
     inkscape:snap-bbox="true"
     inkscape:bbox-paths="true"
     inkscape:snap-bbox-edge-midpoints="true"
     inkscape:bbox-nodes="true"
     inkscape:snap-bbox-midpoints="true"
     inkscape:object-paths="true"
     inkscape:snap-intersection-paths="true"
     inkscape:object-nodes="true"
     inkscape:snap-smooth-nodes="true"
     showguides="true"
     inkscape:guide-bbox="true"
     inkscape:window-width="1280"
     inkscape:window-height="947"
     inkscape:window-x="0"
     inkscape:window-y="24"
     inkscape:window-maximized="1">
    <sodipodi:guide
       position="75.000004,74.999991"
       orientation="1,0"
       id="guide3817" />
    <sodipodi:guide
       position="150.00001,37.49999"
       orientation="0,1"
       id="guide3819" />
    <sodipodi:guide
       position="37.500002,74.999991"
       orientation="1,0"
       id="guide3825" />
    <sodipodi:guide
       position="112.50001,74.999991"
       orientation="1,0"
       id="guide3829" />
  </sodipodi:namedview>
  <metadata
     id="metadata3812">
    <rdf:RDF>
      <cc:Work
         rdf:about="">
        <dc:format>image/svg+xml</dc:format>
        <dc:type
           rdf:resource="http://purl.org/dc/dcmitype/StillImage" />
        <dc:title></dc:title>
      </cc:Work>
    </rdf:RDF>
  </metadata>
  <g
     inkscape:label="Layer 1"
     inkscape:groupmode="layer"
     id="layer1"
     transform="translate(0,-977.36217)">
    <path
       style="fill:#444547;fill-opacity:1;stroke:none;stroke-opacity:1"
       inkscape:connector-curvature="0"
       id="path5315"
       d="m 44.636105,992.36217 -15.461702,0 -10.424401,0 0,45.00003 10.424401,0 0,-17.1519 15.461702,0 c 6.366601,0 11.613901,-4.7469 11.613901,-10.5064 l 0,-6.8354 c 0,-5.7595 -5.1073,-10.50633 -11.613901,-10.50633 z m 1.2594,15.75953 c 0,2.4683 -2.1689,4.4936 -4.9674,4.4936 l -11.753702,0 0,-12.84807 11.753702,0 c 2.7286,0 4.9674,1.96207 4.9674,4.49367 l 0,3.8608 z" />
    <path
       d="m 119.63612,992.36217 -15.46171,0 -10.424399,0 0,45.00003 10.424399,0 0,-17.1519 15.46171,0 c 6.3666,0 11.6139,-4.7469 11.6139,-10.5064 l 0,-6.8354 c 0,-5.7595 -5.1073,-10.50633 -11.6139,-10.50633 z m 1.2594,15.75953 c 0,2.4683 -2.16891,4.4936 -4.96741,4.4936 l -11.7537,0 0,-12.84807 11.7537,0 c 2.7286,0 4.96741,1.96207 4.96741,4.49367 l 0,3.8608 z"
       id="path4460"
       inkscape:connector-curvature="0"
       style="fill:#00a2ff;fill-opacity:1;stroke:none;stroke-opacity:1" />
  </g>
</svg>
