<?xml version="1.0" encoding="UTF-8" standalone="no"?>
<!-- Created with Inkscape (http://www.inkscape.org/) -->

<svg
   xmlns:dc="http://purl.org/dc/elements/1.1/"
   xmlns:cc="http://creativecommons.org/ns#"
   xmlns:rdf="http://www.w3.org/1999/02/22-rdf-syntax-ns#"
   xmlns:svg="http://www.w3.org/2000/svg"
   xmlns="http://www.w3.org/2000/svg"
   xmlns:sodipodi="http://sodipodi.sourceforge.net/DTD/sodipodi-0.dtd"
   xmlns:inkscape="http://www.inkscape.org/namespaces/inkscape"
   width="150"
   height="75"
   viewBox="0 0 150.00001 75.000004"
   id="svg3807"
   version="1.1"
   inkscape:version="0.91 r13725"
   sodipodi:docname="refill.svg">
  <defs
     id="defs3809" />
  <sodipodi:namedview
     id="base"
     pagecolor="#ffffff"
     bordercolor="#666666"
     borderopacity="1.0"
     inkscape:pageopacity="0.0"
     inkscape:pageshadow="2"
     inkscape:zoom="4"
     inkscape:cx="67.239487"
     inkscape:cy="30.37832"
     inkscape:document-units="px"
     inkscape:current-layer="layer1"
     showgrid="false"
     units="px"
     inkscape:snap-bbox="true"
     inkscape:bbox-paths="true"
     inkscape:snap-bbox-edge-midpoints="true"
     inkscape:bbox-nodes="true"
     inkscape:snap-bbox-midpoints="true"
     inkscape:object-paths="true"
     inkscape:snap-intersection-paths="true"
     inkscape:object-nodes="true"
     inkscape:snap-smooth-nodes="true"
     showguides="true"
     inkscape:guide-bbox="true"
     inkscape:window-width="1280"
     inkscape:window-height="947"
     inkscape:window-x="0"
     inkscape:window-y="24"
     inkscape:window-maximized="1">
    <sodipodi:guide
       position="75.000004,74.999991"
       orientation="1,0"
       id="guide3817" />
    <sodipodi:guide
       position="150.00001,37.49999"
       orientation="0,1"
       id="guide3819" />
    <sodipodi:guide
       position="37.500002,74.999991"
       orientation="1,0"
       id="guide3825" />
    <sodipodi:guide
       position="112.50001,74.999991"
       orientation="1,0"
       id="guide3829" />
  </sodipodi:namedview>
  <metadata
     id="metadata3812">
    <rdf:RDF>
      <cc:Work
         rdf:about="">
        <dc:format>image/svg+xml</dc:format>
        <dc:type
           rdf:resource="http://purl.org/dc/dcmitype/StillImage" />
        <dc:title></dc:title>
      </cc:Work>
    </rdf:RDF>
  </metadata>
  <g
     inkscape:label="Layer 1"
     inkscape:groupmode="layer"
     id="layer1"
     transform="translate(0,-977.36217)">
    <g
       transform="matrix(0.63286033,0,0,0.64766754,14.877066,991.84405)"
       id="g5289"
       style="fill:#444547;fill-opacity:1;stroke:none;stroke-opacity:1">
      <g
         id="g5291"
         style="fill:#444547;fill-opacity:1;stroke:none;stroke-opacity:1">
        <path
           style="fill:#444547;fill-opacity:1;stroke:none;stroke-opacity:1"
           inkscape:connector-curvature="0"
           id="path5293"
           d="m 71.3,65.2 -36.5,0 c 0,-0.4 0,-0.7 0,-1.1 0,-9.9 0,-19.7 0,-29.5 0,-1.1 -0.1,-1.2 -1.2,-1 -1.7,0.2 -1.9,0.6 -1.9,2.2 0,7.1 -0.1,13.6 -0.1,20.7 l 0,0.1 c 0,4.1 -1.8,7.9 -5.1,10.4 -1.6,1.3 -3.8,2.5 -6.7,3 C 13.9,71.1 8.4,68.7 6.5,67.3 2.7,64.3 0.4,60.5 0.2,55.5 c -0.1,-4 1.1,-7.5 4,-10.3 6.2,-6 12.3,-12 18.6,-18 1.6,-1.6 2.4,-3.1 2.3,-5.4 -0.2,-3.1 0,-6.3 0,-9.4 0,-1.3 0.3,-2.5 1.7,-3 C 27.1,9 27.5,9 27.9,9 c 1.9,0 4,-0.1 5.9,0 0.8,0 1,-0.3 1,-1.1 -0.1,-1.4 0,-2.8 0,-4.2 0,-1.8 1.1,-2.9 2.9,-2.9 10.2,0 20.5,0 30.7,0 1.8,0 2.9,1.3 2.9,3.1 0,15.1 0,30.4 0,45.5 0,4.9 0,9.8 0,14.7 0,0.3 0,0.7 0,1.1 z m -36.5,-35 c 0,-5.6 0,-11.3 0,-16.9 0,-0.2 -0.4,-0.6 -0.6,-0.6 -1.7,0 -3.3,0 -4.9,0 -0.6,0 -0.9,0.3 -1,0.9 0,0.4 0,0.7 0,1.1 0,3.2 0,6.4 -0.1,9.6 0,1.9 -1,3.5 -2.3,4.9 -1.7,1.6 -3.3,3 -5,4.6 -4.8,4.6 -9.7,9.1 -14.3,13.9 -2.3,2.6 -3.3,5.7 -2.6,9.3 0.5,2.5 1.7,4.5 3.4,6.3 2.8,2.7 6.1,4.1 10,3.8 3.6,-0.3 6.4,-1.8 8.7,-4.3 1.2,-1.2 2.1,-3.7 2.1,-5.4 0,-7.3 0,-14.7 0,-22 0,-0.7 0.1,-1.6 0.2,-2.3 0.2,-0.9 1.6,-2.3 2.5,-2.4 1.1,-0.3 2.4,-0.4 3.9,-0.5 z m 17.8,-2.7 c 3.4,0 6.8,0 10.2,0 1.4,0 1.9,-0.5 1.9,-1.8 0,-5.3 0,-10.4 0,-15.7 0,-1.3 -0.5,-1.8 -1.8,-1.8 -6.9,0 -13.8,0 -20.8,0 -1.3,0 -1.8,0.5 -1.8,1.8 0,5.3 0,10.4 0,15.7 0,1.4 0.5,1.8 1.8,1.8 3.7,0.1 7.1,0 10.5,0 z" />
      </g>
    </g>
    <path
       d="m 135.00003,1034.0717 -23.09941,0 c 0,-0.2591 0,-0.4534 0,-0.7125 0,-6.4119 0,-12.759 0,-19.1061 0,-0.7125 -0.0633,-0.7772 -0.75943,-0.6477 -1.07586,0.1295 -1.20243,0.3886 -1.20243,1.4248 0,4.5985 -0.0633,8.8083 -0.0633,13.4068 l 0,0.065 c 0,2.6555 -1.13915,5.1166 -3.22759,6.7358 -1.01257,0.8419 -2.40487,1.6191 -4.24016,1.943 -3.733885,0.7124 -7.214615,-0.842 -8.417045,-1.7487 -2.40487,-1.943 -3.86045,-4.4042 -3.98702,-7.6425 -0.0633,-2.5907 0.69614,-4.8575 2.53144,-6.671 3.92373,-3.886 7.784185,-7.772 11.771205,-11.658 1.01258,-1.0362 1.51886,-2.0077 1.45558,-3.4974 -0.12657,-2.0077 0,-4.0803 0,-6.08799 0,-0.842 0.18986,-1.6192 1.07586,-1.943 0.18986,-0.2591 0.443,-0.2591 0.69615,-0.2591 1.20243,0 2.53144,-0.065 3.73387,0 0.50629,0 0.63286,-0.1943 0.63286,-0.7124 -0.0633,-0.9068 0,-1.8135 0,-2.7202 1e-5,-1.1659 0.69616,-1.8783 1.83531,-1.8783 6.45518,0 12.97364,0 19.42882,0 1.13914,0 1.83529,0.842 1.83529,2.0078 0,9.77979 0,19.68909 0,29.46879 0,3.1736 0,6.3472 0,9.5207 0,0.1943 0,0.4534 0,0.7125 z m -23.09941,-22.6684 c 0,-3.6269 0,-7.3186 0,-10.9455 0,-0.1296 -0.25314,-0.3886 -0.37971,-0.3886 -1.07587,0 -2.08844,0 -3.10102,0 -0.37972,0 -0.56957,0.1943 -0.63286,0.5829 0,0.259 0,0.4533 0,0.7124 0,2.0725 0,4.1451 -0.0633,6.2176 0,1.2306 -0.63286,2.2668 -1.45557,3.1736 -1.07587,1.0362 -2.08844,1.943 -3.16431,2.9792 -3.03772,2.9793 -6.138745,5.8938 -9.049905,9.0026 -1.45558,1.6839 -2.08844,3.6917 -1.64543,6.0233 0.31643,1.6192 1.07586,2.9145 2.15172,4.0803 1.77201,1.7487 3.86045,2.6554 6.328605,2.4611 2.2783,-0.1943 4.05031,-1.1658 5.50589,-2.7849 0.75943,-0.7772 1.329,-2.3964 1.329,-3.4974 0,-4.728 0,-9.5208 0,-14.2487 0,-0.4534 0.0633,-1.0363 0.12658,-1.4896 0.12657,-0.5829 1.01257,-1.4897 1.58215,-1.5544 0.69614,-0.1943 1.51886,-0.2591 2.46815,-0.3239 z m 11.26492,-1.7487 c 2.15173,0 4.30345,0 6.45518,0 0.886,0 1.20243,-0.3238 1.20243,-1.1658 0,-3.4326 0,-6.7357 0,-10.16829 0,-0.842 -0.31643,-1.1658 -1.13915,-1.1658 -4.36673,0 -8.73347,0 -13.16349,0 -0.82273,0 -1.13916,0.3238 -1.13916,1.1658 0,3.43259 0,6.73569 0,10.16829 0,0.9068 0.31643,1.1658 1.13916,1.1658 2.34158,0.065 4.49331,0 6.64503,0 z"
       id="path4396"
       inkscape:connector-curvature="0"
       style="fill:#00a2ff;fill-opacity:1;stroke:none;stroke-opacity:1" />
  </g>
</svg>
