<?xml version="1.0" encoding="UTF-8" standalone="no"?>
<!-- Created with Inkscape (http://www.inkscape.org/) -->

<svg
   xmlns:dc="http://purl.org/dc/elements/1.1/"
   xmlns:cc="http://creativecommons.org/ns#"
   xmlns:rdf="http://www.w3.org/1999/02/22-rdf-syntax-ns#"
   xmlns:svg="http://www.w3.org/2000/svg"
   xmlns="http://www.w3.org/2000/svg"
   xmlns:sodipodi="http://sodipodi.sourceforge.net/DTD/sodipodi-0.dtd"
   xmlns:inkscape="http://www.inkscape.org/namespaces/inkscape"
   width="150"
   height="75"
   viewBox="0 0 150.00001 75.000004"
   id="svg3807"
   version="1.1"
   inkscape:version="0.91 r13725"
   sodipodi:docname="hundred.svg">
  <defs
     id="defs3809" />
  <sodipodi:namedview
     id="base"
     pagecolor="#ffffff"
     bordercolor="#666666"
     borderopacity="1.0"
     inkscape:pageopacity="0.0"
     inkscape:pageshadow="2"
     inkscape:zoom="5.6568543"
     inkscape:cx="72.254236"
     inkscape:cy="28.302893"
     inkscape:document-units="px"
     inkscape:current-layer="layer1"
     showgrid="false"
     units="px"
     inkscape:snap-bbox="true"
     inkscape:bbox-paths="true"
     inkscape:snap-bbox-edge-midpoints="true"
     inkscape:bbox-nodes="true"
     inkscape:snap-bbox-midpoints="true"
     inkscape:object-paths="true"
     inkscape:snap-intersection-paths="true"
     inkscape:object-nodes="true"
     inkscape:snap-smooth-nodes="true"
     showguides="true"
     inkscape:guide-bbox="true"
     inkscape:window-width="1280"
     inkscape:window-height="947"
     inkscape:window-x="0"
     inkscape:window-y="24"
     inkscape:window-maximized="1">
    <sodipodi:guide
       position="75.000004,74.999991"
       orientation="1,0"
       id="guide3817" />
    <sodipodi:guide
       position="150.00001,37.49999"
       orientation="0,1"
       id="guide3819" />
    <sodipodi:guide
       position="37.500002,74.999991"
       orientation="1,0"
       id="guide3825" />
    <sodipodi:guide
       position="112.50001,74.999991"
       orientation="1,0"
       id="guide3829" />
  </sodipodi:namedview>
  <metadata
     id="metadata3812">
    <rdf:RDF>
      <cc:Work
         rdf:about="">
        <dc:format>image/svg+xml</dc:format>
        <dc:type
           rdf:resource="http://purl.org/dc/dcmitype/StillImage" />
        <dc:title></dc:title>
      </cc:Work>
    </rdf:RDF>
  </metadata>
  <g
     inkscape:label="Layer 1"
     inkscape:groupmode="layer"
     id="layer1"
     transform="translate(0,-977.36217)">
    <g
       transform="matrix(0.75000009,0,0,0.63319305,-96.071936,992.48882)"
       id="g5311"
       style="fill:#444547;fill-opacity:1;stroke:none;stroke-opacity:1">
      <path
         style="fill:#444547;fill-opacity:1;stroke:none;stroke-opacity:1"
         inkscape:connector-curvature="0"
         id="path5313"
         d="m 173.9,47.6 c 0,-5.2 0,-10.4 0,-15.6 0,-2.3 0.7,-4.3 1.6,-6.4 1,-2.4 0.6,-5.5 -2.3,-6.5 -0.9,-0.3 -1.9,-0.5 -2.9,-0.5 -1.6,0 -3,0 -4.6,0 -0.5,0 -0.8,-0.1 -1.1,-0.5 -0.7,-0.7 -1.5,-1.5 -2.1,-2.3 -0.2,-0.2 -0.4,-0.4 -0.5,-0.6 -0.3,-1.2 0,-1.5 1.2,-1.5 4.5,0 9,0 13.6,0 0.8,0 1,-0.3 1.1,-1.1 0,-0.7 0,-1.6 0,-2.3 0,-0.8 -0.2,-1 -1,-1 -4.4,0 -9,0 -13.4,0 -1.7,0 -1.7,0 -1.4,-1.7 0.2,-1.1 0.7,-1.7 1.7,-2.1 3.4,-1.7 6.7,-3.5 10.2,-5.3 0.5,-0.3 0.9,-0.4 1.5,-0.4 5.9,0 11.8,0 17.7,0 0.8,0 1.1,0.2 1.1,1.1 -0.1,2.5 -0.1,5 0,7.5 0,0.7 -0.3,0.9 -0.9,0.9 -2.4,0 -4.7,0 -7.1,0 -0.8,0 -0.9,0.3 -1,1 0,0.8 0,1.7 0,2.6 0,0.6 0.2,0.8 0.8,0.8 2.3,0 4.5,0 6.8,0 0.8,0 1,0.3 0.9,1 -0.1,1.1 -0.1,2.1 0,3.2 0,0.6 -0.2,0.8 -0.8,0.8 -1.4,-0.1 -2.8,0 -4.1,0.6 -1.4,0.6 -2.1,1.7 -2.1,3.2 -0.1,1.7 0.1,3.1 1,4.6 0.7,1.1 0.7,2.5 0.7,3.9 0,10.9 0,21.9 0,32.8 0,3.8 -2.6,6.6 -6.5,7 -3.3,0.5 -6.8,-1.8 -7.7,-5 -0.4,-0.5 -0.4,-12.8 -0.4,-18.2 z" />
    </g>
    <g
       style="fill:#00a2ff;fill-opacity:1;stroke:none;stroke-opacity:1"
       id="g4456"
       transform="matrix(0.75000009,0,0,0.63319305,-21.071924,992.48882)">
      <path
         d="m 173.9,47.6 c 0,-5.2 0,-10.4 0,-15.6 0,-2.3 0.7,-4.3 1.6,-6.4 1,-2.4 0.6,-5.5 -2.3,-6.5 -0.9,-0.3 -1.9,-0.5 -2.9,-0.5 -1.6,0 -3,0 -4.6,0 -0.5,0 -0.8,-0.1 -1.1,-0.5 -0.7,-0.7 -1.5,-1.5 -2.1,-2.3 -0.2,-0.2 -0.4,-0.4 -0.5,-0.6 -0.3,-1.2 0,-1.5 1.2,-1.5 4.5,0 9,0 13.6,0 0.8,0 1,-0.3 1.1,-1.1 0,-0.7 0,-1.6 0,-2.3 0,-0.8 -0.2,-1 -1,-1 -4.4,0 -9,0 -13.4,0 -1.7,0 -1.7,0 -1.4,-1.7 0.2,-1.1 0.7,-1.7 1.7,-2.1 3.4,-1.7 6.7,-3.5 10.2,-5.3 0.5,-0.3 0.9,-0.4 1.5,-0.4 5.9,0 11.8,0 17.7,0 0.8,0 1.1,0.2 1.1,1.1 -0.1,2.5 -0.1,5 0,7.5 0,0.7 -0.3,0.9 -0.9,0.9 -2.4,0 -4.7,0 -7.1,0 -0.8,0 -0.9,0.3 -1,1 0,0.8 0,1.7 0,2.6 0,0.6 0.2,0.8 0.8,0.8 2.3,0 4.5,0 6.8,0 0.8,0 1,0.3 0.9,1 -0.1,1.1 -0.1,2.1 0,3.2 0,0.6 -0.2,0.8 -0.8,0.8 -1.4,-0.1 -2.8,0 -4.1,0.6 -1.4,0.6 -2.1,1.7 -2.1,3.2 -0.1,1.7 0.1,3.1 1,4.6 0.7,1.1 0.7,2.5 0.7,3.9 0,10.9 0,21.9 0,32.8 0,3.8 -2.6,6.6 -6.5,7 -3.3,0.5 -6.8,-1.8 -7.7,-5 -0.4,-0.5 -0.4,-12.8 -0.4,-18.2 z"
         id="path4458"
         inkscape:connector-curvature="0"
         style="fill:#00a2ff;fill-opacity:1;stroke:none;stroke-opacity:1" />
    </g>
  </g>
</svg>
