<?xml version="1.0" encoding="UTF-8" standalone="no"?>
<!-- Created with Inkscape (http://www.inkscape.org/) -->

<svg
   xmlns:dc="http://purl.org/dc/elements/1.1/"
   xmlns:cc="http://creativecommons.org/ns#"
   xmlns:rdf="http://www.w3.org/1999/02/22-rdf-syntax-ns#"
   xmlns:svg="http://www.w3.org/2000/svg"
   xmlns="http://www.w3.org/2000/svg"
   xmlns:sodipodi="http://sodipodi.sourceforge.net/DTD/sodipodi-0.dtd"
   xmlns:inkscape="http://www.inkscape.org/namespaces/inkscape"
   width="150"
   height="75"
   viewBox="0 0 150.00001 75.000004"
   id="svg3807"
   version="1.1"
   inkscape:version="0.91 r13725"
   sodipodi:docname="tires_for_sale.svg">
  <defs
     id="defs3809" />
  <sodipodi:namedview
     id="base"
     pagecolor="#ffffff"
     bordercolor="#666666"
     borderopacity="1.0"
     inkscape:pageopacity="0.0"
     inkscape:pageshadow="2"
     inkscape:zoom="5.6568543"
     inkscape:cx="72.254236"
     inkscape:cy="28.302893"
     inkscape:document-units="px"
     inkscape:current-layer="layer1"
     showgrid="false"
     units="px"
     inkscape:snap-bbox="true"
     inkscape:bbox-paths="true"
     inkscape:snap-bbox-edge-midpoints="true"
     inkscape:bbox-nodes="true"
     inkscape:snap-bbox-midpoints="true"
     inkscape:object-paths="true"
     inkscape:snap-intersection-paths="true"
     inkscape:object-nodes="true"
     inkscape:snap-smooth-nodes="true"
     showguides="true"
     inkscape:guide-bbox="true"
     inkscape:window-width="1280"
     inkscape:window-height="947"
     inkscape:window-x="0"
     inkscape:window-y="24"
     inkscape:window-maximized="1">
    <sodipodi:guide
       position="75.000004,74.999991"
       orientation="1,0"
       id="guide3817" />
    <sodipodi:guide
       position="150.00001,37.49999"
       orientation="0,1"
       id="guide3819" />
    <sodipodi:guide
       position="37.500002,74.999991"
       orientation="1,0"
       id="guide3825" />
    <sodipodi:guide
       position="112.50001,74.999991"
       orientation="1,0"
       id="guide3829" />
  </sodipodi:namedview>
  <metadata
     id="metadata3812">
    <rdf:RDF>
      <cc:Work
         rdf:about="">
        <dc:format>image/svg+xml</dc:format>
        <dc:type
           rdf:resource="http://purl.org/dc/dcmitype/StillImage" />
        <dc:title></dc:title>
      </cc:Work>
    </rdf:RDF>
  </metadata>
  <g
     inkscape:label="Layer 1"
     inkscape:groupmode="layer"
     id="layer1"
     transform="translate(0,-977.36217)">
    <g
       transform="matrix(0.67975839,0,0,0.6338029,13.232629,902.23541)"
       id="g5425"
       style="fill:#444547;fill-opacity:1;stroke:none;stroke-opacity:1">
      <g
         id="g5427"
         style="fill:#444547;fill-opacity:1;stroke:none;stroke-opacity:1">
        <path
           style="fill:#444547;fill-opacity:1;stroke:none;stroke-opacity:1"
           inkscape:connector-curvature="0"
           id="path5429"
           d="m 27.4,212.8 c -1.5,0.2 -2.5,-0.2 -3.5,-0.8 -2.9,-2.1 -5.1,-4.7 -6.6,-7.7 -1,-2 -1.8,-4.2 -2.7,-6.3 -0.5,-1.3 -0.6,-2.8 -0.9,-4.2 -1.1,-4.7 -0.9,-9.5 -0.6,-14.2 0.1,-2.1 0.6,-4.2 1,-6.4 0.4,-1.6 0.7,-3.2 1.3,-4.8 0.9,-2.7 2,-5.3 3.6,-7.7 1.4,-2.1 3.1,-4.1 5.2,-5.8 0.9,-0.7 1.9,-1 3.2,-0.8 -0.7,0.7 -1.5,1.5 -2.2,2.2 -2.3,2.3 -4.1,5 -5.3,7.8 -0.8,1.9 -1.6,4 -2.2,5.9 -0.5,1.4 -0.6,2.8 -0.8,4.2 -0.4,2.5 -0.8,5 -1,7.5 -0.2,2.2 0.1,4.3 0.2,6.6 0,0.2 0,0.4 0,0.5 0.1,2.5 0.5,4.9 1.2,7.3 0.5,1.6 0.7,3.1 1.3,4.6 1.6,4.4 4.2,8.3 8.1,11.4 0.2,0.3 0.4,0.5 0.7,0.7 z" />
        <path
           style="fill:#444547;fill-opacity:1;stroke:none;stroke-opacity:1"
           inkscape:connector-curvature="0"
           id="path5431"
           d="m 26.7,176.6 c -0.2,1.5 -0.3,3 -0.6,4.4 0,0.2 -0.4,0.4 -0.6,0.5 -3.2,0.3 -5.7,1.6 -7.6,3.8 -0.1,0.1 -0.4,0.2 -0.8,0.5 0.1,-1.7 -0.1,-3.2 0.5,-4.6 0.7,-1.9 2.8,-3 4.9,-3.9 1.2,-0.5 2.6,-0.6 3.9,-0.9 0.1,0 0.2,0.1 0.3,0.2 z" />
        <path
           style="fill:#444547;fill-opacity:1;stroke:none;stroke-opacity:1"
           inkscape:connector-curvature="0"
           id="path5433"
           d="m 26.5,188.9 c 0.2,1.8 0.4,3.3 0.6,4.9 -3.1,0.6 -5.8,1.8 -7.1,4.6 -0.3,-0.3 -0.6,-0.5 -0.6,-0.6 -0.3,-0.9 -0.6,-1.8 -0.7,-2.7 -0.2,-0.9 -0.1,-1.8 0.6,-2.5 1.5,-1.8 3.2,-3.1 5.8,-3.4 0.4,-0.1 0.8,-0.2 1.4,-0.3 z" />
        <path
           style="fill:#444547;fill-opacity:1;stroke:none;stroke-opacity:1"
           inkscape:connector-curvature="0"
           id="path5435"
           d="m 27.9,170.3 c -0.3,1.6 -0.6,3.1 -0.9,4.8 -3.6,0.3 -6.7,1.4 -9,4.1 -0.1,0 -0.2,-0.1 -0.3,-0.1 0.1,-1 0.1,-2 0.3,-3 0.6,-3.1 3.3,-4.3 6.4,-5.4 1.1,-0.4 2.2,-0.6 3.3,-0.7 0,0.1 0.1,0.2 0.2,0.3 z" />
        <path
           style="fill:#444547;fill-opacity:1;stroke:none;stroke-opacity:1"
           inkscape:connector-curvature="0"
           id="path5437"
           d="m 26.1,182.5 c 0,1.8 0,3.3 0,5 -3.3,0.5 -6,1.8 -7.8,4.4 -0.7,-1.6 -0.7,-3 -0.6,-4.5 0.2,-1.3 1.4,-2.1 2.6,-3 1.4,-0.9 2.9,-1.6 4.7,-1.8 0.3,0.2 0.7,0.1 1.1,-0.1 z" />
        <path
           style="fill:#444547;fill-opacity:1;stroke:none;stroke-opacity:1"
           inkscape:connector-curvature="0"
           id="path5439"
           d="m 19,172.6 c -1.2,-4.8 6.2,-9 11.1,-8.3 -0.5,1.2 -0.9,2.3 -1.3,3.5 -0.4,1.2 -1.4,1.3 -2.6,1.5 -1.9,0.2 -3.6,0.8 -5.1,1.8 -0.6,0.4 -1.3,1 -2.1,1.5 z" />
        <path
           style="fill:#444547;fill-opacity:1;stroke:none;stroke-opacity:1"
           inkscape:connector-curvature="0"
           id="path5441"
           d="m 28.4,200.1 c -2.9,0.8 -5.2,1.8 -5.8,4.9 -0.4,-0.5 -0.6,-0.8 -0.8,-1.1 -0.5,-0.9 -1.1,-1.9 -1.3,-3 -0.5,-1.9 0.9,-3.2 2.5,-4.3 0.8,-0.6 1.9,-0.9 3,-1.4 0.8,-0.4 1.3,-0.1 1.5,0.7 0.2,1.5 0.6,2.8 0.9,4.2 z" />
        <path
           style="fill:#444547;fill-opacity:1;stroke:none;stroke-opacity:1"
           inkscape:connector-curvature="0"
           id="path5443"
           d="m 11.8,191.7 c -2.4,-2.4 -5.2,-4.1 -9,-4.5 -0.1,-1.3 -0.2,-2.5 -0.2,-3.8 0,-1.1 0.1,-1.1 1.3,-0.9 2.3,0.3 4.2,1.3 5.6,2.8 1.1,1 1.9,2.1 1.8,3.7 0,0.7 0.2,1.4 0.4,2.1 0.2,0.1 0.2,0.3 0.1,0.6 z" />
        <path
           style="fill:#444547;fill-opacity:1;stroke:none;stroke-opacity:1"
           inkscape:connector-curvature="0"
           id="path5445"
           d="m 4,194.9 c 5.1,-0.2 11.5,4.9 11.7,9.2 -1.3,-0.8 -2.5,-1.6 -3.8,-2.3 -1.6,-0.9 -3.2,-1.7 -5.2,-1.9 -0.8,-0.1 -1.4,-0.5 -1.6,-1.3 -0.2,-1.2 -0.7,-2.4 -1.1,-3.7 z" />
        <path
           style="fill:#444547;fill-opacity:1;stroke:none;stroke-opacity:1"
           inkscape:connector-curvature="0"
           id="path5447"
           d="m 20.9,166.3 c 0.4,-4.8 7.2,-8.5 13.3,-8.4 -0.6,0.8 -1.1,1.5 -1.6,2.2 -0.5,0.6 -0.9,1.3 -1.3,2 -0.3,0.5 -0.6,0.7 -1.2,0.7 -3,0 -5.4,1.1 -7.7,2.5 -0.5,0.3 -1,0.6 -1.5,1 z" />
        <path
           style="fill:#444547;fill-opacity:1;stroke:none;stroke-opacity:1"
           inkscape:connector-curvature="0"
           id="path5449"
           d="m 11.2,185.3 c -1.8,-2 -3.8,-3.2 -6.3,-4.1 -0.1,0 -0.3,0 -0.4,-0.1 -1.5,-0.2 -1.6,-0.2 -1.5,-1.6 0.1,-1 0.3,-2 0.4,-3 0.1,-0.6 0.6,-0.5 0.9,-0.5 2.6,0.3 4.5,1.4 6,3.2 1.5,2 1.3,3.9 0.9,6.1 z" />
        <path
           style="fill:#444547;fill-opacity:1;stroke:none;stroke-opacity:1"
           inkscape:connector-curvature="0"
           id="path5451"
           d="m 13.4,197.6 c -1.8,-1 -3.5,-2.2 -5.4,-3.1 -0.9,-0.5 -2.1,-0.6 -3.1,-0.9 -0.5,-0.2 -1.1,-0.5 -1.1,-0.8 -0.3,-1.4 -0.4,-2.7 -0.6,-4.1 4.8,-0.1 10,3.9 10.2,8.9 z" />
        <path
           style="fill:#444547;fill-opacity:1;stroke:none;stroke-opacity:1"
           inkscape:connector-curvature="0"
           id="path5453"
           d="m 31.2,206.4 c -0.5,0.3 -1,0.6 -1.6,0.8 -1.2,0.6 -1.8,1.9 -1.9,2.8 -0.1,0.3 -0.1,0.8 -0.2,1.1 -0.3,-0.2 -0.7,-0.5 -0.9,-0.7 -0.8,-0.9 -1.7,-1.8 -2.5,-2.8 -1,-1.2 -0.6,-2.3 0.1,-3.4 0.8,-1.3 2.2,-2 3.7,-2.6 0.6,-0.3 1.1,-0.1 1.4,0.6 0.6,1.3 1.3,2.7 1.9,4.2 z" />
        <path
           style="fill:#444547;fill-opacity:1;stroke:none;stroke-opacity:1"
           inkscape:connector-curvature="0"
           id="path5455"
           d="m 12.5,172.7 c -0.6,-0.7 -1.2,-1.4 -1.8,-2 -1,-1.1 -2.4,-1.7 -4,-1.8 -0.7,-0.1 -1.3,-0.1 -0.7,-1 0.6,-0.9 0.9,-2 1.5,-3 0.6,-1 1.4,-1.3 2.5,-0.9 2.6,0.7 4,2.7 3.7,4.7 -0.2,1 -0.6,2 -0.9,3 0,0.2 -0.1,0.5 -0.3,1 z" />
        <path
           style="fill:#444547;fill-opacity:1;stroke:none;stroke-opacity:1"
           inkscape:connector-curvature="0"
           id="path5457"
           d="m 11.5,178.9 c -1.2,-1 -2.1,-2 -3.3,-2.8 -1.3,-0.7 -2.8,-1 -4.2,-1.5 0.4,-1.4 0.7,-2.8 1.2,-4.2 0.1,-0.2 0.5,-0.4 0.7,-0.4 1.9,-0.1 3.4,0.6 4.7,1.8 1.8,1.7 1.9,3.5 1.2,5.5 -0.3,0.6 -0.3,1 -0.3,1.6 z" />
        <path
           style="fill:#444547;fill-opacity:1;stroke:none;stroke-opacity:1"
           inkscape:connector-curvature="0"
           id="path5459"
           d="m 6.5,200.9 c 6.6,1.4 10.8,4.9 13.8,9.8 -0.6,-0.3 -1.2,-0.6 -1.8,-0.8 -1.8,-0.8 -3.4,-1.8 -5.3,-2.6 -0.8,-0.4 -1.7,-0.7 -2.5,-0.8 -1.4,-0.2 -2.1,-1 -2.7,-1.9 -0.6,-0.8 -1,-1.6 -1.5,-2.4 0.1,-0.6 0.1,-0.9 0,-1.3 z" />
        <path
           style="fill:#444547;fill-opacity:1;stroke:none;stroke-opacity:1"
           inkscape:connector-curvature="0"
           id="path5461"
           d="m 9.1,162.3 c 1.4,-1.4 2.7,-2.8 4.1,-4.1 0.7,-0.6 1.8,-0.5 2.7,-0.3 0.7,0.2 1,0.8 1.1,1.6 0.3,1.8 -0.4,3.5 -1.4,5.1 -0.3,0.4 -0.4,0.8 -0.6,1.3 -0.1,0.2 -0.3,0.3 -0.6,0.6 -0.5,-2.7 -2.4,-3.7 -5.3,-3.9 0,-0.1 0,-0.2 0,-0.3 z" />
        <path
           style="fill:#444547;fill-opacity:1;stroke:none;stroke-opacity:1"
           inkscape:connector-curvature="0"
           id="path5463"
           d="m 40,154.5 c -1.2,0.6 -2.3,1.1 -3.4,1.5 -1,0.4 -2.2,0.6 -3.2,0.6 -3.1,0.1 -5.6,1.6 -8.3,2.9 -0.2,0.1 -0.4,0.2 -0.6,0.2 1.6,-2.5 3.7,-4.5 7,-5.3 2.5,-0.6 5,-0.4 7.5,-0.1 0.3,0.1 0.6,0.2 1,0.2 z" />
        <path
           style="fill:#444547;fill-opacity:1;stroke:none;stroke-opacity:1"
           inkscape:connector-curvature="0"
           id="path5465"
           d="m 39.1,212.9 c -0.6,0.2 -1,0.3 -1.5,0.3 -2.3,0 -4.6,0 -6.9,0 -1.1,0 -1.2,-0.9 -1.4,-1.5 -0.6,-1.8 0.5,-3.3 2.6,-3.8 0.2,0 0.6,0.2 0.7,0.4 1.1,1.6 2.6,2.8 4.4,3.7 0.7,0.2 1.2,0.5 2.1,0.9 z" />
        <path
           style="fill:#444547;fill-opacity:1;stroke:none;stroke-opacity:1"
           inkscape:connector-curvature="0"
           id="path5467"
           d="m 18.6,159.6 c -0.2,-1.4 -0.4,-2.7 -1.9,-3.2 0.9,-0.8 5.5,-1.8 6.9,-1.8 -1.7,1.7 -3.3,3.3 -5,5 z" />
        <path
           style="fill:#444547;fill-opacity:1;stroke:none;stroke-opacity:1"
           inkscape:connector-curvature="0"
           id="path5469"
           d="m 11,207.4 c 3.8,0.9 6.9,2.4 10,4.2 -2.1,0.5 -8,-1.6 -10,-4.2 z" />
        <path
           style="fill:#444547;fill-opacity:1;stroke:none;stroke-opacity:1"
           inkscape:connector-curvature="0"
           id="path5471"
           d="m 42.7,155.8 c -7.8,-0.3 -14.2,12.6 -14.2,28.2 0,15.6 6,27.2 13.8,27.3 7.1,0.1 14.5,-11.7 14.5,-27.3 0,-15.6 -4.5,-27.8 -14.1,-28.2 z m 0,51.4 c -6,-0.1 -10.6,-9.9 -10.6,-23.2 0,-13.3 4.9,-24.3 10.9,-24 7.4,0.3 10.9,10.7 10.9,24 -0.1,13.3 -5.8,23.2 -11.2,23.2 z" />
        <path
           style="fill:#444547;fill-opacity:1;stroke:none;stroke-opacity:1"
           inkscape:connector-curvature="0"
           id="path5473"
           d="m 51.5,184 c 0,10.9 -4.6,19.1 -9,19.1 -4.9,-0.1 -8.7,-8.1 -8.7,-19.1 0,-11 4,-19.9 8.9,-19.8 6,0.2 8.8,8.9 8.8,19.8 z" />
      </g>
      <path
         style="fill:#444547;fill-opacity:1;stroke:none;stroke-opacity:1"
         inkscape:connector-curvature="0"
         id="path5475"
         d="m 64.9,142.2 -5.1,0 -3.3,0 0,11.4 -3,0 0,2.9 3,0 0,3.9 3.4,0 0,-3.9 3.1,0 0,-2.9 -3.1,0 0,-1.4 5.1,0 c 2.1,0 3.8,-1.7 3.8,-3.8 l 0,-2.5 c -0.1,-2.1 -1.8,-3.7 -3.9,-3.7 z m 0.5,5.7 c 0,0.9 -0.7,1.6 -1.6,1.6 l -3.9,0 0,-4.6 3.9,0 c 0.9,0 1.6,0.7 1.6,1.6 l 0,1.4 z" />
    </g>
    <g
       style="fill:#00a2ff;fill-opacity:1;stroke:none;stroke-opacity:1"
       id="g4644"
       transform="matrix(0.67975839,0,0,0.6338029,88.232641,902.23541)">
      <g
         style="fill:#00a2ff;fill-opacity:1;stroke:none;stroke-opacity:1"
         id="g4646">
        <path
           d="m 27.4,212.8 c -1.5,0.2 -2.5,-0.2 -3.5,-0.8 -2.9,-2.1 -5.1,-4.7 -6.6,-7.7 -1,-2 -1.8,-4.2 -2.7,-6.3 -0.5,-1.3 -0.6,-2.8 -0.9,-4.2 -1.1,-4.7 -0.9,-9.5 -0.6,-14.2 0.1,-2.1 0.6,-4.2 1,-6.4 0.4,-1.6 0.7,-3.2 1.3,-4.8 0.9,-2.7 2,-5.3 3.6,-7.7 1.4,-2.1 3.1,-4.1 5.2,-5.8 0.9,-0.7 1.9,-1 3.2,-0.8 -0.7,0.7 -1.5,1.5 -2.2,2.2 -2.3,2.3 -4.1,5 -5.3,7.8 -0.8,1.9 -1.6,4 -2.2,5.9 -0.5,1.4 -0.6,2.8 -0.8,4.2 -0.4,2.5 -0.8,5 -1,7.5 -0.2,2.2 0.1,4.3 0.2,6.6 0,0.2 0,0.4 0,0.5 0.1,2.5 0.5,4.9 1.2,7.3 0.5,1.6 0.7,3.1 1.3,4.6 1.6,4.4 4.2,8.3 8.1,11.4 0.2,0.3 0.4,0.5 0.7,0.7 z"
           id="path4648"
           inkscape:connector-curvature="0"
           style="fill:#00a2ff;fill-opacity:1;stroke:none;stroke-opacity:1" />
        <path
           d="m 26.7,176.6 c -0.2,1.5 -0.3,3 -0.6,4.4 0,0.2 -0.4,0.4 -0.6,0.5 -3.2,0.3 -5.7,1.6 -7.6,3.8 -0.1,0.1 -0.4,0.2 -0.8,0.5 0.1,-1.7 -0.1,-3.2 0.5,-4.6 0.7,-1.9 2.8,-3 4.9,-3.9 1.2,-0.5 2.6,-0.6 3.9,-0.9 0.1,0 0.2,0.1 0.3,0.2 z"
           id="path4650"
           inkscape:connector-curvature="0"
           style="fill:#00a2ff;fill-opacity:1;stroke:none;stroke-opacity:1" />
        <path
           d="m 26.5,188.9 c 0.2,1.8 0.4,3.3 0.6,4.9 -3.1,0.6 -5.8,1.8 -7.1,4.6 -0.3,-0.3 -0.6,-0.5 -0.6,-0.6 -0.3,-0.9 -0.6,-1.8 -0.7,-2.7 -0.2,-0.9 -0.1,-1.8 0.6,-2.5 1.5,-1.8 3.2,-3.1 5.8,-3.4 0.4,-0.1 0.8,-0.2 1.4,-0.3 z"
           id="path4652"
           inkscape:connector-curvature="0"
           style="fill:#00a2ff;fill-opacity:1;stroke:none;stroke-opacity:1" />
        <path
           d="m 27.9,170.3 c -0.3,1.6 -0.6,3.1 -0.9,4.8 -3.6,0.3 -6.7,1.4 -9,4.1 -0.1,0 -0.2,-0.1 -0.3,-0.1 0.1,-1 0.1,-2 0.3,-3 0.6,-3.1 3.3,-4.3 6.4,-5.4 1.1,-0.4 2.2,-0.6 3.3,-0.7 0,0.1 0.1,0.2 0.2,0.3 z"
           id="path4654"
           inkscape:connector-curvature="0"
           style="fill:#00a2ff;fill-opacity:1;stroke:none;stroke-opacity:1" />
        <path
           d="m 26.1,182.5 c 0,1.8 0,3.3 0,5 -3.3,0.5 -6,1.8 -7.8,4.4 -0.7,-1.6 -0.7,-3 -0.6,-4.5 0.2,-1.3 1.4,-2.1 2.6,-3 1.4,-0.9 2.9,-1.6 4.7,-1.8 0.3,0.2 0.7,0.1 1.1,-0.1 z"
           id="path4656"
           inkscape:connector-curvature="0"
           style="fill:#00a2ff;fill-opacity:1;stroke:none;stroke-opacity:1" />
        <path
           d="m 19,172.6 c -1.2,-4.8 6.2,-9 11.1,-8.3 -0.5,1.2 -0.9,2.3 -1.3,3.5 -0.4,1.2 -1.4,1.3 -2.6,1.5 -1.9,0.2 -3.6,0.8 -5.1,1.8 -0.6,0.4 -1.3,1 -2.1,1.5 z"
           id="path4658"
           inkscape:connector-curvature="0"
           style="fill:#00a2ff;fill-opacity:1;stroke:none;stroke-opacity:1" />
        <path
           d="m 28.4,200.1 c -2.9,0.8 -5.2,1.8 -5.8,4.9 -0.4,-0.5 -0.6,-0.8 -0.8,-1.1 -0.5,-0.9 -1.1,-1.9 -1.3,-3 -0.5,-1.9 0.9,-3.2 2.5,-4.3 0.8,-0.6 1.9,-0.9 3,-1.4 0.8,-0.4 1.3,-0.1 1.5,0.7 0.2,1.5 0.6,2.8 0.9,4.2 z"
           id="path4660"
           inkscape:connector-curvature="0"
           style="fill:#00a2ff;fill-opacity:1;stroke:none;stroke-opacity:1" />
        <path
           d="m 11.8,191.7 c -2.4,-2.4 -5.2,-4.1 -9,-4.5 -0.1,-1.3 -0.2,-2.5 -0.2,-3.8 0,-1.1 0.1,-1.1 1.3,-0.9 2.3,0.3 4.2,1.3 5.6,2.8 1.1,1 1.9,2.1 1.8,3.7 0,0.7 0.2,1.4 0.4,2.1 0.2,0.1 0.2,0.3 0.1,0.6 z"
           id="path4662"
           inkscape:connector-curvature="0"
           style="fill:#00a2ff;fill-opacity:1;stroke:none;stroke-opacity:1" />
        <path
           d="m 4,194.9 c 5.1,-0.2 11.5,4.9 11.7,9.2 -1.3,-0.8 -2.5,-1.6 -3.8,-2.3 -1.6,-0.9 -3.2,-1.7 -5.2,-1.9 -0.8,-0.1 -1.4,-0.5 -1.6,-1.3 -0.2,-1.2 -0.7,-2.4 -1.1,-3.7 z"
           id="path4664"
           inkscape:connector-curvature="0"
           style="fill:#00a2ff;fill-opacity:1;stroke:none;stroke-opacity:1" />
        <path
           d="m 20.9,166.3 c 0.4,-4.8 7.2,-8.5 13.3,-8.4 -0.6,0.8 -1.1,1.5 -1.6,2.2 -0.5,0.6 -0.9,1.3 -1.3,2 -0.3,0.5 -0.6,0.7 -1.2,0.7 -3,0 -5.4,1.1 -7.7,2.5 -0.5,0.3 -1,0.6 -1.5,1 z"
           id="path4666"
           inkscape:connector-curvature="0"
           style="fill:#00a2ff;fill-opacity:1;stroke:none;stroke-opacity:1" />
        <path
           d="m 11.2,185.3 c -1.8,-2 -3.8,-3.2 -6.3,-4.1 -0.1,0 -0.3,0 -0.4,-0.1 -1.5,-0.2 -1.6,-0.2 -1.5,-1.6 0.1,-1 0.3,-2 0.4,-3 0.1,-0.6 0.6,-0.5 0.9,-0.5 2.6,0.3 4.5,1.4 6,3.2 1.5,2 1.3,3.9 0.9,6.1 z"
           id="path4669"
           inkscape:connector-curvature="0"
           style="fill:#00a2ff;fill-opacity:1;stroke:none;stroke-opacity:1" />
        <path
           d="m 13.4,197.6 c -1.8,-1 -3.5,-2.2 -5.4,-3.1 -0.9,-0.5 -2.1,-0.6 -3.1,-0.9 -0.5,-0.2 -1.1,-0.5 -1.1,-0.8 -0.3,-1.4 -0.4,-2.7 -0.6,-4.1 4.8,-0.1 10,3.9 10.2,8.9 z"
           id="path4671"
           inkscape:connector-curvature="0"
           style="fill:#00a2ff;fill-opacity:1;stroke:none;stroke-opacity:1" />
        <path
           d="m 31.2,206.4 c -0.5,0.3 -1,0.6 -1.6,0.8 -1.2,0.6 -1.8,1.9 -1.9,2.8 -0.1,0.3 -0.1,0.8 -0.2,1.1 -0.3,-0.2 -0.7,-0.5 -0.9,-0.7 -0.8,-0.9 -1.7,-1.8 -2.5,-2.8 -1,-1.2 -0.6,-2.3 0.1,-3.4 0.8,-1.3 2.2,-2 3.7,-2.6 0.6,-0.3 1.1,-0.1 1.4,0.6 0.6,1.3 1.3,2.7 1.9,4.2 z"
           id="path4673"
           inkscape:connector-curvature="0"
           style="fill:#00a2ff;fill-opacity:1;stroke:none;stroke-opacity:1" />
        <path
           d="m 12.5,172.7 c -0.6,-0.7 -1.2,-1.4 -1.8,-2 -1,-1.1 -2.4,-1.7 -4,-1.8 -0.7,-0.1 -1.3,-0.1 -0.7,-1 0.6,-0.9 0.9,-2 1.5,-3 0.6,-1 1.4,-1.3 2.5,-0.9 2.6,0.7 4,2.7 3.7,4.7 -0.2,1 -0.6,2 -0.9,3 0,0.2 -0.1,0.5 -0.3,1 z"
           id="path4675"
           inkscape:connector-curvature="0"
           style="fill:#00a2ff;fill-opacity:1;stroke:none;stroke-opacity:1" />
        <path
           d="m 11.5,178.9 c -1.2,-1 -2.1,-2 -3.3,-2.8 -1.3,-0.7 -2.8,-1 -4.2,-1.5 0.4,-1.4 0.7,-2.8 1.2,-4.2 0.1,-0.2 0.5,-0.4 0.7,-0.4 1.9,-0.1 3.4,0.6 4.7,1.8 1.8,1.7 1.9,3.5 1.2,5.5 -0.3,0.6 -0.3,1 -0.3,1.6 z"
           id="path4677"
           inkscape:connector-curvature="0"
           style="fill:#00a2ff;fill-opacity:1;stroke:none;stroke-opacity:1" />
        <path
           d="m 6.5,200.9 c 6.6,1.4 10.8,4.9 13.8,9.8 -0.6,-0.3 -1.2,-0.6 -1.8,-0.8 -1.8,-0.8 -3.4,-1.8 -5.3,-2.6 -0.8,-0.4 -1.7,-0.7 -2.5,-0.8 -1.4,-0.2 -2.1,-1 -2.7,-1.9 -0.6,-0.8 -1,-1.6 -1.5,-2.4 0.1,-0.6 0.1,-0.9 0,-1.3 z"
           id="path4679"
           inkscape:connector-curvature="0"
           style="fill:#00a2ff;fill-opacity:1;stroke:none;stroke-opacity:1" />
        <path
           d="m 9.1,162.3 c 1.4,-1.4 2.7,-2.8 4.1,-4.1 0.7,-0.6 1.8,-0.5 2.7,-0.3 0.7,0.2 1,0.8 1.1,1.6 0.3,1.8 -0.4,3.5 -1.4,5.1 -0.3,0.4 -0.4,0.8 -0.6,1.3 -0.1,0.2 -0.3,0.3 -0.6,0.6 -0.5,-2.7 -2.4,-3.7 -5.3,-3.9 0,-0.1 0,-0.2 0,-0.3 z"
           id="path4681"
           inkscape:connector-curvature="0"
           style="fill:#00a2ff;fill-opacity:1;stroke:none;stroke-opacity:1" />
        <path
           d="m 40,154.5 c -1.2,0.6 -2.3,1.1 -3.4,1.5 -1,0.4 -2.2,0.6 -3.2,0.6 -3.1,0.1 -5.6,1.6 -8.3,2.9 -0.2,0.1 -0.4,0.2 -0.6,0.2 1.6,-2.5 3.7,-4.5 7,-5.3 2.5,-0.6 5,-0.4 7.5,-0.1 0.3,0.1 0.6,0.2 1,0.2 z"
           id="path4683"
           inkscape:connector-curvature="0"
           style="fill:#00a2ff;fill-opacity:1;stroke:none;stroke-opacity:1" />
        <path
           d="m 39.1,212.9 c -0.6,0.2 -1,0.3 -1.5,0.3 -2.3,0 -4.6,0 -6.9,0 -1.1,0 -1.2,-0.9 -1.4,-1.5 -0.6,-1.8 0.5,-3.3 2.6,-3.8 0.2,0 0.6,0.2 0.7,0.4 1.1,1.6 2.6,2.8 4.4,3.7 0.7,0.2 1.2,0.5 2.1,0.9 z"
           id="path4685"
           inkscape:connector-curvature="0"
           style="fill:#00a2ff;fill-opacity:1;stroke:none;stroke-opacity:1" />
        <path
           d="m 18.6,159.6 c -0.2,-1.4 -0.4,-2.7 -1.9,-3.2 0.9,-0.8 5.5,-1.8 6.9,-1.8 -1.7,1.7 -3.3,3.3 -5,5 z"
           id="path4687"
           inkscape:connector-curvature="0"
           style="fill:#00a2ff;fill-opacity:1;stroke:none;stroke-opacity:1" />
        <path
           d="m 11,207.4 c 3.8,0.9 6.9,2.4 10,4.2 -2.1,0.5 -8,-1.6 -10,-4.2 z"
           id="path4689"
           inkscape:connector-curvature="0"
           style="fill:#00a2ff;fill-opacity:1;stroke:none;stroke-opacity:1" />
        <path
           d="m 42.7,155.8 c -7.8,-0.3 -14.2,12.6 -14.2,28.2 0,15.6 6,27.2 13.8,27.3 7.1,0.1 14.5,-11.7 14.5,-27.3 0,-15.6 -4.5,-27.8 -14.1,-28.2 z m 0,51.4 c -6,-0.1 -10.6,-9.9 -10.6,-23.2 0,-13.3 4.9,-24.3 10.9,-24 7.4,0.3 10.9,10.7 10.9,24 -0.1,13.3 -5.8,23.2 -11.2,23.2 z"
           id="path4691"
           inkscape:connector-curvature="0"
           style="fill:#00a2ff;fill-opacity:1;stroke:none;stroke-opacity:1" />
        <path
           d="m 51.5,184 c 0,10.9 -4.6,19.1 -9,19.1 -4.9,-0.1 -8.7,-8.1 -8.7,-19.1 0,-11 4,-19.9 8.9,-19.8 6,0.2 8.8,8.9 8.8,19.8 z"
           id="path4693"
           inkscape:connector-curvature="0"
           style="fill:#00a2ff;fill-opacity:1;stroke:none;stroke-opacity:1" />
      </g>
      <path
         d="m 64.9,142.2 -5.1,0 -3.3,0 0,11.4 -3,0 0,2.9 3,0 0,3.9 3.4,0 0,-3.9 3.1,0 0,-2.9 -3.1,0 0,-1.4 5.1,0 c 2.1,0 3.8,-1.7 3.8,-3.8 l 0,-2.5 c -0.1,-2.1 -1.8,-3.7 -3.9,-3.7 z m 0.5,5.7 c 0,0.9 -0.7,1.6 -1.6,1.6 l -3.9,0 0,-4.6 3.9,0 c 0.9,0 1.6,0.7 1.6,1.6 l 0,1.4 z"
         id="path4695"
         inkscape:connector-curvature="0"
         style="fill:#00a2ff;fill-opacity:1;stroke:none;stroke-opacity:1" />
    </g>
  </g>
</svg>
