<?xml version="1.0" encoding="UTF-8" standalone="no"?>
<!-- Created with Inkscape (http://www.inkscape.org/) -->

<svg
   xmlns:dc="http://purl.org/dc/elements/1.1/"
   xmlns:cc="http://creativecommons.org/ns#"
   xmlns:rdf="http://www.w3.org/1999/02/22-rdf-syntax-ns#"
   xmlns:svg="http://www.w3.org/2000/svg"
   xmlns="http://www.w3.org/2000/svg"
   xmlns:sodipodi="http://sodipodi.sourceforge.net/DTD/sodipodi-0.dtd"
   xmlns:inkscape="http://www.inkscape.org/namespaces/inkscape"
   width="150"
   height="75"
   viewBox="0 0 150.00001 75.000004"
   id="svg3807"
   version="1.1"
   inkscape:version="0.91 r13725"
   sodipodi:docname="tire.svg">
  <defs
     id="defs3809" />
  <sodipodi:namedview
     id="base"
     pagecolor="#ffffff"
     bordercolor="#666666"
     borderopacity="1.0"
     inkscape:pageopacity="0.0"
     inkscape:pageshadow="2"
     inkscape:zoom="5.6568543"
     inkscape:cx="72.254236"
     inkscape:cy="28.302893"
     inkscape:document-units="px"
     inkscape:current-layer="layer1"
     showgrid="false"
     units="px"
     inkscape:snap-bbox="true"
     inkscape:bbox-paths="true"
     inkscape:snap-bbox-edge-midpoints="true"
     inkscape:bbox-nodes="true"
     inkscape:snap-bbox-midpoints="true"
     inkscape:object-paths="true"
     inkscape:snap-intersection-paths="true"
     inkscape:object-nodes="true"
     inkscape:snap-smooth-nodes="true"
     showguides="true"
     inkscape:guide-bbox="true"
     inkscape:window-width="1280"
     inkscape:window-height="947"
     inkscape:window-x="0"
     inkscape:window-y="24"
     inkscape:window-maximized="1">
    <sodipodi:guide
       position="75.000004,74.999991"
       orientation="1,0"
       id="guide3817" />
    <sodipodi:guide
       position="150.00001,37.49999"
       orientation="0,1"
       id="guide3819" />
    <sodipodi:guide
       position="37.500002,74.999991"
       orientation="1,0"
       id="guide3825" />
    <sodipodi:guide
       position="112.50001,74.999991"
       orientation="1,0"
       id="guide3829" />
  </sodipodi:namedview>
  <metadata
     id="metadata3812">
    <rdf:RDF>
      <cc:Work
         rdf:about="">
        <dc:format>image/svg+xml</dc:format>
        <dc:type
           rdf:resource="http://purl.org/dc/dcmitype/StillImage" />
        <dc:title></dc:title>
      </cc:Work>
    </rdf:RDF>
  </metadata>
  <g
     inkscape:label="Layer 1"
     inkscape:groupmode="layer"
     id="layer1"
     transform="translate(0,-977.36217)">
    <g
       transform="matrix(0.62318959,0,0,0.63268901,15.283295,947.45708)"
       id="g5325"
       style="fill:#444547;fill-opacity:1;stroke:none;stroke-opacity:1">
      <path
         style="fill:#444547;fill-opacity:1;stroke:none;stroke-opacity:1"
         inkscape:connector-curvature="0"
         id="path5327"
         d="m 32.9,141.7 c -1.8,0.2 -3,-0.2 -4.2,-1 -3.5,-2.5 -6.1,-5.6 -7.8,-9.2 -1.2,-2.5 -2.3,-5 -3.1,-7.6 -0.6,-1.6 -0.7,-3.3 -1.1,-4.9 -1.3,-5.6 -1.1,-11.4 -0.8,-17.2 0.1,-2.6 0.7,-5.1 1.3,-7.7 0.4,-1.9 0.8,-3.9 1.5,-5.7 1.1,-3.2 2.4,-6.3 4.3,-9.2 1.8,-2.6 3.7,-4.9 6.3,-6.9 1.1,-0.8 2.3,-1.2 3.9,-1 -0.9,0.9 -1.8,1.8 -2.7,2.7 -2.8,2.8 -4.9,5.9 -6.3,9.4 -1,2.3 -1.9,4.7 -2.7,7.1 -0.6,1.7 -0.7,3.3 -1,5.1 -0.5,3 -1,6 -1.2,9 -0.2,2.6 0.1,5.3 0.2,7.8 0,0.2 0,0.4 0,0.6 0.1,3 0.6,5.9 1.4,8.9 0.6,1.8 0.9,3.7 1.6,5.5 1.8,5.3 5,10 9.8,13.7 -0.1,0 0.2,0.2 0.6,0.6 z" />
      <path
         style="fill:#444547;fill-opacity:1;stroke:none;stroke-opacity:1"
         inkscape:connector-curvature="0"
         id="path5329"
         d="m 32,98.1 c -0.2,1.8 -0.4,3.6 -0.6,5.4 0,0.2 -0.5,0.5 -0.7,0.5 -3.9,0.3 -6.8,1.8 -9,4.5 -0.1,0.2 -0.4,0.2 -0.9,0.5 0.2,-2 -0.1,-3.9 0.6,-5.5 0.9,-2.3 3.3,-3.7 5.9,-4.6 1.5,-0.6 3,-0.7 4.6,-1.1 0,0.1 0,0.2 0.1,0.3 z" />
      <path
         style="fill:#444547;fill-opacity:1;stroke:none;stroke-opacity:1"
         inkscape:connector-curvature="0"
         id="path5331"
         d="m 31.8,112.8 c 0.2,2 0.5,4 0.6,5.9 -3.8,0.7 -6.9,2.1 -8.6,5.5 -0.4,-0.4 -0.6,-0.6 -0.7,-0.7 -0.4,-1.1 -0.6,-2.1 -0.9,-3.2 -0.3,-1.1 -0.1,-2 0.6,-3 1.8,-2.2 3.9,-3.7 7,-4.2 0.8,0.1 1.3,-0.1 2,-0.3 z" />
      <path
         style="fill:#444547;fill-opacity:1;stroke:none;stroke-opacity:1"
         inkscape:connector-curvature="0"
         id="path5333"
         d="m 33.4,90.6 c -0.4,1.9 -0.7,3.8 -1.1,5.8 -4.3,0.4 -8.1,1.7 -10.8,4.9 -0.1,0 -0.3,-0.1 -0.4,-0.1 0.1,-1.2 0.1,-2.4 0.4,-3.6 0.7,-3.7 4.1,-5.3 7.7,-6.5 1.3,-0.5 2.7,-0.6 4,-0.9 0,0.2 0.1,0.3 0.2,0.4 z" />
      <path
         style="fill:#444547;fill-opacity:1;stroke:none;stroke-opacity:1"
         inkscape:connector-curvature="0"
         id="path5335"
         d="m 31.4,105.2 c 0,2 0,4 0,6 -4,0.6 -7.2,2.1 -9.5,5.3 -0.8,-1.8 -0.9,-3.7 -0.6,-5.4 0.3,-1.6 1.7,-2.6 3,-3.5 1.7,-1.1 3.5,-1.9 5.6,-2.1 0.5,0.1 0.8,-0.1 1.5,-0.3 z" />
      <path
         style="fill:#444547;fill-opacity:1;stroke:none;stroke-opacity:1"
         inkscape:connector-curvature="0"
         id="path5337"
         d="m 22.8,93.3 c -1.5,-5.8 7.5,-10.8 13.3,-10.1 -0.6,1.4 -1.1,2.8 -1.6,4.2 -0.4,1.5 -1.7,1.6 -3,1.8 -2.3,0.2 -4.3,1 -6.1,2.2 -0.8,0.6 -1.7,1.3 -2.6,1.9 z" />
      <path
         style="fill:#444547;fill-opacity:1;stroke:none;stroke-opacity:1"
         inkscape:connector-curvature="0"
         id="path5339"
         d="m 34.2,126.4 c -3.4,0.9 -6.3,2.2 -7,5.8 -0.5,-0.6 -0.8,-0.9 -1,-1.4 -0.6,-1.2 -1.3,-2.3 -1.6,-3.5 -0.6,-2.3 1.1,-3.9 3,-5.2 1,-0.7 2.3,-1.1 3.5,-1.7 1,-0.4 1.5,-0.1 1.8,0.8 0.3,1.9 0.8,3.5 1.3,5.2 z" />
      <path
         style="fill:#444547;fill-opacity:1;stroke:none;stroke-opacity:1"
         inkscape:connector-curvature="0"
         id="path5341"
         d="m 14.2,116.3 c -2.9,-3 -6.3,-4.9 -10.8,-5.4 -0.1,-1.5 -0.2,-3 -0.2,-4.5 0,-1.4 0.1,-1.4 1.6,-1.1 2.8,0.4 5,1.6 6.8,3.3 1.4,1.2 2.3,2.6 2.2,4.4 0,0.8 0.3,1.7 0.4,2.6 0.1,0.1 0,0.3 0,0.7 z" />
      <path
         style="fill:#444547;fill-opacity:1;stroke:none;stroke-opacity:1"
         inkscape:connector-curvature="0"
         id="path5343"
         d="m 4.8,120.1 c 6.2,-0.2 13.8,5.8 14.1,11.1 -1.6,-0.9 -3,-1.9 -4.6,-2.9 -1.9,-1.1 -3.9,-2 -6.2,-2.4 -1,-0.2 -1.7,-0.6 -1.8,-1.5 -0.5,-1.3 -1,-2.7 -1.5,-4.3 z" />
      <path
         style="fill:#444547;fill-opacity:1;stroke:none;stroke-opacity:1"
         inkscape:connector-curvature="0"
         id="path5345"
         d="m 25,85.8 c 0.5,-5.8 8.7,-10.2 16,-10.2 -0.6,0.9 -1.3,1.8 -1.9,2.7 -0.6,0.8 -1.1,1.6 -1.6,2.4 -0.3,0.6 -0.6,0.8 -1.5,0.8 -3.5,0 -6.5,1.3 -9.2,3 -0.6,0.4 -1,0.8 -1.8,1.3 z" />
      <path
         style="fill:#444547;fill-opacity:1;stroke:none;stroke-opacity:1"
         inkscape:connector-curvature="0"
         id="path5347"
         d="m 13.4,108.6 c -2.1,-2.4 -4.5,-3.9 -7.5,-4.8 -0.2,0 -0.3,-0.1 -0.5,-0.1 -1.8,-0.3 -1.8,-0.3 -1.8,-1.8 0.1,-1.2 0.4,-2.4 0.5,-3.6 0.1,-0.6 0.6,-0.6 1.1,-0.6 3,0.4 5.4,1.7 7.2,3.9 1.7,2.1 1.5,4.4 1,7 z" />
      <path
         style="fill:#444547;fill-opacity:1;stroke:none;stroke-opacity:1"
         inkscape:connector-curvature="0"
         id="path5349"
         d="m 16,123.3 c -2.1,-1.3 -4.2,-2.7 -6.6,-3.8 -1.1,-0.6 -2.6,-0.7 -3.8,-1.1 -0.6,-0.2 -1.3,-0.6 -1.4,-0.9 -0.4,-1.6 -0.5,-3.2 -0.6,-4.9 6.1,0 12.2,4.7 12.4,10.7 z" />
      <path
         style="fill:#444547;fill-opacity:1;stroke:none;stroke-opacity:1"
         inkscape:connector-curvature="0"
         id="path5351"
         d="m 37.5,134 c -0.6,0.3 -1.2,0.6 -1.8,1 -1.4,0.7 -2.1,2.3 -2.4,3.3 -0.1,0.3 -0.1,0.9 -0.2,1.3 -0.3,-0.2 -0.8,-0.6 -1.1,-0.8 -1,-1.1 -2,-2.2 -3,-3.3 -1.2,-1.4 -0.7,-2.8 0.1,-4.2 1,-1.6 2.7,-2.4 4.4,-3.1 0.7,-0.3 1.4,-0.1 1.7,0.6 0.6,1.7 1.5,3.4 2.3,5.2 z" />
      <path
         style="fill:#444547;fill-opacity:1;stroke:none;stroke-opacity:1"
         inkscape:connector-curvature="0"
         id="path5353"
         d="m 15,93.4 c -0.7,-0.9 -1.4,-1.7 -2,-2.5 -1.2,-1.4 -2.9,-2 -4.8,-2.2 -0.9,-0.1 -1.5,-0.2 -0.8,-1.2 0.7,-1.1 1.2,-2.4 1.8,-3.6 0.6,-1.2 1.6,-1.6 3,-1.1 3,0.8 4.8,3.2 4.4,5.6 -0.2,1.2 -0.6,2.4 -1,3.6 -0.2,0.4 -0.4,0.8 -0.6,1.4 z" />
      <path
         style="fill:#444547;fill-opacity:1;stroke:none;stroke-opacity:1"
         inkscape:connector-curvature="0"
         id="path5355"
         d="M 13.8,100.9 C 12.4,99.7 11.2,98.4 9.7,97.6 8.2,96.8 6.4,96.4 4.6,95.8 c 0.5,-1.6 0.9,-3.3 1.4,-5 0.1,-0.2 0.6,-0.5 0.8,-0.5 2.3,-0.2 4.1,0.7 5.6,2.1 2.1,1.9 2.3,4.2 1.5,6.7 -0.1,0.6 0,1.2 -0.1,1.8 z" />
      <path
         style="fill:#444547;fill-opacity:1;stroke:none;stroke-opacity:1"
         inkscape:connector-curvature="0"
         id="path5357"
         d="m 7.8,127.3 c 7.8,1.7 13,5.8 16.6,11.7 -0.7,-0.4 -1.4,-0.6 -2.1,-1 -2.1,-1 -4.2,-2.1 -6.3,-3.1 -0.9,-0.5 -1.9,-0.8 -3,-1 -1.7,-0.3 -2.5,-1.3 -3.2,-2.4 -0.6,-0.9 -1.2,-1.9 -1.8,-3 -0.2,-0.3 -0.1,-0.6 -0.2,-1.2 z" />
      <path
         style="fill:#444547;fill-opacity:1;stroke:none;stroke-opacity:1"
         inkscape:connector-curvature="0"
         id="path5359"
         d="m 10.9,80.9 c 1.7,-1.7 3.2,-3.3 4.9,-4.9 0.9,-0.8 2.2,-0.6 3.2,-0.3 0.9,0.2 1.2,1 1.3,1.8 0.4,2.2 -0.4,4.2 -1.7,6.1 -0.3,0.5 -0.5,1 -0.7,1.5 -0.1,0.2 -0.4,0.4 -0.7,0.6 -0.6,-3.2 -3,-4.5 -6.3,-4.6 0,0 0,-0.1 0,-0.2 z" />
      <path
         style="fill:#444547;fill-opacity:1;stroke:none;stroke-opacity:1"
         inkscape:connector-curvature="0"
         id="path5361"
         d="m 48,71.6 c -1.5,0.6 -2.8,1.3 -4.2,1.8 -1.3,0.4 -2.6,0.7 -4,0.8 -3.8,0.2 -6.8,1.9 -10,3.4 -0.2,0.1 -0.5,0.2 -0.7,0.2 1.9,-3 4.4,-5.4 8.4,-6.4 3,-0.6 6,-0.5 9,-0.1 0.7,0.1 1.1,0.2 1.5,0.3 z" />
      <path
         style="fill:#444547;fill-opacity:1;stroke:none;stroke-opacity:1"
         inkscape:connector-curvature="0"
         id="path5363"
         d="m 47,141.7 c -0.7,0.2 -1.3,0.4 -1.8,0.4 -2.8,0 -5.5,0 -8.3,0 -1.4,0 -1.4,-1.1 -1.7,-1.8 -0.8,-2 0.6,-4 3,-4.5 0.3,-0.1 0.6,0.2 0.8,0.5 1.4,1.8 3.1,3.3 5.4,4.4 0.7,0.3 1.5,0.5 2.6,1 z" />
      <path
         style="fill:#444547;fill-opacity:1;stroke:none;stroke-opacity:1"
         inkscape:connector-curvature="0"
         id="path5365"
         d="M 22.3,77.7 C 22,76 21.9,74.5 20,73.7 c 1.1,-1 6.7,-2.1 8.3,-2.1 -2,2.1 -3.9,4 -6,6.1 z" />
      <path
         style="fill:#444547;fill-opacity:1;stroke:none;stroke-opacity:1"
         inkscape:connector-curvature="0"
         id="path5367"
         d="m 13.2,135.2 c 4.5,1.1 8.3,2.9 12,5.1 -2.5,0.6 -9.7,-2.1 -12,-5.1 z" />
      <path
         style="fill:#444547;fill-opacity:1;stroke:none;stroke-opacity:1"
         inkscape:connector-curvature="0"
         id="path5369"
         d="m 51.1,73.2 c -9.4,-0.3 -17,15.2 -17,34 0,18.8 7.2,32.7 16.6,32.8 8.6,0.1 17.4,-14 17.4,-32.8 0,-18.8 -5.4,-33.6 -17,-34 z m 0.1,61.7 C 44,134.8 38.5,123 38.5,107 c 0,-16 5.8,-29.2 13,-28.9 8.9,0.4 13,12.9 13,28.9 0.1,16 -6.7,28 -13.3,27.9 z" />
      <path
         style="fill:#444547;fill-opacity:1;stroke:none;stroke-opacity:1"
         inkscape:connector-curvature="0"
         id="path5371"
         d="m 61.9,107 c 0,13.1 -5.5,23 -10.9,22.9 -5.9,-0.1 -10.4,-9.8 -10.4,-22.9 0,-13.1 4.8,-24 10.7,-23.7 7.1,0.2 10.6,10.6 10.6,23.7 z" />
    </g>
    <g
       style="fill:#00a2ff;fill-opacity:1;stroke:none;stroke-opacity:1"
       id="g4476"
       transform="matrix(0.62318959,0,0,0.63268901,90.283307,947.45708)">
      <path
         d="m 32.9,141.7 c -1.8,0.2 -3,-0.2 -4.2,-1 -3.5,-2.5 -6.1,-5.6 -7.8,-9.2 -1.2,-2.5 -2.3,-5 -3.1,-7.6 -0.6,-1.6 -0.7,-3.3 -1.1,-4.9 -1.3,-5.6 -1.1,-11.4 -0.8,-17.2 0.1,-2.6 0.7,-5.1 1.3,-7.7 0.4,-1.9 0.8,-3.9 1.5,-5.7 1.1,-3.2 2.4,-6.3 4.3,-9.2 1.8,-2.6 3.7,-4.9 6.3,-6.9 1.1,-0.8 2.3,-1.2 3.9,-1 -0.9,0.9 -1.8,1.8 -2.7,2.7 -2.8,2.8 -4.9,5.9 -6.3,9.4 -1,2.3 -1.9,4.7 -2.7,7.1 -0.6,1.7 -0.7,3.3 -1,5.1 -0.5,3 -1,6 -1.2,9 -0.2,2.6 0.1,5.3 0.2,7.8 0,0.2 0,0.4 0,0.6 0.1,3 0.6,5.9 1.4,8.9 0.6,1.8 0.9,3.7 1.6,5.5 1.8,5.3 5,10 9.8,13.7 -0.1,0 0.2,0.2 0.6,0.6 z"
         id="path4478"
         inkscape:connector-curvature="0"
         style="fill:#00a2ff;fill-opacity:1;stroke:none;stroke-opacity:1" />
      <path
         d="m 32,98.1 c -0.2,1.8 -0.4,3.6 -0.6,5.4 0,0.2 -0.5,0.5 -0.7,0.5 -3.9,0.3 -6.8,1.8 -9,4.5 -0.1,0.2 -0.4,0.2 -0.9,0.5 0.2,-2 -0.1,-3.9 0.6,-5.5 0.9,-2.3 3.3,-3.7 5.9,-4.6 1.5,-0.6 3,-0.7 4.6,-1.1 0,0.1 0,0.2 0.1,0.3 z"
         id="path4480"
         inkscape:connector-curvature="0"
         style="fill:#00a2ff;fill-opacity:1;stroke:none;stroke-opacity:1" />
      <path
         d="m 31.8,112.8 c 0.2,2 0.5,4 0.6,5.9 -3.8,0.7 -6.9,2.1 -8.6,5.5 -0.4,-0.4 -0.6,-0.6 -0.7,-0.7 -0.4,-1.1 -0.6,-2.1 -0.9,-3.2 -0.3,-1.1 -0.1,-2 0.6,-3 1.8,-2.2 3.9,-3.7 7,-4.2 0.8,0.1 1.3,-0.1 2,-0.3 z"
         id="path4482"
         inkscape:connector-curvature="0"
         style="fill:#00a2ff;fill-opacity:1;stroke:none;stroke-opacity:1" />
      <path
         d="m 33.4,90.6 c -0.4,1.9 -0.7,3.8 -1.1,5.8 -4.3,0.4 -8.1,1.7 -10.8,4.9 -0.1,0 -0.3,-0.1 -0.4,-0.1 0.1,-1.2 0.1,-2.4 0.4,-3.6 0.7,-3.7 4.1,-5.3 7.7,-6.5 1.3,-0.5 2.7,-0.6 4,-0.9 0,0.2 0.1,0.3 0.2,0.4 z"
         id="path4484"
         inkscape:connector-curvature="0"
         style="fill:#00a2ff;fill-opacity:1;stroke:none;stroke-opacity:1" />
      <path
         d="m 31.4,105.2 c 0,2 0,4 0,6 -4,0.6 -7.2,2.1 -9.5,5.3 -0.8,-1.8 -0.9,-3.7 -0.6,-5.4 0.3,-1.6 1.7,-2.6 3,-3.5 1.7,-1.1 3.5,-1.9 5.6,-2.1 0.5,0.1 0.8,-0.1 1.5,-0.3 z"
         id="path4486"
         inkscape:connector-curvature="0"
         style="fill:#00a2ff;fill-opacity:1;stroke:none;stroke-opacity:1" />
      <path
         d="m 22.8,93.3 c -1.5,-5.8 7.5,-10.8 13.3,-10.1 -0.6,1.4 -1.1,2.8 -1.6,4.2 -0.4,1.5 -1.7,1.6 -3,1.8 -2.3,0.2 -4.3,1 -6.1,2.2 -0.8,0.6 -1.7,1.3 -2.6,1.9 z"
         id="path4488"
         inkscape:connector-curvature="0"
         style="fill:#00a2ff;fill-opacity:1;stroke:none;stroke-opacity:1" />
      <path
         d="m 34.2,126.4 c -3.4,0.9 -6.3,2.2 -7,5.8 -0.5,-0.6 -0.8,-0.9 -1,-1.4 -0.6,-1.2 -1.3,-2.3 -1.6,-3.5 -0.6,-2.3 1.1,-3.9 3,-5.2 1,-0.7 2.3,-1.1 3.5,-1.7 1,-0.4 1.5,-0.1 1.8,0.8 0.3,1.9 0.8,3.5 1.3,5.2 z"
         id="path4490"
         inkscape:connector-curvature="0"
         style="fill:#00a2ff;fill-opacity:1;stroke:none;stroke-opacity:1" />
      <path
         d="m 14.2,116.3 c -2.9,-3 -6.3,-4.9 -10.8,-5.4 -0.1,-1.5 -0.2,-3 -0.2,-4.5 0,-1.4 0.1,-1.4 1.6,-1.1 2.8,0.4 5,1.6 6.8,3.3 1.4,1.2 2.3,2.6 2.2,4.4 0,0.8 0.3,1.7 0.4,2.6 0.1,0.1 0,0.3 0,0.7 z"
         id="path4492"
         inkscape:connector-curvature="0"
         style="fill:#00a2ff;fill-opacity:1;stroke:none;stroke-opacity:1" />
      <path
         d="m 4.8,120.1 c 6.2,-0.2 13.8,5.8 14.1,11.1 -1.6,-0.9 -3,-1.9 -4.6,-2.9 -1.9,-1.1 -3.9,-2 -6.2,-2.4 -1,-0.2 -1.7,-0.6 -1.8,-1.5 -0.5,-1.3 -1,-2.7 -1.5,-4.3 z"
         id="path4494"
         inkscape:connector-curvature="0"
         style="fill:#00a2ff;fill-opacity:1;stroke:none;stroke-opacity:1" />
      <path
         d="m 25,85.8 c 0.5,-5.8 8.7,-10.2 16,-10.2 -0.6,0.9 -1.3,1.8 -1.9,2.7 -0.6,0.8 -1.1,1.6 -1.6,2.4 -0.3,0.6 -0.6,0.8 -1.5,0.8 -3.5,0 -6.5,1.3 -9.2,3 -0.6,0.4 -1,0.8 -1.8,1.3 z"
         id="path4496"
         inkscape:connector-curvature="0"
         style="fill:#00a2ff;fill-opacity:1;stroke:none;stroke-opacity:1" />
      <path
         d="m 13.4,108.6 c -2.1,-2.4 -4.5,-3.9 -7.5,-4.8 -0.2,0 -0.3,-0.1 -0.5,-0.1 -1.8,-0.3 -1.8,-0.3 -1.8,-1.8 0.1,-1.2 0.4,-2.4 0.5,-3.6 0.1,-0.6 0.6,-0.6 1.1,-0.6 3,0.4 5.4,1.7 7.2,3.9 1.7,2.1 1.5,4.4 1,7 z"
         id="path4498"
         inkscape:connector-curvature="0"
         style="fill:#00a2ff;fill-opacity:1;stroke:none;stroke-opacity:1" />
      <path
         d="m 16,123.3 c -2.1,-1.3 -4.2,-2.7 -6.6,-3.8 -1.1,-0.6 -2.6,-0.7 -3.8,-1.1 -0.6,-0.2 -1.3,-0.6 -1.4,-0.9 -0.4,-1.6 -0.5,-3.2 -0.6,-4.9 6.1,0 12.2,4.7 12.4,10.7 z"
         id="path4500"
         inkscape:connector-curvature="0"
         style="fill:#00a2ff;fill-opacity:1;stroke:none;stroke-opacity:1" />
      <path
         d="m 37.5,134 c -0.6,0.3 -1.2,0.6 -1.8,1 -1.4,0.7 -2.1,2.3 -2.4,3.3 -0.1,0.3 -0.1,0.9 -0.2,1.3 -0.3,-0.2 -0.8,-0.6 -1.1,-0.8 -1,-1.1 -2,-2.2 -3,-3.3 -1.2,-1.4 -0.7,-2.8 0.1,-4.2 1,-1.6 2.7,-2.4 4.4,-3.1 0.7,-0.3 1.4,-0.1 1.7,0.6 0.6,1.7 1.5,3.4 2.3,5.2 z"
         id="path4502"
         inkscape:connector-curvature="0"
         style="fill:#00a2ff;fill-opacity:1;stroke:none;stroke-opacity:1" />
      <path
         d="m 15,93.4 c -0.7,-0.9 -1.4,-1.7 -2,-2.5 -1.2,-1.4 -2.9,-2 -4.8,-2.2 -0.9,-0.1 -1.5,-0.2 -0.8,-1.2 0.7,-1.1 1.2,-2.4 1.8,-3.6 0.6,-1.2 1.6,-1.6 3,-1.1 3,0.8 4.8,3.2 4.4,5.6 -0.2,1.2 -0.6,2.4 -1,3.6 -0.2,0.4 -0.4,0.8 -0.6,1.4 z"
         id="path4504"
         inkscape:connector-curvature="0"
         style="fill:#00a2ff;fill-opacity:1;stroke:none;stroke-opacity:1" />
      <path
         d="M 13.8,100.9 C 12.4,99.7 11.2,98.4 9.7,97.6 8.2,96.8 6.4,96.4 4.6,95.8 c 0.5,-1.6 0.9,-3.3 1.4,-5 0.1,-0.2 0.6,-0.5 0.8,-0.5 2.3,-0.2 4.1,0.7 5.6,2.1 2.1,1.9 2.3,4.2 1.5,6.7 -0.1,0.6 0,1.2 -0.1,1.8 z"
         id="path4506"
         inkscape:connector-curvature="0"
         style="fill:#00a2ff;fill-opacity:1;stroke:none;stroke-opacity:1" />
      <path
         d="m 7.8,127.3 c 7.8,1.7 13,5.8 16.6,11.7 -0.7,-0.4 -1.4,-0.6 -2.1,-1 -2.1,-1 -4.2,-2.1 -6.3,-3.1 -0.9,-0.5 -1.9,-0.8 -3,-1 -1.7,-0.3 -2.5,-1.3 -3.2,-2.4 -0.6,-0.9 -1.2,-1.9 -1.8,-3 -0.2,-0.3 -0.1,-0.6 -0.2,-1.2 z"
         id="path4508"
         inkscape:connector-curvature="0"
         style="fill:#00a2ff;fill-opacity:1;stroke:none;stroke-opacity:1" />
      <path
         d="m 10.9,80.9 c 1.7,-1.7 3.2,-3.3 4.9,-4.9 0.9,-0.8 2.2,-0.6 3.2,-0.3 0.9,0.2 1.2,1 1.3,1.8 0.4,2.2 -0.4,4.2 -1.7,6.1 -0.3,0.5 -0.5,1 -0.7,1.5 -0.1,0.2 -0.4,0.4 -0.7,0.6 -0.6,-3.2 -3,-4.5 -6.3,-4.6 0,0 0,-0.1 0,-0.2 z"
         id="path4510"
         inkscape:connector-curvature="0"
         style="fill:#00a2ff;fill-opacity:1;stroke:none;stroke-opacity:1" />
      <path
         d="m 48,71.6 c -1.5,0.6 -2.8,1.3 -4.2,1.8 -1.3,0.4 -2.6,0.7 -4,0.8 -3.8,0.2 -6.8,1.9 -10,3.4 -0.2,0.1 -0.5,0.2 -0.7,0.2 1.9,-3 4.4,-5.4 8.4,-6.4 3,-0.6 6,-0.5 9,-0.1 0.7,0.1 1.1,0.2 1.5,0.3 z"
         id="path4512"
         inkscape:connector-curvature="0"
         style="fill:#00a2ff;fill-opacity:1;stroke:none;stroke-opacity:1" />
      <path
         d="m 47,141.7 c -0.7,0.2 -1.3,0.4 -1.8,0.4 -2.8,0 -5.5,0 -8.3,0 -1.4,0 -1.4,-1.1 -1.7,-1.8 -0.8,-2 0.6,-4 3,-4.5 0.3,-0.1 0.6,0.2 0.8,0.5 1.4,1.8 3.1,3.3 5.4,4.4 0.7,0.3 1.5,0.5 2.6,1 z"
         id="path4514"
         inkscape:connector-curvature="0"
         style="fill:#00a2ff;fill-opacity:1;stroke:none;stroke-opacity:1" />
      <path
         d="M 22.3,77.7 C 22,76 21.9,74.5 20,73.7 c 1.1,-1 6.7,-2.1 8.3,-2.1 -2,2.1 -3.9,4 -6,6.1 z"
         id="path4516"
         inkscape:connector-curvature="0"
         style="fill:#00a2ff;fill-opacity:1;stroke:none;stroke-opacity:1" />
      <path
         d="m 13.2,135.2 c 4.5,1.1 8.3,2.9 12,5.1 -2.5,0.6 -9.7,-2.1 -12,-5.1 z"
         id="path4518"
         inkscape:connector-curvature="0"
         style="fill:#00a2ff;fill-opacity:1;stroke:none;stroke-opacity:1" />
      <path
         d="m 51.1,73.2 c -9.4,-0.3 -17,15.2 -17,34 0,18.8 7.2,32.7 16.6,32.8 8.6,0.1 17.4,-14 17.4,-32.8 0,-18.8 -5.4,-33.6 -17,-34 z m 0.1,61.7 C 44,134.8 38.5,123 38.5,107 c 0,-16 5.8,-29.2 13,-28.9 8.9,0.4 13,12.9 13,28.9 0.1,16 -6.7,28 -13.3,27.9 z"
         id="path4520"
         inkscape:connector-curvature="0"
         style="fill:#00a2ff;fill-opacity:1;stroke:none;stroke-opacity:1" />
      <path
         d="m 61.9,107 c 0,13.1 -5.5,23 -10.9,22.9 -5.9,-0.1 -10.4,-9.8 -10.4,-22.9 0,-13.1 4.8,-24 10.7,-23.7 7.1,0.2 10.6,10.6 10.6,23.7 z"
         id="path4522"
         inkscape:connector-curvature="0"
         style="fill:#00a2ff;fill-opacity:1;stroke:none;stroke-opacity:1" />
    </g>
  </g>
</svg>
