<?xml version="1.0" encoding="UTF-8" standalone="no"?>
<!-- Created with Inkscape (http://www.inkscape.org/) -->

<svg
   xmlns:dc="http://purl.org/dc/elements/1.1/"
   xmlns:cc="http://creativecommons.org/ns#"
   xmlns:rdf="http://www.w3.org/1999/02/22-rdf-syntax-ns#"
   xmlns:svg="http://www.w3.org/2000/svg"
   xmlns="http://www.w3.org/2000/svg"
   xmlns:sodipodi="http://sodipodi.sourceforge.net/DTD/sodipodi-0.dtd"
   xmlns:inkscape="http://www.inkscape.org/namespaces/inkscape"
   width="150"
   height="75"
   viewBox="0 0 150.00001 75.000004"
   id="svg3807"
   version="1.1"
   inkscape:version="0.91 r13725"
   sodipodi:docname="video_registration.svg">
  <defs
     id="defs3809" />
  <sodipodi:namedview
     id="base"
     pagecolor="#ffffff"
     bordercolor="#666666"
     borderopacity="1.0"
     inkscape:pageopacity="0.0"
     inkscape:pageshadow="2"
     inkscape:zoom="5.6568543"
     inkscape:cx="68.443148"
     inkscape:cy="33.919518"
     inkscape:document-units="px"
     inkscape:current-layer="layer1"
     showgrid="false"
     units="px"
     inkscape:snap-bbox="true"
     inkscape:bbox-paths="true"
     inkscape:snap-bbox-edge-midpoints="true"
     inkscape:bbox-nodes="true"
     inkscape:snap-bbox-midpoints="true"
     inkscape:object-paths="true"
     inkscape:snap-intersection-paths="true"
     inkscape:object-nodes="true"
     inkscape:snap-smooth-nodes="true"
     showguides="true"
     inkscape:guide-bbox="true"
     inkscape:window-width="1280"
     inkscape:window-height="947"
     inkscape:window-x="0"
     inkscape:window-y="24"
     inkscape:window-maximized="1">
    <sodipodi:guide
       position="75.000004,74.999991"
       orientation="1,0"
       id="guide3817" />
    <sodipodi:guide
       position="150.00001,37.49999"
       orientation="0,1"
       id="guide3819" />
    <sodipodi:guide
       position="37.500002,74.999991"
       orientation="1,0"
       id="guide3825" />
    <sodipodi:guide
       position="112.50001,74.999991"
       orientation="1,0"
       id="guide3829" />
  </sodipodi:namedview>
  <metadata
     id="metadata3812">
    <rdf:RDF>
      <cc:Work
         rdf:about="">
        <dc:format>image/svg+xml</dc:format>
        <dc:type
           rdf:resource="http://purl.org/dc/dcmitype/StillImage" />
        <dc:title></dc:title>
      </cc:Work>
    </rdf:RDF>
  </metadata>
  <g
     inkscape:label="Layer 1"
     inkscape:groupmode="layer"
     id="layer1"
     transform="translate(0,-977.36217)">
    <path
       style="fill:#444547;fill-opacity:1"
       d="m 16.224853,1029.7812 c -0.53674,-0.4583 -0.55877,-0.7903 -0.64035,-9.6511 l -0.0845,-9.1765 0.64036,-0.5206 c 0.606,-0.4927 1.188,-0.5207 10.849911,-0.5224 9.821202,0 10.240512,-0.023 11.023302,-0.5541 1.6667,-1.1313 4.64242,-2.1473 6.30651,-2.1534 0.847111,0 0.881561,-0.046 0.881561,-1.0882 0,-0.5968 0.0915,-1.0928 0.20343,-1.1023 0.38732,-0.033 2.64623,-0.042 3.01536,-0.013 0.22271,0.018 0.31809,0.2311 0.23891,0.5339 -0.15946,0.6097 0.2384,1.3947 0.70691,1.3947 0.32313,0 2.07409,-1.6304 2.07409,-1.9313 0,-0.078 -0.54928,-0.4168 -1.22062,-0.7521 -0.67134,-0.3353 -1.22061,-0.7231 -1.22061,-0.8618 0,-0.1387 0.72516,-0.2522 1.61148,-0.2522 0.88631,0 1.68049,-0.1117 1.76485,-0.2482 0.0844,-0.1365 0.23067,-0.9876 0.32513,-1.8913 0.0945,-0.9038 0.26433,-1.58601 0.3775,-1.51601 0.11316,0.07 0.430851,0.75311 0.705961,1.51821 0.27512,0.765 0.6373,1.4436 0.80486,1.5079 0.16756,0.064 0.86333,-0.195 1.54616,-0.5762 1.47041,-0.821 1.62301,-0.844 1.44689,-0.2185 -0.0735,0.2611 -0.21305,0.8694 -0.3101,1.3518 -0.17208,0.8554 -0.14562,0.8853 1.06828,1.21 0.6846,0.1831 1.20514,0.4517 1.15676,0.5968 -0.0484,0.1451 -0.55217,0.5048 -1.11954,0.7992 -1.00519,0.5217 -1.02746,0.5655 -0.87013,1.7133 0.18563,1.3544 -0.01,1.4454 -1.33836,0.6241 l -0.8961,-0.5538 -0.69559,1.0236 c -0.38258,0.563 -0.69559,1.1162 -0.69559,1.2292 0,0.113 0.65242,0.6387 1.44983,1.1682 l 1.44983,0.9626 0.17675,4.2617 c 0.0972,2.3439 0.17716,6.123 0.17766,8.3981 10e-4,4.6633 -0.0975,4.9222 -2.08366,5.4737 -0.68201,0.1894 -7.382081,0.2879 -19.653033,0.2888 -17.340352,0 -18.656392,-0.031 -19.174112,-0.4731 z m 31.326784,-0.9896 c 4.40472,-1.1728 7.376111,-4.2328 8.258491,-8.5049 0.88727,-4.2957 -1.62688,-9.06 -5.917061,-11.2126 -1.76298,-0.8846 -1.97334,-0.9249 -4.82704,-0.9249 -2.771911,0 -3.109231,0.06 -4.751691,0.8379 -2.2299,1.0567 -4.270641,3.0319 -5.299761,5.1296 -0.72205,1.4717 -0.79846,1.887 -0.79846,4.3399 0,2.3753 0.0904,2.9053 0.72696,4.2635 2.215311,4.7265 7.714441,7.3746 12.608562,6.0715 z m -5.740581,-1.248 c -2.96404,-0.9908 -5.11776,-3.0747 -6.231161,-6.0289 -0.37103,-0.9844 -0.45443,-1.8026 -0.35945,-3.5262 0.15538,-2.8196 0.93689,-4.4571 3.048111,-6.3866 2.015,-1.8416 3.93136,-2.564 6.832971,-2.5757 1.90041,-0.01 2.44909,0.105 3.96656,0.8151 2.3462,1.098 3.81711,2.4816 4.833991,4.5471 2.41027,4.896 0.28987,10.4678 -4.885211,12.837 -2.05537,0.941 -4.959251,1.0693 -7.205811,0.3182 z m 6.634131,-2.2593 c 2.58627,-1.2107 4.11949,-3.5082 4.29845,-6.4412 0.2523,-4.1351 -2.84859,-7.4731 -7.22256,-7.7747 -4.505281,-0.3106 -8.252371,3.0528 -8.253141,7.4081 -10e-4,5.6429 5.93816,9.2603 11.177251,6.8078 z m -5.494161,-0.5568 c -2.96396,-1.1048 -4.64231,-3.3867 -4.61514,-6.2748 0.0534,-5.6747 6.866991,-8.4598 11.378501,-4.6509 1.81567,1.5329 2.54498,4.8508 1.5766,7.1726 -0.53528,1.2834 -1.8567,2.6648 -3.22159,3.3679 -1.3697,0.7056 -3.773481,0.8865 -5.118371,0.3852 z m 4.839431,-2.384 c 1.23027,-0.843 2.06762,-2.4087 2.06762,-3.866 0,-4.2059 -5.290241,-6.2858 -8.309231,-3.2668 -3.12767,3.1277 -0.57873,8.308 3.882641,7.8909 0.8854,-0.083 1.80439,-0.3781 2.35897,-0.7581 z m -4.216291,-0.4166 c -0.63256,-0.2312 -1.64001,-1.2253 -2.06013,-2.0327 -1.58721,-3.0506 2.47007,-6.4186 5.503801,-4.5688 1.21809,0.7427 1.80045,1.7555 1.80045,3.1312 0,1.3758 -0.58236,2.3886 -1.80045,3.1313 -0.82742,0.5046 -2.531901,0.6723 -3.443671,0.339 z m -20.538312,-6.9545 c 1.23534,-0.5163 1.66048,-1.0936 1.30062,-1.766 -0.88574,-1.6551 -5.988361,-1.249 -5.988361,0.4765 0,1.3037 2.806641,2.0758 4.687741,1.2895 z m -2.92463,-0.6423 c -1.61599,-0.3887 -0.80016,-1.434 1.11918,-1.434 1.2712,0 2.54267,0.3903 2.54267,0.7805 0,0.5883 -2.25765,0.9913 -3.66185,0.6535 z m 32.681993,-6.3247 c -0.27886,-0.6732 -0.45682,-0.7803 -1.16726,-0.7025 -1.19829,0.1312 -1.15802,0.4708 0.15557,1.3119 1.24725,0.7987 1.525501,0.6311 1.01169,-0.6094 z m 1.628771,-0.3953 c 0.57249,-0.9263 0.60087,-0.9376 1.36489,-0.5425 1.05644,0.5463 1.16509,0.5145 0.96493,-0.2831 -0.14251,-0.5677 -0.0306,-0.7671 0.647,-1.1528 1.0394,-0.5914 1.03598,-0.844 -0.0143,-1.054 -0.96975,-0.194 -1.22414,-0.6362 -0.81059,-1.4089 0.41546,-0.7763 -0.0134,-0.9101 -0.94613,-0.2953 -1.09446,0.7215 -1.45612,0.6639 -1.78684,-0.2849 -0.3706,-1.063 -0.717441,-1.0345 -0.823721,0.068 -0.0747,0.7751 -0.1914,0.8918 -0.96655,0.9665 -1.06871,0.1031 -1.11424,0.3783 -0.16541,1 l 0.71614,0.4692 -0.85177,0.6666 c -1.13563,0.8888 -1.07349,1.1479 0.23322,0.9727 0.67861,-0.091 1.08499,-0.037 1.08499,0.1438 0,0.3898 0.498701,1.6808 0.649291,1.6808 0.0661,0 0.3833,-0.4257 0.70486,-0.946 z"
       id="path4142"
       inkscape:connector-curvature="0"
       sodipodi:nodetypes="sscscscsccsssssssscsssssscssscssscscsssssssssssssssssssssssscsssssssssssssssssssssssssssssscsssssssssscsssscc" />
    <path
       style="fill:#00a2ff;fill-opacity:1"
       d="m 91.224856,1029.7812 c -0.53674,-0.4583 -0.55877,-0.7903 -0.64035,-9.6511 l -0.0845,-9.1765 0.64036,-0.5206 c 0.606,-0.4927 1.188,-0.5207 10.849924,-0.5224 9.8212,0 10.24051,-0.023 11.0233,-0.5541 1.6667,-1.1313 4.64243,-2.1473 6.30652,-2.1534 0.84711,0 0.88156,-0.046 0.88156,-1.0882 0,-0.5968 0.0915,-1.0928 0.20343,-1.1023 0.38732,-0.033 2.64623,-0.042 3.01536,-0.013 0.22271,0.018 0.31809,0.2311 0.23891,0.5339 -0.15946,0.6097 0.2384,1.3947 0.70691,1.3947 0.32313,0 2.07409,-1.6304 2.07409,-1.9313 0,-0.078 -0.54928,-0.4168 -1.22062,-0.7521 -0.67134,-0.3353 -1.22061,-0.7231 -1.22061,-0.8618 0,-0.1387 0.72516,-0.2522 1.61148,-0.2522 0.88631,0 1.68049,-0.1117 1.76485,-0.2482 0.0844,-0.1365 0.23067,-0.9876 0.32513,-1.8913 0.0945,-0.9038 0.26433,-1.58599 0.3775,-1.51599 0.11316,0.07 0.43085,0.75309 0.70596,1.51819 0.27512,0.765 0.6373,1.4436 0.80486,1.5079 0.16756,0.064 0.86333,-0.195 1.54616,-0.5762 1.47041,-0.821 1.62301,-0.844 1.44689,-0.2185 -0.0735,0.2611 -0.21305,0.8694 -0.3101,1.3518 -0.17208,0.8554 -0.14562,0.8853 1.06828,1.21 0.6846,0.1831 1.20514,0.4517 1.15676,0.5968 -0.0484,0.1451 -0.55217,0.5048 -1.11954,0.7992 -1.00519,0.5217 -1.02746,0.5655 -0.87013,1.7133 0.18563,1.3544 -0.01,1.4454 -1.33836,0.6241 l -0.8961,-0.5538 -0.69559,1.0236 c -0.38258,0.563 -0.69559,1.1162 -0.69559,1.2292 0,0.113 0.65242,0.6387 1.44983,1.1682 l 1.44983,0.9626 0.17675,4.2617 c 0.0972,2.3439 0.17716,6.123 0.17766,8.3981 0.001,4.6633 -0.0975,4.9222 -2.08366,5.4737 -0.68201,0.1894 -7.38208,0.2879 -19.65304,0.2888 -17.340364,0 -18.656404,-0.031 -19.174124,-0.4731 z m 31.326804,-0.9896 c 4.40472,-1.1728 7.37611,-4.2328 8.25849,-8.5049 0.88727,-4.2957 -1.62688,-9.06 -5.91706,-11.2126 -1.76298,-0.8846 -1.97334,-0.9249 -4.82704,-0.9249 -2.77191,0 -3.10923,0.06 -4.7517,0.8379 -2.2299,1.0567 -4.27064,3.0319 -5.29976,5.1296 -0.72205,1.4717 -0.79846,1.887 -0.79846,4.3399 0,2.3753 0.0904,2.9053 0.72696,4.2635 2.21531,4.7265 7.71445,7.3746 12.60857,6.0715 z m -5.74058,-1.248 c -2.96405,-0.9908 -5.11777,-3.0747 -6.23117,-6.0289 -0.37103,-0.9844 -0.45443,-1.8026 -0.35945,-3.5262 0.15538,-2.8196 0.93689,-4.4571 3.04811,-6.3866 2.015,-1.8416 3.93137,-2.564 6.83298,-2.5757 1.90041,-0.01 2.44909,0.105 3.96656,0.8151 2.3462,1.098 3.81711,2.4816 4.83399,4.5471 2.41027,4.896 0.28987,10.4678 -4.88521,12.837 -2.05537,0.941 -4.95925,1.0693 -7.20581,0.3182 z m 6.63413,-2.2593 c 2.58627,-1.2107 4.11949,-3.5082 4.29845,-6.4412 0.2523,-4.1351 -2.84859,-7.4731 -7.22256,-7.7747 -4.50529,-0.3106 -8.25238,3.0528 -8.25315,7.4081 -0.001,5.6429 5.93817,9.2603 11.17726,6.8078 z m -5.49416,-0.5568 c -2.96397,-1.1048 -4.64232,-3.3867 -4.61515,-6.2748 0.0534,-5.6747 6.867,-8.4598 11.37851,-4.6509 1.81567,1.5329 2.54498,4.8508 1.5766,7.1726 -0.53528,1.2834 -1.8567,2.6648 -3.22159,3.3679 -1.3697,0.7056 -3.77348,0.8865 -5.11837,0.3852 z m 4.83943,-2.384 c 1.23027,-0.843 2.06762,-2.4087 2.06762,-3.866 0,-4.2059 -5.29024,-6.2858 -8.30923,-3.2668 -3.12768,3.1277 -0.57874,8.308 3.88264,7.8909 0.8854,-0.083 1.80439,-0.3781 2.35897,-0.7581 z m -4.21629,-0.4166 c -0.63256,-0.2312 -1.64001,-1.2253 -2.06013,-2.0327 -1.58722,-3.0506 2.47007,-6.4186 5.5038,-4.5688 1.21809,0.7427 1.80045,1.7555 1.80045,3.1312 0,1.3758 -0.58236,2.3886 -1.80045,3.1313 -0.82742,0.5046 -2.5319,0.6723 -3.44367,0.339 z m -20.538322,-6.9545 c 1.23534,-0.5163 1.66048,-1.0936 1.30062,-1.766 -0.88574,-1.6551 -5.988372,-1.249 -5.988372,0.4765 0,1.3037 2.80664,2.0758 4.687752,1.2895 z m -2.924642,-0.6423 c -1.61599,-0.3887 -0.80016,-1.434 1.11918,-1.434 1.2712,0 2.542682,0.3903 2.542682,0.7805 0,0.5883 -2.257662,0.9913 -3.661862,0.6535 z m 32.682014,-6.3247 c -0.27886,-0.6732 -0.45682,-0.7803 -1.16726,-0.7025 -1.19829,0.1312 -1.15802,0.4708 0.15557,1.3119 1.24725,0.7987 1.5255,0.6311 1.01169,-0.6094 z m 1.62877,-0.3953 c 0.57249,-0.9263 0.60087,-0.9376 1.36489,-0.5425 1.05644,0.5463 1.16509,0.5145 0.96493,-0.2831 -0.14251,-0.5677 -0.0306,-0.7671 0.647,-1.1528 1.0394,-0.5914 1.03598,-0.844 -0.0143,-1.054 -0.96975,-0.194 -1.22414,-0.6362 -0.81059,-1.4089 0.41546,-0.7763 -0.0134,-0.9101 -0.94613,-0.2953 -1.09446,0.7215 -1.45612,0.6639 -1.78684,-0.2849 -0.3706,-1.063 -0.71744,-1.0345 -0.82372,0.068 -0.0747,0.7751 -0.1914,0.8918 -0.96655,0.9665 -1.06871,0.1031 -1.11424,0.3783 -0.16541,1 l 0.71614,0.4692 -0.85177,0.6666 c -1.13563,0.8888 -1.07349,1.1479 0.23322,0.9727 0.67861,-0.091 1.08499,-0.037 1.08499,0.1438 0,0.3898 0.4987,1.6808 0.64929,1.6808 0.0661,0 0.3833,-0.4257 0.70486,-0.946 z"
       id="path4142-3"
       inkscape:connector-curvature="0"
       sodipodi:nodetypes="sscscscsccsssssssscsssssscssscssscscsssssssssssssssssssssssscsssssssssssssssssssssssssssssscsssssssssscsssscc" />
  </g>
</svg>
