<?xml version="1.0" encoding="UTF-8" standalone="no"?>
<!-- Created with Inkscape (http://www.inkscape.org/) -->

<svg
   xmlns:dc="http://purl.org/dc/elements/1.1/"
   xmlns:cc="http://creativecommons.org/ns#"
   xmlns:rdf="http://www.w3.org/1999/02/22-rdf-syntax-ns#"
   xmlns:svg="http://www.w3.org/2000/svg"
   xmlns="http://www.w3.org/2000/svg"
   xmlns:sodipodi="http://sodipodi.sourceforge.net/DTD/sodipodi-0.dtd"
   xmlns:inkscape="http://www.inkscape.org/namespaces/inkscape"
   width="150"
   height="75"
   viewBox="0 0 150.00001 75.000004"
   id="svg3807"
   version="1.1"
   inkscape:version="0.91 r13725"
   sodipodi:docname="washing.svg">
  <defs
     id="defs3809" />
  <sodipodi:namedview
     id="base"
     pagecolor="#ffffff"
     bordercolor="#666666"
     borderopacity="1.0"
     inkscape:pageopacity="0.0"
     inkscape:pageshadow="2"
     inkscape:zoom="5.6568543"
     inkscape:cx="72.254236"
     inkscape:cy="28.302893"
     inkscape:document-units="px"
     inkscape:current-layer="layer1"
     showgrid="false"
     units="px"
     inkscape:snap-bbox="true"
     inkscape:bbox-paths="true"
     inkscape:snap-bbox-edge-midpoints="true"
     inkscape:bbox-nodes="true"
     inkscape:snap-bbox-midpoints="true"
     inkscape:object-paths="true"
     inkscape:snap-intersection-paths="true"
     inkscape:object-nodes="true"
     inkscape:snap-smooth-nodes="true"
     showguides="true"
     inkscape:guide-bbox="true"
     inkscape:window-width="1280"
     inkscape:window-height="947"
     inkscape:window-x="0"
     inkscape:window-y="24"
     inkscape:window-maximized="1">
    <sodipodi:guide
       position="75.000004,74.999991"
       orientation="1,0"
       id="guide3817" />
    <sodipodi:guide
       position="150.00001,37.49999"
       orientation="0,1"
       id="guide3819" />
    <sodipodi:guide
       position="37.500002,74.999991"
       orientation="1,0"
       id="guide3825" />
    <sodipodi:guide
       position="112.50001,74.999991"
       orientation="1,0"
       id="guide3829" />
  </sodipodi:namedview>
  <metadata
     id="metadata3812">
    <rdf:RDF>
      <cc:Work
         rdf:about="">
        <dc:format>image/svg+xml</dc:format>
        <dc:type
           rdf:resource="http://purl.org/dc/dcmitype/StillImage" />
        <dc:title></dc:title>
      </cc:Work>
    </rdf:RDF>
  </metadata>
  <g
     inkscape:label="Layer 1"
     inkscape:groupmode="layer"
     id="layer1"
     transform="translate(0,-977.36217)">
    <g
       transform="matrix(0.68389066,0,0,0.63291148,-84.164144,947.36218)"
       id="g5379"
       style="fill:#444547;fill-opacity:1;stroke:none;stroke-opacity:1">
      <g
         id="g5381"
         style="fill:#444547;fill-opacity:1;stroke:none;stroke-opacity:1">
        <path
           style="fill:#444547;fill-opacity:1;stroke:none;stroke-opacity:1"
           inkscape:connector-curvature="0"
           id="path5383"
           d="m 187.8,105.8 c 2.2,0 3.2,0.8 3.9,3 1,3 2,6.2 3,9.2 0.2,0.5 0.4,0.7 0.9,0.8 1.2,0.2 2.1,1.4 2.1,2.7 0,2.7 0,5.2 0,7.9 0.1,1.7 -1.4,3.1 -2.8,3.3 -0.6,0.1 -1.2,0.2 -1.8,0.1 -10.7,0 -21.3,-0.1 -32,-0.1 -1.2,0 -2.2,-0.2 -3,-1.1 -0.6,-0.6 -0.8,-1.3 -0.8,-2.2 0,-2.5 0,-5 0,-7.6 0,-1.6 0.8,-2.6 2.3,-3 0.3,-0.1 0.6,-0.5 0.6,-0.7 0.9,-3 1.8,-6.1 2.7,-9.1 0.6,-2 2.1,-3.1 4.2,-3.1 3.6,-0.1 17.2,-0.1 20.7,-0.1 z m 4.3,13 c 0,-0.3 0,-0.4 0,-0.5 -0.8,-2.8 -1.7,-5.5 -2.5,-8.3 -0.4,-1.2 -0.9,-1.6 -2.3,-1.6 -6.5,0 -12.8,0 -19.3,-0.1 -1.5,0 -1.9,0.4 -2.4,1.8 -0.3,1.2 -0.6,2.4 -0.9,3.5 -0.5,1.7 -0.8,3.3 -1.3,5.1 9.7,0.1 19.1,0.1 28.7,0.1 z" />
      </g>
      <path
         style="fill:#444547;fill-opacity:1;stroke:none;stroke-opacity:1"
         inkscape:connector-curvature="0"
         id="path5385"
         d="m 167.6,142.2 -4.3,0 c -0.8,0 -1.5,-0.6 -1.5,-1.5 l 0,-6.2 7.2,0 0,6.2 c -0.1,0.8 -0.7,1.5 -1.4,1.5 z" />
      <path
         style="fill:#444547;fill-opacity:1;stroke:none;stroke-opacity:1"
         inkscape:connector-curvature="0"
         id="path5387"
         d="m 191.7,142.2 -4.3,0 c -0.8,0 -1.5,-0.6 -1.5,-1.5 l 0,-6.2 7.2,0 0,6.2 c 0.1,0.8 -0.5,1.5 -1.4,1.5 z" />
      <rect
         style="fill:#444547;fill-opacity:1;stroke:none;stroke-opacity:1"
         id="rect5389"
         height="17.4"
         width="2.2"
         y="85.599998"
         x="177.10001" />
      <polygon
         style="fill:#444547;fill-opacity:1;stroke:none;stroke-opacity:1"
         id="polygon5391"
         points="145,140.9 165.3,85.6 167.6,85.6 147.3,140.9 " />
      <polygon
         style="fill:#444547;fill-opacity:1;stroke:none;stroke-opacity:1"
         id="polygon5393"
         points="210.8,140.9 190.4,85.6 188.1,85.6 208.4,140.9 " />
      <polygon
         style="fill:#444547;fill-opacity:1;stroke:none;stroke-opacity:1"
         id="polygon5395"
         points="167.2,102.9 171,85.6 173.3,85.6 169.5,102.9 " />
      <polygon
         style="fill:#444547;fill-opacity:1;stroke:none;stroke-opacity:1"
         id="polygon5397"
         points="189.2,102.9 185.6,85.6 183.2,85.6 187,102.9 " />
      <path
         style="fill:#444547;fill-opacity:1;stroke:none;stroke-opacity:1"
         inkscape:connector-curvature="0"
         id="path5399"
         d="m 187,77.4 -4.3,0 c -0.6,0 -1.2,-0.6 -1.2,-1.2 l 0,-5.1 -6.4,0 0,5.1 c 0,0.6 -0.6,1.2 -1.2,1.2 l -4.6,0 c -2.1,0 -3.8,1.7 -3.8,3.8 l 0,3 25.4,0 0,-3 C 190.8,79 189.2,77.4 187,77.4 Z" />
    </g>
    <g
       style="fill:#00a2ff;fill-opacity:1;stroke:none;stroke-opacity:1"
       id="g4584"
       transform="matrix(0.68389066,0,0,0.63291148,-9.1641325,947.36218)">
      <g
         style="fill:#00a2ff;fill-opacity:1;stroke:none;stroke-opacity:1"
         id="g4586">
        <path
           d="m 187.8,105.8 c 2.2,0 3.2,0.8 3.9,3 1,3 2,6.2 3,9.2 0.2,0.5 0.4,0.7 0.9,0.8 1.2,0.2 2.1,1.4 2.1,2.7 0,2.7 0,5.2 0,7.9 0.1,1.7 -1.4,3.1 -2.8,3.3 -0.6,0.1 -1.2,0.2 -1.8,0.1 -10.7,0 -21.3,-0.1 -32,-0.1 -1.2,0 -2.2,-0.2 -3,-1.1 -0.6,-0.6 -0.8,-1.3 -0.8,-2.2 0,-2.5 0,-5 0,-7.6 0,-1.6 0.8,-2.6 2.3,-3 0.3,-0.1 0.6,-0.5 0.6,-0.7 0.9,-3 1.8,-6.1 2.7,-9.1 0.6,-2 2.1,-3.1 4.2,-3.1 3.6,-0.1 17.2,-0.1 20.7,-0.1 z m 4.3,13 c 0,-0.3 0,-0.4 0,-0.5 -0.8,-2.8 -1.7,-5.5 -2.5,-8.3 -0.4,-1.2 -0.9,-1.6 -2.3,-1.6 -6.5,0 -12.8,0 -19.3,-0.1 -1.5,0 -1.9,0.4 -2.4,1.8 -0.3,1.2 -0.6,2.4 -0.9,3.5 -0.5,1.7 -0.8,3.3 -1.3,5.1 9.7,0.1 19.1,0.1 28.7,0.1 z"
           id="path4588"
           inkscape:connector-curvature="0"
           style="fill:#00a2ff;fill-opacity:1;stroke:none;stroke-opacity:1" />
      </g>
      <path
         d="m 167.6,142.2 -4.3,0 c -0.8,0 -1.5,-0.6 -1.5,-1.5 l 0,-6.2 7.2,0 0,6.2 c -0.1,0.8 -0.7,1.5 -1.4,1.5 z"
         id="path4590"
         inkscape:connector-curvature="0"
         style="fill:#00a2ff;fill-opacity:1;stroke:none;stroke-opacity:1" />
      <path
         d="m 191.7,142.2 -4.3,0 c -0.8,0 -1.5,-0.6 -1.5,-1.5 l 0,-6.2 7.2,0 0,6.2 c 0.1,0.8 -0.5,1.5 -1.4,1.5 z"
         id="path4592"
         inkscape:connector-curvature="0"
         style="fill:#00a2ff;fill-opacity:1;stroke:none;stroke-opacity:1" />
      <rect
         x="177.10001"
         y="85.599998"
         width="2.2"
         height="17.4"
         id="rect4594"
         style="fill:#00a2ff;fill-opacity:1;stroke:none;stroke-opacity:1" />
      <polygon
         points="167.6,85.6 147.3,140.9 145,140.9 165.3,85.6 "
         id="polygon4596"
         style="fill:#00a2ff;fill-opacity:1;stroke:none;stroke-opacity:1" />
      <polygon
         points="188.1,85.6 208.4,140.9 210.8,140.9 190.4,85.6 "
         id="polygon4598"
         style="fill:#00a2ff;fill-opacity:1;stroke:none;stroke-opacity:1" />
      <polygon
         points="173.3,85.6 169.5,102.9 167.2,102.9 171,85.6 "
         id="polygon4600"
         style="fill:#00a2ff;fill-opacity:1;stroke:none;stroke-opacity:1" />
      <polygon
         points="183.2,85.6 187,102.9 189.2,102.9 185.6,85.6 "
         id="polygon4602"
         style="fill:#00a2ff;fill-opacity:1;stroke:none;stroke-opacity:1" />
      <path
         d="m 187,77.4 -4.3,0 c -0.6,0 -1.2,-0.6 -1.2,-1.2 l 0,-5.1 -6.4,0 0,5.1 c 0,0.6 -0.6,1.2 -1.2,1.2 l -4.6,0 c -2.1,0 -3.8,1.7 -3.8,3.8 l 0,3 25.4,0 0,-3 C 190.8,79 189.2,77.4 187,77.4 Z"
         id="path4604"
         inkscape:connector-curvature="0"
         style="fill:#00a2ff;fill-opacity:1;stroke:none;stroke-opacity:1" />
    </g>
  </g>
</svg>
