<?xml version="1.0" encoding="UTF-8" standalone="no"?>
<svg
   xmlns:dc="http://purl.org/dc/elements/1.1/"
   xmlns:cc="http://creativecommons.org/ns#"
   xmlns:rdf="http://www.w3.org/1999/02/22-rdf-syntax-ns#"
   xmlns:svg="http://www.w3.org/2000/svg"
   xmlns="http://www.w3.org/2000/svg"
   xmlns:xlink="http://www.w3.org/1999/xlink"
   xmlns:sodipodi="http://sodipodi.sourceforge.net/DTD/sodipodi-0.dtd"
   xmlns:inkscape="http://www.inkscape.org/namespaces/inkscape"
   viewBox="0 0 2231 1255.2698"
   width="2231"
   height="1255.2697"
   version="1.1"
   id="svg5185"
   sodipodi:docname="gzjrogzuthenqqrnwzaecrrdircis.svg"
   inkscape:version="0.91 r13725">
  <metadata
     id="metadata5191">
    <rdf:RDF>
      <cc:Work
         rdf:about="">
        <dc:format>image/svg+xml</dc:format>
        <dc:type
           rdf:resource="http://purl.org/dc/dcmitype/StillImage" />
        <dc:title />
      </cc:Work>
    </rdf:RDF>
  </metadata>
  <defs
     id="defs5189">
    <linearGradient
       inkscape:collect="always"
       id="linearGradient5742">
      <stop
         style="stop-color:#f2f2f2;stop-opacity:1;"
         offset="0"
         id="stop5738" />
      <stop
         style="stop-color:#f2f2f2;stop-opacity:0;"
         offset="1"
         id="stop5740" />
    </linearGradient>
    <linearGradient
       inkscape:collect="always"
       xlink:href="#linearGradient5742"
       id="linearGradient5744"
       x1="389.57669"
       y1="610.16602"
       x2="1813.2911"
       y2="610.16602"
       gradientUnits="userSpaceOnUse" />
  </defs>
  <sodipodi:namedview
     pagecolor="#ffffff"
     bordercolor="#666666"
     borderopacity="1"
     objecttolerance="10"
     gridtolerance="10"
     guidetolerance="10"
     inkscape:pageopacity="0"
     inkscape:pageshadow="2"
     inkscape:window-width="1301"
     inkscape:window-height="744"
     id="namedview5187"
     showgrid="false"
     inkscape:zoom="0.32"
     inkscape:cx="1077.1764"
     inkscape:cy="550.55204"
     inkscape:window-x="65"
     inkscape:window-y="24"
     inkscape:window-maximized="1"
     inkscape:current-layer="svg5185"
     fit-margin-top="0"
     fit-margin-left="0"
     fit-margin-right="0"
     fit-margin-bottom="0"
     showguides="true" />
  <g
     id="g4708">
    <g
       style="fill:none;fill-opacity:1;stroke:#00003e;stroke-width:5.19999981;stroke-miterlimit:4;stroke-dasharray:none;stroke-opacity:1"
       id="g4503" />
    <g
       style="fill:none;fill-opacity:1;stroke:#00003e;stroke-width:5.19999981;stroke-miterlimit:4;stroke-dasharray:none;stroke-opacity:1"
       id="g4508" />
  </g>
  <g
     id="g4741"
     style="stroke:#6c5353;stroke-opacity:1;stroke-width:1.5;stroke-miterlimit:4;stroke-dasharray:none">
    <path
       id="path4611"
       style="fill:none;fill-opacity:1;stroke:#a9a9a9;stroke-width:3.00000048;stroke-linecap:butt;stroke-linejoin:miter;stroke-miterlimit:4;stroke-dasharray:none;stroke-opacity:1"
       d="m 1230.3753,360.45124 c 25.0232,10.5791 46.8528,22.95015 72.1678,27.85296 11.6102,2.24856 27.2801,-2.51518 35.4741,0.50639 11.2211,4.13782 25.9954,19.27681 39.7925,27.68904 5.9626,3.63546 11.1014,7.54501 17.395,9.61423 6.8956,2.26716 15.097,-0.41095 21.5915,2.83123 5.6471,2.81917 8.2791,9.6378 13.251,13.52594 8.8508,6.92149 14.3854,7.65685 29.0541,17.08952 m 0,0 c 0,0 28.767,11.35324 61.6478,32.13573 15.7398,9.94839 42.0181,24.07377 48.0475,36.67954 17.5781,36.75099 47.2462,89.06041 78.1975,132.97768 4.3094,6.11467 8.6437,12.06664 12.9737,17.79132 12.7132,16.80812 89.2745,63.06761 123.7682,104.65 11.6749,14.07417 13.2091,35.78783 27.0709,47.71404 7.1941,6.18951 19.1655,4.27505 26.5826,10.19542 8.9604,7.1522 10.3702,21.18632 19.1284,28.58469 11.1098,9.38486 27.2077,10.59582 39.8054,17.8623 9.1995,5.30638 25.8456,18.63077 25.8456,18.63077 M 830.6196,762.9392 c 37.66879,27.25635 37.69519,27.47367 44.12839,47.58911 19.99298,62.51434 21.56986,66.35735 49.83683,173.25179 5.72879,21.664 1.35405,44.7102 -5.58537,67.1475 -2.81431,9.0995 -27.64984,62.6955 -32.38405,96.1963 -1.85815,13.1488 4.83226,26.883 1.75054,39.8 -4.97281,20.8434 -30.31977,52.0961 -31.51476,56.0304 M 1459.1013,459.56055 c 0,0 14.9368,69.71102 10.9442,104.50983 -4.1662,36.31179 -5.9965,92.10278 -29.5713,126.39313 -11.7853,17.14209 -32.0434,25.31697 -38.1157,43.65567 -6.8921,20.81471 12.4962,44.92134 5.1413,65.57707 -45.7475,128.47888 -31.0584,165.72644 -76.3995,234.18235 -4.8996,7.3975 -15.7689,9.7194 -20.0797,17.4748 -5.1046,9.1835 -0.8149,21.4901 -5.0216,31.1181 -4.9059,11.2282 -17.0595,18.0488 -22.6498,28.9524 -6.9391,13.5345 -9.7811,7.0512 -12.7697,43.8058 -1.6442,20.2208 -11.4874,37.0701 -28.432,54.144 -6.5089,6.5586 -8.3375,16.3338 -12.8451,20.5883 -8.9828,8.4785 -21.1147,7.9202 -22.592,16.5374 -8.0695,47.0709 -10.0186,37.2742 -8.8909,35.5463 m 362.0679,-961.65427 c 0,0 -44.2143,-3.79674 -73.3685,-33.49053 -11.1971,-11.40432 -35.0537,-28.50987 -55.683,-36.88111 -37.112,-15.05978 -81.7015,-5.46666 -118.0815,-22.21751 -21.2362,-9.77806 -33.2687,-34.52394 -54.6681,-43.93978 -35.9606,-15.82287 -79.3891,-4.9623 -116.5043,-17.84597 -13.8933,-4.82273 -33.8501,-13.46686 -48.8668,-25.05 -5.8911,-4.5441 -27.9171,5.02395 -39.543,-17.69572 -8.9114,-17.4148 -23.6226,-15.67476 -31.8651,-26.855995 -4.8735,-6.611095 -3.7974,-16.877093 -9.5949,-22.694891 -6.3813,-6.403659 -16.94609,-6.432478 -24.94324,-10.648358 C 978.83318,58.88804 972.56904,53.182469 964.0648,48.620709 949.3887,40.748302 938.72006,10.46429 921.36515,-1.4381377 M 1514.4949,952.26019 c 0,0 -0.6805,-0.029 -36.3199,10.5584 -1.8967,0.56344 -5.3814,6.41632 -11.997,11.03845 -8.0836,5.64785 -19.5244,10.2486 -22.0431,10.96298 -4.8402,1.3728 -13.7387,4.30788 -22.607,2.61883 -7.9532,-1.51477 -15.8822,-7.68996 -20.838,-6.43026 -12.0554,3.06433 -24.6712,15.12576 -35.0301,18.52086 -11.8852,3.89535 -25.6941,0.38105 -38.44,1.82815 -11.3863,1.2927 -22.395,5.3832 -33.8316,6.1066 -16.5512,1.0469 -33.1513,-1.3038 -49.685,-2.5977 -9.1385,-0.7152 -18.1964,-3.3216 -27.3509,-2.8537 -9.7533,0.4985 -19.2423,3.4774 -28.6781,5.9955 -7.6491,2.0413 -14.67,7.0017 -22.5783,7.3693 -13.209,0.614 -25.6611,-6.5044 -38.691,-8.7574 -18.3274,-3.169 -36.8477,-8.02336 -55.3978,-6.67132 -19.6095,1.42922 -37.4282,12.89022 -56.9198,15.46922 -28.80073,3.8107 -58.78225,6.0467 -87.15498,-0.1976 -12.5895,-2.7707 -23.28742,-11.0781 -35.13587,-16.15617 -12.87977,-5.52006 -25.14504,-13.87769 -39.05813,-15.54662 -31.00616,-3.7193 -61.55832,11.99719 -92.76806,13.07755 -28.67103,0.99248 -45.10038,-14.27926 -85.84872,-6.09198 -12.07921,2.7611 -35.57416,14.99332 -49.92647,15.97992 -19.4977,1.3403 -39.26079,-2.5625 -39.26079,-2.5625 M 1061.0854,599.27102 c 0,0 -28.2687,-30.74929 -61.54761,-40.583 -50.39778,-14.89222 -37.78561,-31.87869 -62.44879,-38.83041 -43.47902,-12.25529 -46.90019,-15.61685 -51.71227,-30.30448 -3.86324,-11.79153 -39.4889,-19.41186 -56.97484,-32.55184 -7.15662,-5.37791 -11.82911,-13.73559 -19.28419,-18.6915 -6.07274,-4.03696 -13.66835,-5.19028 -20.11885,-8.59121 -12.24765,-6.45738 -26.14199,-20.62059 -45.32566,-25.59636 -19.7812,-5.13075 -31.69204,-30.05452 -49.79223,-42.07948 -13.37856,-8.88812 -31.69834,-10.39587 -42.9355,-21.87239 -11.77537,-12.02618 -9.23799,-34.45277 -21.96675,-45.4649 -10.43917,-9.03132 -28.87896,-6.48569 -39.49075,-12.46395 -25.65243,-14.45158 -55.14441,-40.6097 -55.31355,-41.03219 m 526.91099,358.06171 c -52.05,53.60053 -30.4572,46.39915 -74.4442,69.20226 -14.82864,7.68725 -44.81283,35.34397 -77.4666,40.40687 -32.79691,5.05128 -51.53887,26.08478 -72.1999,46.78563 -11.19939,11.12497 -22.42145,22.30483 -32.42068,34.51984 -13.81302,16.87389 -25.13963,43.43555 -37.90003,53.32297 -14.03878,10.87797 -37.72642,10.0834 -73.06526,24.16445 0,0 -46.02381,15.76947 -67.7958,73.30496 -27.15409,71.7584 -91.19254,99.9653 -125.51503,104.59 -6.15902,0.8299 -43.27622,24.1587 -66.48587,32.5262 -25.37657,9.1487 -55.10481,5.863 -78.66311,19.0036 -16.07988,8.9692 -25.6888,38.8729 -42.25474,56.4416 -21.84976,23.1724 -48.75574,33.6943 -48.75574,33.6943 M 1061.0854,599.27102 c 21.562,19.26896 21.8005,67.26555 93.705,93.1466 92.3196,35.46871 190.927,72.70071 251.1485,146.82689 44.8848,55.24836 83.6109,111.43424 141.2746,127.03119 8.7383,2.36354 64.5349,11.43213 127.9203,56.3936 26.7256,18.9574 25.3313,36.4275 43.6674,47.8163 15.7513,9.7834 37.9781,5.1961 53.447,15.4202 11.4473,7.5661 6.9338,13.7876 26,31.9152 M 1061.0854,599.27102 c 25.1696,-15.59496 49.9397,-34.31482 79.2411,-40.71183 22.5343,-4.91964 50.962,3.2479 70.8363,-19.89602 28.6355,-33.34641 83.2526,-32.32029 116.5626,-52.13784 15.7847,-9.391 31.9187,-22.4706 50.8842,-22.61215 34.5202,-0.25764 91.4633,5.40333 109.7967,-23.51177 13.2626,-20.91761 48.7356,-28.95255 72.7336,-38.39167 0,0 32.1828,-21.09741 77.263,-31.09376 34.5281,-7.65647 17.0018,-22.92112 41.3195,-46.52731 30.854,-29.95134 93.9225,-79.90066 93.9225,-79.90066 m -259.15,707.77218 c 33.9814,-7.56437 67.9628,-11.31342 101.9442,-10.80276 4.5094,0.0678 37.6125,-18.20928 69.4737,-17.49763 22.2968,0.49803 34.405,20.34209 51.878,25.76239 7.926,2.45874 17.5324,-0.78187 33.8725,3.67456 16.6168,4.53189 23.4219,20.27642 46.084,26.30413 M 1469.606,566.95966 c 20.5703,32.22717 44.3193,44.29898 71.2536,52.01962 l 98.6863,32.41592 m -367.6687,88.71076 c 0,0 51.9529,-58.63953 84.9402,-78.66688 15.8846,-9.64389 38.9641,-6.05787 52.4787,-18.81247 9.3112,-8.78748 7.5632,-24.94596 15.0299,-35.34621 11.7866,-16.41726 45.28,-40.32074 45.28,-40.32074 M 867.86913,793.54618 c 0,0 41.80437,-1.93183 62.44498,-5.11571 24.26378,-3.74276 47.25812,-16.03658 71.80639,-16.38579 43.834,-0.62357 85.6946,32.41706 128.9997,25.59978 22.8305,-3.59407 33.0654,-23.13603 60.5728,-33.73807 4.1945,-1.61666 21.982,-0.81721 32.0376,-4.74556 7.3647,-2.8771 13.1397,-11.91297 19.6065,-13.35041 15.2595,-3.39189 28.5401,-5.70446 28.5401,-5.70446 m -623.72064,71.16638 c 0,0 34.13224,-28.12459 54.95027,-32.69414 19.25924,-4.22739 39.21377,8.17194 58.83007,6.17451 23.89759,-2.43337 68.6827,-21.81351 68.6827,-21.81351 0,0 -48.97181,-24.90204 -59.66129,-48.10431 -23.89856,-51.87352 -47.90729,-95.09446 -60.80622,-138.73435 -5.61197,-18.98651 24.06544,-45.75282 18.75443,-68.98211 -2.61369,-11.43175 -14.78075,-17.43908 -23.06473,-26.56436 -5.92452,-6.86239 -7.57933,-13.33049 -14.07802,-16.49713 -6.29664,-3.06819 -14.47519,1.66969 -20.99422,-0.89229 -6.89589,-2.71009 -10.20734,-11.26732 -16.9083,-14.42882 -11.6947,-5.51754 -26.22897,-1.8707 -38.19881,-6.76276 -10.29102,-4.20593 -17.18262,-14.74308 -27.51263,-18.85234 -10.64719,-4.23544 -23.3825,-0.94109 -33.95611,-5.35703 -18.49302,-7.72339 -32.336,-28.23379 -48.41181,-35.65218 M 369.55084,774.54851 c 0,0 35.18046,2.91183 51.91471,8.07632 7.19918,2.2218 12.87414,9.61477 20.40769,9.71637 8.63121,0.11641 15.19451,-8.87608 23.67286,-10.4975 18.51477,-3.54081 41.10981,0.44664 56.50688,2.23113 42.71513,4.95061 94.17731,32.16132 126.10358,27.19751 M 858.542,321.15178 c 0,0 7.65306,-5.77021 11.98854,-7.71697 8.17919,-3.67271 18.25386,-2.56087 25.90773,-7.23059 9.44687,-5.76365 22.56443,-24.3519 22.56443,-24.3519 0,0 18.55659,11.59249 28.93892,14.56263 5.713,1.63434 12.2862,-0.70876 17.75268,1.62082 7.17649,3.05831 11.29055,10.85705 17.67672,15.33725 28.06188,19.68673 89.80648,50.10125 89.80648,50.10125 m 250.7043,-237.91518 c 0,0 -42.289,54.18308 -68.5452,75.93118 -37.3747,30.95762 -89.4276,41.9967 -124.3326,75.71908 -26.2413,25.35212 -36.2861,63.8729 -60.1425,91.48488 -24.3991,28.24033 -82.51056,38.7461 -117.32069,67.89885 -30.51168,25.55287 -15.74197,56.47507 -36.58048,74.78975 -24.52138,21.55151 -64.57648,14.87315 -92.7556,31.34609 -59.45957,34.75885 -123.19928,76.34542 -153.71273,138.12895 -14.61742,29.59731 6.94926,102.4544 -16.55865,125.6995 -25.84551,25.55657 -89.14924,20.17632 -121.97734,29.22579 -0.75747,0.20881 -28.43759,3.15901 -41.89407,7.68681 -15.08193,5.07473 -27.22462,17.46591 -42.61187,21.52178 -17.89103,4.71583 -37.64676,-2.41187 -55.44303,2.64981 -9.05687,2.57599 -16.55361,8.98435 -24.70225,13.70266 -15.31919,8.87027 -45.46009,27.45203 -45.46009,27.45203 m 784.5862,-337.48831 c -17.8194,18.52476 -15.4234,47.68925 -14.7373,75.95376 m -91.4468,-88.0459 c 5.7206,9.82669 7.2044,43.47712 25.6957,78.9768 m 613.6034,13.2026 c 32.4259,6.66582 67.8559,-11.95528 92.1365,-32.03853 6.6154,-5.47184 22.4252,-15.71785 35.13,-20.40614 10.4142,-3.84301 22.659,-1.38236 32.7591,-5.98799 11.263,-5.13593 18.1587,-17.21969 28.9956,-23.2026 20.775,-11.46956 23.9908,-1.30786 67.2577,-23.33971 M 540.81499,580.85411 c -46.06292,22.51391 -54.32076,51.87944 -58.78424,92.98599 M 1462.8895,-11.457647 c 0,0 -9.2315,15.5369657 -24.3502,38.129866 -7.8058,11.664671 -18.0706,13.261224 -27.9451,23.41067 -5.8907,6.054761 -10.996,12.567413 -13.9396,20.405971 -3.7786,10.062526 -0.9491,26.587072 -0.3474,32.24398 2.1016,19.75743 -7.3939,77.60177 -4.542,97.26492 5.2417,36.13946 39.9565,62.27055 50.4369,97.25195 15.6114,52.10775 16.8992,162.31084 16.8992,162.31084"
       inkscape:connector-curvature="0"
       sodipodi:nodetypes="cssssssccssssaaaaaccsssaaccssssaaaassssccsssssssaaasccssssssssssssssssssscsccsssaassaaasccsccsscssasscccsssaaccssssssssccsssscccccsssccssssssccsscssacaaaaaaccaaasccsscsssccsssssssssaaaaccccccsaaaccccssssssc" />
  </g>
  <path
     d="m 1797.6045,697.18549 c -7.8353,-3.80727 -14.5534,-9.62917 -21.2723,-15.00272 -6.7186,-5.59808 -11.1961,-15.22722 -6.0444,-21.27242 14.5532,-17.01813 3.8045,-19.48078 -10.0777,-23.06355 -6.4924,-1.79268 -13.2108,-5.14988 -18.1367,-9.62901 -15.4497,-13.43434 -31.7978,-11.19525 -48.5924,-4.47814 -5.5982,2.23999 -10.7456,2.23999 -14.5545,-1.56626 -5.3735,-5.14987 -1.5641,-10.52435 1.1217,-15.67444 2.6862,-5.1498 6.0428,-10.29985 7.165,-15.67442 2.4615,-11.64333 8.9542,-27.9897 0.446,-34.26049 -12.0905,-8.73169 -25.3032,-19.25531 -41.6475,-21.04716 -15.675,-1.5662 -39.1874,-27.54246 -42.9945,-42.76856 -4.0291,-14.77809 -1.1177,-34.70692 -22.6155,-40.52882 -5.3737,-1.34355 -4.7023,-5.59806 -2.4609,-9.85252 3.1336,-5.59822 5.5969,-11.41988 8.7318,-17.01818 7.3876,-12.76236 2.4624,-19.03148 -10.9742,-19.03148 -8.9544,0 -15.6716,-1.34456 -18.5837,-11.19725 -1.3436,-4.25553 -6.272,-6.04542 -9.8509,-8.73268 -6.7197,-5.14981 -18.8106,-11.64338 -15.8993,-19.25792 3.8055,-10.07549 -0.4493,-25.74989 17.4662,-30.45258 8.0596,-2.01437 11.6414,-14.55431 12.3143,-25.07991 1.3436,-20.59755 -4.4778,-38.28951 -19.705,-52.61915 -5.8224,-5.37559 -7.8383,-12.76469 -2.2404,-18.58648 16.5705,-16.79345 13.6593,-38.2894 14.106,-58.44214 0.4482,-10.97368 -4.4757,-21.49597 -19.7049,-15.67436 -2.9116,1.11892 -6.2681,2.68624 -7.1664,-1.34344 -2.9104,-11.42 -16.5684,-12.54004 -21.7189,-24.1836 -3.3586,-7.61454 -12.3147,-19.92796 -23.9571,-21.49619 -9.4073,-1.34356 -16.7953,-5.37344 -23.0663,-10.747 -8.9571,-7.83823 -16.793,-10.3009 -25.5269,-1.12004 -3.1344,3.13249 -6.2678,4.25252 -8.5086,0.44619 -5.8222,-9.18082 -14.3312,-3.58268 -21.4972,-4.92532 -12.7634,-2.46267 -12.3158,7.61261 -16.5692,13.65796 -1.5672,2.46259 -3.3583,5.37453 -6.7167,4.47914 -15.0034,-4.03092 -23.96,5.82183 -32.4682,15.00261 -5.1527,5.82169 -8.0601,5.59713 -14.1064,1.34261 -16.1245,-11.86724 -6.0493,-25.52612 -0.2261,-35.15512 8.0615,-12.987139 2.2398,-20.152539 -6.7162,-23.510639 -17.4669,-6.71816 -34.2612,-17.018021 -53.9635,-16.122611 -6.4931,0.22361 -12.3169,1.56626 -18.1389,4.925351 -19.4793,11.64351 -30.0046,8.51098 -32.4684,-13.434351 -1.791,-15.449835 -10.9692,-16.346231 -19.4788,-13.882591 -10.9735,2.910874 -24.8572,-7.837207 -33.1418,6.718162 0,0.22263 -3.8063,-0.672803 -4.4788,-1.792822 -4.4792,-8.060817 -8.563,-9.599828 -15.7585,-17.68816 l -7.6959,-10.580624 c -11.6181,-4.143217 -44.1705,45.286835 -65.4422,67.232186 -5.8217,6.04536 -13.4326,10.299869 -13.4326,21.047949 0,17.4653 -6.0462,21.49612 -22.3948,14.77898 -12.9862,-5.37349 -29.3328,2.91078 -39.85544,-10.74712 -0.6728,-0.67271 -3.35915,-0.22457 -4.92732,0.22265 -15.8972,5.59823 -32.69179,9.85261 -39.63357,27.98976 -3.58177,9.40437 -7.83631,13.88362 -19.48083,8.50903 -12.0918,-5.59829 -18.36179,1.12006 -17.68896,15.45074 0.44717,7.83833 3.58267,17.01817 -3.80732,23.06463 -9.62821,7.61444 -10.52363,17.465 -9.18089,28.21205 0.89637,7.61468 1.12002,14.10825 -6.26912,19.48173 -6.94181,4.92734 -3.80729,10.07741 3.13451,12.76462 5.82185,2.23908 12.0919,5.14983 18.5855,2.68734 9.62906,-3.58286 17.6899,-1.12006 25.97437,4.03071 -13.88156,15.67239 -21.49428,37.39325 -47.91794,35.1551 -3.58273,-0.22344 -8.50815,0.67186 -12.98727,0.44749 -10.52359,-0.44749 -19.7045,4.47887 -20.59994,14.77878 -1.79285,23.06352 -17.91353,29.33339 -35.82721,34.03608 -12.53995,3.35907 -21.0491,9.85067 -28.21445,20.82446 -14.10625,21.27149 -15.44998,43.43952 -9.85276,66.95104 1.12008,5.15205 -0.67182,8.06178 -3.3591,10.74906 -15.89716,16.34628 -16.82565,40.39184 -27.12657,59.42539 0,0.89632 0.66129,-0.57102 0.88781,0.32556 -12.53998,0.67175 -21.67829,12.79839 -34.4418,12.35022 -9.40465,-0.44716 -14.55456,3.58363 -18.36181,12.76347 -4.70192,11.19646 -10.30007,19.70531 -26.4218,10.74707 -9.1809,-5.14884 -21.04917,2.01658 -29.10908,10.52549 -7.16631,7.83717 -2.91171,13.65908 2.6863,19.48075 2.23911,2.46265 5.37361,5.15182 2.46281,8.9572 -2.68731,3.5828 -6.71827,5.3735 -10.74714,3.35903 -14.33294,-6.9417 -25.97651,-0.22438 -34.48462,9.18089 -11.8672,12.98611 -21.27271,12.98611 -35.82721,3.80624 -17.24177,-10.97169 -38.51455,-3.35903 -56.42804,-1.34253 -15.22632,1.56634 -29.78085,4.92542 -43.66458,-0.89647 -11.86721,-4.9254 -14.10616,0 -12.31547,9.40548 2.68732,14.10611 4.47835,28.66155 8.06095,42.32057 12.54007,48.14225 21.72096,97.62803 47.47075,141.51488 1.34478,2.4646 3.80732,6.27086 2.91198,7.83824 -11.86718,20.82428 2.46261,40.9768 3.58367,60.90668 2.01556,38.51317 -1.34352,53.06758 -38.06614,66.27929 -26.19925,9.40453 -44.7845,26.19797 -57.99555,49.93319 -5.1488,9.1808 -9.85065,18.5852 -19.03155,24.407 l 0,1.9821 0,1.6006 c 6.49154,15.22713 19.47978,21.05013 34.70708,24.18363 13.65924,2.688 22.16722,14.1061 32.91632,21.7199 7.38827,5.3733 11.8672,17.0174 5.59732,25.976 -7.83741,11.195 -4.92542,23.2843 -6.04542,34.9295 -0.22464,2.9112 3.80629,6.4955 0,9.4051 -21.49629,16.7945 -11.19632,37.8417 -6.49369,57.0977 2.24009,9.6293 9.40553,22.8418 20.82464,19.4824 11.19733,-3.3574 2.91177,-15.8982 2.91177,-24.6319 0,-4.7027 -6.71813,-10.7481 0.44817,-13.6605 5.59823,-2.4612 12.98818,-2.6868 18.81007,0.4482 24.63089,13.659 24.63089,13.659 43.88801,-6.2691 2.91108,-2.9096 6.04547,-6.0441 9.6291,-7.3872 14.1063,-4.9289 19.03174,-15.8993 21.0481,-29.1129 0.89656,-6.2678 3.35919,-11.641 9.62834,-13.2074 11.19634,-2.6892 22.83981,-7.1663 34.03627,-6.2718 26.42267,1.7919 51.94888,0.4486 75.68324,-12.3143 5.15213,-2.6872 9.63021,-2.2423 14.55646,1.3446 20.15276,14.774 43.66459,3.8034 65.1609,5.3715 17.91462,1.3439 36.49992,1.3439 53.29255,6.4942 19.93002,6.0441 40.53092,13.658 59.78823,19.0304 15.89914,4.4802 34.25896,2.9132 50.15804,13.2128 10.74714,6.9428 22.39079,1.5667 33.58713,-1.7899 6.26997,-2.0179 14.7792,-4.2558 15.4509,6.9389 1.791,30.6769 16.1218,42.5468 43.2152,31.7988 11.6443,-4.7037 19.7054,-3.5848 30.2313,-0.4491 -2.2392,5.3729 -4.4779,9.4041 -5.8226,13.8825 -1.5668,5.5974 1.5688,8.7327 6.4937,10.5251 4.0307,1.3448 9.6296,7.1631 12.0938,1.7915 4.7006,-10.0783 20.1507,-14.7778 12.3139,-32.2441 10.9721,9.1819 17.4647,18.3612 30.2288,13.8823 10.3008,-3.582 15.4513,-13.2098 23.738,-20.1508 8.7301,15.2264 15.8966,31.1229 36.7237,17.9127 2.6853,-1.793 8.06,-0.2243 11.865,0.8949 9.628,3.1336 12.092,11.8684 14.3304,20.3769 2.4631,9.1793 8.958,11.6459 17.4671,9.8533 9.8528,-2.2408 4.0305,-8.509 3.3577,-13.6601 4.6496,-41.6107 12.4864,-41.8976 20.1522,-19.0299 7.1667,1.5659 11.8689,1.7895 16.3484,-4.9304 2.6866,-3.8049 8.7318,-11.4164 11.196,-8.0595 5.1522,7.1654 17.2393,11.8715 14.7772,21.7217 -2.462,10.0774 -2.462,16.569 5.3742,24.4069 3.8082,3.807 0.8967,16.3472 11.1957,12.7616 9.6291,-3.3567 23.5118,3.1357 28.8865,-12.9851 4.2557,-12.7632 18.8095,-15.0042 28.6615,-6.0448 4.4764,4.0283 11.1959,4.2559 14.5536,1.7919 8.0624,-5.8236 17.4667,-4.0321 25.7498,-6.4965 23.5121,-6.9413 39.4112,4.028 42.77,27.9883 0.896,6.943 4.7037,10.0785 10.0777,12.7629 7.1656,3.8095 14.1064,7.8392 21.049,11.8698 l 6.9405,0 c 10.7462,-12.5391 14.7781,-25.9758 8.7341,-42.7698 -9.1817,-25.9722 -20.1544,-52.8416 6.044,-76.5779 1.5671,-1.3448 2.0166,-4.0305 2.6893,-6.2697 2.462,-9.4028 6.2661,-16.1236 15.0026,-23.0645 8.0598,-6.4914 17.9119,-14.3317 23.0636,-23.9591 7.8358,-15.0007 17.2398,-20.5995 32.244,-12.7635 9.8538,5.151 15.2278,4.2556 21.7194,-4.9245 6.9422,-9.6279 16.125,-15.4497 29.5574,-9.4081 7.8385,3.5868 16.7977,4.48 25.3053,5.6005 12.0919,1.5649 22.3905,-8.0613 16.7934,-16.5692 -6.4951,-10.0772 -8.2853,-23.28847 -16.1237,-30.45383 -14.7773,-13.8826 -8.5097,-29.7807 -10.0765,-45.00771 -1.343,-11.86713 9.1817,-24.63063 -6.4908,-35.82702 -5.599,-4.02895 -12.9889,-18.13708 1.3425,-27.09334 4.7015,-2.91087 4.0294,-9.18078 0.8959,-14.33074 -4.9267,-7.83719 -8.9565,-15.899 -17.2434,-21.27254 -11.6415,-7.388 -16.1217,-21.27251 -22.8381,-32.24424 -4.4786,-7.1653 8.9545,-13.65885 9.6279,-19.928 1.7914,-17.68979 6.9422,-25.52703 25.303,-18.13795 1.3448,0.66975 4.2557,-1.56816 6.0475,-2.91191 10.0752,-7.1654 15.8975,-1.56626 20.6004,6.94075 4.9241,8.95732 10.7454,18.13815 20.5992,20.15455 25.304,5.37257 46.8012,-0.44925 68.0733,-18.13901 16.1224,-13.43446 23.0642,-40.30505 50.8295,-38.96138 4.4779,0.22348 6.9412,-3.35919 6.9412,-8.28454 0,-6.71817 6.2707,-7.61458 10.3012,-10.52445 l 0,-3.58271 c -7.1671,-9.629 -15.0018,-17.91347 -25.977,-23.06329 z"
     stroke-miterlimit="10"
     id="path5183"
     style="opacity:1;fill:none;fill-opacity:1;stroke:#13445e;stroke-width:4.00000048;stroke-miterlimit:4;stroke-dasharray:none;stroke-dashoffset:0;stroke-opacity:1"
     inkscape:connector-curvature="0"
     sodipodi:nodetypes="cccccccccccccccscccccccccccccccccccccccccccccccscccccccccccccccccccccccccccccccccccccccccccccccccsccccccccccccccccccccccccccccccccccccccccccccccccccccccccccccccccccscccc" />
</svg>
