<?xml version="1.0" encoding="UTF-8" standalone="no"?>
<svg
   xmlns:dc="http://purl.org/dc/elements/1.1/"
   xmlns:cc="http://creativecommons.org/ns#"
   xmlns:rdf="http://www.w3.org/1999/02/22-rdf-syntax-ns#"
   xmlns:svg="http://www.w3.org/2000/svg"
   xmlns="http://www.w3.org/2000/svg"
   xmlns:xlink="http://www.w3.org/1999/xlink"
   xmlns:sodipodi="http://sodipodi.sourceforge.net/DTD/sodipodi-0.dtd"
   xmlns:inkscape="http://www.inkscape.org/namespaces/inkscape"
   viewBox="0 0 2231 1255.2698"
   width="2231"
   height="1255.2697"
   version="1.1"
   id="svg5185"
   sodipodi:docname="rgyhvhmoxsipargfsveaiivozod.svg"
   inkscape:version="0.91 r13725">
  <metadata
     id="metadata5191">
    <rdf:RDF>
      <cc:Work
         rdf:about="">
        <dc:format>image/svg+xml</dc:format>
        <dc:type
           rdf:resource="http://purl.org/dc/dcmitype/StillImage" />
        <dc:title />
      </cc:Work>
    </rdf:RDF>
  </metadata>
  <defs
     id="defs5189">
    <linearGradient
       inkscape:collect="always"
       id="linearGradient5742">
      <stop
         style="stop-color:#f2f2f2;stop-opacity:1;"
         offset="0"
         id="stop5738" />
      <stop
         style="stop-color:#f2f2f2;stop-opacity:0;"
         offset="1"
         id="stop5740" />
    </linearGradient>
    <linearGradient
       inkscape:collect="always"
       xlink:href="#linearGradient5742"
       id="linearGradient5744"
       x1="389.57669"
       y1="610.16602"
       x2="1813.2911"
       y2="610.16602"
       gradientUnits="userSpaceOnUse" />
  </defs>
  <sodipodi:namedview
     pagecolor="#ffffff"
     bordercolor="#666666"
     borderopacity="1"
     objecttolerance="10"
     gridtolerance="10"
     guidetolerance="10"
     inkscape:pageopacity="0"
     inkscape:pageshadow="2"
     inkscape:window-width="1301"
     inkscape:window-height="744"
     id="namedview5187"
     showgrid="false"
     inkscape:zoom="0.33079337"
     inkscape:cx="1118.4985"
     inkscape:cy="607.34173"
     inkscape:window-x="65"
     inkscape:window-y="24"
     inkscape:window-maximized="1"
     inkscape:current-layer="svg5185"
     fit-margin-top="0"
     fit-margin-left="0"
     fit-margin-right="0"
     fit-margin-bottom="0"
     showguides="false" />
  <path
     d="m 1797.6045,697.18549 c -7.8353,-3.80727 -14.5534,-9.62917 -21.2723,-15.00272 -6.7186,-5.59808 -11.1961,-15.22722 -6.0444,-21.27242 14.5532,-17.01813 3.8045,-19.48078 -10.0777,-23.06355 -6.4924,-1.79268 -13.2108,-5.14988 -18.1367,-9.62901 -15.4497,-13.43434 -31.7978,-11.19525 -48.5924,-4.47814 -5.5982,2.23999 -10.7456,2.23999 -14.5545,-1.56626 -5.3735,-5.14987 -1.5641,-10.52435 1.1217,-15.67444 2.6862,-5.1498 6.0428,-10.29985 7.165,-15.67442 2.4615,-11.64333 8.9542,-27.9897 0.446,-34.26049 -12.0905,-8.73169 -25.3032,-19.25531 -41.6475,-21.04716 -15.675,-1.5662 -39.1874,-27.54246 -42.9945,-42.76856 -4.0291,-14.77809 -1.1177,-34.70692 -22.6155,-40.52882 -5.3737,-1.34355 -4.7023,-5.59806 -2.4609,-9.85252 3.1336,-5.59822 5.5969,-11.41988 8.7318,-17.01818 7.3876,-12.76236 2.4624,-19.03148 -10.9742,-19.03148 -8.9544,0 -15.6716,-1.34456 -18.5837,-11.19725 -1.3436,-4.25553 -6.272,-6.04542 -9.8509,-8.73268 -6.7197,-5.14981 -18.8106,-11.64338 -15.8993,-19.25792 3.8055,-10.07549 -0.4493,-25.74989 17.4662,-30.45258 8.0596,-2.01437 11.6414,-14.55431 12.3143,-25.07991 1.3436,-20.59755 -4.4778,-38.28951 -19.705,-52.61915 -5.8224,-5.37559 -7.8383,-12.76469 -2.2404,-18.58648 16.5705,-16.79345 13.6593,-38.2894 14.106,-58.44214 0.4482,-10.97368 -4.4757,-21.49597 -19.7049,-15.67436 -2.9116,1.11892 -6.2681,2.68624 -7.1664,-1.34344 -2.9104,-11.42 -16.5684,-12.54004 -21.7189,-24.1836 -3.3586,-7.61454 -12.3147,-19.92796 -23.9571,-21.49619 -9.4073,-1.34356 -16.7953,-5.37344 -23.0663,-10.747 -8.9571,-7.83823 -16.793,-10.3009 -25.5269,-1.12004 -3.1344,3.13249 -6.2678,4.25252 -8.5086,0.44619 -5.8222,-9.18082 -14.3312,-3.58268 -21.4972,-4.92532 -12.7634,-2.46267 -12.3158,7.61261 -16.5692,13.65796 -1.5672,2.46259 -3.3583,5.37453 -6.7167,4.47914 -15.0034,-4.03092 -23.96,5.82183 -32.4682,15.00261 -5.1527,5.82169 -8.0601,5.59713 -14.1064,1.34261 -16.1245,-11.86724 -6.0493,-25.52612 -0.2261,-35.15512 8.0615,-12.987139 2.2398,-20.152539 -6.7162,-23.510639 -17.4669,-6.71816 -34.2612,-17.018021 -53.9635,-16.122611 -6.4931,0.22361 -12.3169,1.56626 -18.1389,4.925351 -19.4793,11.64351 -30.0046,8.51098 -32.4684,-13.434351 -1.791,-15.449835 -10.9692,-16.346231 -19.4788,-13.882591 -10.9735,2.910874 -24.8572,-7.837207 -33.1418,6.718162 0,0.22263 -3.8063,-0.672803 -4.4788,-1.792822 -4.4792,-8.060817 -8.563,-9.599828 -15.7585,-17.68816 l -7.6959,-10.580624 c -11.6181,-4.143217 -44.1705,45.286835 -65.4422,67.232186 -5.8217,6.04536 -13.4326,10.299869 -13.4326,21.047949 0,17.4653 -6.0462,21.49612 -22.3948,14.77898 -12.9862,-5.37349 -29.3328,2.91078 -39.85544,-10.74712 -0.6728,-0.67271 -3.35915,-0.22457 -4.92732,0.22265 -15.8972,5.59823 -32.69179,9.85261 -39.63357,27.98976 -3.58177,9.40437 -7.83631,13.88362 -19.48083,8.50903 -12.0918,-5.59829 -18.36179,1.12006 -17.68896,15.45074 0.44717,7.83833 3.58267,17.01817 -3.80732,23.06463 -9.62821,7.61444 -10.52363,17.465 -9.18089,28.21205 0.89637,7.61468 1.12002,14.10825 -6.26912,19.48173 -6.94181,4.92734 -3.80729,10.07741 3.13451,12.76462 5.82185,2.23908 12.0919,5.14983 18.5855,2.68734 9.62906,-3.58286 17.6899,-1.12006 25.97437,4.03071 -13.88156,15.67239 -21.49428,37.39325 -47.91794,35.1551 -3.58273,-0.22344 -8.50815,0.67186 -12.98727,0.44749 -10.52359,-0.44749 -19.7045,4.47887 -20.59994,14.77878 -1.79285,23.06352 -17.91353,29.33339 -35.82721,34.03608 -12.53995,3.35907 -21.0491,9.85067 -28.21445,20.82446 -14.10625,21.27149 -15.44998,43.43952 -9.85276,66.95104 1.12008,5.15205 -0.67182,8.06178 -3.3591,10.74906 -15.89716,16.34628 -15.89716,39.6333 -26.19808,58.66685 0,0.89632 0,1.79073 0.22652,2.68731 -12.53998,0.67175 -21.94549,11.19518 -34.709,10.74701 -9.40465,-0.44716 -14.55456,3.58363 -18.36181,12.76347 -4.70192,11.19646 -10.30007,19.70531 -26.4218,10.74707 -9.1809,-5.14884 -21.04917,2.01658 -29.10908,10.52549 -7.16631,7.83717 -2.91171,13.65908 2.6863,19.48075 2.23911,2.46265 5.37361,5.15182 2.46281,8.9572 -2.68731,3.5828 -6.71827,5.3735 -10.74714,3.35903 -14.33294,-6.9417 -25.97651,-0.22438 -34.48462,9.18089 -11.8672,12.98611 -21.27271,12.98611 -35.82721,3.80624 -17.24177,-10.97169 -38.51455,-3.35903 -56.42804,-1.34253 -15.22632,1.56634 -29.78085,4.92542 -43.66458,-0.89647 -11.86721,-4.9254 -14.10616,0 -12.31547,9.40548 2.68732,14.10611 4.47835,28.66155 8.06095,42.32057 12.54007,48.14225 21.72096,97.62803 47.47075,141.51488 1.34478,2.4646 3.80732,6.27086 2.91198,7.83824 -11.86718,20.82428 2.46261,40.9768 3.58367,60.90668 2.01556,38.51317 -1.34352,53.06758 -38.06614,66.27929 -26.19925,9.40453 -44.7845,26.19797 -57.99555,49.93319 -5.1488,9.1808 -9.85065,18.5852 -19.03155,24.407 v 3.5827 c 6.49154,15.22713 19.47978,21.05013 34.70708,24.18363 13.65924,2.688 22.16722,14.1061 32.91632,21.7199 7.38827,5.3733 11.8672,17.0174 5.59732,25.976 -7.83741,11.195 -4.92542,23.2843 -6.04542,34.9295 -0.22464,2.9112 3.80629,6.4955 0,9.4051 -21.49629,16.7945 -11.19632,37.8417 -6.49369,57.0977 2.24009,9.6293 9.40553,22.8418 20.82464,19.4824 11.19733,-3.3574 2.91177,-15.8982 2.91177,-24.6319 0,-4.7027 -6.71813,-10.7481 0.44817,-13.6605 5.59823,-2.4612 12.98818,-2.6868 18.81007,0.4482 24.63089,13.659 24.63089,13.659 43.88801,-6.2691 2.91108,-2.9096 6.04547,-6.0441 9.6291,-7.3872 14.1063,-4.9289 19.03174,-15.8993 21.0481,-29.1129 0.89656,-6.2678 3.35919,-11.641 9.62834,-13.2074 11.19634,-2.6892 22.83981,-7.1663 34.03627,-6.2718 26.42267,1.7919 51.94888,0.4486 75.68324,-12.3143 5.15213,-2.6872 9.63021,-2.2423 14.55646,1.3446 20.15276,14.774 43.66459,3.8034 65.1609,5.3715 17.91462,1.3439 36.49992,1.3439 53.29255,6.4942 19.93002,6.0441 40.53092,13.658 59.78823,19.0304 15.89914,4.4802 34.25896,2.9132 50.15804,13.2128 10.74714,6.9428 22.39079,1.5667 33.58713,-1.7899 6.26997,-2.0179 14.7792,-4.2558 15.4509,6.9389 1.791,30.6769 16.1218,42.5468 43.2152,31.7988 11.6443,-4.7037 19.7054,-3.5848 30.2313,-0.4491 -2.2392,5.3729 -4.4779,9.4041 -5.8226,13.8825 -1.5668,5.5974 1.5688,8.7327 6.4937,10.5251 4.0307,1.3448 9.6296,7.1631 12.0938,1.7915 4.7006,-10.0783 20.1507,-14.7778 12.3139,-32.2441 10.9721,9.1819 17.4647,18.3612 30.2288,13.8823 10.3008,-3.582 15.4513,-13.2098 23.738,-20.1508 8.7301,15.2264 15.8966,31.1229 36.7237,17.9127 2.6853,-1.793 8.06,-0.2243 11.865,0.8949 9.628,3.1336 12.092,11.8684 14.3304,20.3769 2.4631,9.1793 8.958,11.6459 17.4671,9.8533 9.8528,-2.2408 4.0305,-8.509 3.3577,-13.6601 -1.5684,-11.4178 8.2846,-21.4947 20.1522,-19.0299 7.1667,1.5659 11.8689,1.7895 16.3484,-4.9304 2.6866,-3.8049 8.7318,-11.4164 11.196,-8.0595 5.1522,7.1654 17.2393,11.8715 14.7772,21.7217 -2.462,10.0774 -2.462,16.569 5.3742,24.4069 3.8082,3.807 0.8967,16.3472 11.1957,12.7616 9.6291,-3.3567 23.5118,3.1357 28.8865,-12.9851 4.2557,-12.7632 18.8095,-15.0042 28.6615,-6.0448 4.4764,4.0283 11.1959,4.2559 14.5536,1.7919 8.0624,-5.8236 17.4667,-4.0321 25.7498,-6.4965 23.5121,-6.9413 39.4112,4.028 42.77,27.9883 0.896,6.943 4.7037,10.0785 10.0777,12.7629 7.1656,3.8095 14.1064,7.8392 21.049,11.8698 h 6.9405 c 10.7462,-12.5391 14.7781,-25.9758 8.7341,-42.7698 -9.1817,-25.9722 -20.1544,-52.8416 6.044,-76.5779 1.5671,-1.3448 2.0166,-4.0305 2.6893,-6.2697 2.462,-9.4028 6.2661,-16.1236 15.0026,-23.0645 8.0598,-6.4914 17.9119,-14.3317 23.0636,-23.9591 7.8358,-15.0007 17.2398,-20.5995 32.244,-12.7635 9.8538,5.151 15.2278,4.2556 21.7194,-4.9245 6.9422,-9.6279 16.125,-15.4497 29.5574,-9.4081 7.8385,3.5868 16.7977,4.48 25.3053,5.6005 12.0919,1.5649 22.3905,-8.0613 16.7934,-16.5692 -6.4951,-10.0772 -8.2853,-23.28847 -16.1237,-30.45383 -14.7773,-13.8826 -8.5097,-29.7807 -10.0765,-45.00771 -1.343,-11.86713 9.1817,-24.63063 -6.4908,-35.82702 -5.599,-4.02895 -12.9889,-18.13708 1.3425,-27.09334 4.7015,-2.91087 4.0294,-9.18078 0.8959,-14.33074 -4.9267,-7.83719 -8.9565,-15.899 -17.2434,-21.27254 -11.6415,-7.388 -16.1217,-21.27251 -22.8381,-32.24424 -4.4786,-7.1653 8.9545,-13.65885 9.6279,-19.928 1.7914,-17.68979 6.9422,-25.52703 25.303,-18.13795 1.3448,0.66975 4.2557,-1.56816 6.0475,-2.91191 10.0752,-7.1654 15.8975,-1.56626 20.6004,6.94075 4.9241,8.95732 10.7454,18.13815 20.5992,20.15455 25.304,5.37257 46.8012,-0.44925 68.0733,-18.13901 16.1224,-13.43446 23.0642,-40.30505 50.8295,-38.96138 4.4779,0.22348 6.9412,-3.35919 6.9412,-8.28454 0,-6.71817 6.2707,-7.61458 10.3012,-10.52445 v -3.58271 c -7.1671,-9.629 -15.0018,-17.91347 -25.977,-23.06329 z"
     stroke-miterlimit="10"
     id="path5183"
     style="opacity:1;fill:none;fill-opacity:1;stroke:#12445d;stroke-width:6.00000072;stroke-miterlimit:4;stroke-dasharray:none;stroke-opacity:1"
     inkscape:connector-curvature="0"
     sodipodi:nodetypes="cccccccccccccccscccccccccccccccccccccccccccccccsccccccccccccccccccccccccccccccccccccccccccccccccsccccccccccccccccccccccccccccccccccccccccccccccccccccccccccccccccccscccc" />
  <g
     id="g4708">
    <g
       style="fill:none;fill-opacity:1;stroke:#00003e;stroke-width:5.19999981;stroke-miterlimit:4;stroke-dasharray:none;stroke-opacity:1"
       id="g4503" />
    <g
       style="fill:none;fill-opacity:1;stroke:#00003e;stroke-width:5.19999981;stroke-miterlimit:4;stroke-dasharray:none;stroke-opacity:1"
       id="g4508" />
  </g>
  <g
     id="g4741"
     style="stroke:#ac9393">
    <path
       id="path4611"
       style="fill:none;fill-opacity:1;stroke:#6c5353;stroke-width:1.50000018;stroke-linecap:butt;stroke-linejoin:miter;stroke-miterlimit:4;stroke-dasharray:none;stroke-opacity:1"
       d="m 1328.7721,772.29976 c -3.6139,6.96878 -29.7827,44.39441 -34.5167,61.43783 -3.0276,10.90003 16.685,3.07838 9.0108,26.88652 -7.4019,22.96342 0,0 -18.1823,47.17828 m -54.7086,-547.35115 c 25.0232,10.5791 46.8528,22.95015 72.1678,27.85296 11.6102,2.24856 27.2801,-2.51518 35.4741,0.50639 11.2211,4.13782 25.9954,19.27681 39.7925,27.68904 5.9626,3.63546 11.1014,7.54501 17.395,9.61423 6.8956,2.26716 15.097,-0.41095 21.5915,2.83123 5.6471,2.81917 8.2791,9.6378 13.251,13.52594 8.8508,6.92149 14.3854,7.65685 29.0541,17.08952 m 0,0 c 0,0 28.767,11.35324 61.6478,32.13573 15.7398,9.94839 42.0181,24.07377 48.0475,36.67954 17.5781,36.75099 47.2462,89.06041 78.1975,132.97768 4.3094,6.11467 8.6437,12.06666 12.9737,17.79132 27.5135,36.37553 93.3926,99.99679 93.3926,99.99679 M 830.6196,762.9392 c 37.66879,27.25635 37.69519,27.47367 44.12839,47.58911 19.99298,62.51434 21.56987,66.35735 49.83683,173.25179 10.39816,39.3217 -12.48966,83.1971 -23.58276,119.7193 M 1459.1013,459.56055 c 0,0 14.9368,69.71102 10.9442,104.50983 -4.1662,36.31179 -5.9965,92.10278 -29.5713,126.39313 -11.7853,17.14209 -32.0434,25.31697 -38.1157,43.65567 -6.8921,20.81471 12.4962,44.92134 5.1413,65.57707 -45.7475,128.47888 -26.5828,168.91116 -76.3995,234.18235 -6.8591,8.987 -24.8447,7.897 -28.3266,18.6529 -2.6404,8.1563 9.8071,15.5042 9.116,24.0493 -2.4882,30.7636 -46.3068,80.1809 -46.3068,80.1809 m 294.3045,-836.37027 c 0,0 -44.2143,-3.79674 -73.3685,-33.49053 -11.1971,-11.40432 -35.0537,-28.50987 -55.683,-36.88111 -37.112,-15.05978 -81.7015,-5.46666 -118.0815,-22.21751 -21.2362,-9.77806 -33.2687,-34.52394 -54.6681,-43.93978 -35.9606,-15.82287 -79.3891,-4.9623 -116.5043,-17.84597 -30.2417,-10.4977 -83.521,-47.40354 -83.521,-47.40354 m 456.4339,833.6472 c 0,0 -0.6805,-0.029 -36.3199,10.5584 -1.8967,0.56344 -5.3814,6.41632 -11.997,11.03845 -8.0836,5.64785 -19.5244,10.2486 -22.0431,10.96298 -4.8402,1.3728 -13.7387,4.30788 -22.607,2.61883 -7.9532,-1.51477 -15.8822,-7.68996 -20.838,-6.43026 -12.0554,3.06433 -24.6712,15.12576 -35.0301,18.52086 -11.8852,3.89535 -25.6941,0.38105 -38.44,1.82815 -11.3863,1.2927 -22.395,5.3832 -33.8316,6.1066 -16.5512,1.0469 -33.1513,-1.3038 -49.685,-2.5977 -9.1385,-0.7152 -18.1964,-3.3216 -27.3509,-2.8537 -9.7533,0.4985 -19.2423,3.4774 -28.6781,5.9955 -7.6491,2.0413 -14.67,7.0017 -22.5783,7.3693 -13.209,0.614 -25.6611,-6.5044 -38.691,-8.7574 -18.3274,-3.169 -36.8477,-8.02336 -55.3978,-6.67132 -19.6095,1.42922 -37.4282,12.89022 -56.9198,15.46922 -28.80073,3.8107 -58.78225,6.0467 -87.15498,-0.1976 -12.5895,-2.7707 -23.28742,-11.0781 -35.13587,-16.15617 -12.87977,-5.52006 -25.14504,-13.87769 -39.05813,-15.54662 -31.00616,-3.7193 -61.55832,11.99719 -92.76806,13.07755 -28.67103,0.99248 -45.10038,-14.27926 -85.84872,-6.09198 -12.07921,2.7611 -35.57416,14.99332 -49.92647,15.97992 -19.4977,1.3403 -39.26079,-2.5625 -39.26079,-2.5625 M 1061.0854,599.27102 c 0,0 -28.2687,-30.74929 -61.54761,-40.583 -50.39778,-14.89222 -37.78561,-31.87869 -62.44879,-38.83041 -43.47902,-12.25529 -46.90019,-15.61685 -51.71227,-30.30448 -3.86324,-11.79153 -37.8223,-18.87951 -56.97484,-32.55184 -4.60822,-3.28965 -9.91085,-15.62149 -14.86477,-19.79635 -7.75531,-6.53569 -20.32421,-5.14124 -22.36826,-10.24693 m 269.91654,172.31301 c -52.05,53.60053 -30.4572,46.39915 -74.4442,69.20226 -14.82864,7.68725 -44.81283,35.34397 -77.4666,40.40687 -32.79691,5.05128 -51.53887,26.08478 -72.1999,46.78563 -11.19939,11.12497 -22.42145,22.30483 -32.42068,34.51984 -13.81302,16.87389 -25.13963,43.43555 -37.90003,53.32297 -14.03878,10.87797 -37.72642,10.0834 -73.06526,24.16445 0,0 -46.0238,15.76947 -67.7958,73.30496 -42.58854,112.5461 -146.96858,96.2556 -146.96858,96.2556 M 1061.0854,599.27102 c 21.562,19.26896 21.8005,67.26555 93.705,93.1466 92.3196,35.46871 190.927,72.70071 251.1485,146.82689 44.8848,55.24836 83.6109,111.43433 141.2746,127.03119 17.5499,4.74692 36.5569,6.91786 44.5029,19.67164 20.2909,32.56806 43.4558,34.99396 69.5908,50.76536 M 1061.0854,599.27102 c 25.1696,-15.59496 49.9397,-34.31482 79.2411,-40.71183 22.5343,-4.91964 50.962,3.2479 70.8363,-19.89602 28.6355,-33.34641 83.2526,-32.32029 116.5626,-52.13784 15.7847,-9.391 31.9187,-22.4706 50.8842,-22.61215 34.5202,-0.25764 91.4633,5.40331 109.7967,-23.51177 15.0145,-23.68064 52.5062,-21.79739 77.5259,-34.60465 m -51.4373,546.46343 c 44.5338,-9.91336 89.0676,-13.27392 133.6014,-9.08141 M 1469.606,566.95966 c 20.5703,32.22717 44.3193,44.29898 71.2536,52.01962 l 98.6863,32.41592 m -367.6687,88.71076 c 0,0 51.9529,-58.63953 84.9402,-78.66688 15.8846,-9.64389 38.9641,-6.05787 52.4787,-18.81247 9.3112,-8.78748 7.5632,-24.94596 15.0299,-35.34621 11.7866,-16.41726 45.28,-40.32074 45.28,-40.32074 M 867.86913,793.54618 c 0,0 41.80437,-1.93183 62.44498,-5.11571 24.26378,-3.74276 47.25812,-16.03658 71.80639,-16.38579 43.834,-0.62357 85.6946,32.41706 128.9997,25.59978 22.8305,-3.59407 33.0654,-23.13603 60.5728,-33.73807 4.1945,-1.61666 21.982,-0.81721 32.0376,-4.74556 7.3647,-2.8771 13.1397,-11.91297 19.6065,-13.35041 15.2595,-3.39189 28.5401,-5.70446 28.5401,-5.70446 m -623.72064,71.16638 c 0,0 34.13224,-28.12459 54.95027,-32.69414 19.25924,-4.22739 39.21377,8.17194 58.83007,6.17451 23.89759,-2.43337 68.6827,-21.81351 68.6827,-21.81351 0,0 -48.97181,-24.90204 -59.66129,-48.10431 -23.89856,-51.87352 -47.90729,-95.09446 -60.80622,-138.73435 -6.9972,-23.67305 18.08436,-49.38277 22.22404,-70.64316 M 519.00288,792.5312 c 45.61029,19.59385 94.4918,24.13028 129.15368,18.74114 M 496.53353,614.38619 c 0,0 49.3126,1.95427 69.60317,14.15437 14.27055,8.58045 17.24999,30.3784 31.74832,38.56808 21.78282,12.30447 74.25175,10.94073 74.25175,10.94073 M 1034.6026,118.06183 c 0,0 14.3975,17.26881 12.5519,27.02991 -8.1784,43.25471 -9.7778,80.17255 -19.5469,126.27733 -1.4822,6.99505 -17.2127,11.97793 -22.4662,20.70133 -5.35906,8.89869 -7.94695,30.13306 -7.94695,30.13306 M 858.542,321.15178 c 0,0 7.65306,-5.77021 11.98854,-7.71697 8.17919,-3.67271 18.25386,-2.56087 25.90773,-7.23059 9.44687,-5.76365 22.56443,-24.3519 22.56443,-24.3519 0,0 18.55659,11.59249 28.93892,14.56263 5.713,1.63434 12.2862,-0.70876 17.75268,1.62082 7.17649,3.05831 11.29055,10.85705 17.67672,15.33725 28.06188,19.68673 89.80648,50.10125 89.80648,50.10125 m 250.7043,-237.91518 c 0,0 -42.289,54.18308 -68.5452,75.93118 -37.3747,30.95762 -89.4276,41.9967 -124.3326,75.71908 -26.2413,25.35212 -36.2861,63.8729 -60.1425,91.48488 -24.3991,28.24033 -82.51056,38.7461 -117.32069,67.89885 -30.51168,25.55287 -15.74197,56.47507 -36.58048,74.78975 -24.52138,21.55151 -64.57648,14.87315 -92.7556,31.34609 -59.45957,34.75885 -123.19928,76.34542 -153.71273,138.12895 -14.61742,29.59731 6.94926,102.4544 -16.55865,125.6995 -28.02918,27.71582 -100.11361,19.04626 -129.60457,31.85593 M 1106.4309,571.30794 c -17.8194,18.52476 -15.4234,47.68925 -14.7373,75.95376 m -91.4468,-88.0459 c 5.7206,9.82669 7.2044,43.47712 25.6957,78.9768 m 613.6034,13.2026 c 38.5662,7.92808 74.0133,0.26025 106.8804,-20.30728 M 540.81499,580.85411 c 0,0 -19.76009,9.72126 -28.18065,16.6626 -7.27067,5.99345 -14.16961,12.91452 -18.76582,21.14003 -4.22817,7.56689 -5.64389,16.43099 -7.51406,24.89489 -2.20038,9.95831 -4.32371,30.28847 -4.32371,30.28847 M 792.03522,426.95801 v 0 M 1389.4456,109.5114 c 0.7124,0 12.3736,20.44495 13.5981,31.95642 2.1016,19.75743 -14.1304,38.86679 -11.2785,58.52994 5.2417,36.13946 39.9565,62.27055 50.4369,97.25195 15.6114,52.10775 16.8992,162.31084 16.8992,162.31084" />
  </g>
</svg>
