<?xml version="1.0" encoding="UTF-8" standalone="no"?>
<svg
   xmlns:dc="http://purl.org/dc/elements/1.1/"
   xmlns:cc="http://creativecommons.org/ns#"
   xmlns:rdf="http://www.w3.org/1999/02/22-rdf-syntax-ns#"
   xmlns:svg="http://www.w3.org/2000/svg"
   xmlns="http://www.w3.org/2000/svg"
   xmlns:sodipodi="http://sodipodi.sourceforge.net/DTD/sodipodi-0.dtd"
   xmlns:inkscape="http://www.inkscape.org/namespaces/inkscape"
   viewBox="0 0 2231 1231.4301"
   width="2231"
   height="1231.43"
   version="1.1"
   id="svg6434"
   sodipodi:docname="blteecoomhldpxqhgrdtdoqdndzdq.svg"
   inkscape:version="0.92.1 r15371">
  <metadata
     id="metadata6440">
    <rdf:RDF>
      <cc:Work
         rdf:about="">
        <dc:format>image/svg+xml</dc:format>
        <dc:type
           rdf:resource="http://purl.org/dc/dcmitype/StillImage" />
        <dc:title />
      </cc:Work>
    </rdf:RDF>
  </metadata>
  <defs
     id="defs6438" />
  <sodipodi:namedview
     pagecolor="#ffffff"
     bordercolor="#666666"
     borderopacity="1"
     objecttolerance="10"
     gridtolerance="10"
     guidetolerance="10"
     inkscape:pageopacity="0"
     inkscape:pageshadow="2"
     inkscape:window-width="1366"
     inkscape:window-height="705"
     id="namedview6436"
     showgrid="false"
     inkscape:zoom="0.29"
     inkscape:cx="629.41249"
     inkscape:cy="571.09888"
     inkscape:window-x="-8"
     inkscape:window-y="-8"
     inkscape:window-maximized="1"
     inkscape:current-layer="svg6434"
     showguides="false" />
  <path
     fill="none"
     d="M0 0h2231v1231.43H0z"
     id="path6430"
     style="stroke-width:2.7;stroke-miterlimit:10;stroke-dasharray:none" />
  <path
     d="M856.51 354.96c-7.84 22.407-13.89 37.195-40.33 38.54-9.41.447-18.372 2.688-26.662-3.362-8.738-6.274-15.908-5.6-21.957 4.257-6.273 10.755-15.46 11.65-25.318 5.153-18.148-11.65-35.4-24.422-42.795-46.155-2.24-6.722-5.825-9.86-13.443-6.722-4.257 1.794-9.186 2.242-13.892 1.794-5.6-.673-8.738.672-10.754 6.497-4.033 12.1-10.755 13.445-21.286 5.154-23.302-18.148-45.707-15.235-62.96 8.066a70.015 70.015 0 0 1-9.634 10.307c-11.203 9.41-15.684 8.738-23.526-4.257-5.153-8.514-10.53-16.58-18.82-22.63-6.723-4.93-14.79-6.72-21.958-4.705-7.842 2.465-4.257 11.203-4.93 17.477-.224 1.568-.224 3.36-2.016 4.033-1.344 0-2.24-.448-2.69-1.57-5.6-20.836-12.322-40.777-33.607-51.532-3.136-1.568-5.377-4.48-5.825-8.066-1.792-16.356-12.995-17.924-25.99-17.252-10.98.672-20.166-1.57-27.11-11.65-11.204-16.806-23.303-17.254-38.987-3.138-9.186 8.29-12.77 7.618-16.132-5.153-2.017-7.618-6.274-10.755-13.22-12.772-17.252-4.93-23.75-3.585-35.176 11.875-5.826 7.842-11.65 13.22-22.406 14.34-10.53 1.344-20.613 7.394-32.04 5.153-4.705-.896-9.41 2.24-10.53 6.498-3.138 13.892-15.237 20.165-25.767 23.302-16.805 4.93-16.58 16.58-17.925 29.127-.224 3.36.224 6.498.224 9.86.224 9.41-1.568 17.923-12.77 19.94-12.1 2.24-16.805-5.602-19.718-15.236-2.913-9.633-6.498-18.596-11.875-27.11-3.36-5.377-6.274-12.995-14.116-12.323-8.738.896-15.908 6.498-18.148 15.012-3.138 11.65-9.636 18.82-19.718 24.87-12.1 7.17-15.236 21.06-21.51 32.487-4.033 7.618 2.24 13.444 5.378 19.717 2.24 4.48 2.016 8.963-2.69 11.427-16.355 9.188-22.853 25.768-30.695 41.228-2.016 3.81-.224 8.514 3.585 10.306 21.51 9.41 21.51 12.547 19.493 38.09-.448 6.498-3.36 21.51 15.012 16.356 10.754-2.913 34.056 14.788 38.313 25.767 7.842 20.39 15.908 40.778 23.75 61.39 6.722 17.926 7.394 20.614-6.273 22.63-3.137.45-4.93 4.034-3.137 6.723 14.788 22.63 36.297 30.92 58.48 22.18 4.928-1.79 8.29-4.928 11.874-8.513 16.58-16.804 39.434-19.94 60.27-27.56 3.362-1.12 8.515 1.57 12.324 3.362 15.908 7.393 31.816 15.01 47.5 22.853 4.257 2.016 7.394 3.36 11.875.448 14.117-9.41 29.8-4.93 36.074 10.755 8.067 19.94 12.324 42.795 1.793 60.496-14.564 24.423-14.34 39.883 13.22 51.31 4.256 1.792 5.825 6.945 4.032 11.427-1.793 4.48-5.154 2.24-8.067.447-5.6-3.584-6.273 1.793-8.066 4.706-5.153 8.29-11.427 9.634-21.06 6.945-9.636-2.688-18.374-6.497-26.888-11.65-18.822-11.203-39.21-15.46-61.168-12.996-6.722.67-9.187 4.032-12.1 8.96-7.17 12.773-6.497 26.664-7.84 40.78-2.018 18.82-8.964 20.613-24.424 9.41-6.945-5.153-13.667-11.203-23.526-9.634-4.033.672-7.842 1.12-9.41 5.377-2.017 4.93 0 8.962 4.48 10.98 19.718 8.737 29.577 23.077 29.577 45.034 0 6.274 4.256 12.323 6.048 18.597 1.793 6.274 3.81 12.547 4.48 19.045.897 9.857-2.687 21.732 14.34 21.06 5.154-.224 4.706 6.498 6.5 10.307 5.6 11.65 9.41 21.285 27.558 23.302 31.592 3.135 36.52 23.3 15.235 49.29-5.152 6.275-5.824 14.117-8.737 20.838-1.344 3.137-2.688 6.498.672 8.963 3.36 2.465 7.618 2.017 10.53-.672 10.98-10.082 25.32-12.547 38.09-18.372 16.58-7.842 33.16-9.41 50.413-2.24 4.482 1.792 9.86 5.377 13.668 4.032 12.323-3.585 16.804 4.033 21.957 12.323 12.324 19.942 24.647 40.108 33.833 61.84 3.137 7.17 8.962 11.428 15.46 14.117 9.186 3.81 17.028 2.912 18.15-9.86 4.256-50.187 6.72-215.99 22.852-273.348 8.963-31.817 40.78-27.336 58.03-30.25 29.8-5.152 59.6-14.114 89.4-21.284 5.6-1.344 12.547-2.017 14.115-9.41 1.793-9.41 5.602-15.46 11.203-19.045 9.186-5.825 21.51-2.688 28.007 6.05 2.69 3.585 5.377 6.946 7.17 6.946 7.618.448 8.962-7.17 10.083-12.995 1.12-5.6 3.36-9.858 9.186-9.858 11.875 0 23.078-5.6 35.625-1.12 4.033 1.568 9.186 2.69 14.564 1.568 4.482-.896 5.602-6.497 1.793-8.962-8.514-5.6-15.012-13.22-27.11-8.738-4.258 1.568-6.947-3.81-7.62-8.738-1.343-12.323 10.308-17.925 23.975-15.684 15.908 2.688 25.543 15.684 40.33 19.493 5.602 1.57 7.618 8.067 8.067 13.444.447 6.05-4.93 9.186-9.41 10.083-20.838 3.81-20.166 23.077-25.99 36.52-7.395 17.03 4.704 32.265 9.185 48.173 3.36 11.875 9.858 27.56-.896 34.953-16.132 10.755-8.514 14.34 1.344 20.837 2.24 1.344 4.93 3.36 5.826 5.602 9.41 24.198 31.59 38.76 45.035 59.823 4.704 7.394 11.202 8.738 20.836 8.29 19.27-1.345 37.194-10.307 56.91-7.842 14.564 2.016 29.128 4.93 43.692 5.6 17.7.897 36.297 5.38 51.31-9.41 3.584-3.584 8.513-3.808 11.426.673 13.89 20.613 40.106 30.92 47.5 56.91.896 3.36 2.688 8.963 7.617 6.05 10.084-5.826 12.773 12.547 13.22 27.783.225 9.185-1.792 18.148-5.153 26.662-4.48 11.875-1.344 23.75 8.515 23.75 20.39 0 25.094 11.427 25.99 28.007.224 6.048 1.57 11.874 3.81 17.475 6.72 17.7 14.34 21.062 32.936 19.045 15.01-1.568 30.47-1.568 45.707-.448 10.53.896 19.27 6.946 15.908 19.717-1.568 5.825 1.344 8.737 5.153 10.53 5.826 2.913 11.876 5.377 19.27 8.514 3.36 1.344 6.945-1.792 5.825-5.377-4.032-12.772 3.362-20.165 12.548-28.007 34.505-28.68 68.785-57.583 102.394-87.383 8.29-7.17 25.094-12.995 15.908-29.35-6.498-11.876 15.012-14.117 19.94-27.336 5.378-14.115 23.08-12.77 31.37-11.65 23.077 3.36 60.718 11.875 91.638 15.46 10.755 1.12 10.98-2.69 10.307-10.083-.448-6.497-2.24-12.995-1.793-19.268 1.345-22.407 34.057-43.02 55.342-35.626 13.444 4.705 27.11 8.29 40.33 13.443 13.892 5.377 31.593 12.77 39.21-.224 6.498-10.98 22.182-4.705 33.61-7.17 37.865-8.066 76.85-7.17 114.94-14.116 27.783-4.93 54.894 2.69 79.764 14.34 15.236 6.946 21.062 14.116 45.26 14.788 3.36 0 5.153-4.033 1.344-8.738-10.082-12.324-14.564-41.003 6.946-42.347 2.017-.224 2.913-2.69 1.12-4.033-14.115-10.307.896-15.908 6.274-22.182 3.36-4.033 6.722-6.72 3.81-12.547-5.827-11.203-8.29-25.99-17.03-33.384-20.39-17.03-22.853-40.78-28.455-62.96-2.913-11.65-6.273-16.58-17.7-15.46-5.826.672-9.187-2.017-11.427-7.17-2.69-6.498.672-10.53 4.93-14.34 6.273-5.377 14.115-8.514 21.733-11.65 20.39-8.515 43.243-12.996 56.014-34.505 2.69-4.483 9.41-7.395 14.34-2.69 10.978 10.306 22.405 6.05 33.832 2.465 4.928-1.57 13.218.447 13.667-6.274.224-5.825-6.498-11.874-11.427-12.546-12.1-1.57-22.182-13.22-15.684-25.32 7.17-13.442 8.066-73.265 9.858-108.218.896-16.356 4.257-18.82 19.94-14.116 21.063 6.274 42.348 5.378 62.737-2.688 8.963-3.585 15.91-12.323 25.543-.448 3.81 4.705 5.826-1.793 7.843-4.706 6.945-10.53 13.443-21.285 20.613-31.367 7.617-10.978 8.29-20.837.895-32.936-10.53-17.252-19.493-34.953-16.356-57.582 2.015-13.892 8.065-18.82 19.492-21.734 23.302-6.05 28.903-14.788 23.078-38.314-2.913-12.1-2.24-21.51 9.186-28.455 6.946-4.258 6.274-9.86-.896-11.652-13.892-3.585-21.734-14.563-30.92-23.526-6.274-6.05-11.203-10.082-13.892 2.465-3.585 15.908-12.995 22.854-29.575 20.39-8.066-1.12-16.356-.225-24.646-.225-4.706 0-8.963-.672-10.755-5.6-4.033-10.308-13.892-12.997-22.63-17.702-13.89-7.394-31.368-10.083-39.882-24.87-10.082-17.253-26.215-23.974-43.467-30.024-23.75-8.066-29.35-6.722-45.26 12.995-6.273 7.62-14.115 9.86-22.853 13.67-14.116 6.048-23.526 1.79-34.057-5.154-4.48-2.913-9.186-3.81-13.89-.673-8.964 5.826-13.445 4.482-17.254-6.72-2.69-8.067-13.444-12.548-22.182-8.515-7.618 3.584-6.722 11.202-2.017 18.372 7.62 11.427-2.688 15.908-9.41 20.39-8.065 5.6-15.907 7.17-24.197-2.69-10.307-12.098-27.783-32.04-37.866-43.69-3.81-4.482-6.722-9.635-9.41-15.012-1.793-3.585-4.705-6.498-7.17-9.41-24.422-28.68-48.172-58.03-73.94-85.59-20.612-22.182-43.69-39.434-72.37-49.07-24.197-8.065-24.42-12.77-8.29-32.04 2.69-2.912 4.258-6.945 4.482-11.426 0-3.136-4.258-4.257-5.827-1.792l-.224.448c-3.138 5.153-8.515 8.962-14.564 9.634-4.482.672-9.187.448-12.548-2.016-8.066-6.05-10.082.224-10.306 5.377-1.12 17.7-14.34 32.936-28.007 38.314-14.564 5.6-23.75 15.46-27.11 30.472-2.018 8.96-6.275 13.666-16.133 6.72-9.187-6.497-15.012-6.273-23.75 2.24-3.137 2.913-7.842 10.53-13.668 7.843-6.72-3.137-4.93-10.083-6.05-15.908-1.344-6.498 1.345-11.203 4.93-15.236 2.465-2.914-.224-7.17-4.033-6.5-4.48.673-10.53-1.12-14.563-3.808-19.94-14.115-28.455-2.464-55.79-13.89-2.69-1.122-7.394 4.032-10.306 7.393-1.568 2.016-3.808 3.36-6.273 3.36-3.585.225-12.1-.223-18.15-.672-4.032-.224-7.168-3.585-7.168-7.618 0-6.497 0-15.908.67-23.75.45-5.6-1.792-10.978-5.6-15.236-5.154-5.826-4.034-15.236-6.946-22.182-6.722-16.58-14.564-19.493-28.456-8.29-5.825 4.705-10.98 4.257-16.356.896-12.547-8.29-25.542-15.46-40.778-17.7-5.826-.897-11.65 1.792-15.012 6.72-5.153 7.17-11.427 12.772-20.837 14.34-2.465.45-6.498-.67-6.498 2.914.224 22.853-16.132 14.34-33.16 27.334-17.925 13.892-51.085 14.788-68.113 20.39-12.996 4.257-30.248 21.285-47.277 22.18-23.3 1.122-46.155 10.756-68.113 17.254-15.236 4.48-32.936 1.344-40.33 9.858-12.323 14.116-23.302 1.12-32.712 5.602-9.187 4.48-15.908 3.136-24.198-.897-13.444-6.498-21.734-.45-20.166 13.667.673 6.273-2.688 8.514-4.705 11.875-1.344 2.24 0 5.153 2.465 5.6 4.033.897 20.165-4.032 21.51 6.5.896 6.272-4.706 6.048-8.963 6.72-3.36.45-6.946 1.345-6.722 5.378.224 3.137 3.585 3.81 6.274 4.48 10.53 3.362 21.285 6.05 28.455 15.46 3.36 4.482 4.257 9.187 1.12 13.668-2.912 4.258-7.393 3.81-11.875 1.793-2.912-1.343-6.05-2.688-9.186-3.808-17.027-5.826-27.558 4.48-38.313 15.236-10.082 10.082.448 17.476 3.137 24.87 6.05 15.684 4.257 22.63-11.875 25.094-10.98 1.793-16.805 12.1-27.56 13.22-4.257.448-10.082 4.48-3.137 8.066 9.635 4.93 15.908 18.148 22.406 19.493 19.044 4.258 36.52 11.652 43.466 23.303 3.585 4.93 5.377 10.978 3.585 15.908z"
     stroke-miterlimit="10"
     id="path6432"
     stroke-width="3.19"
     stroke="#37383a"
     fill="#80b6d1"
     style="fill-opacity:1;fill:none;stroke-width:2.7;stroke-miterlimit:10;stroke-dasharray:none;stroke:#12445d;stroke-opacity:1" />
  <path
     style="fill:none;stroke:#000000;stroke-width:1px;stroke-linecap:butt;stroke-linejoin:miter;stroke-opacity:1"
     d="m 317.4187,254.98969 c 0,0 27.9731,52.33785 35.85933,80.69697 3.09109,11.11565 -1.82174,24.56039 4.29125,34.34526 10.42792,16.69164 37.65601,15.90351 49.44375,32.2721 18.81815,26.13108 38.60335,41.06599 64.29385,49.57008 12.86212,4.25763 27.45193,2.39749 40.63926,-0.70988 6.5346,-1.53977 11.46319,-8.58286 18.1761,-8.6762 7.01775,-0.0976 12.38961,7.04051 19.24635,8.53835 20.53947,4.48681 42.27141,3.88716 63.06647,0.79415 10.70371,-1.59205 20.11737,-10.0001 30.93762,-9.83866 12.05592,0.17987 22.3001,9.64668 34.12831,11.98571 16.42222,3.24749 33.44023,1.65244 50.15092,2.64654 6.37713,0.37937 12.7509,0.8149 19.12334,1.26619 7.59468,0.53784 15.27116,0.43742 22.7764,1.71799 24.42613,4.16769 47.45483,14.61949 71.78691,19.30512 21.9106,4.21933 52.95778,-9.8866 66.47576,7.86562 11.19818,14.70579 -9.8622,36.39456 -8.36361,54.81775 1.81504,22.31355 17.0711,41.79673 20.72678,63.88348 3.23849,19.56619 1.19556,39.66164 0.85218,59.49105 -0.16776,9.6878 -3.42567,19.55303 -1.4224,29.03293 2.61641,12.38139 14.22579,21.58761 17.03977,33.9256 2.858,12.53099 -0.23309,25.70691 -0.65484,38.55277 0.53036,54.80808 12.69479,56.28874 35.39785,68.05007 13.13413,6.80414 29.69945,-9.86915 43.97105,-5.98017 15.0547,4.10239 25.109,18.60132 36.7711,28.96799 6.4667,5.74838 9.9062,16.44346 18.3421,18.36653 15.9173,3.62856 29.8866,-16.55377 46.2091,-16.23142 14.2254,0.28094 28.8772,6.46827 39.6825,15.72512 10.7364,9.19794 12.5641,25.60198 21.4903,36.56541 7.7468,9.51493 16.1957,19.46561 27.2943,24.69716 7.6858,3.62285 18.109,-0.95366 25.2212,3.69528 6.4352,4.20639 6.7796,14.12846 12.2198,19.56072 7.6801,7.66891 18.1488,11.9459 27.6396,17.21087 8.5921,4.76642 19.8493,5.7161 26.4648,12.98097 4.597,5.04824 4.9317,12.73476 7.264,19.15176 3.5199,9.6844 7.801,18.8088 10.1545,29.1971 2.6599,11.741 4.2515,23.7417 5.3339,36.9605 0.7033,8.5889 -9.0842,15.9334 -8.6574,25.8136 0.442,10.2322 0.8181,35.2978 1.2985,47.4888"
     id="path4487"
     inkscape:connector-curvature="0"
     sodipodi:nodetypes="caasaaaaaaaaaaaaaaaaacaaaaaaaaaaaaasssc" />
  <path
     style="fill:none;stroke:#000000;stroke-width:1px;stroke-linecap:butt;stroke-linejoin:miter;stroke-opacity:1"
     d="m 1309.3753,1017.7409 c 22.0118,-7.861 40.6909,-20.83108 62.6287,-20.29 8.3876,0.20687 15.1702,9.5983 23.5336,8.9286 22.9263,-1.8359 43.0946,-18.61595 59.795,-34.42986 6.2359,-5.90489 7.2913,-16.29979 14.0536,-21.59367 11.703,-9.16165 27.3467,-12.97528 42.1158,-14.63979 19.6699,-2.21684 39.2321,6.85765 59.0237,6.52399 10.7006,-0.1804 22.1712,0.12153 31.775,-4.60098 13.0822,-6.43296 17.0602,-27.77739 31.391,-30.45254 14.1796,-2.64693 25.551,18.87919 39.8387,16.89663 11.681,-1.62086 17.7477,-15.64685 27.5787,-22.16032 9.3896,-6.221 18.6687,-14.0425 29.7601,-16.00375 7.7892,-1.37735 16.0844,0.60221 23.4868,3.39035 21.1838,7.97893 34.6678,32.85634 56.9125,37.05001 15.1265,2.85171 29.8524,-8.44963 45.2176,-9.37353 7.7274,-0.46464 15.6466,3.89292 23.1415,1.9552 6.9595,-1.79931 11.3564,-9.06263 17.9158,-12.00309 3.8178,-1.71147 8.391,-1.30656 12.1535,-3.13646 5.6468,-2.74631 8.7983,-10.25668 14.9646,-11.44185 6.9511,-1.336 13.3731,5.93002 20.4484,5.72549 8.9088,-0.25754 25.2878,-8.68448 25.2878,-8.68448 v 0"
     id="path4491"
     inkscape:connector-curvature="0"
     sodipodi:nodetypes="caaaaaaaaaaaaaaaaaaaac" />
  <path
     style="fill:none;stroke:#000000;stroke-width:1px;stroke-linecap:butt;stroke-linejoin:miter;stroke-opacity:1"
     d="m 1676.634,923.50392 c 0,0 -26.622,-22.52267 -69.9741,-88.60825 -8.711,-13.27898 -52.5865,5.68224 -77.6322,-5.06374 -19.9715,-8.56888 -32.2017,-41.79865 -44.1477,-50.6535 0,0 -21.9854,-7.90889 -28.1794,-19.32658 -7.2295,-13.32673 3.2568,-51.43369 4.645,-67.32408 1.5413,-17.64221 37.1035,-35.77991 28.6611,-46.7742 -7.1124,-9.26233 -24.6698,-9.87617 -31.9633,-19.03631 -7.6219,-9.57275 -4.9874,-27.68493 -12.764,-37.04199 -9.6634,-11.62729 -36.6707,-12.70213 -46.4968,-23.81217 -11.0303,-12.47162 -4.8951,-34.89789 -16.0176,-46.44477 -33.3541,-34.62675 -66.8542,-64.44638 -98.8909,-85.56575 -15.1536,-9.98961 -40.6323,-0.82513 -52.4579,-14.59386 -10.4833,-12.2059 2.1421,-33.91276 -5.7685,-47.92374 -6.393,-11.32317 -20.4733,-16.03713 -30.7545,-23.99845 -7.955,-6.16004 -16.2848,-11.85493 -23.9336,-18.39127 -9.1602,-7.82791 -15.1548,-20.11962 -26.2244,-24.87878 -11.5457,-4.96382 -25.1999,-0.28085 -37.6496,-1.99749 -10.5479,-1.4544 -24.4639,-4.50846 -31.1659,-7.00328 -8.137,-46.89633 -11.9575,-104.8608 -106.76318,-118.9925 -35.00055,-5.21716 -58.76809,-6.24491 -58.76809,-6.24491 l -39.9156,-42.9478"
     id="path4493"
     inkscape:connector-curvature="0"
     sodipodi:nodetypes="csssssssssssaaaaaacscc" />
  <path
     style="fill:none;stroke:#000000;stroke-width:1px;stroke-linecap:butt;stroke-linejoin:miter;stroke-opacity:1"
     d="m 1351.1136,487.62625 c -17.3563,-32.42664 -34.2828,-37.89775 -43.5787,-62.88873 -5.9845,-16.08875 -4.978,-46.99687 -13.2431,-68.86116 -12.5504,-33.20022 -48.7037,-56.63608 -54.0893,-91.71829 -2.439,-15.88762 13.5011,-31.10806 10.9081,-46.97127 -3.0549,-18.68862 -26.421,-29.73287 -29.8023,-48.3652 -1.5866,-8.74265 5.5914,-17.28754 5.1181,-26.16037 -0.4432,-8.30888 -6.1859,-15.61298 -7.3719,-23.84871 -2.6908,-18.68403 8.675,-39.479487 0.7779,-56.62502 -6.941,-15.069742 -34.014,-18.590128 -38.2673,-31.828997"
     id="path4497"
     inkscape:connector-curvature="0"
     sodipodi:nodetypes="csaaaaaaac" />
  <path
     style="fill:none;stroke:#000000;stroke-width:1px;stroke-linecap:butt;stroke-linejoin:miter;stroke-opacity:1"
     d="m 146.97008,662.88288 c 8.38381,0.82907 16.86399,-2.05593 23.15366,-7.11927 0,0 11.72173,1.11866 16.84833,-1.2097 4.81316,-2.18601 6.60664,-8.66255 11.26361,-11.16411 8.5449,-4.59002 19.79012,-1.63248 28.49023,-5.92102 4.28471,-2.11206 6.67566,-7.04513 10.85832,-9.35271 7.00135,-3.86267 16.38261,-3.38892 22.93652,-7.02625 9.36062,-5.19502 19.70094,-0.19303 28.71888,3.19067 6.25756,2.34795 10.52547,8.37835 16.46571,11.44161 7.33292,3.78143 15.11263,7.3 23.29351,8.36962 13.06253,1.70789 27.42667,-8.89276 39.37868,-3.35237 5.78907,2.68354 6.67838,10.99199 11.08712,15.60477 4.08245,4.27138 11.70057,5.45437 13.9709,10.90934 2.36427,5.68067 -2.68263,12.19496 -2.19246,18.32844 0.63181,7.90574 5.93534,14.96804 6.54216,22.87574 1.05619,13.76364 -11.84069,27.13607 -15.35089,41.44348 -0.83774,3.41459 -2.10365,7.03366 -1.33011,10.46336 0.81279,3.60375 2.37873,8.51328 5.98158,9.33004 15.17685,3.44054 23.7562,16.12531 16.73371,32.94389 -1.73298,4.15042 -5.03309,8.96029 -9.81349,9.26058 -6.23056,0.39138 -10.29822,3.18591 -15.37018,5.00447 -7.05558,2.5298 -10.40594,7.93018 -20.93367,8.21047 -8.63713,0.22995 -14.94173,-7.47599 -20.64008,-9.23442 -6.07124,-1.8735 -11.68286,2.85996 -16.76661,0.54624 -4.86493,-2.21413 -12.13677,-5.9527 -19.5526,-5.91497 -6.27032,0.0319 -11.89516,-7.32075 -13.88125,-6.29933 -9.8696,40.22849 -7.53507,36.87359 -16.12869,77.46367"
     id="path4501"
     inkscape:connector-curvature="0"
     sodipodi:nodetypes="csaaaasaaaaaaasaasssasssscc" />
  <path
     style="fill:none;stroke:#000000;stroke-width:1px;stroke-linecap:butt;stroke-linejoin:miter;stroke-opacity:1"
     d="m 220.84483,876.9473 c 3.84839,0.26849 5.09347,-1.42274 7.64212,-1.07393 3.90758,0.53479 6.90787,4.47917 10.84362,4.73417 5.50889,0.35693 10.38913,-4.80945 15.90606,-4.61249 5.65607,0.20193 10.43234,4.52896 15.92848,5.87965 13.18051,3.23914 28.57047,3.518 41.78456,8.8101 4.98309,1.99567 8.38211,7.70269 13.69445,8.47272 5.86011,0.84943 11.30108,-5.66541 17.13858,-4.67239 7.80611,1.32791 12.2308,8.09995 19.56327,13.47469 0,0 -7.07994,27.70093 -13.69365,46.92308 -3.3155,9.6362 -13.41037,7.02245 -15.54084,13.69357 -6.76785,21.19213 -11.26082,40.88133 -20.41106,59.88063 -1.40601,2.9194 -2.81659,6.0362 -5.23874,8.1886 -2.2791,2.0253 -6.84989,1.2714 -8.23088,3.9897 -4.85958,9.5653 -4.64454,10.1008 -11.45564,24.4331"
     id="path4503"
     inkscape:connector-curvature="0"
     sodipodi:nodetypes="caaasaaacssaasc" />
  <path
     style="fill:none;stroke:#000000;stroke-width:1px;stroke-linecap:butt;stroke-linejoin:miter;stroke-opacity:1"
     d="m 1521.1207,92.63695 c 0,0 28.8083,16.71318 37.6945,30.11848 6.4944,9.79708 1.044,24.58133 9.5451,33.94595 13.6822,15.07213 28.5122,4.8483 42.8871,20.90199 2.6553,2.96538 -0.3984,24.18036 15.7991,37.41737 5.7644,4.71079 22.3847,13.5806 34.6873,17.74047 6.6583,2.25136 14.9796,-0.25462 20.7476,3.76176 3.9015,2.71666 4.8201,8.19602 7.2551,12.2792 6.6452,11.14304 10.1228,25.02026 20.0717,33.3476 10.0015,8.37131 24.9978,7.91065 36.5526,13.96001 10.0713,5.27268 20.197,11.12899 28.1516,19.25035 8.8543,9.03992 9.9997,25.13605 20.7729,31.77343 9.3187,5.74116 22.3125,0.029 32.6278,3.6887 11.8441,4.20204 22.0883,12.29285 31.7561,20.32236 9.9239,8.24226 14.8734,22.60453 26.4902,28.21418 11.5183,5.5621 25.94,-0.33013 38.2414,3.17478 13.1307,3.74119 25.4003,10.64996 36.4758,18.63408 11.2135,8.08365 16.9026,23.54454 29.5719,29.07407 13.9608,6.09317 30.9563,-1.9112 45.649,2.10802 21.6856,5.93214 17.1259,48.73336 38.4266,61.178 24.3852,14.24675 74.095,-1.65254 89.3557,6.63414"
     id="path4505"
     inkscape:connector-curvature="0"
     sodipodi:nodetypes="casssaaaaaaaaaaaaassc" />
</svg>
