<?xml version="1.0" encoding="UTF-8" standalone="no"?>
<svg
   xmlns:dc="http://purl.org/dc/elements/1.1/"
   xmlns:cc="http://creativecommons.org/ns#"
   xmlns:rdf="http://www.w3.org/1999/02/22-rdf-syntax-ns#"
   xmlns:svg="http://www.w3.org/2000/svg"
   xmlns="http://www.w3.org/2000/svg"
   xmlns:sodipodi="http://sodipodi.sourceforge.net/DTD/sodipodi-0.dtd"
   xmlns:inkscape="http://www.inkscape.org/namespaces/inkscape"
   viewBox="0 0 2231 1231.4301"
   width="2231"
   height="1231.43"
   version="1.1"
   id="svg7029"
   sodipodi:docname="pgfhmkmzffhcxeldehpiufhsmxcg.svg"
   inkscape:version="0.92.1 r15371">
  <metadata
     id="metadata7035">
    <rdf:RDF>
      <cc:Work
         rdf:about="">
        <dc:format>image/svg+xml</dc:format>
        <dc:type
           rdf:resource="http://purl.org/dc/dcmitype/StillImage" />
        <dc:title />
      </cc:Work>
    </rdf:RDF>
  </metadata>
  <defs
     id="defs7033" />
  <sodipodi:namedview
     pagecolor="#ffffff"
     bordercolor="#666666"
     borderopacity="1"
     objecttolerance="10"
     gridtolerance="10"
     guidetolerance="10"
     inkscape:pageopacity="0"
     inkscape:pageshadow="2"
     inkscape:window-width="1366"
     inkscape:window-height="705"
     id="namedview7031"
     showgrid="false"
     inkscape:zoom="0.32"
     inkscape:cx="1071.8281"
     inkscape:cy="427.24045"
     inkscape:window-x="-8"
     inkscape:window-y="-8"
     inkscape:window-maximized="1"
     inkscape:current-layer="svg7029" />
  <path
     fill="none"
     d="M-2114.03 3128h2231v1231.43h-2231zM0 0h2231v1231.43H0z"
     id="path7025" />
  <path
     stroke-miterlimit="10"
     d="m 2094.206,461.575 c -4.16,-5.912 0.22,-11.605 2.41,-14.452 3.063,-3.94 5.034,-8.1 1.312,-11.386 -1.532,-1.314 -3.065,-2.846 -4.16,-4.598 -3.502,-7.008 -11.602,-5.475 -17.73,-5.694 -4.6,-0.22 -12.917,-0.657 -20.142,-0.876 -6.786,-0.22 -12.696,-4.598 -15.542,-10.73 -4.816,-10.728 -17.732,-7.444 -27.583,-9.633 -2.19,-0.438 -4.378,-0.438 -6.567,-0.438 -2.846,0.218 -5.91,-0.44 -8.975,-7.446 -5.035,-11.386 -32.4,-12.48 -45.753,-8.977 -10.727,2.846 -25.613,-1.314 -37.654,-24.086 -9.63,-18.61 -28.238,-9.196 -35.9,-4.16 -3.94,2.628 -7.88,9.197 -8.538,9.854 -3.284,3.065 -8.538,2.627 -11.602,-0.438 -11.165,-11.167 -28.24,-34.815 -32.62,-38.975 0,0 -10.725,-9.415 -13.352,-15.984 -3.503,-8.32 -13.573,-12.043 -21.454,-7.225 0,0 -0.22,0 -0.22,0.22 -3.94,0 -7.88,1.313 -11.164,3.503 -8.537,5.693 -18.388,8.978 -28.677,8.76 -4.16,0 -8.538,0.218 -12.478,1.97 -2.408,0.875 -5.036,1.75 -7.443,2.408 -1.533,0.22 -3.065,0.658 -3.94,1.096 -6.568,3.065 -13.574,3.284 -20.58,1.532 -5.69,-1.532 -12.696,0.876 -18.17,-1.532 -2.188,-0.876 -4.158,-1.97 -6.128,-2.847 -3.722,-1.534 -9.195,-3.723 -12.26,-5.694 -3.72,-2.19 -6.786,-6.13 -10.726,-8.1 -3.722,-1.753 -7.006,-4.38 -10.727,-6.57 -1.53,-1.095 -3.72,-0.876 -5.69,-0.438 -4.16,0.657 -8.1,2.19 -11.822,4.16 -4.816,2.847 -10.29,5.255 -10.29,5.255 -5.253,1.97 -11.164,1.314 -15.98,-1.752 -1.532,-1.093 -3.065,-1.97 -4.16,-2.407 -4.815,-2.19 -7.442,-7.883 -5.69,-12.92 2.188,-5.91 2.407,-12.042 0.875,-17.954 -0.876,-3.723 -2.846,-7.227 -4.816,-10.51 -3.284,-5.037 -9.633,-15.11 -10.508,-22.554 -0.658,-3.066 2.626,-5.912 2.188,-8.978 -0.22,-2.627 0.438,-5.036 2.19,-7.006 0.875,-1.095 1.75,-2.41 1.75,-3.942 0,-3.94 -2.408,-4.817 -5.69,-4.38 -1.972,-0.218 -3.942,-0.218 -6.13,-0.437 -7.663,-1.095 -9.195,-9.634 -14.23,-13.575 -2.846,-2.19 -5.035,-4.6 -7.006,-7.664 -0.875,-1.314 -1.97,-2.628 -3.283,-3.066 -2.41,-0.656 -4.817,-1.313 -7.225,-2.19 -7.006,-2.19 -19.484,1.315 -21.454,2.41 -1.97,1.094 -3.72,2.408 -5.472,3.722 -5.473,3.94 -8.975,-2.41 -13.135,-4.817 0,0 -5.254,-4.818 -8.756,-5.474 -4.16,-0.877 -8.757,0 -13.135,0.218 -4.816,0.22 -9.194,-2.628 -10.508,-7.226 -0.438,-1.314 -0.438,-2.847 -0.22,-4.38 1.095,-4.598 -2.188,-11.385 -4.815,-15.765 -1.97,-3.284 -3.504,-6.787 -4.16,-10.51 v -0.22 c -0.876,-4.378 2.407,-8.538 7.005,-8.538 3.94,0 7.662,-0.877 9.632,-6.35 4.597,-8.103 6.348,-15.986 -3.284,-21.898 -6.348,-4.598 -12.697,-9.415 -17.95,-15.108 -6.13,-6.57 -10.07,-14.89 -11.603,-23.648 v -0.22 c -1.095,-6.787 -3.94,-13.356 -8.1,-18.61 -0.876,-0.877 -1.532,-1.753 -2.19,-2.41 -1.9242,-1.488119 -3.7519,-3.097028 -5.472,-4.817 -5.473,-5.037 -18.39,-16.423 -26.707,-15.328 -4.816,0.657 -9.632,-0.22 -14.01,-1.97 -4.816,-1.97 -10.727,-0.22 -15.543,-2.41 -3.72,-1.532 -8.1,-2.19 -12.26,-2.19 h -18.826 c -29.99,0 -93.694,-23.21 -99.167,8.98 -1.97,10.947 -9.632,19.924 -19.483,24.96 -7.662,3.942 -15.98,7.883 -19.702,8.978 -2.19,0.657 -4.597,0.876 -7.005,0.657 -3.284,-0.22 -6.568,-1.314 -9.633,-2.628 -3.283,-1.534 -7.005,-1.096 -10.507,-0.877 -3.94,0.438 -7.88,-0.438 -11.384,-1.97 -7.006,-2.847 -14.45,-1.533 -21.892,-0.876 -4.38,0.438 -8.757,1.095 -13.135,1.752 -2.627,0.436 -20.578,0.655 -27.145,0.874 -7.225,0.22 -14.01,3.723 -18.39,9.416 -0.218,0.22 -0.218,0.438 -0.437,0.657 -5.69,7.663 -12.477,14.232 -19.92,19.925 -5.473,4.16 -10.508,10.072 -11.822,16.203 -0.656,3.285 0.438,6.57 -1.094,9.635 -3.284,6.13 -7.443,11.605 -12.916,16.203 -3.94,3.065 -3.94,6.13 -2.19,9.415 0.658,2.41 1.752,6.35 2.19,8.76 0.438,4.16 1.095,8.32 3.503,12.26 2.19,3.504 4.16,7.007 3.722,10.95 -0.22,2.626 -3.284,3.94 -5.473,2.407 -4.16,-2.846 -6.787,-7.225 -8.757,-12.043 -2.846,-6.787 -7.006,-11.605 -13.792,-13.137 -2.626,-0.657 -4.815,-2.19 -6.785,-3.942 -3.94,-3.722 -8.32,-3.722 -13.135,-2.846 -7.88,1.752 -15.762,3.065 -23.862,3.065 h -3.283 c -3.065,0 -5.91,-1.094 -8.32,-2.846 -5.472,-3.94 -22.11,6.57 -27.144,8.758 -3.94,1.752 -8.537,0.22 -10.288,-3.722 -0.876,-2.19 -2.19,-3.94 -4.38,-5.474 -5.47,-2.847 -24.736,-14.89 -28.238,-13.795 -1.97,0.657 -8.1,2.628 -8.538,4.16 -4.597,5.256 -11.82,2.628 -17.294,5.256 -8.757,4.597 -19.265,4.378 -28.02,-0.44 -7.444,-4.16 -14.45,-7.882 -15.544,-8.1 -7.88,-0.877 -14.886,-3.942 -21.235,-8.978 -1.75,-1.533 -4.16,-2.41 -6.786,-2.628 -1.97,-0.22 -2.627,0.657 -2.627,1.97 -0.22,3.285 -2.19,6.35 -5.254,7.446 -0.22,0 -0.438,0.22 -0.876,0.22 -7.88,1.312 -15.762,0.656 -23.642,-4.818 -1.314,-0.876 -2.846,-1.095 -4.38,-0.657 -9.193,2.408 -18.606,3.722 -28.02,2.408 -4.816,-0.657 -9.632,-1.095 -12.916,-1.533 -10.726,-1.313 -21.015,-4.817 -30.43,-10.072 -5.91,-3.284 -12.914,-6.57 -16.855,-7.226 -2.627,-0.437 -5.254,-0.875 -8.1,-0.875 -7.662,0 -22.11,-0.657 -26.926,-6.13 -7.004,-4.6 -14.666,-2.848 -22.328,-2.848 -3.94,0 -7.662,-1.315 -10.727,-3.942 -2.627,-2.19 -7.005,-4.598 -10.29,-2.19 -4.377,3.285 -10.288,3.723 -14.447,0.22 l -0.657,-0.658 c -2.626,-2.627 -7.88,-4.38 -11.602,-5.255 -2.408,-0.657 -4.816,-1.532 -7.224,-2.408 -6.567,-2.628 -13.353,-1.752 -20.14,-1.095 -3.284,0.22 -6.567,0 -10.07,-0.22 -4.597,-0.218 -8.537,3.066 -12.916,3.066 -1.094,0 -29.115,-3.065 -29.99,-3.065 -1.97,-0.22 -3.94,-0.876 -5.912,-1.314 -10.508,-2.847 -31.085,3.94 -41.593,4.597 -6.13,0.438 -16.857,-1.75 -24.738,1.095 -3.502,1.095 -7.005,1.752 -10.726,1.752 -3.942,0.22 -5.912,0.22 -8.1,0.22 -31.087,1.532 -49.257,34.595 -52.322,38.317 -2.408,3.067 -6.567,4.162 -10.288,3.067 -4.38,-1.314 -8.757,-3.066 -12.48,-6.35 -6.566,-5.912 -12.914,-6.788 -19.482,0.876 -2.846,3.284 -7.224,5.036 -10.727,7.663 -10.944,4.818 -8.755,15.547 -1.312,23.648 2.19,2.41 4.16,7.883 2.408,10.948 -1.532,2.628 -4.816,6.35 -2.19,12.262 1.752,4.6 -1.532,10.51 2.628,14.452 14.01,13.357 22.986,30.436 35.026,45.106 1.97,2.19 1.97,5.693 0,7.883 -2.627,2.846 -3.722,7.882 0.876,10.73 5.472,3.283 8.756,18.392 9.632,23.428 0.875,6.13 0,15.108 -3.284,18.612 -3.503,3.94 -8.975,3.94 -14.23,4.38 -6.567,0.218 -15.542,-4.818 -15.98,3.283 -1.095,13.576 -20.14,36.13 -38.09,38.757 -5.474,0.875 -10.51,0.656 -12.04,3.284 -3.285,5.91 3.064,7.882 -1.534,12.7 -7.88,7.88 -17.294,5.254 -19.92,14.67 -4.598,15.984 -18.39,10.072 -24.738,28.026 -2.408,7.226 -8.538,20.583 -16.42,25.62 -14.666,9.414 3.723,19.487 -4.815,26.93 -7.005,6.35 2.19,9.198 2.19,14.453 0,5.692 -1.533,10.51 2.845,17.078 1.752,2.627 0,5.693 -3.502,6.13 -5.692,0.877 -12.697,2.847 -15.105,6.132 -3.94,5.912 -3.284,14.013 -8.757,18.174 -6.13,4.817 -5.473,12.918 -8.1,15.765 -4.597,5.254 -1.094,12.26 -1.97,16.202 -1.532,5.912 -10.946,14.014 -17.075,17.298 -2.846,1.533 -5.254,-0.657 -7.224,0.657 -4.38,2.847 0,10.29 0,15.546 0,6.13 -4.818,14.67 0,18.612 4.158,3.504 18.168,14.67 22.11,24.962 2.407,6.13 7.442,6.13 12.477,6.57 5.254,0.437 9.413,2.845 7.88,8.538 -3.283,12.7 10.947,8.76 15.763,12.7 3.72,3.284 9.85,-1.314 12.697,0 3.064,1.314 3.72,8.32 6.13,12.043 8.1,11.824 25.612,7.883 32.398,3.284 2.41,-1.532 4.817,-5.912 8.1,-7.882 5.473,-3.285 11.603,5.912 15.324,4.38 5.253,-2.19 7.442,2.408 10.726,3.502 8.538,3.285 14.667,4.38 23.643,-0.22 4.158,-2.188 10.07,-1.312 12.915,0.22 2.627,1.533 5.69,6.35 10.29,7.445 11.382,2.41 21.67,0.876 29.333,2.41 3.503,0.656 7.005,4.16 9.413,5.035 6.35,1.752 14.67,-1.095 18.828,-3.066 4.597,-2.19 13.792,-9.196 18.827,-8.54 3.72,0.658 6.567,8.103 8.756,12.263 2.628,3.283 2.628,5.473 10.07,6.568 5.693,0.876 13.136,11.824 17.733,15.327 4.597,3.503 7.88,3.065 12.478,0.438 2.628,-1.533 5.693,-0.22 8.1,-3.504 5.474,-7.226 18.828,-15.766 32.18,-16.423 6.788,-0.22 14.012,-8.32 20.798,-5.474 13.354,5.693 30.21,-5.912 40.718,-3.94 8.538,1.75 33.056,-3.505 38.31,-5.694 5.91,-2.41 13.573,-9.854 20.578,-15.328 3.94,-3.066 9.413,-8.54 10.508,-11.605 3.284,-9.416 10.508,-7.007 13.573,-12.48 5.035,-8.76 11.82,-5.475 18.17,-7.665 4.815,-1.752 5.472,-7.883 7.66,-8.977 11.823,-5.694 30.21,3.065 39.844,-3.285 6.347,-4.16 18.387,-5.036 28.457,-9.415 5.254,-2.41 11.822,2.627 15.324,4.598 9.415,5.474 23.644,14.67 35.247,25.4 4.816,4.38 6.567,-2.19 11.164,1.313 5.474,3.942 15.325,1.97 20.58,6.57 12.258,10.51 15.542,17.297 22.11,15.546 11.82,-3.066 24.08,-5.912 28.24,-0.22 2.626,3.504 0.437,10.95 3.283,15.328 5.91,8.977 22.33,4.598 31.086,12.262 4.596,3.94 14.01,30.216 -2.628,32.625 -12.26,1.752 -20.14,20.145 -2.846,23.867 7.443,1.752 10.508,10.29 17.294,15.327 9.194,6.79 22.986,13.358 25.394,21.24 3.065,10.292 5.035,15.547 5.91,24.743 0.876,7.664 -1.97,13.795 3.066,18.83 3.064,3.067 8.975,6.57 14.667,9.197 6.786,3.066 15.105,2.628 19.702,5.475 6.13,3.94 9.412,24.523 -0.44,31.53 -4.158,2.847 -29.552,14.67 -32.836,7.445 -3.065,-7.226 -9.632,-2.41 -19.264,-6.35 -11.165,-4.598 -26.27,-4.817 -40.718,2.19 -12.04,5.912 -27.365,28.246 -17.95,45.982 5.91,10.948 12.696,24.085 5.472,25.4 -5.692,1.094 -12.26,-3.066 -15.762,6.13 -2.19,5.912 0.875,17.517 -5.91,24.524 -6.787,7.226 -22.55,10.73 -27.803,21.896 -2.847,6.13 0.437,11.824 -3.504,15.328 -3.94,3.503 -9.194,0.875 -15.324,3.284 -3.064,1.095 -10.288,-1.752 -9.413,9.196 1.97,22.772 36.34,30.655 37.87,37.224 3.285,12.92 17.295,8.54 21.017,9.853 7.005,2.628 10.508,0 15.762,-1.095 6.128,-1.75 0.218,-13.137 9.193,-12.043 19.046,2.408 49.694,-21.02 62.828,-14.89 7.882,3.722 14.012,29.122 17.515,30.217 11.164,3.065 8.975,-12.7 12.697,-20.802 3.72,-8.32 1.532,-16.86 3.283,-22.115 5.254,-15.546 28.02,-23.21 31.086,-33.94 3.723,-12.918 18.828,-16.86 26.49,-19.05 8.756,-2.626 23.642,-32.843 38.747,-45.543 3.503,-2.846 9.195,-6.35 8.976,-15.327 -0.22,-7.226 11.383,-7.007 8.756,-12.7 -2.847,-5.912 2.845,-21.458 7.005,-25.4 4.378,-4.16 11.602,-5.036 15.543,-6.568 7.662,-3.066 18.607,1.75 24.3,-0.22 13.79,-4.817 33.93,28.028 47.065,28.247 7.88,0.218 2.627,18.39 7.443,20.58 6.13,3.067 14.45,1.534 20.797,4.818 6.787,3.504 15.98,14.67 24.3,18.393 28.46,12.482 61.515,17.08 68.3,17.956 8.32,0.876 22.3936,-0.79401 33.495,-2.19 9.0596,-1.13924 17.8471,-6.00999 26.926,-5.036 8.2617,0.88633 15.0389,7.20735 22.9729,9.67596 14.8431,4.61835 30.1914,7.95631 45.6617,9.47782 30.5457,3.00417 62.5464,7.58009 92.0759,-0.79098 6.2259,-1.76493 11.7241,-5.80541 16.6125,-10.0458 3.9173,-3.39808 5.6794,-8.96003 9.85,-12.042 3.1064,-2.29556 7.7736,-1.89185 10.728,-4.38 2.6331,-2.21755 4.597,-5.474 5.473,-8.758 1.094,-3.94 4.16,-8.102 7.005,-10.948 3.503,-3.94 6.786,-7.883 10.07,-12.262 3.065,-4.16 7.005,-8.76 9.85,-11.167 6.35,-5.255 13.574,-9.415 21.017,-12.92 8.1,-3.94 19.92,-16.42 21.672,-17.954 3.502,-2.847 7.88,-4.6 12.477,-4.6 h 1.97 c 4.38,0.658 7.006,4.818 5.91,8.98 -1.093,4.16 -1.093,8.32 1.534,12.04 3.065,4.38 9.195,3.724 13.136,-0.874 8.537,-10.292 21.234,-29.78 40.06,-35.472 6.568,-1.97 13.573,-0.657 19.484,2.408 22.11,11.824 25.394,-6.57 30.867,-12.48 3.94,-4.16 8.975,-7.445 14.448,-9.197 8.976,-2.847 20.14,-8.54 27.802,-12.7 4.858,-2.6552 9.4731,-5.73238 13.792,-9.196 h 0.218 c 3.502,-2.848 7.88,-4.6 12.478,-4.818 3.94,0 7.88,-0.22 11.82,-0.22 3.94,0 12.04,0 19.047,0.22 6.567,0 13.134,1.75 19.264,4.38 3.065,1.313 6.13,0.875 9.413,-3.942 4.816,-7.007 9.414,-14.233 14.45,-21.02 6.785,-8.978 9.193,-19.926 4.377,-36.13 -2.19,-7.225 3.284,-14.67 10.07,-17.955 7.88,-3.722 17.294,-8.758 18.827,-10.29 3.283,-3.942 7.005,-7.883 11.602,-10.292 10.727,-5.912 26.926,-14.232 34.15,-15.327 h 0.22 c 4.816,-0.657 9.413,-0.876 14.23,-0.876 8.756,0.22 22.766,0.438 26.707,0.657 8.537,2.627 17.075,4.16 25.394,2.627 5.91,-1.095 11.164,-4.16 14.886,-8.54 0.875,-0.875 1.532,-1.97 1.75,-2.846 2.19,-5.036 4.598,-10.072 7.444,-14.67 6.35,-10.51 17.294,-35.472 18.39,-38.538 0.874,-2.19 1.75,-4.598 2.845,-6.57 1.97,-3.72 0.875,-6.786 -1.97,-9.633 -2.19,-1.97 -4.16,-4.38 -5.473,-7.226 -1.315,-2.845 -3.066,-6.567 -4.818,-8.538 -1.75,-2.19 -2.845,-4.598 -2.626,-7.445 0.22,-2.627 0.437,-5.474 -0.657,-7.882 -1.096,-2.41 -1.97,-4.818 -2.41,-7.445 -0.218,-1.314 -0.656,-2.628 -1.313,-3.723 -2.19,-3.94 -0.657,-9.853 3.065,-12.48 5.254,-3.942 10.946,-7.007 14.448,-12.48 1.97,-3.067 4.16,-5.913 7.006,-8.103 2.408,-1.97 2.627,-4.598 -1.095,-8.54 -4.596,-3.503 -9.193,-6.787 -14.666,-8.32 -4.16,-1.095 -5.692,-6.13 -2.846,-9.196 3.284,-3.942 7.443,-7.883 8.538,-9.854 3.94,-5.474 10.507,-6.787 15.542,-10.51 1.314,-0.657 2.408,-1.533 3.503,-2.627 6.787,-7.007 7.006,-18.174 1.096,-25.838 -2.408,-1.972 -5.473,-5.913 -8.1,-9.635 z"
     id="path7027"
     style="fill:none;fill-opacity:1;stroke:#12445d;stroke-width:4;stroke-miterlimit:10;stroke-dasharray:none;stroke-opacity:1"
     inkscape:connector-curvature="0"
     sodipodi:nodetypes="cccccccccccccccccccccccccccccccccccccccccsccccccccccccccccscccccccccccsscccccccccccccccccccccccccssccccccccccccccccccccscsccccccccscccccccccccccccccccccccccccccsccccccccsccccccccccccccccccccsccccccccccccccccccccccccccccccccccccccccccccccccccccccccccccccaaaaaaaaccccccsccccccccccccsccccccccccccccccccccccccccccccccccccc" />
  <path
     id="path4519"
     style="fill:none;stroke:#ac9393;stroke-width:2;stroke-linecap:butt;stroke-linejoin:miter;stroke-opacity:1;stroke-miterlimit:4;stroke-dasharray:none"
     d="m 775.00188,342.36616 c 3.48762,8.64342 1.32279,16.63359 2.46869,24.89276 1.13298,8.16599 3.58786,16.13802 4.35186,24.34676 0.60688,6.5206 1.55148,13.24385 0.17152,19.64559 -1.74219,8.08213 -7.79659,14.66848 -10.41533,22.51056 -2.57862,7.72195 -1.35396,16.66318 -5.12063,23.88051 -2.65854,5.09404 -8.80281,7.6771 -11.76012,12.6037 -3.85615,6.42398 -4.2953,14.3948 -7.29331,21.26133 -1.74519,3.9971 -5.04303,7.31939 -6.19106,11.52706 -1.06376,3.89877 0.62621,8.22813 -0.48293,12.11423 -1.31994,4.62469 -6.06994,7.85514 -7.12135,12.54817 -1.09777,4.90001 1.41114,10.00775 1.13484,15.02162 -0.25325,4.59555 -1.83284,9.02386 -2.54673,13.57068 -1.57541,10.03389 -3.23058,20.08978 -3.82818,30.229 -0.43475,7.37633 -1.32616,15.77758 0.18235,22.16666 m 785.9892,368.8103 c 9.9773,-30.24204 26.9098,-46.32169 42.1817,-68.29112 15.4779,-22.26576 39.579,-39.14381 49.9804,-64.18656 8.4004,-20.22517 7.1311,-43.3101 8.2388,-65.18242 1.4657,-28.9417 -3.8099,-57.98002 -2.1325,-86.91022 2.0154,-34.75878 1.9734,-70.98244 14.6133,-103.42418 8.7378,-22.42659 37.5535,-35.65392 40.9305,-59.48452 3.7049,-26.14526 -25.1984,-48.76348 -25.006,-75.16924 0.3431,-47.07711 41.4758,-86.40404 46.5298,-133.35039 m -430.8252,540.1273 c 0,0 88.0455,40.73884 135.1865,50.04529 19.2639,3.80304 39.2412,2.57777 58.8706,2.0773 16.8664,-0.43003 33.7674,-1.69589 50.4276,-4.36033 16.728,-2.67529 36.2633,-6.71651 49.4728,-11.63167 17.1334,-6.3752 29.3158,-19.40833 44.8656,-27.5411 15.1956,-7.94753 31.279,-14.07947 47.115,-20.65906 17.5793,-7.30393 34.4256,-17.47313 53.1542,-20.88191 14.2111,-2.58655 29.2919,4.02332 43.3292,0.61769 30.0892,-7.3 51.9907,-35.8994 81.9442,-43.73773 11.7307,-3.06972 24.3935,1.11937 36.3685,-0.78595 14.6817,-2.33597 42.6861,-12.92248 42.6861,-12.92248 M 786.64001,1026.2196 c 20.72526,-20.5222 62.0904,-7.9055 92.14207,-16.2468 19.63686,-5.4505 39.81572,-11.08646 57.06717,-21.93551 15.7513,-9.90564 26.03832,-26.73092 40.62263,-38.28614 12.51897,-9.91885 28.17302,-15.6601 39.96782,-26.43004 13.698,-12.50783 22.1527,-29.85215 34.7762,-43.44369 9.7688,-10.518 20.6482,-19.97158 31.543,-29.31837 11.1835,-9.59454 15.0012,-25.19471 34.6691,-27.42618 11.3265,-1.28507 21.1343,17.61556 34.0257,18.63678 12.0357,0.95344 22.0398,-12.43482 34.1105,-12.18108 14.81,0.31131 27.9197,10.10059 41.1862,16.69081 11.8839,5.90338 30.6878,7.57156 34.2036,20.36668 7.5735,27.56219 18.4554,34.32775 33.7863,45.25088 25.7666,18.35852 62.3724,14.21067 90.4277,28.83442 18.5971,9.69369 31.2308,35.12913 49.9975,38.19212 M 871.99273,738.67531 c 16.16477,-7.52023 42.22143,-13.76084 59.07606,-24.24478 13.22416,-8.22571 21.60626,-23.74796 35.92687,-29.86851 15.12949,-6.46625 32.59382,-5.09234 49.03854,-5.62542 21.3953,-0.69355 43.3689,8.34396 64.141,3.17148 35.2741,-8.78361 59.2636,-44.12193 93.6763,-55.83437 28.1313,-9.57456 61.6234,2.08114 88.5217,-10.54904 20.5942,-9.67004 28.9115,-37.31422 49.5024,-46.99118 17.1362,-8.05335 39.0801,0.89282 56.3991,-6.75942 23.7005,-10.47185 36.2334,-38.11332 58.8065,-50.83448 24.8539,-14.00648 52.5034,-14.77993 81.4134,-26.39925 M 1160.7215,222.47873 c 30.6077,-1.76407 62.1759,-1.76467 90.9744,-12.08277 18.4851,-6.62295 31.5378,-24.49821 50.0331,-31.09243 23.9245,-8.52992 51.5627,-1.49323 75.5665,-9.79754 35.4666,-12.26998 64.9389,-35.18638 96.7285,-57.61499 M 202.54336,415.21053 c 24.12859,-1.19535 35.51046,3.86953 52.95556,1.14868 14.74783,-2.30017 27.42027,-14.43012 42.34585,-14.5579 11.63319,-0.0996 21.97012,7.72079 33.19434,10.77987 12.35954,3.3685 24.72842,7.62743 37.52016,8.31757 12.44245,0.67131 24.70752,-4.70338 37.15425,-4.11684 12.95547,0.6105 25.63116,11.47802 38.09852,7.90285 16.37441,-4.69557 22.73736,-25.90417 36.93316,-35.31953 19.39958,-12.86678 41.3316,-22.8659 64.09818,-27.72189 38.35329,-8.18055 78.50197,1.058 117.63946,-1.42262 32.50015,-2.05993 65.99575,-1.37729 97.05637,-11.16205 22.21661,-6.99871 38.93402,-27.32932 61.46259,-33.24733 29.47404,-7.7425 62.64671,-11.71173 91.40737,-1.63751 19.52395,6.83881 27.89258,33.94458 47.79491,39.58827 19.39223,5.49904 39.76587,-9.59824 59.88622,-8.38593 15.508,0.9344 29.841,8.77802 45.048,11.959 43.7651,9.15472 90.1444,6.32159 132.5716,20.43284 27.2647,9.06823 47.6754,36.22325 76.0869,40.5112 12.6009,1.90177 24.802,-7.11688 37.5453,-7.2079 25.841,-0.18458 55.2801,-1.45475 76.3356,13.52714 20.0322,14.25381 13.9572,53.43159 35.9628,64.39589 33.7319,16.80695 76.958,-1.57445 112.0021,-15.4391 25.5959,-10.12663 40.5658,-41.51255 67.3772,-47.74525 18.661,-4.33802 38.6436,15.41592 56.7446,9.13859 17.169,-5.95413 18.8145,-38.35762 36.9,-40.13028 38.7711,-3.80017 64.148,44.36991 94.3036,69.03322 11.5992,9.48661 24.7581,17.91907 33.2217,30.28455 8.0309,11.73329 5.9083,29.18066 15.3777,39.78706 26.4152,29.58698 65.9209,51.71248 105.4343,55.15412 20.5491,1.78984 38.8105,-23.16121 58.9648,-18.77138 34.7095,7.56009 28.589,64.66709 78.9048,71.63231 M 314.39567,521.01677 c 0,0 38.8449,2.93199 57.54589,7.95757 17.32059,4.65461 31.90266,21.28228 49.81295,20.33918 15.39087,-0.81043 25.61467,-18.88423 40.7335,-21.87699 26.70579,-5.28639 69.27883,-1.50627 103.33344,-7.20485 43.11723,-7.21509 83.01167,-31.80668 126.67494,-33.96821 43.73871,-2.16526 85.84183,21.33034 129.6341,21.32761 44.06074,-0.003 86.69803,-26.87842 130.42614,-21.47464 38.29357,4.73219 68.84127,36.40536 106.20277,46.04449 57.3303,14.79103 120.9867,-2.73362 176.8069,17.00592 47.0669,16.64414 76.6021,70.14123 124.9541,82.56728 41.6809,10.71162 86.0623,-16.37234 128.6843,-10.42307 58.7804,8.20468 107.5653,66.84821 166.7502,62.42138 39.2262,-2.93399 65.0689,-47.43204 103.1334,-57.35159 37.0177,-9.64678 76.6095,2.51795 114.7619,-0.26967 29.8538,-2.18128 60.0202,-20.80025 88.8768,-12.84407 39.5513,10.90485 95.582,77.54389 95.582,77.54389 M 172.31301,608.68479 c 0,0 18.86043,-33.70346 34.89177,-42.69021 16.01162,-8.9757 37.49448,-0.71257 54.55689,-7.48083 20.02373,-7.94295 45.23035,-17.26764 52.634,-37.49698 10.00161,-27.32787 -23.19142,-55.52814 -21.60738,-84.58559 1.29612,-23.77582 25.59324,-43.07285 25.09874,-66.87884 C 317.50304,351.0664 296.25746,318.4734 296.25746,318.4734 M 389.97155,91.745764 c 0,0 -6.6765,29.104306 -9.11472,43.824516 -2.25636,13.62225 -8.80945,27.81139 -5.09197,41.1094 2.82771,10.11516 13.76791,15.94537 19.52761,24.72821 6.8887,10.50443 12.81596,21.68406 17.81698,33.20739 7.90505,18.21478 -1.90628,49.57052 6.60474,71.95145 5.90311,15.52306 22.50162,40.31241 30.51424,61.86481 5.9036,15.87953 4.74467,34.26941 12.75395,49.19802 10.57634,19.7134 38.66938,28.44784 44.81597,49.95822 7.02702,24.5915 -13.55388,49.98702 -13.32319,75.56177 0.16364,18.14141 2.01985,37.33814 10.41614,53.42043 5.38426,10.31303 18.05115,15.24294 24.29006,25.06256 5.93844,9.3467 8.17405,20.59239 11.77343,31.06475 3.36648,9.79474 9.1774,29.68511 9.1774,29.68511 M 1130.6152,64.538443 c 0,0 2.0039,36.949737 0.7473,55.362887 -0.7285,10.67415 -7.9876,21.52782 -4.7894,31.73759 2.8965,9.2464 15.0433,12.7825 19.9608,21.13137 8.6901,14.75395 13.7394,35.60662 15.5564,48.95683 6.6531,48.88406 -8.8147,102.91949 -29.1857,145.09801 0,0 6.3929,44.2443 0.4789,65.13594 -4.3478,15.35918 -24.8423,24.64403 -25.3999,40.597 -0.6196,17.72816 20.6238,29.78636 25.0077,46.97509 7.3789,28.93154 11.297,65.79098 13.0238,104.80464 0.7151,16.15559 -9.6336,41.23101 -9.58,57.71541 0.052,15.8454 10.5272,23.10287 10.131,38.50913 -0.5175,20.12164 -12.0367,52.38381 -13.0031,70.32397 -3.0992,57.53139 3.0983,86.84862 3.0983,86.84862 M 308.3496,218.71324 c 0,0 74.4479,-14.90947 112.20774,-15.74829 17.30623,-0.38445 34.46921,6.61458 51.69725,4.92693 15.5512,-1.52338 29.4793,-10.99172 44.91532,-13.41857 13.45044,-2.11468 27.46731,-3.45517 40.83746,-0.88122 11.57632,2.22861 20.77757,13.17512 32.54792,13.83596 9.29732,0.52199 17.4653,-7.64483 26.77113,-7.98245 23.72133,-0.86061 47.27068,7.12382 69.53689,15.34929 14.46657,5.34417 25.96909,17.6065 40.81192,21.79366 17.03421,4.80535 35.48514,0.63028 53.00334,3.15382 64.02365,9.22276 128.32102,21.44851 189.08821,43.61687 57.38402,20.93416 144.26962,76.77579 163.13782,83.46589 M 147.495,562.35852 c 31.51426,20.50088 16.92735,70.59018 52.02039,98.20033"
     inkscape:connector-curvature="0"
     sodipodi:nodetypes="cssssssccscsssccscscsccccssssscssssccssscccssscccsccsssssccscccsssccsssccssssssssssssscssssssscssccssssscsssssssssccsssssccssssssssssssccccscccccccccccssssssssssccc" />
</svg>
