<?xml version="1.0" encoding="UTF-8" standalone="no"?>
<svg
   xmlns:dc="http://purl.org/dc/elements/1.1/"
   xmlns:cc="http://creativecommons.org/ns#"
   xmlns:rdf="http://www.w3.org/1999/02/22-rdf-syntax-ns#"
   xmlns:svg="http://www.w3.org/2000/svg"
   xmlns="http://www.w3.org/2000/svg"
   xmlns:sodipodi="http://sodipodi.sourceforge.net/DTD/sodipodi-0.dtd"
   xmlns:inkscape="http://www.inkscape.org/namespaces/inkscape"
   viewBox="0 0 2271.47 1231.4301"
   width="2271.47"
   height="1231.4301"
   version="1.1"
   id="svg7604"
   sodipodi:docname="tdkiranbipdjhiolryngnwizencro.svg"
   inkscape:version="0.91 r13725">
  <metadata
     id="metadata7610">
    <rdf:RDF>
      <cc:Work
         rdf:about="">
        <dc:format>image/svg+xml</dc:format>
        <dc:type
           rdf:resource="http://purl.org/dc/dcmitype/StillImage" />
        <dc:title></dc:title>
      </cc:Work>
    </rdf:RDF>
  </metadata>
  <defs
     id="defs7608" />
  <sodipodi:namedview
     pagecolor="#ffffff"
     bordercolor="#666666"
     borderopacity="1"
     objecttolerance="10"
     gridtolerance="10"
     guidetolerance="10"
     inkscape:pageopacity="0"
     inkscape:pageshadow="2"
     inkscape:window-width="1301"
     inkscape:window-height="716"
     id="namedview7606"
     showgrid="false"
     inkscape:zoom="2.84"
     inkscape:cx="237.15729"
     inkscape:cy="628.80488"
     inkscape:window-x="65"
     inkscape:window-y="24"
     inkscape:window-maximized="0"
     inkscape:current-layer="svg7604"
     fit-margin-top="0"
     fit-margin-left="0"
     fit-margin-right="0"
     fit-margin-bottom="0" />
  <path
     d="m 40.469884,0 2231.000016,0 0,1231.43 -2231.000016,0 z"
     id="path7596"
     inkscape:connector-curvature="0"
     style="fill:none" />
  <path
     style="fill:none;stroke:#13445e;stroke-width:3;stroke-linecap:butt;stroke-linejoin:miter;stroke-miterlimit:4;stroke-dasharray:none;stroke-opacity:1"
     d="m 247.1412,621.17904 c 4.86725,5.39713 9.795,14.18346 13.1957,22.04285 4.41434,10.20202 4.22319,22.09965 9.13003,32.07414 3.74853,7.6199 11.26586,3.35802 15.1536,20.47918 2.77153,12.20549 13.95354,15.71739 16.70707,33.62695"
     id="path5880"
     inkscape:connector-curvature="0"
     sodipodi:nodetypes="cassc" />
  <path
     style="fill:none;stroke:#13445e;stroke-width:3;stroke-linecap:butt;stroke-linejoin:miter;stroke-opacity:1;stroke-miterlimit:4;stroke-dasharray:none"
     d="m 184.31511,651.31274 c 4.74964,4.82544 11.29975,8.75661 16.76162,10.02087"
     id="path5910"
     inkscape:connector-curvature="0"
     sodipodi:nodetypes="cc" />
  <path
     style="fill:none;stroke:#13445e;stroke-width:3;stroke-linecap:butt;stroke-linejoin:miter;stroke-opacity:1;stroke-miterlimit:4;stroke-dasharray:none"
     d="m 209.34097,641.45006 c 3.11408,2.97703 7.79197,5.27966 10.19512,6.1239"
     id="path5912"
     inkscape:connector-curvature="0"
     sodipodi:nodetypes="cc" />
  <path
     style="fill:none;stroke:#13445e;stroke-width:2.5;stroke-linecap:butt;stroke-linejoin:miter;stroke-miterlimit:4;stroke-dasharray:none;stroke-opacity:1"
     d="m 238.85657,613.59723 8.8743,8.41453"
     id="path5914"
     inkscape:connector-curvature="0"
     sodipodi:nodetypes="cc" />
  <g
     id="g5941"
     style="fill:none"
     transform="translate(42.469884,0)">
    <path
       id="path5918"
       style="fill:none;stroke:#13445e;stroke-width:3;stroke-linecap:butt;stroke-linejoin:miter;stroke-miterlimit:4;stroke-dasharray:none;stroke-opacity:1"
       d="m 151.25842,127.73293 c 0,0 25.57342,30.39175 41.82058,41.37008 7.68509,5.19288 18.31887,5.22672 25.53576,11.05279 9.41247,7.59853 11.592,22.05517 21.11413,29.51582 3.34802,2.6232 7.71565,3.73748 11.85262,4.72534 4.68663,1.11911 9.68195,0.30044 14.39741,1.29106 3.5829,0.75269 7.15696,1.82309 10.40939,3.50397 8.27811,4.27818 14.01284,12.83487 22.59971,16.45366 13.26845,5.59176 36.83951,6.63755 42.58482,7.23934 17.68506,1.85242 41.82017,2.94373 55.97242,-2.4568 10.31796,-3.93736 13.77531,-19.7956 24.54106,-22.25769 2.49031,-0.56952 4.83047,2.58901 7.35037,2.16934 2.17602,-0.3624 3.36316,-2.97633 5.39756,-3.82933 3.69173,-1.54791 8.1492,-0.52162 11.8217,-2.11463 6.58048,-2.85441 14.72299,-6.16078 17.24018,-12.87749 1.96188,-5.23495 -4.38854,-10.87124 -3.531,-16.39557 1.2538,-8.07708 5.57344,-16.47512 12.18685,-21.27866 7.84501,-5.69809 20.26164,-0.78777 28.47484,-5.941 4.19349,-2.63113 5.44087,-8.38923 9.0564,-11.77096 3.6586,-3.42202 8.50564,-5.32058 12.49632,-8.34877 2.74074,-2.07971 6.43561,-5.19939 9.85875,-8.17237 2.45443,-2.13166 25.38136,-11.21362 35.50826,-20.35575 5.96087,-5.38121 8.53894,-13.729415 14.05009,-19.570356 5.2789,-5.5948 13.90388,-12.702248 21.75198,-18.798047 C 613.1982,63.5472 641.678,32.697616 641.678,32.697616 M 764.19511,799.6331 c -2.2535,13.28602 0.95407,19.12069 2.0733,26.99803 0.11584,0.81532 1.56433,10.68202 0.9301,21.88886 -0.29436,5.20142 -0.2857,10.91401 -2.57049,15.69933 -2.13229,4.46592 -7.73722,6.61868 -9.88535,11.07701 -2.14949,4.46115 -1.51382,9.79144 -2.50445,14.64332 -2.45299,12.01425 0.45094,12.0694 -3.32907,27.73641 -2.87644,11.92199 -19.20169,20.22512 -21.67872,33.21112 -3.09255,16.2129 9.13903,37.28926 9.90251,48.51536 M 1575.4176,861.62375 c 15.1553,-21.97229 12.1424,-55.26116 29.464,-76.32555 11.9476,-14.52915 37.4116,-14.38037 47.7281,-30.10963 13.097,-19.9685 -0.8728,-50.03786 10.9184,-70.80417 7.3023,-12.86063 24.6352,-16.9873 34.1906,-28.27504 14.1002,-16.65637 16.7607,-41.87321 32.8219,-56.64774 13.714,-12.61539 37.6046,-10.48179 50.5359,-23.89832 7.723,-8.01278 6.1094,-22.06973 13.152,-30.68668 7.1182,-8.70951 18.8138,-12.36916 27.7494,-19.20142 8.6564,-6.61879 14.4708,-18.25094 24.9976,-21.06649 5.3647,-1.43487 11.0135,1.58374 16.3979,2.94279 5.1211,1.29258 11.3052,-1.1354 15.056,4.93779 11.481,18.58957 13.6208,34.49773 19.7954,52.79251 0.3733,1.10608 -2.487,30.58075 3.6496,43.93279 2.3486,5.11017 9.6488,6.83454 11.8506,12.00968 3.7725,8.86692 -4.9417,21.11962 0.7452,28.89862 21.3901,29.25906 55.5439,92.57711 55.9374,93.54575 m -883.9719,148.04227 c 1.1177,6.69938 -12.3453,11.50972 -12.8009,19.18369 -0.61,10.27515 8.7172,18.68787 13.9805,27.53365 4.9615,8.33854 14.8937,14.39939 16.5238,23.96447 0.8757,5.13857 -5.0683,9.96363 -4.1117,15.08775 1.1044,5.91547 8.8445,11.31307 10.7116,14.53183 9.5431,16.4527 8.9088,24.2914 14.9204,28.4733 0.9134,0.6354 13.4938,5.5626 15.9412,16.9 2.5729,11.9194 9.3281,11.8049 12.3882,17.0466 2.5217,4.3195 4.5591,20.5592 11.0506,28.74 8.4894,10.6984 13.1448,24.8838 14.5614,30.0387 M 934.11788,856.57369 c 0,0 -11.50611,24.49156 -7.91324,36.36533 3.44815,11.39548 22.92455,13.25017 25.6698,24.83509 2.87811,12.14556 -11.51553,22.89187 -12.3666,35.34474 -0.68023,9.95316 1.44797,20.42859 5.94888,29.33195 4.7559,9.40776 17.21024,21.8525 25.19654,29.2842 1.93656,1.8021 23.20842,15.8715 28.11111,28.2074 5.59433,14.0761 -7.20187,31.5038 -1.23149,45.4246 7.59522,17.7093 13.10612,51.8211 13.10612,51.8211 M 422.23995,690.1391 c 0,0 11.4362,-4.66779 17.4965,-5.14249 6.657,-0.52144 13.27826,1.48712 19.86438,2.58743 26.09382,4.35934 36.41601,-4.89627 54.12982,-1.431 9.76212,1.90972 18.22755,7.97127 27.33482,11.97173 8.61713,3.78516 17.18778,7.67708 25.83906,11.38352 10.1235,4.33718 19.55163,11.52075 30.50167,12.70102 13.30064,1.43362 26.18338,-8.59409 39.4859,-7.17804 15.18308,1.61623 20.19516,17.15376 42.33334,17.49662 53.5607,0.82952 44.93395,43.9373 71.39992,60.41648 8.19457,5.1024 17.32589,8.71165 26.54161,11.58497 17.50581,5.45805 35.53004,2.79326 53.99043,10.54642 13.7061,5.7564 23.09742,23.4506 38.01953,31.07184 12.87913,6.57782 30.53184,9.09594 46.55123,7.31787 13.92251,-1.54533 28.40594,9.42493 41.69022,16.19053 5.16093,2.62843 8.97889,8.05606 14.61232,9.40079 4.73016,1.12911 9.69892,-2.19761 14.51177,-1.50065 10.85303,1.57166 19.57583,10.89588 30.41993,12.52809 5.5522,0.8357 11.1589,-1.4773 16.7733,-1.5455 6.9248,-0.0841 11.3037,0.94759 16.9072,0.3352 3.0956,-0.33831 5.9665,-2.26427 9.0798,-2.19827 3.3311,0.0706 6.3307,2.15227 9.6063,2.76155 10.641,1.97929 21.3369,4.51205 32.1128,4.01194 3.0998,-0.14386 5.9992,-2.26929 9.091,-2.00471 2.7197,0.23274 4.8654,2.81941 7.581,3.09651 4.323,0.44112 8.4768,-2.6367 12.8152,-2.39023 4.3156,0.24518 8.5514,1.83165 12.3966,3.80619 18.404,9.45048 28.8193,35.27582 49.3764,37.60497 9.3294,1.05704 16.3859,-10.14698 25.6587,-11.62016 5.4889,-0.87202 9.7282,4.72367 15.4405,4.91091 8.4131,0.27578 17.3555,-2.72779 25.5392,-0.3793 10.3774,2.97801 16.9554,14.17939 27.2018,17.58076 9.2678,3.0765 19.8143,-0.62388 29.2289,1.96859 5.6551,1.55723 10.549,5.14314 15.6874,7.97193 6.8993,3.79819 12.661,10.19575 20.3097,12.07285 8.8483,2.17149 18.1903,-1.07611 27.2912,-1.50266 8.2546,-0.38688 16.7556,-2.96251 24.7726,-0.95829 7.0694,1.76732 11.8669,9.0354 18.8769,11.02525 7.327,2.07982 13.3555,9.18052 21.3301,9.7148 8.2223,0.55089 17.6218,-3.82335 25.0642,-8.57553 5.8063,-3.70751 12.2184,-8.3563 14.2967,-14.92441 2.5082,-7.92672 -3.5043,-16.34797 -3.7524,-24.65834 -0.2243,-7.51536 -1.2325,-15.70128 2.0572,-22.46213 1.45,-2.98005 5.4648,-4.01943 7.231,-6.82365 2.5524,-4.05233 1.047,-10.24444 4.38,-13.68352 6.3912,-6.59469 18.3878,-5.02194 25.9631,-9.21698 8.1774,-4.52841 11.678,-14.11139 20.4861,-16.81436 15.146,-4.6479 31.9243,-7.59456 47.359,-4.02039 17.4132,4.03232 33.2807,14.99934 45.9974,27.55979 8.5009,8.39651 12.0639,20.65127 18.802,30.51869 6.1395,8.99093 12.0668,18.2807 19.6647,26.07828 2.9208,2.99757 6.0415,6.02902 9.8257,7.81699 16.3081,7.70537 35.6459,6.10739 52.913,11.3202 7.0693,2.13418 13.3378,6.83765 20.6088,8.12697 17.6185,3.12418 45.1221,-10.69855 53.6639,-1.32166 6.8582,7.52864 2.6752,20.62695 0.7583,35.23089 -1.5554,11.8506 0.024,24.3276 -2.9105,38.5392 -3.4822,16.8647 -1.6027,32.1066 -5.9032,41.3833 -2.8047,6.05 -9.3137,7.3435 -13.055,11.1889 -4.2701,4.3888 -5.6626,11.2125 -6.5158,16.7186 -2.6056,16.8156 -2.1837,20.3486 -4.5347,28.704 -1.9646,6.982 -3.6512,15.1613 -6.7407,19.3561 -4.1894,5.6883 1.0526,14.1839 -1.4417,18.5807 -3.8382,6.7657 -14.9503,8.7347 -20.9006,14.0725 -4.5125,4.048 -11.1966,4.9295 -16.0324,8.5852 -8.6659,6.5512 -25.8028,24.9372 -22.6361,23.447 M 347.64905,439.39483 c 2.03189,33.2432 -8.54072,60.72503 -3.0031,84.62066 3.56976,15.40404 21.05985,27.11866 30.68911,41.42511 9.73853,14.46879 11.60756,31.51537 13.51773,44.59081 4.71698,32.28846 29.74289,51.82988 37.67964,64.05025 7.05675,10.86542 -8.03292,17.13558 -18.15459,28.29496 -0.88718,0.97814 -14.96576,20.36572 -17.61155,32.35715 -2.3674,10.72972 -0.89109,22.32629 2.11232,32.89563 1.09431,3.851 1.74353,22.22838 5.80156,32.43418 3.47785,8.74667 11.75669,14.97363 15.47299,23.62168 5.50416,12.80851 3.53826,28.1546 9.60925,40.70437 4.6068,9.52306 19.96118,24.42984 19.69049,24.88946 M 347.64905,439.39483 c -14.18608,35.83424 -36.66358,63.42243 -46.89408,98.23492 -5.13214,17.4637 4.41465,35.64411 3.13678,53.9016 -0.3787,5.41059 1.60318,17.60086 -0.47232,23.00835 -4.11184,10.71294 -13.66077,14.6142 -15.61749,25.12016 -1.81392,9.73924 -10.45403,12.36946 -13.56252,22.18769 -2.07092,6.54104 -0.21544,20.57214 -2.30219,27.20161 -12.03732,38.24179 -24.51795,67.88259 -24.41785,98.02759 0.006,1.83189 13.69386,21.48704 17.61942,33.4678 1.88395,5.74979 -0.50761,12.81407 2.68874,17.95145 3.38146,5.4349 11.2275,6.44312 15.77981,10.943 6.6921,6.61503 12.3473,25.8895 18.93578,35.55133 12.22647,17.92978 8.73209,29.66625 12.27484,32.97364 M 142.6936,671.6873 c -1.25361,18.87524 -14.02804,43.37754 -12.54355,65.58634 1.60248,23.97395 17.25366,44.00423 21.98316,67.04174 1.90211,9.26523 -1.44832,19.66894 2.4969,28.26531 3.78922,8.25643 16.15042,11.28537 19.01925,19.51948 3.44246,9.88055 6.08196,20.12913 7.34964,30.95046 0.1553,1.3257 18.84624,24.83157 23.09438,39.4714 4.38129,15.09869 -1.20421,31.67871 1.6719,47.13491 2.69924,14.5057 14.4072,40.96756 14.44806,41.83976 M 727.06728,143.52664 c 0,0 -74.37318,47.37396 -105.07232,54.13942 -13.10665,2.88844 -23.87865,13.02088 -33.41137,22.46835 -5.92509,5.8721 -7.9417,15.07023 -14.15127,20.64065 -11.31532,10.15063 -27.3117,13.47651 -40.18145,21.56608 -7.00413,4.4026 -14.27718,7.892 -20.05799,14.61658 -5.8234,6.77412 -6.0734,17.80155 -13.01123,23.4289 -8.19933,6.65056 -21.89032,2.90562 -30.26602,9.33264 -10.7322,8.23526 -11.39467,25.47128 -21.58766,34.36525 -12.71724,11.09652 -35.07306,8.12412 -46.12952,20.8762 -8.48314,9.78411 -3.74015,26.47599 -10.83984,37.3059 -10.62077,16.20097 -44.70956,37.12822 -44.70956,37.12822 0,0 -12.07767,-54.10431 -20.1625,-89.52761 -4.38963,-19.23295 -29.03708,-28.99584 -34.81698,-47.85765 -4.65764,-15.19949 1.63332,-47.66334 1.63332,-47.66334 m 53.34616,185.0486 c -14.50106,25.99113 -58.39423,36.47339 -78.02448,63.71597 -15.45602,21.44964 -18.49471,62.26127 -28.14773,74.15178 -42.71252,52.61296 -58.87571,69.89718 -98.78324,94.42472 -32.22077,27.16953 -39.73086,22.79802 -69.89695,-7.20451 -0.811274,-0.80688 -15.310786,-9.27398 -23.860475,-9.42049 -7.811195,-0.13385 -14.776131,5.08658 -22.081571,7.85483 -11.553815,4.37809 -34.3855987,13.84036 -34.3855987,13.84036 M 24.654135,494.29163 c 7.727702,-3.54551 14.555244,-11.28788 22.648112,-14.77318 10.368814,-4.46548 21.869633,-4.77805 29.914021,-10.58612 6.607873,-4.7709 12.18412,-14.96194 20.885876,-17.7389 7.743986,-2.47131 12.203516,3.68292 24.295566,2.10149 16.45411,-2.15192 33.63253,-13.64791 41.1033,-10.16853 48.429,22.55494 121.3206,0.80591 184.14804,-3.73156 0,0 -47.73065,10.83625 -65.46285,26.27805 -3.53645,3.07966 -2.94856,9.82505 -6.9853,12.21158 -6.41331,3.79155 -15.08866,-1.30509 -22.34769,0.37207 -8.05652,1.86141 -14.44114,8.53256 -22.47016,10.50921 -7.34841,1.80908 -15.9852,-2.50018 -22.68017,1.02816 -5.11337,2.69482 -6.60103,9.52393 -10.43935,13.84549 -8.00785,9.01605 -23.13392,22.96998 -31.36271,30.41932 -1.93711,1.75363 -5.35587,20.69133 -18.23732,31.42782 -1.87926,1.56634 0,0 -6.32251,7.54353 -5.74215,6.85109 -6.01645,18.04312 -14.35006,31.49587 -7.883,12.72535 -23.99722,27.92708 -23.99722,27.92708 M 31.490425,232.18399 c 12.42756,9.55301 22.484951,22.93406 36.843865,29.22101 6.975248,3.05406 15.511401,0.66821 22.570234,3.52378 11.286286,4.56573 18.854246,15.82403 29.854316,21.04175 5.09137,2.41502 10.80155,3.23853 16.28442,4.53951 7.53541,1.78801 15.76608,1.23517 22.7977,4.48104 7.58477,3.50121 12.34952,11.48413 19.63059,15.57965 11.38828,6.40579 25.03299,7.84195 36.76941,13.58508 5.53517,2.7086 10.56219,6.26858 15.69987,9.76143 41.38016,28.13231 76.93227,70.83473 115.70822,105.47758 0,0 -95.80569,-37.72225 -145.81224,-35.76523 -12.12294,0.47443 -22.43094,11.37671 -34.56313,11.40648 -4.11272,0.0101 -7.72344,-2.90464 -11.73547,-3.80916 -4.80674,-1.08369 -9.79129,-1.14083 -14.65813,-1.91091 -9.47175,-1.49872 -20.83584,-8.51068 -31.70297,-11.2962 -8.7345,-2.23887 -18.545577,-0.46447 -26.707027,-4.29785 -9.616093,-4.51665 -14.381395,-16.4505 -23.989616,-20.98384 -9.430932,-4.44969 -30.869005,-5.07787 -30.869005,-5.07787 M 382.41395,578.45445 c 0,0 41.08178,-8.84578 58.80584,-19.43093 13.22864,-7.9004 24.12835,-19.59725 33.58121,-31.76512 11.3652,-14.62949 27.02285,-48.56411 27.02285,-48.56411 m -293.6123,-24.56216 c -7.32257,12.07469 -14.4369,12.9588 -19.1991,21.22527 -2.45319,4.25839 -1.13147,10.45982 -4.49735,14.04072 -1.27808,1.35973 -13.96251,11.34158 -22.40639,13.55491 -10.83885,2.84111 -20.4236,2.26534 -31.67088,1.75868 -2.81039,-0.1266 -13.85151,0.75754 -16.60844,1.24576 -7.88038,1.39552 -11.13875,1.93789 -15.994034,4.62629 -5.804656,3.21407 -8.999831,10.11386 -14.835513,13.27125 -5.174348,2.79957 -11.812711,1.88662 -17.046748,4.57294 -7.722551,3.96353 -12.773237,11.91878 -20.145421,16.50117 -5.645825,3.50932 -12.173923,5.35099 -18.160542,8.24081 -13.236315,6.38935 -36.7884773,17.24359 -39.242866,20.10503 M 347.64905,439.39483 c 2.38148,-22.84534 -0.16458,-39.11359 0.56894,-64.35576 0.30834,-10.6107 10.1902,-25.52196 10.07199,-45.57844 -0.10412,-17.66538 -10.60398,-40.20161 -5.26721,-54.98357 2.6306,-7.28632 10.23862,-11.78252 13.97545,-18.56828 2.28196,-4.14383 8.05155,-21.6698 3.65101,-35.12665 -5.304,-16.21964 -5.39642,-24.14012 -12.45471,-33.88754 -4.41867,-6.10213 -14.10047,-7.42103 -17.72228,-14.02732 -2.40647,-4.38947 -0.54725,-10.03049 -1.52498,-14.93993 -1.23123,-6.18235 -3.13127,-12.24563 -5.43382,-18.11382 -1.96796,-5.01546 -9.24967,-9.55843 -7.12339,-14.50884 l 8.40347,-19.56497"
       inkscape:connector-curvature="0"
       sodipodi:nodetypes="caaaaaaasssssssssssssassccssaassaccssssssssssssaasccsssccssssccsssssasccssaaaaassssssssssssssssssssssssssssssssssscssssssssssssssssssssaccsssssasaaaccsssssssaassccsssssaaccsaaasssssscssccsscsaaccssasscssssssssssccaaaaaaascaaasaaaccssccsssssaaaaaccsssssaaaasc" />
    <g
       style="fill:none;fill-opacity:1;fill-rule:nonzero;stroke:#12445d;stroke-width:4;stroke-miterlimit:10;stroke-dasharray:none;stroke-opacity:1"
       id="g7602"
       stroke-miterlimit="10">
      <path
         sodipodi:nodetypes="ccccccccscccscccsccccccccccccccccccccscscccscccsccccccccccccccscssscccccccccccccccccccccccscccccccccccccccccccccccsccccccscccsscccccccccccccscccccccccccccccccccsccccccccccccccccccccccccsccccccccccccccccccccscccccccccsccccsccccccccsscccsccccccsccccccccccccccccscccscccccscccccccccccccscccccccccccccccccccccccsccccscscccccccccccccsccccsccccccscccccccccccccsccccccccccccccccccscccccsccsscccsccccccccscccccccccccccccccccccccccccccccccccccccccccccccccccccccccscccccccccccccccccccccccccccsccccccsccccccccccccccccccccccccscsccccccccccccccsccccccccsccccccccccccccsccccccccccscccccccccccsccccccccccccccscccccccccccscccccccccccccccccccccccccccccccccccccccccccscccsccccccscccccccccccccccccccsccccccccccccscccccccscscccscccccc"
         inkscape:connector-curvature="0"
         style="fill:none;fill-opacity:1;fill-rule:nonzero;stroke:#13445e;stroke-width:1.24018071;stroke-miterlimit:10;stroke-dasharray:none;stroke-opacity:1;stroke-linejoin:bevel"
         id="path7598"
         transform="matrix(2.37473,0,0,2.4641,55.88,-165.29)"
         d="m 532,171.6 c 1.2,-1.2 2.3,-2.4 3.2,-3.8 1.3,-2.1 3.5,-3.7 4.7,-5.8 1.8,-3.1 1,-8.6 0.9,-12.2 0,-0.3 0,-0.6 0.1,-0.9 0.2,-2 -2,-2 -3,-3.4 -0.6,-0.8 -1,-1.7 -1.2,-2.7 -0.2,-1.4 -0.4,-2.7 -1.9,-3.1 -1.8,0 -1.2,1.3 -1.2,2.5 0,0.2 -0.3,0.3 -0.4,0.1 -0.9,-1.6 -2.1,-3.9 -3.5,-4.5 -1.5,-0.7 -5.5,0.8 -7.4,0.9 -0.7,0.1 -1.2,0 -1.8,0 -1.2,0 -2.3,0.5 -2.9,1.5 -1,1.6 -2.4,3.8 -3.2,2.4 -0.3,-0.6 1.2,-2.8 1.3,-3.5 0.1,-0.6 0,-3.5 -0.4,-3.9 -1.4,-1.4 -2.5,-2.5 -4.3,-2.1 -1.1,0.4 -2.2,0.8 -3.2,0.2 -0.6,-0.4 0.7,-1.3 1,-1.5 2,-1.1 6.1,-2.6 2.6,-4.7 l -3.7,-2.8 c -2.5,-2 -6.1,1.5 -7.8,3.3 -0.8,1.1 -1.8,2.2 -2.8,3.2 -1.2,1.8 -3.5,4.8 -3.8,7.1 -0.1,1.3 1.1,2.2 0,3.5 -0.4,0.4 -2.8,1.1 -3.3,0.9 -2.7,-0.8 -4.5,-0.1 -4.1,1.8 0.1,0.8 -0.2,1.7 -1,2 -1.3,0.6 -2.4,1.5 -3.6,2.3 -3.5,2.5 -3.3,0 -5.9,-1.5 -8.1,-4.6 -10.9,-1.8 -11.9,-0.4 -0.5,0.8 -0.4,1.8 0.4,2.3 0.7,0.4 0.7,1.4 0,1.7 -2.7,1.2 -8.4,1.2 -10.4,1.7 -4.8,1.4 -8.7,3.9 -13.6,4.5 -0.5,0.1 -0.7,0.7 -0.4,1.1 0.8,0.8 0.8,2.1 0,2.9 -0.5,0.5 -1,1 -1.5,1.2 -1.6,0.7 -1.1,-0.3 -3.1,-0.3 -2.5,0 -1.6,1.1 -0.4,2.5 0.5,0.5 0.3,1.3 -0.4,1.6 l -1.2,0.5 c -0.5,0.2 -0.6,0.8 -0.2,1.2 2.2,2.2 5.7,6 1.3,6.8 -0.6,0.1 -3.1,-0.1 -3.9,0 -2.3,0.1 -4.7,0.3 -7,0.1 -4.2,-0.3 -7.8,-1.8 -12.1,-1.8 -0.3,0 -1.2,-0.5 -1.4,-0.5 -1.5,0.5 -0.5,0.6 -1.3,1.5 -0.6,0.7 -1,1.8 -0.9,1.6 -0.5,1.5 -1.1,3 -0.7,4.5 0.3,1.2 0.4,2.4 -0.1,3.6 0,0.1 -0.1,0.2 -0.1,0.3 -0.8,0.9 -0.6,2.2 -1,3.2 -0.3,0.7 -0.1,1.6 0.5,2.1 1.6,1.2 3.5,2.7 4,3.9 1,2 -0.3,3.3 1.2,5.2 0.2,0.2 1.4,1.7 1.8,1.8 -1.4,2.4 -7.4,-2.9 -8.5,-4.4 -2.6,-3.6 -3.7,-7.5 -7.9,-8.7 -1.2,-0.4 -2.1,-1.5 -2.2,-2.7 -0.2,-2 -2.3,-1.3 -4.8,-0.3 -0.5,0.2 -0.5,0.8 -0.1,1.1 l 0.9,0.5 c 0.9,0.5 0.7,1.9 -0.2,2.2 -3,1 -6.5,0.9 -6.8,4.8 -0.2,2.6 0.8,5 2.2,7 1.7,1.6 2.7,0.4 3.6,3.3 -0.3,0.2 -1.8,0 -2,-0.1 -2.2,-2 -5.7,-2.9 -7.5,-5.2 -1.6,-2 -0.2,-4.1 0.6,-6.3 1,-3 2.5,-5.8 3.5,-8.8 0.9,-2.5 0.6,-4 -0.1,-6.1 -0.3,-0.8 -1.4,-0.8 -1.6,-0.1 -0.8,2.2 -0.1,5.2 -1.5,6.8 -2.1,2.3 -6.3,2.7 -8.6,4.7 -3.2,2.8 -2.4,5.6 -2.7,9.3 -0.3,2.8 -1,6.4 -2.3,8.9 -1.6,3.2 -4,5.6 -4.6,9.1 -0.3,1.4 -0.6,2.7 -0.9,3.9 -0.5,1.8 0.5,3.6 2.2,4.2 0.1,0 0.2,0.1 0.3,0.1 1.2,0.5 1.7,0.8 2.6,0.9 0.3,0 0.7,-0.5 1,-0.4 1.8,0.3 2.6,0.8 4.1,1.8 1.9,1.2 3.7,3.4 4.6,5.3 0.4,0.9 0.4,1.8 0.2,2.8 -0.2,1.3 0.1,2.4 0.3,3.9 0.1,0.8 -0.4,1.5 -1.2,1.8 -0.4,0.1 -0.8,0.3 -1.2,0.5 -0.6,0.3 -1.3,-0.2 -1.3,-0.8 0.1,-2 0,-5.5 -0.7,-7 -1.3,-2.6 -3.8,-4.4 -6.6,-4.6 -1.5,-0.1 -2.8,0.2 -4.1,1.6 -2.2,2.4 -1.8,5.2 -2.5,8.1 -0.5,2.1 -0.9,4.2 -2.7,5.6 -1.1,0.8 -2.3,0.8 -3.2,1.9 -0.6,0.7 -0.6,1.9 -1.3,2.7 -1.5,1.7 -3.9,2 -5.7,3.3 -1.7,-0.2 -2.3,-0.2 -3.8,1 -0.7,0.5 -0.9,2 -1.8,2.2 -2,0.5 -1.2,-0.9 -2.5,-1.5 -1.1,-0.5 -2.4,-0.7 -3.6,-1.2 -1.5,-0.6 -4,-1.8 -5,-3.1 -0.6,-0.7 -1.2,-2.4 -1.4,-3.3 -0.3,-2.5 -0.2,-2.1 1.4,-1.9 0.5,0.1 1.4,0.4 2.3,0.9 0.8,0.4 1,1.3 0.9,2.2 -0.2,0.8 1.1,2.3 2.2,2.7 1,0.4 2.9,1.1 3.9,0.5 1.2,-0.7 0.5,-1.6 1.3,-2.7 1.1,-1.5 3.5,-1.5 4.9,-3 0.7,-0.7 0.6,-1.6 1.4,-2.3 0.5,-0.4 1.5,-0.8 2.1,-1.1 1.6,-0.8 3.2,-1.3 4.1,-2.8 0.8,-1.3 0.6,-2.9 1.4,-4.2 1.8,-2.6 3.8,-2.1 2.8,-6 -1.1,-4.2 -1.9,-6.5 0.2,-10.4 1.2,-2.3 2.2,-4.7 3,-7.2 0.9,-2.7 2.1,-4.2 3.5,-6.5 1.3,-2.2 1.9,-5.1 2,-7.6 0.1,-2.5 -0.7,-4 0.3,-6.3 0.9,-2.1 2.6,-3.7 3.9,-5.5 1,-1.4 3.1,-3.8 3.3,-5.5 0.2,-1.6 -1.7,-6.7 -2.6,-8 -0.9,-1.3 -4.7,-3.9 -6.3,-4.3 -2,-0.5 -4,2.7 -4.6,3.5 -3.1,3.8 -5.6,7.5 -9.6,10.3 -3.3,2.3 -6.7,4.5 -9.3,7.5 -0.8,0.9 -0.9,2.1 -0.5,3.2 0.8,2 -1.2,6.3 -2.3,7.6 -2.1,2.6 -6.5,3.3 -4.3,7.1 0.2,0.4 1.6,0.6 2,1.1 0.8,0.9 0.7,1.8 1,2.9 0.5,1.9 0.7,4.2 0.8,6.2 0.1,3 -1.9,6.5 -5,7.6 -2.3,-5.8 -3.8,-11.9 -7.1,-17.1 -3.8,-6 -8,-10.9 -13.3,-15.5 -1,-0.9 -1.5,-1.4 -2.3,-1.7 -2,-0.6 -1.2,-0.3 -1.3,-3.2 -0.1,-2.9 0.5,-3.9 -1.3,-6.7 -1.9,-2.9 -6.3,-0.6 -5.3,3.2 0.3,1.1 1.4,2.2 2,3.2 0.4,0.7 0.4,1.6 0.7,2.2 0.3,0.5 0.7,1.3 0.8,1.9 0.1,1.1 -0.5,2.7 -0.7,4 -0.4,1.7 0.4,4.5 -0.6,5.9 -1.2,1.7 -7.3,2.5 -9.7,3 -0.8,-3.1 5.8,-5.4 0.9,-8 -2.6,-1.4 -5.7,0.2 -8.4,0 -3.1,-0.3 -4.6,-3.7 -8.4,-4 -1.1,-0.1 -2.1,0.2 -3.2,0.4 -2.4,0.6 -2.5,0.1 -5,-0.1 0,-1.3 -0.1,-2.2 1.2,-3.3 0.9,-0.7 1.3,-2.1 2.2,-2.9 0.7,-0.6 1.9,-1 2.5,-1.6 0.5,-0.4 0.3,-1.2 -0.2,-1.3 -4.2,-1.3 -8,-0.6 -12.2,-1.1 -2.7,-0.3 -5.4,-1.1 -7.9,-0.9 -2.4,0.1 -4.6,0.9 -7,0 -1.6,-0.6 -2,-1.1 -3.2,-1 -0.9,0.1 -0.4,1.5 -1.2,1.5 -2.2,0.1 -1.6,-1.7 -4.1,-0.7 -1.7,0.7 -2.9,2.7 -4.4,3.7 -2.1,1.5 -3.8,1 -6.1,-0.5 -2.6,-1.6 -2.2,-2.3 -1.8,-4.9 0.3,-1.8 0.4,-1.2 0.1,-2.8 -0.1,-0.4 -0.9,-2.1 -0.8,-1.7 0.5,-0.9 1.9,-1.6 3,-1.9 3,-1 5.1,2 7.3,1.4 4.3,-1.3 2,-8.6 0.6,-11 -0.8,-1.4 -2.1,-2.8 -3.4,-4.2 -1.1,-1.2 -3.1,-0.5 -3.3,1.2 -0.1,1.3 -0.4,2.6 -1.3,3.7 -1.5,1.9 -4.1,2.9 -5.6,4.9 -1.7,2.2 -2.3,5.3 -3.8,7.6 -1.1,1.7 -4.2,5.5 -6.4,6 -2.3,0.5 -1.7,-2.8 -2.6,-4.8 -1.7,-4 -2.1,-4.7 -6.2,-4 -5,0.9 -10.6,-2.1 -14.7,2.1 -1.5,1.5 -2.5,5.6 -3.9,6.5 -2.6,1.6 -4.6,-0.5 -5.9,-2.5 -0.7,-1 -2.4,-2.7 -2.7,-3.9 0,0 0.9,-1.6 0.8,-2.2 0,-1.8 -1.8,-6.7 -4,-6.7 -1.7,0 -3.8,4.1 -4.2,5.8 -0.8,3.5 2.6,3.7 0.7,6.4 -1.6,2.3 -4.7,1.7 -6.1,-0.4 -1.2,-1.9 -0.8,-5.3 -1.4,-7.6 -1,-4.1 -0.3,-8.5 2.4,-11.7 4.8,-5.8 7.5,-3.2 8.5,-7.7 0.7,-3 -2.8,-5.6 -1.1,-7.2 0.6,-0.5 0.9,-1.5 1.1,-2.5 0.2,-1.2 0.8,-2.3 1.8,-3 1,-0.8 1.1,-1.9 1.2,-0.6 0.1,1.6 1.1,3.3 1.6,4.9 0.9,2.9 1.6,6.3 2.9,9 1.8,3.7 4.9,8.3 7.4,11.7 3.7,4.8 13.5,4.6 18.5,2 2.3,-1.2 2.5,-2.7 3.8,-4.7 0.5,-0.8 1.6,-1.5 1.9,-2.5 0.5,-1.7 -0.3,-1.6 -0.6,-3.1 -0.4,-2.2 0.9,-4.5 0.4,-6.5 0,-0.1 -0.7,0.1 -0.9,-0.3 -0.4,-1.2 0,-2.6 -0.3,-3.8 -0.1,-0.5 -0.4,-1.1 -0.5,-1.5 -0.4,-1.6 -0.9,-3.1 -1,-4.9 -0.2,-4 0.6,-7.9 -0.7,-11.7 -0.8,-2.6 -1.7,-2.6 -3.2,-4.5 -0.8,-1 -1.3,-1.8 -1.8,-2.6 -0.9,-1.3 -1.3,-2.8 -1.5,-4.4 -0.1,-0.9 -1.1,-1.8 -1.2,-2.9 -0.1,-0.8 0,-1.2 0.3,-1.3 1.6,-0.6 2.5,-2.2 2,-3.8 l 0,-0.1 c -0.3,-1 -1.2,-1.7 -2.2,-1.7 -0.2,0 -0.4,0 -0.6,-0.1 -2.2,-0.5 -0.6,-0.6 -2.1,-1.9 -0.7,-0.6 -4.7,-0.8 -6.3,-0.9 -1,0 -1.8,-0.9 -2.8,-0.9 -1,-0.1 -2,0.4 -2.8,0.4 -3.5,0 -4.5,-1.7 -7.6,2 -1.7,2.1 -3.4,4.1 -4.2,6.6 -1.2,3.9 -0.4,5.3 -4,7.8 -2.2,1.5 -4.9,2 -7.1,3.5 -2.6,1.8 -3.8,4.6 -5.3,7.3 -0.7,1.2 -1.5,3.8 -2.6,4.7 -0.8,0.6 -1.6,0.3 -2.5,0.7 -2.3,0.9 -5.1,2.4 -6.8,4.3 -2,2.2 -2.6,5 -4.2,7.3 -1.6,2.3 -3.9,3.5 -5.8,5.4 -3.6,3.6 -0.5,11.3 -5.5,13.2 -5.6,2.1 -13.7,1.8 -19.7,1.8 -3.7,-0.1 -8.2,-0.8 -11.8,-0.2 -2.5,0.5 -2.9,1.3 -2,2.2 1,1 1.3,2.3 1.1,3.7 -0.2,0.8 0,1.5 -0.3,3.1 -0.3,1.8 -0.2,1.9 -1.8,2.1 -1.3,0.1 -4,-1.3 -5.3,-1.7 -2.3,-0.9 -1.3,-1 -3.5,0 -0.6,0.3 -1,1.2 -1.5,1.5 -0.6,0.3 -1.5,0.2 -2.2,0.5 -1.4,0.6 -2.7,1.1 -4,1.9 -1.4,0.9 -3,1.8 -4.3,2.9 -2.1,1.9 -4.5,3.4 -7.3,4.1 -0.7,0.2 -1.3,0.5 -2,1.1 -1.8,1.5 -3.9,5.8 -5.2,7.9 -1.2,2 -4.5,6 -4.4,8.5 0.1,1.6 2,2.9 2.2,4.5 l 0,0.3 c 0.4,2.8 1.6,5.3 3.1,7.7 0.6,0.9 1,1.9 0.9,2.9 -0.3,2.5 -3.4,4.3 -5.2,6.1 -3.3,3.5 -5.6,11.1 -5.3,16 0.7,12.7 -5.9,-1.3 -10.5,3.1 -0.6,0.6 -1.5,2.8 -2.1,3.6 -1,1.3 -2.6,2.5 -2.8,4.1 -0.2,1.7 0,2.4 1.9,3 0.6,0.2 0.326998,-5.92074 0.926998,-5.62074 0.8,0.4 2.273002,6.92074 2.973002,7.52074 2,1.7 4.6,3.8 5,6.9 0.5,3.6 -2.3,4.2 -4.2,6.2 -3.2,3.3 0.4,4.2 1.1,7.5 0.7,3.3 -3,5.6 -3.2,8.4 -0.2,2.5 2.5,5.9 4.1,7.6 1.1,1.1 3,1.5 3.9,2.5 1.4,1.5 0.5,3.4 0.7,5.1 0.3,2.7 2.7,4.2 3.9,6.7 1.1,2.3 2.9,5.8 3.5,8.3 0.6,2.5 0.2,1.7 -2.2,2.8 -1.4,0.6 -2.7,1.4 -3.9,2.4 -2.2,2 -3.5,6.2 -5.8,7.3 -3.1,1.4 -5.9,-2.7 -8.8,-3.5 -0.9,-0.2 -1.6,-0.4 -2.2,-0.4 -3.5,-0.1 -4.9,4.5 -2,6.5 0.7,0.5 1.3,1.1 1.6,1.7 -1.5,0.4 -3.3,0.2 -5.1,-0.3 -3,-0.9 -6.3,-0.3 -8.6,1.8 -0.6,0.5 -1.4,1 -2.8,1.4 -4.3,1.6 -5.5,1.3 -9.7,-0.7 -1.7,-0.8 -1.4,-2.5 -3.4,-0.2 -1.2,1.3 -1.595626,2.01342 -1.395626,3.91342 0.3933286,2.7533 1.6503115,4.63193 2.6555524,6.86598 0.2726232,0.60588 0.5267307,1.2379 0.7400736,1.9206 0.9,2.9 1.5,6.2 1.9,9.2 0.5,3.4 -0.4,7.1 1.3,10 1.5,2.4 4,4.8 5.7,7.2 2,2.9 4.1,5.8 6.2,8.8 2.3,3.2 3.6,5.4 4.6,9.2 1.3,4.4 1.4,5.7 5.3,7.8 2.7,1.5 5.2,3.8 6,7 0.4,1.5 0,3 -0.1,4.4 -0.1,2.3 0,2.7 1.1,4.9 1.6,3.1 2.4,6 3.2,9.4 0.9,4 1,6.4 5.6,6.3 9.5,-0.1 6.4,-11.1 7.8,-16.9 1,-4.2 5.4,-4 7.1,-7.2 1.5,-2.8 -2.9,-8.6 -1.1,-11.1 0.9,-1.2 4,-0.7 5.3,-1.3 1.9,-0.8 3.3,-2.3 5.4,-2.9 1.7,-0.5 4.2,0.1 6.3,0.9 2.7,1 5.7,0.9 8.2,-0.4 2.3,-1.2 1.8,-3.4 2.1,-4.2 0.2,-0.7 1.5,-1.9 1.8,-2.5 0.9,-1.7 1.2,-1.7 1.4,-3.8 0.3,-3.4 1.5,-7.4 -0.5,-10.5 -0.8,-1.2 -1.6,-2.4 -2.8,-2.5 -1.2,-0.1 -2.2,-1.1 -1.6,-2.2 0.4,-0.6 1.6,-1.1 1.8,-1.8 1,-3.8 -1.1,-5.4 2.3,-7.8 3,-2.1 5,-3.2 7.6,-5.9 1.2,-1.3 5.3,-6.2 7.8,-5.2 1.5,0.6 2,3.2 2.2,5.5 0.2,1.9 2.5,2.8 3.9,1.4 0.8,-0.8 2.2,-1.3 2.5,-2.8 0.5,-2.1 1,-2.3 3.3,-0.7 1.8,1.2 1.8,0.4 4,-0.7 2.7,-1.3 4.6,-0.4 7.4,-0.7 2.5,-0.2 5.2,-1.3 7.4,0.7 0.9,0.8 0.9,2.9 2,3.7 1,0.7 2.6,0.3 3.7,0.9 1.9,1.1 2.8,3.8 4,5.4 2.4,3.1 3.2,3.8 4,7.8 0.1,0.4 0.2,0.8 0.2,1.2 0.4,2.3 2,4.1 4,5.3 l 0.1,0 c 1,0.7 1.1,2.8 1.9,3.8 2.6,3.3 4.9,0.4 8.2,0.9 3.3,0.5 5.8,3.4 8.8,4.5 4.3,1.7 3.7,3.4 5.4,7.3 1.6,3.7 5,4 8.4,5.3 2.4,1 5.1,3.3 7.8,2.5 3.6,-1.1 4.7,-4.3 3.3,-7.1 -1.2,-2.4 -4.8,-6 -2.9,-8.7 0.2,-0.3 3.5,-1.7 4.2,-2.2 1.2,-0.8 2.5,-2.5 3.6,-3.1 2.7,-1.6 4.5,-0.4 6.7,0.7 0.9,0.5 1.9,-0.5 1.4,-1.4 -0.5,-0.8 -0.9,-1.7 -1,-2.4 -0.2,-1.6 1.6,-2.7 1.6,-3.6 0,-1.2 -1.7,-1.3 -1.3,-3 0.6,-2.6 3.1,-1.2 4.4,-0.5 1.5,0.8 2.8,2.5 4.3,3.1 1.8,0.8 3.6,0.1 5.4,0.3 3.7,0.3 7.4,1.9 10.9,3 3.3,1.1 6.1,-0.1 9.5,0.5 4.1,0.7 7.8,1.9 12,2.1 2.9,0.2 5.6,-0.6 8.5,-0.5 1.7,0 3.3,0.6 4.8,1.5 6.8,4.2 7.4,5 6.6,8.7 -0.3,1.5 -2,4.4 -1.8,5.8 0.5,3.8 4.8,3.4 6.6,5.6 0.9,1.2 2.3,2 3.7,2.1 0.7,0 1.3,0.4 1.9,1.3 1.4,2.1 -1.3,5.2 0.5,6.3 0.5,0.3 3.7,1.3 4.3,1.5 3.9,1.1 9.2,-0.8 14,-2.3 1.7,-0.5 3.6,0.5 4,2.3 l 0,0.1 c 0.5,2.1 2.2,4.3 3.2,6.2 1.7,3.4 2.8,6.1 3.5,9.8 1.4,7 2.7,14.1 4.1,21.1 0.6,2.7 3.1,4.2 5.5,3.9 1.5,-0.2 3,0.3 3.8,1.6 1.6,2.3 4.2,5.3 7.4,5.5 4.9,0.4 8.8,-1.5 11.6,3.5 2.4,4.2 3.7,9.3 6.5,13.4 3,4.4 6.8,1.8 10.3,3.9 1.9,1.1 2.3,4.4 4.1,5.7 2,1.5 3.7,0.5 6.3,-0.2 3.8,-1 8.4,0.6 11.7,-1.1 1.8,-1 3.2,-3.3 5.5,-4.1 1.5,-0.5 2.9,-1.1 4.2,-1.9 2.6,-1.6 3.8,-1.8 6.6,-2.3 2.1,-0.4 4.2,-2 6.1,-2.3 3,-0.4 7.5,3.6 9.8,5.4 3.7,2.8 5.9,6 10.3,7 4.1,1 8.1,0.8 12,2.4 2.49581,0.99833 4.91377,1.21802 7.03523,0.29469 1.27857,-0.55647 2.44944,-1.52811 3.46477,-2.99469 3.1,-4.6 -1.1,-7.4 -0.3,-11.7 0.4,-2.5 6,-10.2 8.6,-10.2 1.1,0 3.7,2.2 4.9,2.8 2.8,1.4 5.6,2.6 8.4,3.9 5.1,2.4 6.9,3.3 9,8.6 1.6,3.9 5.7,6.5 9.7,7.8 4.8,1.6 8.5,-1.6 13.1,-1.7 4.6,-0.1 9.5,2.1 13.5,4.1 1.9,1 4.1,2 5.8,3.2 2,1.4 3,3.4 5.4,4.2 3.6,1.3 9.9,1.9 13.8,1.6 4,-0.3 7.7,-2.7 11.6,-3.8 5.8,-1.6 8.1,-2.5 12,-7 2.8,-3.2 6.7,-3.6 10.7,-2.7 4.6,1 8.9,0.3 13.3,1.6 5.7,1.6 7.7,2.7 12.2,-1.8 1.2,-1.2 3.8,-3 4.7,-4.4 1.1,-1.7 0.5,-3.9 0.6,-5.8 0.3,-4.4 1.9,-9.9 3.9,-13.9 2.5,-4.9 4.9,-7.1 -0.1,-10.9 -1.7,-1.3 -2.7,-1.4 -1.4,-3.8 1.1,-2 4.5,-4.1 6.3,-5.6 3.5,-2.7 7.3,-2.6 11.2,-4 5.1,-1.7 6.9,-0.4 11.8,1.1 2.2,0.7 4.8,0.3 7,1.1 1.7,0.6 2.5,1.7 3.9,2.9 3.5,3.2 5.1,7.5 7.8,11.4 2.5,3.7 5,7.6 7.6,11.2 1.1,1.5 2.3,2.9 3.2,4.7 0.9,1.9 3,3 5.1,2.8 3.7,-0.5 8.4,-0.5 12.1,0.3 5,1.1 7.7,2.1 9.9,6.6 1.5,3.1 4.2,8 7.7,7.9 4,-0.1 9.1,-4.2 11.7,-6.9 2.5,-2.5 4.7,-4.4 7.5,-6.1 1.6,-1 3.7,-0.3 4.4,1.5 0.2,0.5 0.3,0.9 0.4,1.4 0.6,2.6 -0.6,3 -1,5.2 -0.6,3 0.3,7.5 0.5,10.5 0.3,3.8 0.3,6.8 -0.5,10.5 -0.3,1.4 -0.2,3.9 -0.6,5.1 -0.8,2.5 -2,2.4 -4,2.8 -4,0.7 -5.8,-0.2 -8.3,3.5 -3,4.3 -1,5.6 0.8,10 1.2,3 2.6,6.9 2.7,10.2 0.2,3.5 -1.2,5.3 -3.2,7.5 -0.5,0.6 -0.6,1.6 -0.1,2.2 0.6,0.8 1.3,1.7 1.8,2.6 0.5,0.7 1.7,0.4 1.8,-0.5 0.2,-1.1 0.4,-2.1 1.1,-2.8 0.4,-0.5 1.7,-0.8 2.2,-1.6 0.7,-0.9 0.6,-2.1 0.9,-3.1 0.6,-1.6 1.1,-2.9 2.7,-3.5 2.3,-0.9 2.7,0.6 4.7,1.4 3.6,1.6 5.9,1.3 8.6,-1.3 3.2,-3.1 6.2,-7 8.9,-10.6 2.2,-2.9 3.2,-6.1 3.8,-9.6 0.7,-3.8 2.4,-6.8 3.4,-10.5 2.2,-7.6 4.6,-14.8 6.2,-22.6 1.7,-8.2 2.9,-16.5 4.5,-24.8 1.5,-7.4 -2,-14 -3.9,-21 -1.1,-4.1 -2.6,-8.1 -3.7,-12.2 -0.8,-2.7 -2.5,-8.3 -1.1,-10.7 1,-1.7 1.6,-1.4 3.1,-0.3 1.5,1.2 3.3,2.6 4.7,3.9 3,2.9 4.1,6.6 5.5,10.4 1.5,4 2.8,8 4.1,12.1 0.7,2 1.1,4.3 2.2,6.2 1.1,1.8 2.9,2.7 3.9,4.4 1.2,2.1 1.5,5 2.3,7.3 0.8,2.1 2.1,3.8 2.9,5.9 1.4,3.7 2.8,7 4.6,10.5 0.4,0.7 1.4,0.7 1.7,-0.1 0.4,-0.9 0.6,-1.8 0.6,-2.9 0,-1.5 -1.1,-3.4 0.1,-4.8 2.3,-2.7 4.8,-0.1 6.9,1.5 0.8,0.6 1.8,-0.1 1.6,-1 -0.5,-1.7 -1.5,-3.6 -2.2,-4.7 -1.5,-2.1 -2.8,-1.9 -5.2,-3 -3.6,-1.8 -7.1,-6.5 -8.5,-10.2 -1,-2.9 -1.9,-9.9 0,-12.6 1.7,-2.4 4,-1.9 6.3,-1 1.8,0.7 3.2,-1.5 1.9,-2.9 -2.3,-2.3 -5.3,-4.5 -7,-6.5 -4.7,-5.6 -9.4,-11.3 -14.5,-16.6 -1.6,-1.7 -2.9,-3.7 -3.7,-5.8 -1.1,-2.9 -1.7,-5.8 -3.1,-8.1 -2.7,-4.3 -4.7,-8.3 -8.5,-11.5 -0.8,-0.7 -2.1,-0.5 -2.6,0.5 -0.5,0.9 -0.3,2.1 0.6,2.6 1.3,0.8 2.3,1.8 2.6,3.8 0.3,2.4 -0.9,3.5 -1.9,5.8 -1.2,2.6 -0.4,2.8 0.6,5.3 0.7,1.8 1.2,3.9 1.7,5.8 0.3,1.4 -1.5,2.2 -2.3,1.1 -1,-1.3 -1.6,-3.4 -2.2,-4.4 -1.9,-3.8 -2,-5.3 -6.1,-6.9 -2.8,-1.1 -5.9,-3.6 -8.8,-4.3 -2.5,-0.6 -4.3,0.8 -6.5,1.8 -0.8,0.4 -1.3,1.3 -1.1,2.2 0.7,2.7 -2.3,5.5 -4.5,7.5 -0.4,0.4 -1.1,-0.1 -0.9,-0.6 0.6,-1.5 1.8,-2.5 0,-3.5 -0.5,-0.3 -1.1,1.6 -1.9,0.7 -0.3,-0.4 0.6,-3.4 -0.1,-3.7 -1.6,0.1 -1.8,2.7 -2.2,4.4 -0.3,1.1 -1.8,1.3 -2.3,0.4 -1.1,-1.9 -1.3,-4.3 -4.2,-4.9 -2.2,-0.5 -4.8,-0.2 -7.3,-0.2 -0.9,0 -1.4,-1 -1,-1.8 6.8,-13.3 11.9,-26.6 16.8,-40.8 2.3,-6.5 3.7,-13.3 5.9,-19.8 1.2,-3.5 3.7,-6.1 6.6,-8.3 1.9,-1.4 8.7,-6 11,-5.7 1.1,0.1 2.3,2.6 4,0.5 0.5,-0.6 -0.2,-2.1 0.4,-2.8 0.1,-0.2 1.3,-0.4 1.6,-0.5 3,-1.9 6.8,-3.4 10.4,-4.6 1,-0.3 1.6,-1.4 1.3,-2.4 -0.9,-2.6 3.2,-5.6 5.9,-5.7 0.9,0 2.2,0.3 3.1,0.1 1.2,-0.4 0.7,-0.9 1.6,-1.4 1.4,-0.8 2.2,-1.1 3.1,-1 1.2,0.1 1.9,1.4 1.2,2.4 -0.5,0.8 -0.8,1.8 -0.3,2.6 1.3,2.2 3.1,0.1 4.3,-0.7 2.6,-2 4.8,-3.8 7.1,-6.2 1.7,-1.8 7.6,-4.8 8.3,-6.9 0.6,-1.9 -1,-3.3 -2.6,-3.4 -0.9,0 -1.5,0.2 -2,0.7 -1.1,0.9 -2.8,0.3 -3.1,-1.1 -0.2,-1 0.2,-1.9 0.1,-2.8 -0.4,-2.9 -0.4,-4 0.2,-7.2 1,-4.5 1.2,-8.3 1.2,-12.9 0,-1.9 -0.4,-4.7 0.3,-6.5 0.7,-2.2 2.5,-2.6 4,-4.1 1.8,-1.8 1.9,-3.8 4.7,-4.3 0.8,-0.1 2.5,0.4 2.9,0.1 0,0 0.1,-0.1 0.2,-0.1 0.8,-0.9 2.3,-0.6 2.6,0.5 0.5,1.9 1.2,4 2,4.7 0.7,0.7 4.7,4.9 6.4,-0.4 0.6,-1.8 0.6,-3.7 1,-5.6 0.4,-2 0.5,-4.5 1.2,-6.4 0.7,-1.6 1.3,-1.6 2.5,-3.1 1.6,-1.9 1.6,-1.9 -0.1,-3.9 -1.4,-1.7 -1.9,-1.5 -2.9,-3.8 -1.3,-3 -1.1,-4.9 0.6,-6.4 1,-0.9 2.6,-0.2 2.6,1.1 -0.1,5.8 5.9,10.4 7.4,15.5 1,3.5 -1.5,5.5 -2.5,8.7 -1,3.2 -0.3,7 -0.6,10.4 -0.3,3.2 -1.7,6.4 -1.9,9.5 -0.3,3.5 1.3,6.5 0.7,10.1 -0.7,4.4 -1,11.6 -4.3,15.6 -1.1,1.4 -1.3,3.2 -0.4,4.8 1.1,2.1 1,4.8 0.8,7.1 -0.4,5.1 0.1,8.1 3.5,13.8 1.7,3 3.8,5.9 5.9,8.6 6.5,8.2 12.7,15.4 19.9,22.6 2,2 3.6,4.4 5.5,6.5 1.4,1.5 3.5,4.7 5.8,6.2 1,0.7 2.3,0.1 2.6,-1 0.9,-4.5 2.4,-9.4 2.3,-13.7 -0.1,-2.8 -0.7,-5 -2,-7.4 -1.7,-3 -1.9,-3.1 -0.6,-6 0.9,-2 3.7,-4.3 3.9,-6.2 0.2,-2.3 -3.7,-4.5 -4.6,-7.1 -0.8,-2.2 0.2,-5.8 0.8,-8 0.5,-1.5 0.2,-1.3 1,-2.2 1.1,-1.3 2.4,-0.1 3,-2.4 0.5,-1.9 -1.1,-5.1 -2.3,-6.4 -0.9,-1 -2.1,-1.3 -2.7,-2.4 -0.7,-1.3 -0.7,-3.8 -1,-5.3 -0.2,-0.9 -1.2,-3.8 -0.8,-4.6 0.4,-0.8 1.7,-0.9 2,-1.4 1.3,-2.1 0.6,-5.9 -2.3,-7.5 -1.9,-1 -3.1,0.4 -4.8,-1.7 -1.9,-2.4 -2.2,-5.9 -5.5,-7.3 -2.5,-1.1 -3.2,2 -5.2,1.4 -1.6,-0.5 -1.9,-6.7 -2.1,-7.8 -0.5,-2.5 -0.6,-5.6 -1.4,-7.9 -1.4,-4 -3.1,-4.3 -1.8,-8.6 0.9,-3 0.4,-1.9 2.9,-3.3 1.4,-0.8 2.2,0.4 2.6,-2.1 0.2,-1 -1,-2.4 -1,-3.7 0,-0.3 0.1,-0.7 0.2,-1.1 0.6,-1.9 3,-2.2 4.2,-0.7 l 0,0.1 c 0.7,0.9 2.1,0.4 2.1,-0.8 -0.1,-1.2 0,-2.4 0.3,-3.4 0.9,-2.7 3.8,-5.6 5.4,-7.9 1.3,-1.8 2.1,-4 4.2,-4.7 1.1,-0.3 2.7,-0.2 4.3,0 1.8,0.3 3.3,-1.2 3,-3 -0.9,-5.1 0.3,-10 0.4,-15.5 0.1,-3 0.3,-6 0.5,-8.9 0.3,-3.3 1.9,-5.9 2.8,-9.2 1.8,-6.6 1.2,-13.7 7.7,-17.7 3.3,-2 6.4,-3.5 3.2,-7.6 -2,-2.6 -4.7,-4.6 -8,-4.9 -1.8,-0.2 -3.4,-0.2 -5,-0.9 -1.7,-0.7 -3.9,-2.9 -5.7,-3.1 -1.5,-0.2 -3.8,1.3 -5.4,1.4 -0.7,0 -1.1,0 -1.6,-0.1 -1.3,-0.2 -1.6,-2.1 -0.3,-2.6 4.8,-2 6.4,-7 5,-12.5 -0.8,-3.4 -0.6,-5.9 -4,-7.1 -2.7,-1 -2.3,0.4 -3.3,-2.5 -0.5,-1.5 1,-2.8 2.4,-2 0.6,0.3 1.3,0.5 1.9,0.9 0.6,0.3 1.1,0.5 1.4,0.7 1.6,0.8 3.4,0.2 4.3,-1.3 1.2,-2 2.4,-4 3.8,-5.2 3.9,-3.4 6.4,0.9 10.7,0.2 1.7,-0.3 3.2,-2 4.7,-2.7 1.7,-0.7 3.5,-0.7 5.2,-1.1 1.6,-0.4 1.9,-2.3 1.8,-4.1 -0.1,-1.5 -0.8,-2.9 -1.9,-4.1 -0.9,-0.9 -0.4,-1.9 -1.1,-3.6 -0.4,-1 -0.9,-1.6 -1.5,-2.2 -1.6,-1.4 -2.4,-3.5 -2,-5.5 l 0,-0.1 c 0.2,-1.2 0.7,-2.3 1.2,-3.5 0.4,-0.9 0.4,-2 -0.1,-3 -0.2,-0.4 -0.4,-0.8 -0.5,-1.2 -0.8,-2.4 -3.2,-3.8 -5.6,-3.4 -3.3,0.5 -6.7,1.2 -9.5,2.7 -2.4,1.3 -4,3.1 -5.9,4.6 -0.2,0.2 -0.4,0.3 -0.6,0.5 -1.8,1.5 -1.4,4.2 0.7,5.3 0.2,0.1 0.4,0.2 0.5,0.3 2,1.5 2.6,3.6 -0.6,3.2 -1.9,-0.2 -3.7,-2.6 -5.4,-3.5 -2,-1.2 -3.7,-1.7 -6.1,-1.7 -4.2,-0.1 -9.5,1.3 -13.3,2.8 -4.8,1.8 -8.1,1.2 -13,1.6 -2.4,0.2 -4.7,1.5 -7.1,1.9 -2,0.3 -3.7,0.3 -5.6,1 -4.7,1.8 -9.9,3.7 -13.9,6.7 -1.7,1.3 -2.8,3.2 -4.5,4.4 -0.9,0.7 -2.5,0.6 -3.4,1.4 -0.8,0.8 -0.5,1.7 -1.2,2.3 -1.5,1.4 -4.8,2.5 -6.6,3.5 -0.5,0.3 -2.7,1.2 -2.9,1.6 -0.6,1.3 0.5,0.6 0.8,2.2 0.2,1.1 0.5,2.2 1.2,3.1 1.8,2.3 2.2,1 3.7,1.7 1.6,0.8 4.4,3.6 4.3,5.7 -0.1,4 -4.1,2.2 -6.7,2.4 -1.1,0.1 -1.8,0.2 -2.4,0.2 -1.8,0.1 -3,-2.1 -1.7,-3.5 0.6,-0.6 0.9,-1.4 0.6,-2.4 -0.7,-2.4 -4,-2.6 -5.8,-1.3 -1.9,1.5 -0.7,2.7 -0.8,4.6 -0.1,2.3 -0.7,3.8 -2.1,5.5 -3.2,3.8 -7.4,2.7 -11.1,5.1 -2.7,1.7 -6.3,7.2 -7.7,9.9 -0.9,1.7 -0.5,2.3 -2.1,2.6 -1.3,0.3 -5.3,-0.5 -6.4,-1.2 -1.8,-1.1 -1.8,-3.2 -3.1,-4.6 -1.7,-1.9 -4.1,-2.2 -6.5,-2.8 -8.2,-2.1 -15.3,6.9 -21.2,11.5 -1.3,1 -3.3,3.1 -4.9,3.3 -1.7,0.2 -3.8,-1.5 -5.5,-2.1 -2.1,-0.8 -4.7,-1.3 -7,-1.4 -1.8,-0.1 -2.8,1.3 -4.6,1.2 -0.8,0 -1.4,-1 -0.9,-1.7 0.7,-1.2 0.3,-2.7 -0.9,-3.4 -3.6,-2.1 -7.8,-2.2 -10.2,1.9 -1.4,2.3 -0.7,7 -3.6,7.2 -3.5,0.3 3.2,-5.2 0.3,-7.2 -2.3,-1.7 -9.7,0.5 -12.1,1.3 -2.4,0.8 -4.9,2.3 -7.4,2.7 -1.5,0.2 -8.7,-2.2 -6.4,2.3 1.3,1.8 2.1,2.2 1.8,3.2 -0.6,1.8 -2,0.5 -3.2,1.2 -0.8,0.4 -2.5,3.1 -1.9,4.6 0.7,1.6 2.1,2.3 3.4,3.3 2.1,1.5 3.3,4.4 2.5,5.2 -1,1 -2.5,-0.9 -9,1.6 -2,0.9 -2.1,3.3 -4,2.9 -1.9,-1 -3.8,-0.9 -4.8,0.9 -0.2,0.3 -0.4,0.7 -0.6,1 -1.4,1.7 -1.8,2.6 -3.9,3.2 -2,0.6 -1.9,-4 -5.2,-5.6 -1.4,-0.7 -3.1,0.3 -3.1,1.8 -0.2,3.9 -0.7,7.9 -1.1,11.8 0,0.5 -0.2,1 -0.5,1.4 -1.3,2 -3.9,2.5 -6,1.4 -1,-0.5 -2,-0.9 -2.9,-2.1 -0.5,-0.7 -0.9,-1.6 -1.5,-2.3 -1.1,-1.3 -1.3,-1.3 -1.5,-2.4 -0.1,-0.7 0.6,-1.6 0.1,-2.8 -0.7,-1.6 -1.3,-0.5 -1.4,-2.3 0,-0.3 0.9,-0.8 0.9,-1.2 0.2,-1.3 -0.3,-2.2 -0.8,-3.4 -0.3,-0.7 -1.2,-1 -1.5,-1.7 -0.8,-2.1 0.1,-4.8 -1.5,-6.7 -1.2,-1.5 -2.1,-1 -3.7,-1.8 -1.2,-0.6 -2.1,-1.8 -3.1,-2.6 -2.1,-1.6 -1.7,-1.1 -4,-0.6 -2,0.4 -4.5,1.1 -6.7,0.5 -0.7,-0.2 -1.3,-1.1 -1.9,-1.3 -1.2,-0.5 -3.3,-1.2 -4.2,-0.6 -0.7,0.4 -1.4,2.7 -1.7,3.5 -0.9,2.1 -0.8,4.1 -0.7,6.1 0.1,1.6 -1.1,2.9 -2.7,3 -1.7,0.1 -3.4,0.4 -4.6,1.4 -1.7,1.5 -4.3,-0.5 -6.2,-0.9 -2.6,-0.5 -6.1,1.2 -5.9,-2.3 0.1,-1.5 2.6,-1.1 0.5,-2.9 -1.6,-1.3 -9.9,-0.8 -12.1,-0.8 -3.8,0 -3.9,2.3 -7.3,2.8 -2.9,0.4 -2.1,-4.1 -4.5,-5.1 -2.5,-1 -1.5,5.8 -5.2,3.2 -0.9,-0.6 -0.8,-1.1 -0.7,-1.9 0.1,-1 -1,-1.6 -1.8,-1.1 -0.4,0.3 -0.8,0.5 -1.2,0.6 -0.7,0.2 -1.1,-0.8 -1.9,-0.5 -2.3,0.8 -2.7,1.9 -2.7,3.9 0,0.6 0.5,1.1 1.2,1 3.9,-0.5 -3.4,4 -3.5,4.1 -0.8,0.8 -1.3,3.3 -2.3,3.7 -0.8,0.3 -1.5,-0.8 -2.6,-0.9 -2.1,-0.3 -4.5,1.4 -6.4,2.8 -0.4,0.3 -0.8,-0.1 -0.6,-0.5 1.4,-2.8 5.1,-7.5 6.5,-8.8 1.5,-1.4 3.2,-3.5 4.7,-5.3 1.2,-1.4 2.4,-2.7 3.8,-3.9 z m -161.8,20 c 0,0.1 0.1,0.1 0,0 z" />
      <path
         style="fill:none;fill-opacity:1;fill-rule:nonzero;stroke:#12445d;stroke-width:1.24018071;stroke-miterlimit:10;stroke-dasharray:none;stroke-opacity:1"
         id="path7600"
         transform="matrix(2.37473,0,0,2.4641,55.88,-165.29)"
         d="m 21.1,311.5 c -1.3,-1.1 -2.7,-1.8 -3.7,-3.2 -1.3,-2.1 -0.3,-2.8 -0.3,-5.2 -0.1,-3.1 -1.3,-6.4 -3.5,-8.7 -0.6,-0.6 -1.5,-0.7 -2.3,-0.3 -1.3,0.7 -3.9,-0.4 -6.3,-1.3 -1.7,-0.6 -3.2,1.2 -2.4,2.7 0.4,0.7 0.7,1.5 0.7,2.4 -0.1,1.9 -1.1,3.6 -2.6,4.5 -0.7,0.5 -1,1.4 -0.7,2.2 0.5,1.5 10.4,4.3 12.9,5.4 2.9,1.3 4,3.6 5.9,4.4 1.8,0.7 3.4,-1.4 2.3,-2.9 z"
         inkscape:connector-curvature="0" />
    </g>
  </g>
</svg>
