<svg id="svg2" xmlns:rdf="http://www.w3.org/1999/02/22-rdf-syntax-ns#" xmlns="http://www.w3.org/2000/svg" height="203.2mm" width="208.95mm" version="1.1" xmlns:cc="http://creativecommons.org/ns#" xmlns:dc="http://purl.org/dc/elements/1.1/" viewBox="0 0 740.35833 719.99999">
 <g id="layer1" transform="translate(-33.973 -140.93)">
  <path id="path4159" d="m402.41 852.03c0-10.525 1.3693-11.692 5.0944-4.3409 2.8392 5.603 6.9742 9.214 11.53 10.069 10.972 2.0584 19.61-9.8232 12.673-17.432-2.0318-2.2288-4.2667-3.238-10.547-4.7624-14.341-3.4812-19.249-8.9161-18.59-20.585 0.4035-7.1398 2.6498-11.312 8.1011-15.048 3.9968-2.7387 12.143-3.0427 16.699-0.6231 2.4113 1.2808 3.4405 1.3626 5.8236 0.46307 1.5921-0.60093 3.1756-0.81167 3.519-0.4683 0.3433 0.34337 0.6758 3.9102 0.7389 7.9264 0.1367 8.7123-1.3038 9.6526-4.7638 3.1096-2.9653-5.6075-5.5303-8.1954-9.3831-9.467-7.1648-2.3646-14.332 1.9518-14.332 8.631 0 4.496 2.2301 6.9077 7.6849 8.3109 19.461 5.006 23.384 8.2321 24.035 19.765 0.4669 8.2635-1.4134 13.578-6.3962 18.08-6.0324 5.4499-12.323 6.4868-19.812 3.2654l-4.679-2.0128-2.7225 2.0128c-1.4973 1.1071-3.1614 2.0128-3.6979 2.0128-0.6072 0-0.9755-3.3627-0.9755-8.9062zm15.562-66.704c-0.3109-1.4689-2.2208-13.384-4.2442-26.479-2.3594-15.269-4.1241-24.09-4.9202-24.595-0.6827-0.43287-3.1398-0.79577-5.4601-0.80647-7.3525-0.0338-29.773-3.7216-42.533-6.9959-29.543-7.5806-57.775-21.247-83.09-40.22-11.487-8.6099-30.965-27.564-40.603-39.512-30.057-37.26-48.356-83.196-51.793-130.02-0.3639-4.9574-0.92536-9.4402-1.2477-9.9617-0.32234-0.52156-13.222-2.9005-28.666-5.2865s-28.274-4.5323-28.511-4.7696c-0.2373-0.23729-0.24224-0.62067-0.011-0.85192 0.23126-0.23126 12.852-2.3472 28.047-4.7022 15.195-2.3549 28.108-4.4552 28.696-4.6672 0.58841-0.21203 1.3576-3.475 1.7092-7.251 2.7962-30.024 10.267-57.069 22.915-82.953 11.9-24.354 24.156-41.89 42.646-61.019 37.928-39.238 85.119-62.915 139.6-70.04 6.085-0.79585 12.202-1.4535 13.594-1.4614 1.3915-0.008 3.015-0.3243 3.6077-0.70313 0.5927-0.37882 3.0471-13.345 5.4541-28.814 2.4071-15.469 4.7163-28.472 5.1317-28.897 1.0217-1.0442 1.1857-0.18971 5.7251 29.834 2.1828 14.438 4.4368 26.709 5.0089 27.271 0.572 0.56139 6.6449 1.5019 13.495 2.0901 27.036 2.3213 58.012 11.203 83.17 23.848 27.316 13.729 57.192 37.921 76.696 62.104 28.945 35.888 46.805 79.101 51.34 124.22 0.5959 5.9297 1.3519 11.074 1.6798 11.433 0.4644 0.5073 52.623 9.1923 55.205 9.1923 0.3356 0 0.205 0.40508-0.2901 0.9002-0.4951 0.49511-12.286 2.6219-26.203 4.7262s-26.188 4.192-27.269 4.6393c-1.7599 0.72808-2.0339 1.8666-2.616 10.871-2.12 32.791-13.091 68.897-29.808 98.104-26.819 46.855-67.047 82.144-116.77 102.43-20.345 8.3021-48.375 14.919-68.385 16.143-5.3852 0.32949-10.076 1.0675-10.57 1.6629-0.4887 0.58881-2.6502 12.443-4.8035 26.342-2.1532 13.899-4.2403 25.629-4.638 26.067-0.3977 0.43768-0.9775-0.40607-1.2883-1.875zm3.7197-46.03c0.5508-4.188 0.4197-4.9219-0.8797-4.9219-1.2468 0-1.527 1.0665-1.527 5.8125 0 6.9194 1.4501 6.3827 2.4067-0.89062zm-14.594-23.131c0-1.1584-1.5675-10.619-2.3696-14.301-0.373-1.7125-1.3145-2.1417-5.8345-2.6594-27.62-3.1637-57.164-13.487-80.39-28.089-11.319-7.1159-11.293-7.0871-8.871-10.167 1.0867-1.3815 2.7236-2.5119 3.6374-2.5119 0.91388 0 4.2896 1.6985 7.5015 3.7745 13.542 8.7528 35.665 18.12 53.348 22.589 11.524 2.9125 26.958 5.2815 27.949 4.29 0.8826-0.88267-1.6022-17.3-2.8427-18.781-0.5691-0.67974-5.0426-1.9687-9.941-2.8643-31.335-5.7292-60.07-19.928-84.386-41.698-3.701-3.3136-7.2836-5.7471-8.4608-5.7471-1.492 0-1.8857-0.40652-1.4623-1.51 0.38631-1.0067-1.3238-3.741-5.1306-8.2031-8.4084-9.856-18.16-24.834-23.844-36.622-7.884-16.352-12.489-31.758-15.936-53.316-0.68098-4.2585-2.3033-5.0701-11.922-5.964l-6.6502-0.61807 0.6309 8.3574c1.9714 26.115 13.628 59.969 28.613 83.101 3.1544 4.8693 5.7352 9.4796 5.7352 10.245 0 1.9045-4.3103 5.8122-5.5595 5.0402-0.55593-0.34358-3.9997-5.1339-7.6528-10.645-16.846-25.415-27.564-55.734-30.883-87.364-0.56811-5.4141-1.3205-10.133-1.672-10.486-0.9421-0.9469-16.964-3.0326-17.694-2.3032-1.8536 1.8536 1.4866 27.175 5.8477 44.33 22.2 87.325 96.827 152.68 186.05 162.94 10.306 1.1846 12.188 1.0594 12.188-0.81113zm-111.69-60.46c-2.1744-1.7607-2.1786-1.8025-0.52629-5.2673 0.91602-1.9209 1.4312-3.7269 1.1448-4.0133-0.28639-0.28639-2.0134 0.1911-3.8378 1.0611-3.8465 1.8343-6.9719 0.83151-6.9719-2.2368 0-2.4685 5.2631-14.009 6.3889-14.009 0.48483 0 1.4235 0.65307 2.086 1.4513 0.99051 1.1935 0.9205 2.0468-0.39413 4.8036-2.0082 4.2112-1.3513 4.899 2.6308 2.7545 2.4949-1.3436 3.5433-1.4724 5.1192-0.62902 2.2856 1.2232 2.3992 2.0508 0.86446 6.2951-1.4333 3.9637-0.77462 4.5334 2.8474 2.4631 2.0999-1.2003 3.3424-1.4062 4.4181-0.73239 2.7186 1.703 1.891 2.7756-4.8786 6.3232-6.6603 3.4903-6.7119 3.5003-8.8909 1.7358zm-22.56-20.68c-3.6027-3.6027-4.3679-6.4871-1.9357-7.2969 0.63787-0.21239 2.0506 1.1238 3.1395 2.9692 1.0888 1.8454 2.335 3.3553 2.7693 3.3553 1.6868 0 1.7364-1.7534 0.10953-3.8742-3.9445-5.142-3.1206-9.2508 1.8549-9.2508 3.1629 0 9.2483 5.1817 9.2483 7.875 0 2.4247-3.6584 1.7893-4.8581-0.84375-0.58735-1.2891-1.633-2.3438-2.3237-2.3438-1.6987 0-1.6176 0.32104 1.088 4.3079 2.731 4.0243 2.8856 5.3288 0.87053 7.3438-2.5385 2.5385-5.9498 1.7708-9.9625-2.2419zm151.7 82.287c0.9068-1.4673 3.0656-15.088 2.535-15.994-0.2265-0.38672-2.0745-0.70313-4.1065-0.70313h-3.6947v8.9062c0 8.8176 0.023 8.9062 2.2884 8.9062 1.2587 0 2.5986-0.5019 2.9778-1.1153zm28.627-1.3069c31.911-4.5922 63.576-17.076 90.794-35.795 24.545-16.881 47.899-41.447 63.048-66.319 17.751-29.146 29.23-64.394 31.311-96.146 0.5369-8.1921 0.4284-9.3178-0.8982-9.3178-3.3958 0-16.188 2.1766-17.124 2.9138-0.5542 0.43627-1.5492 5.536-2.211 11.333-2.7412 24.007-11.597 51.206-23.368 71.772-6.0639 10.594-13.942 21.794-15.33 21.794-1.2938 0-5.4266-3.7266-5.4266-4.8932 0-0.44904 2.0455-3.856 4.5456-7.571 8.6704-12.884 16.838-29.876 22.082-45.942 4.8561-14.876 9.8158-42.158 8.0215-44.124-0.9899-1.0845-16.528 1.162-17.59 2.5432-0.4568 0.59432-1.3772 4.8775-2.0451 9.5181-4.1707 28.975-18.113 59.768-37.488 82.799-5.0976 6.0594-5.6995 7.1919-5.1504 9.6919 0.5871 2.6729 0.5087 2.7703-1.4041 1.7466-1.7892-0.95753-2.6297-0.55645-7.1942 3.4331-21.992 19.222-40.85 30.453-64.09 38.173-9.5966 3.1876-26.679 7.1113-31.085 7.1401-1.208 0.007-2.7319 0.35421-3.3863 0.76958-0.9943 0.63109-3.8955 14.445-3.95 18.808-0.039 3.1266 26.885-1.4733 46.859-8.0056 17.118-5.5984 38.842-17.173 55.096-29.356l3.0653-2.2975 1.9869 1.9868c1.1408 1.1408 1.7484 2.6082 1.4269 3.4461-0.7857 2.0475-14.352 11.941-24.828 18.106-23.796 14.005-50.566 23.418-75.534 26.561-4.9839 0.62732-9.3389 1.5894-9.678 2.138-1.3658 2.2099-2.8778 15.172-1.9102 16.376 1.0526 1.3086 5.1675 1.0629 21.455-1.2811zm97.53-70.445c0.1713-0.88939 1.2925-2.1062 2.4915-2.7039 3.5187-1.7543 4.4393-3.0298 2.6752-3.7067-0.8909-0.34186-2.584 0.23561-4.0332 1.3755-4.2795 3.3663-8.8074 2.1279-8.8074-2.4089 0-3.0073 5.2942-8.7514 8.0659-8.7514 3.0296 0 2.8279 1.3891-0.5659 3.8982-1.5469 1.1436-2.8125 2.4219-2.8125 2.8406 0 1.3219 1.9621 0.82879 4.4317-1.1138 7.0905-5.5774 11.94 1.8624 5.7837 8.8736-3.1806 3.6225-7.809 4.7089-7.229 1.6968zm8.8693-15.682c-6.9916-6.4796 2.2686-19.059 10.706-14.543 2.5848 1.3833 2.2726 2.699-1.5755 6.6397-1.8639 1.9088-3.1046 3.9305-2.7571 4.4926 1.1033 1.7852 2.4032 1.117 4.3952-2.2591 3.3462-5.6713 6.2093-3.5587 3.1624 2.3334-3.0453 5.889-9.5069 7.4365-13.931 3.3364zm5.3879-8.2587c1.1663-1.8489 0.2673-3.0119-1.7344-2.2438-1.6737 0.64224-2.0083 4.7074-0.3418 4.1519 0.6077-0.20256 1.542-1.0612 2.0762-1.9082zm-135.93 67.894c1.0964-1.774 2.7418-18.029 1.9039-18.808-0.4808-0.4475-3.2999-0.59879-6.2648-0.33617l-5.3906 0.47748v9.7277 9.7277h4.6322c2.5477 0 4.8514-0.35469 5.1193-0.78821zm4.5101-31.918c0.3673-0.32906 1.2576-4.2817 1.9785-8.7836 0.9555-5.9671 1.0286-8.4037 0.2697-8.991-0.5726-0.44312-4.416-0.55139-8.541-0.24059l-7.5 0.5651-0.2717 8.8279c-0.1851 6.0157 0.079 9.0448 0.8304 9.5089 1.2439 0.7688 12.206 0.0343 13.234-0.88667zm19.02-1.9234c4.6406-0.9832 9.5244-2.2039 10.853-2.7127l2.4153-0.92508-2.829-8.757c-1.5559-4.8163-2.8543-8.8278-2.8852-8.9144-0.1379-0.38572-16.062 3.6556-16.659 4.2278-0.857 0.82158-3.5097 17.263-2.9358 18.195 0.6461 1.0493 2.7496 0.85468 12.041-1.1139zm-54.847 0.1764c-0.01-1.811-2.7497-17.363-3.126-17.739-0.7198-0.71975-10.335-3.0974-12.574-3.1092-1.421-0.008-2.1094 0.54721-2.1094 1.6997 0 0.94093-1.0269 4.7301-2.282 8.4203-1.656 4.8688-1.9841 6.8937-1.1957 7.3809 3.671 2.2688 21.295 5.0403 21.287 3.3474zm-23.064-11.953c1.0853-3.6094 2.3397-7.1303 2.7874-7.8243 1.1574-1.794-0.8733-3.3894-6.7232-5.2821-2.7344-0.88473-9.4804-3.8995-14.991-6.6995-5.5107-2.8-10.154-4.6878-10.318-4.195-0.16426 0.49278-2.3763 3.8545-4.9157 7.4704l-4.617 6.5744 2.5631 2.0234c5.4569 4.308 29.701 15.109 32.933 14.672 0.7491-0.10126 2.1511-2.9808 3.2813-6.7393zm107.36 2.6471c10.048-4.2842 21.727-10.699 22.337-12.27 0.2534-0.65201-1.4716-3.984-3.8332-7.4044s-4.0717-6.5783-3.8002-7.0176c1.1406-1.8456 2.9803-0.37167 7.2353 5.7969 5.0961 7.3879 4.4588 7.3505 12.926 0.75812 8.463-6.5895 14.91-12.698 14.91-14.128 0-1.0659-8.5318-7.5485-13.724-10.428-0.5873-0.32566-4.1732 2.0105-7.9688 5.1914-11.459 9.6037-26.51 18.409-40.651 23.783-3.2399 1.2312-5.5658 2.6669-5.4852 3.3859 0.077 0.6866 1.1315 4.7549 2.3437 9.0407 2.1895 7.7412 2.2218 7.7888 4.9296 7.2596 1.4991-0.29301 6.3507-2.0783 10.781-3.9673zm-143.46-22.15c2.6325-3.5078 4.7864-6.5498 4.7864-6.76 0-0.21022-3.0586-2.6986-6.7969-5.5298s-8.3642-6.4629-10.28-8.0705c-2.2703-1.9051-3.9163-2.6554-4.7273-2.1549-5.3531 3.304-12.883 9.3242-12.883 10.3 0 2.5265 23.126 20.744 24.477 19.282 0.3505-0.37912 2.7912-3.5593 5.4237-7.0671zm95.07 5.3203c2.3624-0.32381 4.5132-1.1566 4.7796-1.8508 0.2663-0.69411 3.2457-19.519 6.6208-41.833s6.3472-41.494 6.6047-42.623c0.3487-1.5286-0.9563-3.7028-5.1164-8.5245l-5.5846-6.4725 3.7926-3.663c7.3852-7.1329 11.476-14.716 12.849-23.819l0.6366-4.2188 45.926-0.46875 45.926-0.46875 0.3148-3.2812c0.3906-4.0704-0.64-14.188-1.6041-15.748-0.6398-1.0354-78.176-13.314-84.074-13.314-1.2687 0-4.2859 1.9594-7.3999 4.8054l-5.2579 4.8054-5.4151-5.1652c-7.0415-6.7164-13.75-10.086-21.636-10.866l-6.1776-0.6111-0.2438-42.784c-0.2045-35.897-0.4612-42.964-1.5949-43.905-1.7091-1.4184-17.214 0.28447-18.834 2.0685-0.5906 0.65043-3.6934 18.806-6.8953 40.346l-5.8216 39.164 5.2062 5.8361c2.8634 3.2099 5.2081 6.077 5.2104 6.3715 0 0.29447-1.8583 2.4793-4.1348 4.8551-5.1743 5.4002-9.7717 14.885-10.659 21.991l-0.6781 5.4308-44.996 0.46875-44.996 0.46875 0.063 9.1568c0.0347 5.0362 0.45884 9.5526 0.94263 10.036 0.48381 0.4838 19.147 3.6716 41.474 7.0839l40.594 6.2043 5.1875-4.5219c2.8531-2.4871 5.7558-4.9248 6.4504-5.4172 0.9214-0.65321 2.6306 0.39826 6.3216 3.8891 6.1597 5.8256 12.437 9.1224 20.432 10.73 3.319 0.66749 6.3444 1.6495 6.7232 2.1823 0.3788 0.53276 0.6953 21.676 0.7031 46.984 0.01 25.309 0.2957 46.297 0.6394 46.641 0.7884 0.78844 8.0926 0.80774 13.721 0.0363zm-20.236-107.27c-8.3948-2.0822-16.316-8.1351-19.803-15.133-2.0167-4.0471-2.431-6.1723-2.4234-12.432 0.011-9.461 2.481-15.301 8.8364-20.895 14.212-12.51 36.352-8.156 44.694 8.7898 3.0192 6.1331 3.1192 16.617 0.219 22.951-5.6067 12.244-19.613 19.673-31.523 16.719zm12.585-6.6717c4.6602-1.3962 10.67-6.5467 13.025-11.163 2.7779-5.4451 2.5742-15.871-0.4094-20.948-3.9756-6.7652-11.673-10.864-20.403-10.864-11.794 0-22.883 12.894-21.034 24.456 2.2161 13.858 15.624 22.472 28.822 18.518zm35.688 107.85c4.7909-1.6047 12.718-4.9307 17.617-7.3913 11.791-5.923 29.062-18.26 29.062-20.759 0-0.39994-2.6367-2.5171-5.8594-4.7048-3.2226-2.1877-13.031-9.306-21.797-15.818-20.208-15.013-23.771-17.352-24.813-16.283-1.0193 1.0457-11.278 67.095-10.596 68.219 0.7218 1.1895 6.5694 0.0251 16.386-3.2627zm-68.633 2.3383c0-0.86365-9.3465-61.299-9.9493-64.333-0.2817-1.418-0.9432-2.5781-1.47-2.5781-1.5779 0-49.518 34.951-49.518 36.102 0 2.6849 19.231 16.149 31.757 22.233 12.459 6.0519 29.181 10.967 29.181 8.5765zm-84.47-25.882c2.2679-3.188 4.3008-6.4747 4.5177-7.3038 0.21874-0.83648-2.3326-5.2349-5.732-9.8819-3.3694-4.6059-6.668-9.1449-7.3302-10.087-1.1418-1.6239-1.6007-1.5271-8.8958 1.875-4.2305 1.973-7.711 4.1484-7.7344 4.8342-0.10304 3.0213 17.611 26.438 19.959 26.384 0.6007-0.0137 2.9478-2.6333 5.2157-5.8212zm235.73-0.48194c5.2053-6.4767 14.682-20.546 14.682-21.796 0-0.3829-2.7771-2.1205-6.1712-3.8614-3.3942-1.7409-6.61-3.6938-7.1461-4.3398-1.7551-2.1147-3.0365-1.2396-6.8389 4.6702-2.0625 3.2056-5.543 8.2168-7.7344 11.136-2.1914 2.9193-3.9844 5.8469-3.9844 6.5059 0 1.7692 9.5454 14.013 10.925 14.013 0.6502 0 3.4707-2.8477 6.268-6.3281zm-11.458-33.47c3.0363-5.1312 7.1613-13.569 9.1667-18.75 3.989-10.307 7.3896-23.536 6.3239-24.601-0.8552-0.85518-64.478 8.8398-65.641 10.002-0.526 0.52599-0.3095 1.7061 0.554 3.0208 1.6808 2.5586 28.583 37.839 33.391 43.79l3.3386 4.1322 3.6732-4.1322c2.0203-2.2728 6.1575-8.3305 9.1938-13.462zm-204.44 6.8252c25.024-34.155 28.082-38.676 26.909-39.775-1.0885-1.0192-55.61-9.8096-60.597-9.7699-2.1156 0.0169-2.205 0.2503-1.6487 4.3086 0.8715 6.3583 5.7721 20.318 10.585 30.153 4.588 9.3751 14.914 24.618 16.677 24.618 0.59863 0 4.2322-4.291 8.0745-9.5355zm-39.399-0.78748c4.1136-2.0683 7.4792-4.1917 7.4792-4.7187 0-0.52701-0.99613-2.9481-2.2136-5.3802s-3.609-8.0079-5.3146-12.391c-1.7055-4.3828-3.4387-8.4183-3.8515-8.9678-0.52538-0.69931-3.1498-0.56373-8.748 0.45191-9.403 1.7059-9.3996 1.6983-5.5294 12.444 2.6536 7.3682 9.5226 22.322 10.254 22.322 0.24474 0 3.8106-1.6922 7.9242-3.7605zm274.54-2.5677c2.8099-5.5903 8.8167-21.275 9.8735-25.781 0.5249-2.2382 0.3214-2.5781-1.5429-2.5781-1.1811 0-5.0915-0.82066-8.6897-1.8237-7.5947-2.1171-7.6882-2.0662-10.239 5.5737-0.9468 2.8359-3.1391 8.2742-4.8718 12.085-1.7326 3.8109-3.1324 7.3968-3.1105 7.9688 0.022 0.57192 2.5895 2.3055 5.706 3.8524 3.1164 1.5469 6.3681 3.5257 7.2259 4.3974 0.8577 0.8717 1.8699 1.61 2.2492 1.6406 0.3793 0.0307 1.9089-2.3701 3.3992-5.3349zm-288.21-31.658c4.0916-0.78295 7.6557-1.6399 7.9201-1.9044 0.62265-0.62265-1.6272-13.786-2.504-14.651-0.96071-0.9475-16.903-3.1298-17.62-2.412-1.1169 1.1169 2.7568 20.391 4.0981 20.391 0.36685-0.00009 4.0147-0.64075 8.1063-1.4237zm301.63-9.4777c1.1319-5.8821 1.4324-9.4407 0.8466-10.026-0.5858-0.58581-3.5047-0.50544-8.2244 0.22644-10.649 1.6514-10.224 1.3798-11.41 7.2878-1.7278 8.6032-1.8677 8.3577 5.7347 10.06 3.7383 0.837 7.4261 1.9165 8.1953 2.3988 2.2164 1.39 2.9759-0.1649 4.8582-9.9465zm-297.55-23.403-0.27304-8.352h-8.4375-8.4375l-0.27835 6.9404c-0.15681 3.9102 0.14365 7.3624 0.68817 7.9069 1.195 1.195 15.248 3.3367 16.269 2.4794 0.40798-0.34256 0.61892-4.3812 0.46875-8.9748zm-30.933-2.0238-0.27721-6.3281-7.8885-0.27478c-5.6781-0.19779-8.1039 0.0649-8.6575 0.9375-0.98819 1.5577-0.99623 7.4169-0.0123 8.9671 0.86573 1.364 7.1709 2.7728 13.085 2.9237l4.0272 0.10272-0.2772-6.3281zm-27.465-2.1094v-4.2188h-9.375c-9.1442 0-9.3827 0.0546-9.6888 2.2175-0.17256 1.2196 0.15761 2.6962 0.7337 3.2812 1.1497 1.1676 12.257 3.3085 15.986 3.0814 2.1316-0.12977 2.3438-0.52448 2.3438-4.3614zm-36.783-1.4979c0.30822-0.30822 0.3334-1.152 0.056-1.875-0.37384-0.97415-2.4208-1.3146-7.9042-1.3146-8.1611 0-9.9326 1.4189-2.9466 2.36 2.4492 0.32997 4.875 0.74439 5.3906 0.92094 1.6062 0.54996 4.8171 0.49567 5.4042-0.0914zm394.43-4.5899c1.4214-1.7128 0.4478-13.026-1.2354-14.354-0.6069-0.47894-3.4238-1.1526-6.2597-1.497-2.8359-0.34441-6.5947-0.88201-8.3529-1.1947l-3.1967-0.56849 0.6212 8.7506c0.3798 5.3515 1.0753 9.039 1.7904 9.4931 0.6431 0.40838 4.3871 0.74896 8.3201 0.75686 5.2127 0.0105 7.4658-0.36518 8.313-1.386zm29.46 0.83125c1.8357-0.70443 2.0839-9.0372 0.311-10.443-1.4323-1.1361-15.526-3.2704-16.72-2.5321-1.2657 0.78227-1.0436 11.109 0.2671 12.42 1.1705 1.1705 13.439 1.593 16.142 0.55595zm29.449-0.25016c0.7083-0.44898 1.1133-1.9616 0.9375-3.5013-0.3015-2.6414-0.5182-2.7438-8.4643-4.0015-9.5798-1.5163-11.064-1.1674-11.064 2.6006 0 4.5906 2.0134 5.7232 10.145 5.707 3.9593-0.007 7.7598-0.37008 8.4456-0.80486zm32.503-0.0768c1.76-0.71732 1.7312-0.79818-0.4688-1.3183-6.5012-1.5371-12.744-2.2438-13.484-1.5265-0.4552 0.44122-0.5739 1.4634-0.2638 2.2715 0.4331 1.1288 1.9283 1.454 6.4526 1.4034 3.2388-0.0363 6.7325-0.40977 7.7638-0.83007zm-32.872-24.417c-11.305-87.51-75.916-160.71-161.43-182.89-18.015-4.6729-42.423-7.8047-43.775-5.6168-0.6117 0.98971 1.7443 16.704 2.6384 17.598 0.3237 0.3237 4.4932 1.1626 9.2655 1.8643 27.701 4.0729 58.189 15.824 82.297 31.721 9.7572 6.4336 10.907 8.1249 7.5731 11.142-1.6951 1.534-2.1041 1.3855-9.0634-3.2896-23.273-15.634-53.046-26.576-82.673-30.382-6.1262-0.78701-6.3403-0.35657-4.7074 9.4623 1.413 8.496-0.95 7.0484 17.594 10.778 25.796 5.1881 52.396 17.778 72.519 34.322 3.0183 2.4816 6.4866 5.3235 7.7073 6.3154 1.8955 1.5401 2.5834 1.6377 4.7115 0.66803 3.13-1.4261 3.8432-0.76143 2.2924 2.1363-1.1382 2.1267-0.7817 2.7538 5.9967 10.545 13.479 15.494 24.897 34.387 31.948 52.864 3.2229 8.4454 8.8876 29.585 8.8876 33.166 0 3.9287 2.0264 5.2476 10.032 6.5294 4.2097 0.67404 8.1372 0.92692 8.7277 0.56195 1.7722-1.0953-2.6143-23.602-7.6729-39.369-4.5554-14.199-13.151-31.88-21.953-45.158-3.3048-4.9854-6.0088-9.4552-6.0088-9.9328 0-1.5624 3.4461-4.0293 4.8669-3.4841 2.528 0.97009 15.898 22.268 22.478 35.809 3.5625 7.3302 8.1486 18.417 10.191 24.638 3.4298 10.445 8.4007 31.945 8.4007 36.334 0 2.91 1.8828 3.8586 10.396 5.238 5.7545 0.93242 8.1922 0.9986 9.0207 0.2449 0.8877-0.80745 0.8315-3.3853-0.2573-11.814zm-79.704-89.971c-3.1159-1.2605-6.9548-6.4623-6.9548-9.4238 0-1.4841 1.0053-3.857 2.2443-5.2974 1.7934-2.085 3.0368-2.6091 6.1896-2.6091 3.2661 0 4.4132 0.52351 6.6621 3.0404 2.8599 3.2008 3.5276 7.2436 1.746 10.572-1.3922 2.6013-2.9179 2.2584-6.5295-1.4679-3.0687-3.1661-5.625-4.248-5.625-2.3807 0 0.91865 0.6223 1.537 4.6023 4.573 1.2967 0.98916 1.9718 2.1867 1.5853 2.8122-0.7721 1.2493-1.2276 1.2704-3.9203 0.18103zm6.1702-10.241c0-1.9791-2.4284-3.3552-3.3343-1.8895-0.8817 1.4266 0.2777 3.6642 1.8986 3.6642 0.7897 0 1.4357-0.79862 1.4357-1.7747zm-21.124-4.8816c-0.4605-1.4507 0.1397-2.7577 2.2805-4.9665 5.4863-5.6604 2.6006-8.5856-3.3315-3.3772-3.7434 3.2867-4.2164 3.3716-6.2527 1.1215-1.438-1.589-1.2005-2.0174 3.9367-7.101 5.0749-5.0219 5.5778-5.2993 7.0101-3.867 0.8486 0.84863 1.5429 1.893 1.5429 2.3209 0 0.42786 1.4766 1.6491 3.2813 2.7139 4.6415 2.7386 4.453 5.8905-0.664 11.104-4.3322 4.4142-6.8438 5.0744-7.8033 2.051zm-328.07 116c3.6336-0.6512 7.0654-1.4676 7.6262-1.8142 0.56079-0.34657 1.3093-2.5622 1.6635-4.9236 1.2553-8.3707 6.1601-26.816 9.5246-35.819 4.6706-12.498 14.929-32.702 21.771-42.879 8.0252-11.937 8.1223-12.039 10.782-11.372 4.0844 1.0251 3.6342 3.0745-2.7598 12.562-8.1119 12.037-17.23 30.779-21.915 45.048-3.9844 12.134-8.5415 32.579-7.7337 34.698 0.36246 0.95066 1.8056 1.0946 6.0438 0.60267 10.854-1.2597 10.182-0.58771 12.69-12.685 6.28-30.286 20.322-58.403 40.222-80.537 3.104-3.4524 4.1417-5.2984 3.7723-6.7108-0.41409-1.5834-0.16112-1.8573 1.3506-1.4619 1.328 0.34729 3.5224-1.0001 7.6709-4.71 23.46-20.98 50.838-34.678 82.045-41.05 5.8352-1.1914 10.793-2.3494 11.016-2.5733 1.093-1.093 2.5175-15.855 1.6169-16.756-1.1573-1.1574-15.086 1.031-28.272 4.4419-19.087 4.9375-41.959 15.193-57.267 25.677-8.0754 5.531-8.7162 5.8006-10.948 4.6062-5.0373-2.6959-4.6777-4.2092 2.2023-9.2682 16.669-12.257 37.099-22.373 57.723-28.582 11.248-3.3861 29.488-7.0866 34.93-7.0866 1.6514 0 3.4346-0.52734 3.9627-1.1719 1.2347-1.5071 3.3405-15.389 2.6194-17.268-0.4481-1.1677-1.6228-1.3152-6.4025-0.80401-65.64 7.0209-123.51 42.178-160.54 97.525-17.714 26.476-31.739 65.552-34.743 96.797l-0.65349 6.7969 2.6993-0.0493c1.4846-0.0271 5.6722-0.58211 9.3058-1.2333zm56.009-97.363c-5.4388-4.4958-6.0466-6.5368-2.6158-8.7848 1.2891-0.84462 2.3438-2.0894 2.3438-2.7661 0-1.9416 4.4963-4.9909 6.5626-4.4506 1.019 0.26648 3.7533 2.1574 6.076 4.202 3.5604 3.134 4.072 4.0001 3.2593 5.5185-1.3016 2.4321-3.3566 2.2655-6.6939-0.54264-1.532-1.2891-3.5968-2.3438-4.5885-2.3438-2.9894 0-2.1096 3.3608 1.7023 6.5029 2.9093 2.3981 3.3306 3.1669 2.4776 4.5214-1.711 2.717-3.4478 2.3386-8.5234-1.857zm14.744-16.735c-6.5609-2.3499-8.1858-3.8344-6.0956-5.5692 1.2431-1.0317 2.1054-1.0439 4.8047-0.0678 4.1921 1.5159 4.8849 0.77007 2.8296-3.0463-2.8048-5.2082-0.11682-8.1434 5.5733-6.0859 4.1433 1.4982 4.7919 0.59941 2.197-3.0448-1.5981-2.2444-1.8904-3.3682-1.172-4.5071 1.737-2.7537 3.4311-1.5944 7.0583 4.8301 2.9121 5.1578 3.3975 6.695 2.5904 8.2031-1.1045 2.0637-3.2864 2.3383-7.09 0.89213-3.4688-1.3188-3.9129-0.48294-1.8139 3.4146 1.3342 2.4774 1.5363 3.7109 0.80064 4.8849-1.3789 2.2002-3.7426 2.2237-9.6825 0.0963zm-11.915 105c7.2827-1.0814 10.023-3.005 10.023-7.0354 0-2.307-0.88455-2.7004-11.25-5.0039-5.2155-1.159-5.9744-0.48455-7.2875 6.4766-1.3848 7.3413-1.77 7.0897 8.5142 5.5626zm303.46-1.577c-0.01-5.2164-6.9121-28.359-8.4643-28.359-1.0415 0-14.372 5.6908-15.244 6.5078-0.7596 0.71146 4.4204 20.547 5.6737 21.727 0.8843 0.83215 9.9279 2.4462 14.522 2.5917 3.2377 0.10258 3.5154-0.0923 3.5132-2.4667zm-252.78-6.3355c32.282-4.9943 32.473-5.0309 32.473-6.2326 0-1.0419-31.623-43.069-33.186-44.103-1.4452-0.95694-3.6277 1.357-9.8128 10.403-7.0265 10.277-13.555 23.3-17.064 34.038-2.6611 8.1431-2.8006 10.121-0.71419 10.121 0.54314 0 13.28-1.9017 28.304-4.2261zm222.79 2.4578c0-2.8324-4.6012-15.869-8.4751-24.013-6.0191-12.653-19.21-31.406-22.091-31.406-2.0001 0-34.121 43.498-34.121 46.206 0 1.0461 1.721 1.7199 6.3281 2.4778 31.096 5.1148 51.91 8.2999 54.844 8.3925 2.8592 0.0903 3.5156-0.21921 3.5156-1.6574zm-258.29-17.919c2.1407-5.4141 4.8269-11.651 5.9692-13.86 1.1423-2.2091 1.8315-4.4137 1.5315-4.899-0.81962-1.3262-12.153-7.4907-13.771-7.4907-2.4922 0-14.771 28.73-13.679 32.006 0.43143 1.2943 11.245 4.5163 14.257 4.2478 1.3678-0.12194 2.7363-2.5268 5.6929-10.004zm270.61-6.6564c3.7923-1.5985 7.2506-3.2408 7.6852-3.6495 0.9767-0.91859-7.6934-18.545-12.117-24.633l-3.2476-4.4702-6.9688 5.3909-6.9687 5.3909 3.1322 5.6418c1.7228 3.103 4.6628 8.7004 6.5333 12.439 1.8706 3.7383 3.7735 6.7969 4.2286 6.7969 0.4552 0 3.9303-1.3079 7.7226-2.9064zm-88.623-18.911c24.737-17.926 32.171-23.649 32.204-24.794 0.073-2.5168-17.89-13.955-30.491-19.415-9.9753-4.3228-24.679-8.5206-25.827-7.3732-0.5538 0.55377 0.7178 11.366 3.4035 28.939 4.1511 27.162 5.2265 32.296 6.7549 32.253 0.3978-0.0113 6.6776-4.3356 13.955-9.6094zm-88.372 7.9826c0.2414-0.39049 2.4366-13.492 4.8782-29.115 3.0329-19.406 4.1348-28.709 3.478-29.366-1.2887-1.2887-18.196 4.3874-28.514 9.5726-11.957 6.0091-26.108 15.935-26.108 18.313 0 1.0871 43.585 31.305 45.153 31.305 0.3708 0 0.8716-0.31949 1.1129-0.70998zm-80.463-8.8994c1.438-2.1914 5.08-7.1858 8.0933-11.099 3.0133-3.9128 5.4788-7.4391 5.4788-7.8362 0-1.7919-8.9717-12.74-10.24-12.496-2.6975 0.51949-20.698 23.842-20.698 26.818 0 1.0736 11.978 8.5842 13.704 8.5926 0.57602 0.003 2.2238-1.7878 3.6618-3.9792zm240-9.6686c3.03-2.3529 6.1502-4.6367 6.9337-5.0752 1.2167-0.68089 1.0709-1.2944-0.9994-4.204-4.2514-5.9753-13.068-15.505-14.345-15.505-1.2011 0-7.5292 7.7355-9.7708 11.944-0.9932 1.8648-0.7141 2.5472 2.4928 6.0938 1.9863 2.1966 4.7911 5.5758 6.233 7.5094s2.9197 3.5156 3.284 3.5156 3.1415-1.9251 6.1716-4.278zm-206.43-26.3c5.2406-3.9368 9.6583-7.4908 9.8172-7.898 0.29113-0.74594-8.1776-14.007-8.9451-14.007-1.1448 0-14.811 10.109-19.607 14.504-5.0145 4.5945-5.3597 5.1576-4.0131 6.5452 2.3477 2.4193 10.593 7.9053 11.967 7.9619 0.68911 0.0284 5.5407-3.1693 10.781-7.1061zm184.7 0.56381c3.4284-2.5954 6.2335-5.2516 6.2335-5.9027 0-0.65109-3.1992-3.6956-7.1094-6.7654-8.9944-7.0615-11.774-8.7266-12.271-7.3508-0.2075 0.57385-2.2969 3.6266-4.6432 6.784-2.3462 3.1573-4.1148 6.1937-3.9303 6.7474 0.4354 1.3062 13.104 11.08 14.455 11.152 0.5677 0.0301 3.8372-2.0687 7.2657-4.6642zm-20.163-15.887c3.5487-4.5797 4.4586-6.3735 3.6978-7.2902-2.9353-3.5368-32.284-16.854-34.916-15.843-1.3202 0.50663-6.3767 14.464-5.66 15.624 0.2366 0.38284 4.376 2.2576 9.1987 4.166 4.8226 1.9085 11.264 4.9096 14.313 6.6693 3.0496 1.7596 6.2456 3.098 7.1023 2.9741 0.8567-0.12387 3.6757-2.9586 6.2645-6.2995zm-129.26-4.2977c9.1196-3.5501 9.1482-3.614 6.1696-13.769-1.2318-4.1993-1.9887-5.3906-3.4251-5.3906-4.6844 0-31.4 11.998-32.375 14.54-0.52051 1.3564 1.7965 5.8224 5.9488 11.466l2.2351 3.038 6.722-3.3852c3.6971-1.8618 10.323-4.7871 14.725-6.5005zm22.188-7.1315c1.4161-1.0984 3.6534-15.657 2.5722-16.738-0.937-0.93707-14.356 1.5342-15.768 2.9039-0.921 0.89329 1.8391 13.521 3.3942 15.529 0.874 1.1283 7.6797-0.0479 9.8018-1.6941zm68.849-4.9964c1.5587-4.4209 2.2996-7.8464 1.8048-8.3438-1.0033-1.0086-15.339-4.2584-18.924-4.2901-1.3876-0.0123-2.7319 0.31589-2.9873 0.72925-0.7037 1.1386 1.6252 14.962 2.6976 16.012 1.2025 1.1769 10.704 3.7766 13.008 3.559 1.3033-0.12314 2.4413-2.1051 4.4018-7.6661zm-44.327 2.073c0.8505-0.67289 1.1277-3.1995 0.9375-8.5454l-0.2699-7.5901-4.2188-0.27237c-2.3203-0.1498-5.9062 0.0781-7.9687 0.50654l-3.75 0.77892-1.2184 7.3681c-0.6701 4.0524-0.9957 7.9484-0.7235 8.6577 0.3922 1.022 2.1046 1.1612 8.2496 0.67081 4.2651-0.34036 8.2981-1.0488 8.9622-1.5742zm-0.036-30.246c1.5759-0.48625 1.6169-14.6 0.047-16.17-1.4823-1.4824-8.6973-1.4482-9.9028 0.0469-1.2097 1.5002-3.3751 14.401-2.7087 16.138 0.3844 1.0016 1.8047 1.2002 5.9488 0.83153 2.9942-0.26634 5.9713-0.64697 6.6158-0.84585zm0.047-27.795c1.5117-1.5117 1.5117-15.926 0-17.438-1.3014-1.3015-3.4978-1.4346-5.2572-0.31878-1.2216 0.77479-3.9078 15.667-3.2058 17.774 0.4825 1.4475 7.0116 1.4342 8.463-0.0172zm0.9407-42.918c0.2929-6.2358-0.394-11.004-1.4352-9.9625-0.8276 0.82759-2.9772 14.934-2.416 15.854 0.2532 0.41527 1.1593 0.62197 2.0135 0.45934 1.2182-0.23191 1.6146-1.602 1.8377-6.3511zm235.26 471.77c-32.354-32.357-58.825-59.256-58.825-59.775 0-0.51937 1.113-2.1446 2.4732-3.6116l2.4732-2.6672 26.355 26.114c77.687 76.975 92.449 91.859 92.449 93.212 0 1.5749-3.7408 5.559-5.2195 5.559-0.4839 0-27.351-26.474-59.705-58.831zm-524.28 52.285c-2.3688-2.4724-2.5531-3.0253-1.3756-4.1252 13.696-12.794 120.39-106.52 121.26-106.52 1.6073 0 4.3167 3.0553 4.3167 4.8678 0 1.4346-118.19 107.86-120.34 108.36-0.62236 0.14514-2.3624-1.0209-3.8669-2.5911zm343.61-16.657c-4.6707-4.692-5.5372-9.1986-2.8399-14.771 1.4742-3.0453 3.0412-4.6123 6.0864-6.0865 5.5719-2.6973 10.079-1.8308 14.771 2.8399 3.0604 3.0466 3.5156 4.0662 3.5156 7.8753 0 8.5055-5.0726 13.648-13.47 13.654-4.0283 0.003-4.9737-0.40873-8.063-3.5121zm-126.96-1.0418c-9.3962-6.3907-7.693-20.133 2.9298-23.639 9.6924-3.1988 19.28 6.0681 16.36 15.813-1.6843 5.6216-5.7502 8.8748-11.633 9.3077-3.798 0.27952-5.5711-0.0638-7.6567-1.4822zm218.07-31.734c-1.1816-0.22628-3.5657-1.8286-5.2978-3.5608-7.8812-7.8811-3.3238-20.731 7.7292-21.793 8.9057-0.85574 14.645 4.7261 13.988 13.606-0.6382 8.6347-7.4027 13.475-16.42 11.748zm-293.18-3.91c-1.0312-0.4574-3.0952-2.1214-4.5865-3.6977-5.5199-5.8346-3.8786-15.392 3.4061-19.834 10.447-6.3696 23.768 5.8849 18.145 16.692-2.4289 4.6684-5.789 6.9955-10.605 7.3453-2.466 0.17909-5.3275-0.0487-6.3587-0.50602zm-67.775-62.894c-3.1848-1.4454-4.4257-2.733-5.9457-6.1691-2.4485-5.5353-1.7573-9.7076 2.351-14.191 2.5257-2.756 3.8556-3.4039 7.7568-3.7788 8.6051-0.82683 14.384 4.4109 14.39 13.044 0.004 5.1173-3.1032 9.5852-8.1257 11.684-4.0302 1.6839-5.616 1.5943-10.427-0.58909zm426.62-4.1585c-6.2745-2.8336-8.8841-12.601-5.0475-18.892 2.395-3.9274 7.7629-6.3704 12.578-5.7246 5.0947 0.68334 8.264 3.2568 10.437 8.4742 1.7938 4.3079 1.7938 4.4054 0 8.7133-0.9978 2.3962-2.9261 5.1848-4.2852 6.1968-3.2144 2.3938-9.7978 2.9869-13.682 1.2327zm-467.11-79.94c-6.4462-3.3386-9.2715-11.07-6.2015-16.971 5.0084-9.626 18.302-10.237 23.22-1.0675 5.9729 11.137-5.9475 23.772-17.018 18.038zm506.7-4.9026c-12.636-8.5704-3.2813-28.302 11.158-23.536 9.3317 3.0798 11.664 15.017 4.3096 22.062-3.7441 3.5871-11.292 4.3062-15.468 1.4738zm-604.54-44.84c-0.23856-0.38672-5.5777-13.57-11.865-29.297-6.287-15.727-11.918-28.904-12.512-29.283-0.59467-0.37883-2.2414-0.69523-3.6593-0.70313-1.6603-0.009-2.5781-0.51499-2.5781-1.4206 0-1.2239 4.3689-1.4062 33.695-1.4062 20.751 0 33.911 0.34925 34.257 0.90913 0.30903 0.50002-0.91125 1.5246-2.7117 2.2769-2.6185 1.0941-3.9394 2.6898-6.6003 7.9737-1.8297 3.6333-3.3267 7.4391-3.3267 8.4574 0 2.8356 7.6745 21.634 8.8277 21.623 1.2959-0.012 14.866-34.06 14.446-36.244-0.17303-0.89848-1.2865-1.863-2.4744-2.1434-4.6011-1.0862-1.803-2.3849 5.1384-2.3849 7.6739 0 9.916 1.3372 4.778 2.8495-2.9906 0.88029-3.3118 1.5355-14.325 29.229-6.1963 15.581-11.789 28.852-12.429 29.491-1.8252 1.8252-3.2454-0.37403-7.821-12.11-2.2602-5.7975-4.6342-10.544-5.2756-10.547-0.64136-0.003-3.6698 5.2675-6.7299 11.713-5.1039 10.75-7.3044 13.494-8.8333 11.016zm11.598-22.969c0.99472-2.1914 1.8178-4.902 1.8292-6.0235 0.0214-2.1248-9.785-27.084-11.446-29.133-1.0998-1.3563-8.7855-1.5957-9.5872-0.29865-0.87529 1.4162 14.661 39.439 16.114 39.439 0.70468 0 2.0951-1.793 3.0898-3.9844zm14.088-29.415c1.4188-3.3099 1.6057-4.6414 0.78939-5.625-1.3703-1.6511-7.3086-1.6861-7.9377-0.0468-0.61888 1.6128 2.9759 10.008 4.2854 10.008 0.55228 0 1.8406-1.9514 2.863-4.3364zm629.95 45.706c0-0.44973 1.6939-1.0885 3.7641-1.4196l3.7642-0.60191-0.2485-27.409-0.2485-27.409-3.2068-0.46875c-1.7637-0.25781-3.3831-1.003-3.5988-1.6558-0.3113-0.94243 4.8903-1.1357 25.238-0.9375l25.63 0.24959 0.2722 7.7344c0.3229 9.1716-0.8921 10.077-4.491 3.345-3.6661-6.8574-6.185-8.2101-16.005-8.5945l-8.3703-0.32765v12.779c0 14.374 0.2572 14.885 6.3296 12.573 2.5411-0.96716 3.9479-2.3518 5.3544-5.2701 3.3385-6.9268 4.2535-5.2573 4.2535 7.7605 0 9.5004-0.2521 11.719-1.3317 11.719-0.7325 0-1.6073-1.2542-1.944-2.7872-0.8679-3.9514-5.6033-7.6984-9.2771-7.3406l-2.9159 0.28401-0.2604 12.819c-0.2517 12.393-0.1936 12.84 1.7491 13.457 2.8272 0.89734 13.938-0.42804 17.045-2.0334 2.7235-1.4069 8.1846-8.2242 8.1846-10.217 0-1.609 3.4527-5.7235 4.1883-4.9911 0.3298 0.32841 0.3058 4.8636-0.053 10.078l-0.653 9.481h-26.585c-14.622 0-26.585-0.36796-26.585-0.81768zm-561.17-72.27c-2.9603-1.1976-6.8073-6.2587-7.4791-9.8394-1.7714-9.4424 7.5965-17.645 16.715-14.636 10.522 3.4726 12.338 17.755 2.9924 23.531-3.102 1.9171-8.7463 2.3531-12.228 0.94455zm516.77-3.796c-10.332-3.1334-12.201-17.911-3.027-23.923 3.2332-2.1185 9.8634-2.069 13.537 0.10102 3.0119 1.7792 6.7002 7.9347 6.7002 11.182 0 3.0853-3.6262 9.3671-6.3082 10.928-3.5078 2.0413-7.6635 2.6938-10.902 1.7116zm-485.83-75.81c-5.6235-3.4292-7.6471-11.956-4.185-17.634 2.6516-4.3488 6.1125-6.2709 11.291-6.2709 7.166 0 11.874 4.1942 12.847 11.444 1.0417 7.7664-4.7895 14.222-12.847 14.222-2.4776 0-5.4105-0.72671-7.1063-1.7608zm451.5-3.5792c-9.1989-4.7488-10.11-17.635-1.6138-22.816 3.7608-2.2931 10.212-2.3839 13.962-0.19642 3.173 1.8513 6.3835 7.3878 6.3835 11.008 0 9.4326-10.579 16.212-18.731 12.004zm-465.04-95.963-60.296-60.998 2.908-2.908 2.908-2.908 60.295 59.793c33.162 32.886 60.419 60.509 60.571 61.383 0.32721 1.8834-3.1761 6.6354-4.8919 6.6354-0.65917 0-28.332-27.449-61.494-60.998zm415.88 53.588c-1.4502-1.5136-2.4847-3.1581-2.2991-3.6544 0.4548-1.2155 122.75-107.14 124.45-107.8 1.6332-0.62674 5.8734 4.0351 5.1581 5.6711-0.5145 1.1766-122.58 107.83-123.93 108.28-0.406 0.13711-1.9246-0.98915-3.3748-2.5028zm-323.74-34.4c-4.1505-2.1175-6.8035-6.7008-6.7992-11.746 0.0137-16.014 22.468-17.797 25.75-2.045 0.80081 3.844-2.1432 10.76-5.5231 12.974-3.5196 2.3061-9.7638 2.6859-13.428 0.81659zm290.78-4.0283c-3.4218-2.0866-6.0187-7.0893-6.0187-11.595 0-6.9074 7.4102-13.397 14.333-12.552 16.331 1.9931 15.113 25.925-1.3182 25.911-2.3638-0.002-5.3342-0.75116-6.9957-1.7643zm-214.16-32.79c-11.725-6.2692-7.1797-24.496 6.1084-24.496s17.833 18.227 6.1084 24.496c-1.7966 0.96067-4.5454 1.7467-6.1084 1.7467s-4.3117-0.78599-6.1084-1.7467zm131.73-1.7245c-5.366-1.4245-9.8438-7.337-9.8438-12.998 0-3.8008 2.8218-8.8764 6.0187-10.826 1.6958-1.0341 4.6287-1.7608 7.1063-1.7608 7.4828 0 13.125 5.6194 13.125 13.072 0 7.8963-8.726 14.551-16.406 12.512zm-88.874-50.559c-1.281-1.281-0.6292-2.2202 1.5408-2.2202 1.2091 0 2.8966-0.7715 3.75-1.7144 1.3632-1.5064 1.5515-4.7922 1.5515-27.073 0-27.346 0.06-27.019-5.0839-27.614-1.5072-0.17453-2.9134-0.84467-3.125-1.4892-0.2941-0.89563 2.3847-1.1719 11.364-1.1719h11.749l11.475 16.875c6.3115 9.2812 11.818 16.875 12.236 16.875 0.4182 0 0.7603-6.4874 0.7603-14.416 0-15.289-0.2068-16.036-4.6141-16.666-1.2486-0.17831-2.4439-0.85154-2.6562-1.4961-0.2916-0.88554 1.9239-1.1719 9.0672-1.1719 5.8308 0 9.4531 0.36822 9.4531 0.96094 0 0.52851-1.2562 1.2122-2.7915 1.5192-1.5353 0.30706-3.2164 1.0703-3.7358 1.6962-0.5748 0.69267-1.0416 12.111-1.1929 29.184-0.2386 26.929-0.3201 28.046-2.0456 28.046-1.3046 0-6.4728-6.9248-18.86-25.271-9.3848-13.899-17.541-25.43-18.125-25.625-1.2841-0.42806-1.507 44.523-0.2307 46.537 0.4411 0.69602 2.2276 1.5571 3.97 1.9134 1.7424 0.35636 3.1681 1.0525 3.1681 1.547 0 1.0355-16.632 1.7673-17.624 0.7755z" fill="#0000ca"/>
 </g>
</svg>
