<?xml version="1.0" encoding="UTF-8"?>
<!-- Created with Inkscape (http://www.inkscape.org/) -->
<svg width="12.639mm" height="14.287mm" version="1.1" viewBox="0 0 12.639146 14.287499" xmlns="http://www.w3.org/2000/svg" xmlns:cc="http://creativecommons.org/ns#" xmlns:dc="http://purl.org/dc/elements/1.1/" xmlns:rdf="http://www.w3.org/1999/02/22-rdf-syntax-ns#">
 <metadata>
  <rdf:RDF>
   <cc:Work rdf:about="">
    <dc:format>image/svg+xml</dc:format>
    <dc:type rdf:resource="http://purl.org/dc/dcmitype/StillImage"/>
    <dc:title/>
   </cc:Work>
  </rdf:RDF>
 </metadata>
 <g transform="translate(-104.81 -106.16)">
  <g transform="matrix(.26458 0 0 .26458 -9.3102 -15.676)" fill="#fff">
   <path d="m447.57 473.4c-0.743-0.65-2.045-0.187-2.045 0.93v6.69h-12.918c-0.65 0-1.3 0.558-1.3 1.302v10.038c0 0.65 0.557 1.3 1.3 1.3h12.92v6.786c0 1.115 1.3 1.673 2.044 0.93l15.893-13.942-15.894-14.035z"/>
   <path d="m473.13 460.48h-30.02c-3.254 0-5.857 2.695-5.857 5.855v10.782h4.182v-10.13a2.4 2.4 0 0 1 2.416 -2.417h29.092a2.4 2.4 0 0 1 2.416 2.416v41.36a2.4 2.4 0 0 1 -2.416 2.416h-29a2.4 2.4 0 0 1 -2.415 -2.416v-10.316h-4.183v10.595c0 3.253 2.696 5.855 5.856 5.855h30.02c3.253 0 5.856-2.695 5.856-5.855v-42.29c0-3.253-2.695-5.855-5.948-5.855z"/>
  </g>
 </g>
</svg>
