<?xml version="1.0" encoding="UTF-8" standalone="no"?>
<!-- Created with Inkscape (http://www.inkscape.org/) -->

<svg
   xmlns:dc="http://purl.org/dc/elements/1.1/"
   xmlns:cc="http://creativecommons.org/ns#"
   xmlns:rdf="http://www.w3.org/1999/02/22-rdf-syntax-ns#"
   xmlns:svg="http://www.w3.org/2000/svg"
   xmlns="http://www.w3.org/2000/svg"
   xmlns:sodipodi="http://sodipodi.sourceforge.net/DTD/sodipodi-0.dtd"
   xmlns:inkscape="http://www.inkscape.org/namespaces/inkscape"
   width="40.850677mm"
   height="33.023731mm"
   viewBox="0 0 144.7465 117.01322"
   id="svg4282"
   version="1.1"
   inkscape:version="0.91 r13725"
   sodipodi:docname="logo.min.svg">
  <defs
     id="defs4284" />
  <sodipodi:namedview
     id="base"
     pagecolor="#ffffff"
     bordercolor="#666666"
     borderopacity="1.0"
     inkscape:pageopacity="0.0"
     inkscape:pageshadow="2"
     inkscape:zoom="5.6"
     inkscape:cx="65.507678"
     inkscape:cy="4.8756034"
     inkscape:document-units="px"
     inkscape:current-layer="layer1"
     showgrid="false"
     inkscape:window-width="1440"
     inkscape:window-height="949"
     inkscape:window-x="0"
     inkscape:window-y="24"
     inkscape:window-maximized="1"
     fit-margin-top="0"
     fit-margin-left="0"
     fit-margin-right="0"
     fit-margin-bottom="0"
     showguides="true"
     inkscape:guide-bbox="true">
    <sodipodi:guide
       position="72.500005,40.892857"
       orientation="1,0"
       id="guide4907" />
  </sodipodi:namedview>
  <metadata
     id="metadata4287">
    <rdf:RDF>
      <cc:Work
         rdf:about="">
        <dc:format>image/svg+xml</dc:format>
        <dc:type
           rdf:resource="http://purl.org/dc/dcmitype/StillImage" />
        <dc:title></dc:title>
      </cc:Work>
    </rdf:RDF>
  </metadata>
  <g
     inkscape:label="Layer 1"
     inkscape:groupmode="layer"
     id="layer1"
     transform="translate(-1098.4549,34.769378)">
    <path
       inkscape:connector-curvature="0"
       style="fill:#e2000d"
       d="m 1106.7749,69.230523 c -2.3467,0 -4.3734,-0.85334 -5.9734,-2.45333 -1.6,-1.600003 -2.3466,-3.626668 -2.3466,-5.973332 0,-2.346665 0.8533,-4.373329 2.4533,-5.973328 1.6,-1.599998 3.6267,-2.45333 6.08,-2.45333 1.3867,0 2.56,0.213333 3.52,0.639999 0.96,0.426666 1.92,1.066665 2.7733,1.919998 l -2.1333,2.453331 c -0.7467,-0.64 -1.3867,-1.066666 -2.0267,-1.386665 -0.64,-0.32 -1.3866,-0.426667 -2.24,-0.426667 -1.3866,0 -2.4533,0.533333 -3.4133,1.493332 -0.8533,0.959999 -1.3867,2.133331 -1.3867,3.626663 0,1.386665 0.4267,2.666664 1.3867,3.626663 0.8533,0.959996 2.0267,1.493336 3.4133,1.493336 0.8534,0 1.6,-0.10667 2.24,-0.42667 0.64,-0.32 1.28,-0.746666 2.0267,-1.386665 l 2.24,2.453335 c -0.8534,0.95999 -1.8134,1.59999 -2.88,2.13333 -0.96,0.42666 -2.24,0.64 -3.7333,0.64 z m 23.6799,-2.45333 c -1.7066,1.59999 -3.7333,2.45333 -6.1866,2.45333 -2.4534,0 -4.5867,-0.85334 -6.1867,-2.45333 -1.6,-1.600003 -2.4533,-3.626668 -2.4533,-5.973332 0,-2.346665 0.8533,-4.266663 2.4533,-5.973328 1.7067,-1.599998 3.7333,-2.45333 6.1867,-2.45333 2.4533,0 4.5866,0.853332 6.1866,2.45333 1.6,1.599999 2.4534,3.626663 2.4534,5.973328 0.1066,2.453331 -0.7467,4.373329 -2.4534,5.973332 z m -9.7066,-2.240003 c 0.96,0.960003 2.1333,1.493333 3.52,1.493333 1.3866,0 2.56,-0.53333 3.52,-1.493333 0.96,-0.959999 1.3866,-2.133331 1.3866,-3.626663 0,-1.386665 -0.4266,-2.666664 -1.3866,-3.626663 -0.96,-0.959999 -2.1334,-1.493332 -3.52,-1.493332 -1.3867,0 -2.56,0.533333 -3.52,1.493332 -0.96,0.959999 -1.3867,2.133331 -1.3867,3.626663 0,1.386666 0.5333,2.559998 1.3867,3.626663 z m 29.1199,4.693333 c -2.0266,0 -3.84,-0.64 -5.2266,-1.92 -1.3867,-1.28 -2.3467,-2.879999 -2.6667,-4.906664 l -2.1333,0 0,6.506664 -3.6267,0 0,-16.106654 3.6267,0 0,6.50666 2.24,0 c 0.32,-1.919998 1.28,-3.519997 2.6666,-4.799995 1.3867,-1.279999 3.2,-1.919998 5.2267,-1.919998 2.3467,0 4.16,0.853332 5.6533,2.453331 1.4934,1.599998 2.24,3.626663 2.24,5.973327 0,2.346664 -0.7466,4.373329 -2.24,5.973329 -1.4933,1.49333 -3.4133,2.24 -5.76,2.24 z m 0.1067,-3.2 c 1.28,0 2.24,-0.53333 3.0933,-1.493333 0.7467,-0.959999 1.1734,-2.239997 1.1734,-3.626663 0,-1.493332 -0.4267,-2.666664 -1.1734,-3.626663 -0.8533,-0.959999 -1.8133,-1.493332 -3.0933,-1.493332 -1.28,0 -2.24,0.533333 -3.0933,1.493332 -0.7467,0.959999 -1.1734,2.133331 -1.1734,3.626663 0,1.493332 0.4267,2.666664 1.1734,3.626663 0.7466,0.960003 1.8133,1.493333 3.0933,1.493333 z m 16.96,-13.546654 c 1.7067,0 3.2,0.426666 4.2667,1.173332 1.0666,0.853333 1.6,1.813332 1.6,3.09333 0,1.706665 -0.8534,2.986664 -2.6667,3.73333 2.0267,0.639999 3.0933,1.919998 3.0933,3.839996 0,1.386666 -0.5333,2.559996 -1.7066,3.519996 -1.1734,0.96 -2.6667,1.38667 -4.48,1.38667 -1.7067,0 -3.0934,-0.21334 -4.16,-0.64 -1.1734,-0.42667 -2.1334,-1.17334 -3.0934,-2.02667 l 1.92,-2.453329 c 1.3867,1.386669 3.2,2.026669 5.2267,2.026669 0.7467,0 1.4933,-0.21334 2.0267,-0.53334 0.5333,-0.32 0.7466,-0.85333 0.7466,-1.386662 0,-0.64 -0.32,-1.173332 -0.8533,-1.386666 -0.5333,-0.319999 -1.3867,-0.426666 -2.3467,-0.426666 l -1.92,0 0,-2.986664 1.8134,0 c 1.92,0 2.88,-0.639999 2.88,-1.919998 0,-0.533332 -0.2134,-0.959999 -0.7467,-1.279998 -0.5333,-0.32 -1.1733,-0.533333 -1.92,-0.533333 -1.8133,0 -3.2,0.639999 -4.3733,1.813331 l -1.92,-2.239997 c 1.7066,-1.813332 3.84,-2.773331 6.6133,-2.773331 z m 9.3867,16.533314 0,-16.213314 3.6266,0 0,6.399993 6.6133,0 0,-6.399993 3.6267,0 0,16.213314 -3.6267,0 0,-6.506657 -6.6133,0 0,6.506657 -3.6266,0 z m 31.8933,-16.213314 0,16.213314 -3.52,0 0,-10.666653 -7.1467,10.666653 -3.4133,0 0,-16.213314 3.52,0 0,10.666656 7.1466,-10.666656 3.4134,0 z m 3.8399,16.213314 0,-16.213314 3.6267,0 0,7.039993 6.6133,-7.039993 4.3734,0 -6.6134,6.82666 6.9334,9.279994 -4.3734,0 -5.12,-6.93333 -1.92,1.919998 0,4.906662 -3.52,0 z m 31.1467,-16.213314 0,16.213314 -3.52,0 0,-10.666653 -7.1467,10.666653 -3.4133,0 0,-16.213314 3.52,0 0,10.666656 7.1467,-10.666656 3.4133,0 z"
       id="path34" />
    <path
       inkscape:connector-curvature="0"
       style="fill:#2f3031"
       d="m 1116.7562,80.993137 0,-10.146809 2.255,0 0,4.026508 4.1875,0 0,-4.026508 2.2548,0 0,10.146809 -2.2548,0 0,-4.026507 -4.1875,0 0,4.026507 -2.255,0 z m 10.3079,0 4.3487,-10.307874 2.0937,0 4.3486,10.307874 -2.4159,0 -0.9664,-2.254845 -4.3485,0 -0.9663,2.254845 -2.0939,0 z m 4.0266,-4.187573 2.738,0 -1.4496,-3.382275 -1.2884,3.382275 z m 8.5362,4.187573 0,-10.146809 2.4159,0 2.738,4.348639 2.7379,-4.348639 2.416,0 0,10.146809 -2.2548,0 0,-6.603483 -2.8991,4.348638 -2.8991,-4.348638 0,6.603483 -2.2548,0 z m 17.0723,0 0,-10.146809 8.5363,0 0,10.146809 -2.2549,0 0,-8.21408 -4.0264,0 0,8.21408 -2.255,0 z m 20.1327,-1.28848 c -0.9664,0.966364 -2.4159,1.610612 -3.8655,1.610612 -1.6106,0 -2.8991,-0.483183 -3.8654,-1.610612 -0.9664,-0.966365 -1.6107,-2.254845 -1.6107,-3.704391 0,-1.449547 0.4832,-2.738027 1.6107,-3.704391 0.9663,-0.966365 2.4159,-1.610612 3.8654,-1.610612 1.6105,0 2.8991,0.483182 3.8655,1.610612 0.9664,0.966364 1.6105,2.254844 1.6105,3.704391 -0.161,1.449546 -0.6441,2.576961 -1.6105,3.704391 z m -6.1204,-1.449547 c 0.6443,0.644248 1.2886,0.966364 2.2549,0.966364 0.9664,0 1.6105,-0.322116 2.2548,-0.966364 0.6443,-0.644232 0.8053,-1.449546 0.8053,-2.254844 0,-0.966365 -0.3221,-1.610612 -0.8053,-2.254845 -0.6443,-0.644248 -1.2884,-0.966364 -2.2548,-0.966364 -0.9663,0 -1.6106,0.322116 -2.2549,0.966364 -0.6442,0.644233 -0.8053,1.449546 -0.8053,2.254845 -0.1611,0.805298 0.1611,1.610612 0.8053,2.254844 z m 14.0123,2.738027 0,-10.146809 8.6972,0 0,10.146809 -2.2548,0 0,-8.21408 -4.0265,0 0,8.21408 -2.4159,0 z m 15.4618,-4.831806 2.4159,-5.476068 2.4159,0 -4.0266,7.891964 c -0.4831,0.805313 -0.9663,1.449546 -1.4495,1.932728 -0.4832,0.322131 -1.1273,0.644248 -1.9327,0.644248 -0.8053,0 -1.4496,-0.161066 -2.2548,-0.644248 l 0.8052,-1.610597 c 0.3222,0.161051 0.8054,0.322116 1.2886,0.322116 0.4832,0 0.9664,-0.322116 1.2884,-0.805298 l -4.1875,-7.569848 2.5769,0 3.0602,5.315003 z m 8.8584,4.831806 0,-8.21408 -3.0602,0 0,-2.093794 8.5361,0 0,2.093794 -3.06,0 0,8.21408 -2.4159,0 z m 16.1059,-10.146809 0,10.146809 -2.2548,0 0,-6.764534 -4.5097,6.764534 -2.0937,0 0,-10.146809 2.2548,0 0,6.76455 4.5098,-6.76455 2.0936,0 z"
       id="path36" />
    <path
       inkscape:connector-curvature="0"
       style="fill:#e2000d"
       d="m 1130.1348,46.297209 14.8267,0 2.6666,-2.986664 -14.2933,0 0,-75.093263 53.44,0 2.6666,-2.98666 -59.3066,0 z m 81.3866,0 0,-81.066587 -14.6133,0 -2.6667,2.98666 14.08,0 0,75.093263 -53.2266,0 -2.6667,2.986664 z"
       id="path38" />
    <path
       inkscape:connector-curvature="0"
       style="fill:#e2000d"
       d="m 1135.2548,-30.076048 71.04,0 0,71.786595 -71.04,0 z"
       id="path40" />
    <path
       inkscape:connector-curvature="0"
       style="fill:#ffffff"
       d="m 1144.4282,5.7639118 c 0,-16.2133098 12.2666,-29.5466298 29.7599,-29.5466298 10.7733,0 16.8533,4.05333 22.08,9.27999 l -7.4667,8.6399898 c -4.3733,-3.94666 -8.2133,-6.3999998 -14.7199,-6.3999998 -9.6,0 -16.5334,7.9999998 -16.5334,17.9199898 0,9.8133202 6.8267,17.9199792 16.5334,17.9199792 6.5066,0 10.5599,-2.559999 15.0399,-6.719989 l 8,8.533321 c -5.8666,6.293327 -12.3733,9.706657 -23.4666,9.706657 -16.7467,0.213333 -29.2266,-12.693321 -29.2266,-29.3333082 z"
       id="path42"
       sodipodi:nodetypes="ssccssscccs" />
  </g>
</svg>
