<?xml version="1.0" encoding="UTF-8"?>
<!-- Created with Inkscape (http://www.inkscape.org/) -->
<svg width="39.257mm" height="15.804mm" version="1.1" viewBox="0 0 39.257088 15.80444" xmlns="http://www.w3.org/2000/svg" xmlns:cc="http://creativecommons.org/ns#" xmlns:dc="http://purl.org/dc/elements/1.1/" xmlns:rdf="http://www.w3.org/1999/02/22-rdf-syntax-ns#">
 <metadata>
  <rdf:RDF>
   <cc:Work rdf:about="">
    <dc:format>image/svg+xml</dc:format>
    <dc:type rdf:resource="http://purl.org/dc/dcmitype/StillImage"/>
    <dc:title/>
   </cc:Work>
  </rdf:RDF>
 </metadata>
 <g transform="translate(-55.967 -134.13)">
  <g stroke-width=".28222">
   <path d="m67.51 134.13h-11.543v15.804h2.8787l0.53622-0.59267h-2.794v-14.619h10.414zm-6.6887 15.212-0.508 0.59267h11.515v-15.804h-2.8504l-0.508 0.59267h2.7093v14.619z" fill="#e2000d"/>
   <path d="m56.954 135.03h13.857v13.998h-13.857z" fill="#e2000d"/>
   <path d="m58.732 142.03c0-3.1609 2.3989-5.7573 5.8138-5.7573 2.0884 0 3.2738 0.79022 4.318 1.8062l-1.4676 1.6933c-0.84667-0.79023-1.5804-1.2418-2.8504-1.2418-1.8909 0-3.2173 1.5522-3.2173 3.4996 0 1.9191 1.3264 3.4996 3.2173 3.4996 1.27 0 2.0602-0.508 2.9351-1.2982l1.5522 1.6651c-1.1571 1.2136-2.4271 1.8909-4.572 1.8909-3.2738 0-5.7291-2.54-5.7291-5.7573z" fill="#fff"/>
  </g>
  <g fill="#444547" stroke-width=".26458" aria-label="нам по пути">
   <path d="m73.231 142.73h0.31659v0.78205h1.0216v-0.78205h0.31659v1.9166h-0.31659v-0.88302h-1.0216v0.88302h-0.31659z"/>
   <path d="m76.414 143.68q-0.38162 0-0.52878 0.0873t-0.14717 0.29776q0 0.1677 0.10952 0.26696 0.11123 0.0975 0.30118 0.0975 0.26183 0 0.41926-0.18482 0.15915-0.18653 0.15915-0.49456v-0.0702zm0.62804-0.13006v1.0935h-0.31488v-0.29092q-0.10781 0.17455-0.26867 0.25841-0.16086 0.0821-0.39359 0.0821-0.29434 0-0.46889-0.16428-0.17284-0.166-0.17284-0.44323 0-0.32343 0.21562-0.48771 0.21733-0.16428 0.64686-0.16428h0.44151v-0.0308q0-0.21733-0.14375-0.33541-0.14204-0.11979-0.40044-0.11979-0.16428 0-0.32001 0.0394-0.15573 0.0394-0.29947 0.11808v-0.29092q0.17284-0.0667 0.33541-0.0993 0.16257-0.0342 0.31659-0.0342 0.41584 0 0.62119 0.21563 0.20535 0.21562 0.20535 0.6537z"/>
   <path d="m77.681 142.73h0.46033l0.54419 1.2835 0.5459-1.2835h0.45691v1.9166h-0.31659v-1.6154l-0.52878 1.2475h-0.31488l-0.5305-1.2475v1.6154h-0.31659z"/>
   <path d="m83.1 142.73v1.9166h-0.31659v-1.6651h-1.0216v1.6651h-0.31659v-1.9166z"/>
   <path d="m84.5 142.95q-0.25327 0-0.40044 0.19851-0.14717 0.1968-0.14717 0.54077 0 0.34396 0.14546 0.54247 0.14717 0.1968 0.40215 0.1968 0.25156 0 0.39873-0.19851t0.14717-0.54076q0-0.34055-0.14717-0.53906-0.14717-0.20022-0.39873-0.20022zm0-0.26696q0.41071 0 0.64515 0.26696t0.23444 0.73928q0 0.4706-0.23444 0.73927-0.23444 0.26696-0.64515 0.26696-0.41242 0-0.64686-0.26696-0.23273-0.26867-0.23273-0.73927 0-0.47232 0.23273-0.73928 0.23445-0.26696 0.64686-0.26696z"/>
   <path d="m88.658 142.73v1.9166h-0.31659v-1.6651h-1.0216v1.6651h-0.31659v-1.9166z"/>
   <path d="m90.113 144.82q-0.13348 0.34226-0.26011 0.44665-0.12664 0.10439-0.33883 0.10439h-0.25156v-0.26354h0.18482q0.13006 0 0.20193-0.0616 0.07187-0.0616 0.15915-0.29091l0.05647-0.14375-0.77521-1.8858h0.3337l0.59895 1.4991 0.59895-1.4991h0.3337z"/>
   <path d="m91.162 142.73h1.8362v0.25156h-0.76323v1.6651h-0.30974v-1.6651h-0.76323z"/>
   <path d="m95.066 142.73v1.9166h-0.31316v-1.5384l-0.92409 1.5384h-0.40386v-1.9166h0.31316v1.535l0.92238-1.535z"/>
  </g>
  <g fill="#e2000d" stroke-width=".26458" aria-label="союзники">
   <path d="m74.55 139.07v0.38108q-0.17282-0.0953-0.34784-0.1418-0.17282-0.0487-0.35006-0.0487-0.39659 0-0.61593 0.25257-0.21934 0.25036-0.21934 0.70456 0 0.45419 0.21934 0.70677 0.21934 0.25036 0.61593 0.25036 0.17725 0 0.35006-0.0465 0.17503-0.0487 0.34784-0.14401v0.37664q-0.1706 0.0798-0.35449 0.11965-0.18168 0.0399-0.38773 0.0399-0.56054 0-0.89066-0.35228-0.33012-0.35228-0.33012-0.95048 0-0.60707 0.33234-0.95492 0.33455-0.34784 0.91503-0.34784 0.18832 0 0.36779 0.0399 0.17946 0.0377 0.34784 0.11521z"/>
   <path d="m76.225 139.26q-0.32791 0-0.51844 0.25701-0.19054 0.25479-0.19054 0.70012t0.18832 0.70234q0.19054 0.25479 0.52066 0.25479 0.32569 0 0.51623-0.25701t0.19054-0.70012q0-0.4409-0.19054-0.69791-0.19054-0.25922-0.51623-0.25922zm0-0.34563q0.53174 0 0.83527 0.34563t0.30353 0.95713q0 0.60928-0.30353 0.95713-0.30353 0.34563-0.83527 0.34563-0.53395 0-0.83749-0.34563-0.30132-0.34785-0.30132-0.95713 0-0.6115 0.30132-0.95713 0.30353-0.34563 0.83749-0.34563z"/>
   <path d="m80.042 139.26q-0.32791 0-0.51844 0.25701-0.19054 0.25479-0.19054 0.70012t0.18832 0.70234q0.19054 0.25479 0.52066 0.25479 0.32569 0 0.51623-0.25701 0.19054-0.25701 0.19054-0.70012 0-0.4409-0.19054-0.69791-0.19054-0.25922-0.51623-0.25922zm-1.1255 0.70455q0.0421-0.42096 0.31683-0.73557 0.27695-0.31461 0.80869-0.31461 0.53174 0 0.83527 0.34563t0.30353 0.95713q0 0.60928-0.30353 0.95713-0.30353 0.34563-0.83527 0.34563-0.53395 0-0.82641-0.33456-0.29024-0.33455-0.31018-0.88401h-0.46084v1.1543h-0.40767v-2.4814h0.40767v0.99036z"/>
   <path d="m82.993 140.12q0.27473 0.0532 0.42761 0.21491 0.15288 0.16173 0.15288 0.40102 0 0.38329-0.28581 0.58491t-0.81312 0.20162q-0.17725 0-0.36557-0.031-0.18611-0.031-0.38551-0.0931v-0.37886q0.15731 0.082 0.34563 0.12407 0.18832 0.0399 0.39437 0.0399 0.33455 0 0.52066-0.12407 0.18832-0.12407 0.18832-0.32347 0-0.19497-0.16617-0.3124-0.16617-0.11964-0.4697-0.11964h-0.32791v-0.33677h0.34342q0.25701 0 0.40545-0.0975 0.15066-0.0997 0.15066-0.25479 0-0.1418-0.15509-0.24372-0.15288-0.10191-0.41653-0.10191-0.15731 0-0.33677 0.0288-0.17725 0.0288-0.39216 0.0931v-0.37q0.21713-0.0532 0.40545-0.0798t0.35671-0.0266q0.43425 0 0.68461 0.17503 0.25258 0.17282 0.25258 0.48522 0 0.20604-0.13294 0.35006-0.13293 0.14179-0.38108 0.19497z"/>
   <path d="m84.252 138.98h0.40988v1.0125h1.3227v-1.0125h0.40988v2.4814h-0.40988v-1.1432h-1.3227v1.1432h-0.40988z"/>
   <path d="m89.354 138.98v2.4814h-0.40545v-1.9918l-1.1964 1.9918h-0.52288v-2.4814h0.40545v1.9874l1.1942-1.9874z"/>
   <path d="m90.19 138.98h0.40545v1.1654l1.1499-1.1654h0.50072l-0.94827 0.95934 1.0701 1.5221h-0.45641l-0.87958-1.2518-0.43647 0.44312v0.80868h-0.40545z"/>
   <path d="m95.053 138.98v2.4814h-0.40545v-1.9918l-1.1964 1.9918h-0.52288v-2.4814h0.40545v1.9874l1.1942-1.9874z"/>
  </g>
 </g>
</svg>
