<?xml version="1.0" encoding="UTF-8" standalone="no"?>
<!-- Created with Inkscape (http://www.inkscape.org/) -->

<svg
   xmlns:dc="http://purl.org/dc/elements/1.1/"
   xmlns:cc="http://creativecommons.org/ns#"
   xmlns:rdf="http://www.w3.org/1999/02/22-rdf-syntax-ns#"
   xmlns:svg="http://www.w3.org/2000/svg"
   xmlns="http://www.w3.org/2000/svg"
   xmlns:sodipodi="http://sodipodi.sourceforge.net/DTD/sodipodi-0.dtd"
   xmlns:inkscape="http://www.inkscape.org/namespaces/inkscape"
   width="4.9388862mm"
   height="8.4086542mm"
   viewBox="0 0 4.9388862 8.4086542"
   version="1.1"
   id="svg5222"
   inkscape:version="0.92.1 r15371"
   sodipodi:docname="1.svg">
  <defs
     id="defs5216" />
  <sodipodi:namedview
     id="base"
     pagecolor="#ffffff"
     bordercolor="#666666"
     borderopacity="1.0"
     inkscape:pageopacity="0.0"
     inkscape:pageshadow="2"
     inkscape:zoom="0.35"
     inkscape:cx="-519.2381"
     inkscape:cy="-266.96677"
     inkscape:document-units="mm"
     inkscape:current-layer="layer1"
     showgrid="false"
     fit-margin-top="0"
     fit-margin-left="0"
     fit-margin-right="0"
     fit-margin-bottom="0"
     inkscape:window-width="1280"
     inkscape:window-height="971"
     inkscape:window-x="0"
     inkscape:window-y="26"
     inkscape:window-maximized="1" />
  <metadata
     id="metadata5219">
    <rdf:RDF>
      <cc:Work
         rdf:about="">
        <dc:format>image/svg+xml</dc:format>
        <dc:type
           rdf:resource="http://purl.org/dc/dcmitype/StillImage" />
        <dc:title></dc:title>
      </cc:Work>
    </rdf:RDF>
  </metadata>
  <g
     inkscape:label="Layer 1"
     inkscape:groupmode="layer"
     id="layer1"
     transform="translate(-116.21508,-69.78972)">
    <g
       transform="matrix(0.28222207,0,0,0.28222207,59.516102,-64.353991)"
       style="fill:#ffffff"
       id="g102">
      <path
         inkscape:connector-curvature="0"
         d="m 212.372,475.798 c -4,-1.5 -8.5,0.6 -10,4.6 -1.5,4 0.6,8.5 4.6,10 4,1.5 8.5,-0.6 10,-4.6 1.4,-4.1 -0.6,-8.5 -4.6,-10 z m -3.8,10.3 c -1.7,-0.6 -2.5,-2.5 -1.9,-4.1 0.6,-1.6 2.4,-2.6 4.1,-1.9 1.7,0.7 2.5,2.5 1.9,4.1 -0.6,1.7 -2.5,2.5 -4.1,1.9 z"
         id="path98" />
      <path
         inkscape:connector-curvature="0"
         d="m 217.202,501.38 -4.2,-4.4 c 1,-0.2 2,-0.5 2.9,-0.9 0.2,-0.1 2.5,-1.1 2.5,-2.7 0,0 0,-0.2 -0.1,-0.5 -0.4,-1.7 -2.1,-2.3 -3.5,-1.4 h -0.1 c -1.2,0.8 -2.6,1.2 -4.1,1.3 h -0.1 c -1.9,0.1 -3.9,-0.3 -5.6,-1.3 0,0 -0.3,-0.2 -0.6,-0.3 -1.4,-0.8 -3.2,0.1 -3.4,1.7 0,0.4 0.1,0.6 0.1,0.7 0.3,1.3 2.3,2.2 2.4,2.3 0.3,0.1 2.3,0.9 2.7,1 0.1,0.1 0.2,0.2 0.1,0.3 -0.8,0.9 -1.6,1.8 -2.5,2.6 l -1.5,1.4 c -0.8,0.8 -1,2.1 -0.3,3 0.8,1.1 2.3,1.2 3.3,0.4 l 4.2,-4.1 c 0.2,-0.2 0.4,-0.1 0.6,0 l 3.7,3.9 c 0.9,0.9 2.4,1 3.4,0.1 0.9,-0.8 0.9,-2.2 0.1,-3.1 z"
         id="path100" />
    </g>
  </g>
</svg>
