<?xml version="1.0" encoding="UTF-8" standalone="no"?>
<!-- Created with Inkscape (http://www.inkscape.org/) -->

<svg
   xmlns:dc="http://purl.org/dc/elements/1.1/"
   xmlns:cc="http://creativecommons.org/ns#"
   xmlns:rdf="http://www.w3.org/1999/02/22-rdf-syntax-ns#"
   xmlns:svg="http://www.w3.org/2000/svg"
   xmlns="http://www.w3.org/2000/svg"
   xmlns:sodipodi="http://sodipodi.sourceforge.net/DTD/sodipodi-0.dtd"
   xmlns:inkscape="http://www.inkscape.org/namespaces/inkscape"
   width="8.4532671mm"
   height="8.4667101mm"
   viewBox="0 0 8.4532672 8.4667101"
   version="1.1"
   id="svg5222"
   inkscape:version="0.92.1 r15371"
   sodipodi:docname="skype.svg">
  <defs
     id="defs5216" />
  <sodipodi:namedview
     id="base"
     pagecolor="#ffffff"
     bordercolor="#666666"
     borderopacity="1.0"
     inkscape:pageopacity="0.0"
     inkscape:pageshadow="2"
     inkscape:zoom="0.35"
     inkscape:cx="-646.12058"
     inkscape:cy="-265.25241"
     inkscape:document-units="mm"
     inkscape:current-layer="layer1"
     showgrid="false"
     fit-margin-top="0"
     fit-margin-left="0"
     fit-margin-right="0"
     fit-margin-bottom="0"
     inkscape:window-width="1280"
     inkscape:window-height="971"
     inkscape:window-x="0"
     inkscape:window-y="26"
     inkscape:window-maximized="1" />
  <metadata
     id="metadata5219">
    <rdf:RDF>
      <cc:Work
         rdf:about="">
        <dc:format>image/svg+xml</dc:format>
        <dc:type
           rdf:resource="http://purl.org/dc/dcmitype/StillImage" />
        <dc:title></dc:title>
      </cc:Work>
    </rdf:RDF>
  </metadata>
  <g
     inkscape:label="Layer 1"
     inkscape:groupmode="layer"
     id="layer1"
     transform="translate(-149.78607,-70.185257)">
    <path
       inkscape:connector-curvature="0"
       style="fill:#ffffff;stroke-width:0.28222212"
       d="m 158.02692,75.293517 c 0.0564,-0.28222 0.0847,-0.56444 0.0847,-0.84666 0,-2.20133 -1.80622,-3.97933 -4.03577,-3.97933 -0.22578,0 -0.47978,0.0282 -0.70556,0.0564 -0.36689,-0.22578 -0.79022,-0.33867 -1.24178,-0.33867 -1.29822,0 -2.34244,1.04423 -2.34244,2.31423 0,0.42333 0.11289,0.81844 0.31044,1.18533 -0.0564,0.254 -0.0847,0.508 -0.0847,0.762 0,2.20133 1.80622,3.97933 4.03578,3.97933 0.254,0 0.47978,-0.0282 0.70555,-0.0564 0.33867,0.16933 0.70556,0.28222 1.12889,0.28222 1.29822,0 2.34244,-1.04422 2.34244,-2.31422 0.0565,-0.39511 -0.0564,-0.73378 -0.19755,-1.04423 z m -4.12044,1.89089 c -0.95955,-0.0282 -1.66511,-0.42333 -1.97555,-0.93133 -0.11289,-0.14111 -0.45156,-0.79022 -0.0564,-1.07244 0.50799,-0.33867 0.84666,0 1.01599,0.36688 0.14112,0.39511 0.42334,0.67734 1.016,0.73378 0.64911,0.0282 1.21356,-0.19755 1.21356,-0.73378 0,-0.62088 -0.95956,-0.64911 -1.63689,-0.81844 -0.81844,-0.22578 -1.69333,-0.508 -1.69333,-1.55222 0,-1.016 1.016,-1.524 2.37066,-1.524 1.10067,0 1.778,0.62089 1.91911,0.98778 0.14111,0.33866 0.0564,0.70555 -0.16933,0.81844 -0.42333,0.22578 -0.73378,0.0282 -0.84667,-0.19755 -0.19755,-0.33867 -0.36688,-0.73378 -1.07244,-0.73378 -0.47978,0 -1.016,0.16933 -1.016,0.53622 0,0.47978 0.90311,0.59267 1.58044,0.762 0.87489,0.22578 1.83445,0.53622 1.83445,1.55222 0.0564,1.15711 -0.81845,1.83444 -2.48356,1.80622 z"
       id="path104" />
  </g>
</svg>
