<?xml version="1.0" encoding="UTF-8" standalone="no"?>
<svg
   xmlns:dc="http://purl.org/dc/elements/1.1/"
   xmlns:cc="http://creativecommons.org/ns#"
   xmlns:rdf="http://www.w3.org/1999/02/22-rdf-syntax-ns#"
   xmlns:svg="http://www.w3.org/2000/svg"
   xmlns="http://www.w3.org/2000/svg"
   xmlns:sodipodi="http://sodipodi.sourceforge.net/DTD/sodipodi-0.dtd"
   xmlns:inkscape="http://www.inkscape.org/namespaces/inkscape"
   height="8.4492mm"
   width="41.133mm"
   version="1.1"
   viewBox="0 0 145.74651 29.938058"
   id="svg2"
   inkscape:version="0.91 r13725"
   sodipodi:docname="slogon.mobile.svg">
  <metadata
     id="metadata14">
    <rdf:RDF>
      <cc:Work
         rdf:about="">
        <dc:format>image/svg+xml</dc:format>
        <dc:type
           rdf:resource="http://purl.org/dc/dcmitype/StillImage" />
      </cc:Work>
    </rdf:RDF>
  </metadata>
  <defs
     id="defs12" />
  <sodipodi:namedview
     pagecolor="#ffffff"
     bordercolor="#666666"
     borderopacity="1"
     objecttolerance="10"
     gridtolerance="10"
     guidetolerance="10"
     inkscape:pageopacity="0"
     inkscape:pageshadow="2"
     inkscape:window-width="1307"
     inkscape:window-height="744"
     id="namedview10"
     showgrid="false"
     inkscape:zoom="2.3190896"
     inkscape:cx="16.38574"
     inkscape:cy="14.969055"
     inkscape:window-x="59"
     inkscape:window-y="24"
     inkscape:window-maximized="1"
     inkscape:current-layer="svg2" />
  <g
     stroke="#fff"
     transform="translate(-381.41 -543.11)"
     id="g4"
     style="stroke:none;fill:#ffffff;fill-opacity:1">
    <path
       d="m390.23 560.46c-2.3467 0-4.3734-0.85334-5.9734-2.4533s-2.3466-3.6267-2.3466-5.9733c0-2.3467 0.8533-4.3733 2.4533-5.9733s3.6267-2.4533 6.08-2.4533c1.3867 0 2.56 0.21333 3.52 0.64 0.96 0.42666 1.92 1.0667 2.7733 1.92l-2.1333 2.4533c-0.7467-0.64-1.3867-1.0667-2.0267-1.3867s-1.3866-0.42667-2.24-0.42667c-1.3866 0-2.4533 0.53334-3.4133 1.4933-0.8533 0.95999-1.3867 2.1333-1.3867 3.6267 0 1.3867 0.4267 2.6667 1.3867 3.6267 0.8533 0.96 2.0267 1.4933 3.4133 1.4933 0.8534 0 1.6-0.10667 2.24-0.42667s1.28-0.74667 2.0267-1.3867l2.24 2.4533c-0.8534 0.95999-1.8134 1.6-2.88 2.1333-0.96 0.42666-2.24 0.64-3.7333 0.64zm23.68-2.4533c-1.7066 1.6-3.7333 2.4533-6.1866 2.4533-2.4534 0-4.5867-0.85334-6.1867-2.4533s-2.4533-3.6267-2.4533-5.9733c0-2.3467 0.8533-4.2667 2.4533-5.9733 1.7067-1.6 3.7333-2.4533 6.1867-2.4533 2.4533 0 4.5866 0.85333 6.1866 2.4533s2.4534 3.6267 2.4534 5.9733c0.1066 2.4533-0.7467 4.3733-2.4534 5.9733zm-9.7066-2.24c0.96 0.96001 2.1333 1.4933 3.52 1.4933 1.3866 0 2.56-0.53333 3.52-1.4933 0.96-0.95999 1.3866-2.1333 1.3866-3.6267 0-1.3867-0.4266-2.6667-1.3866-3.6267s-2.1334-1.4933-3.52-1.4933c-1.3867 0-2.56 0.53333-3.52 1.4933-0.96 0.96-1.3867 2.1333-1.3867 3.6267 0 1.3867 0.5333 2.56 1.3867 3.6267zm29.12 4.6933c-2.0266 0-3.84-0.64-5.2266-1.92-1.3867-1.28-2.3467-2.88-2.6667-4.9067h-2.1333v6.5067h-3.6267v-16.107h3.6267v6.5067h2.24c0.32-1.92 1.28-3.52 2.6666-4.8 1.3867-1.28 3.2-1.92 5.2267-1.92 2.3467 0 4.16 0.85333 5.6533 2.4533 1.4934 1.6 2.24 3.6267 2.24 5.9733 0 2.3467-0.7466 4.3733-2.24 5.9733-1.4933 1.4933-3.4133 2.24-5.76 2.24zm0.1067-3.2c1.28 0 2.24-0.53333 3.0933-1.4933 0.7467-0.95999 1.1734-2.24 1.1734-3.6267 0-1.4933-0.4267-2.6667-1.1734-3.6267-0.8533-0.96-1.8133-1.4933-3.0933-1.4933s-2.24 0.53333-3.0933 1.4933c-0.7467 0.96-1.1734 2.1333-1.1734 3.6267 0 1.4933 0.4267 2.6667 1.1734 3.6267 0.7466 0.96001 1.8133 1.4933 3.0933 1.4933zm16.96-13.547c1.7067 0 3.2 0.42667 4.2667 1.1733 1.0666 0.85333 1.6 1.8133 1.6 3.0933 0 1.7067-0.8534 2.9867-2.6667 3.7333 2.0267 0.63999 3.0933 1.92 3.0933 3.84 0 1.3867-0.5333 2.56-1.7066 3.52-1.1734 0.96-2.6667 1.3867-4.48 1.3867-1.7067 0-3.0934-0.21334-4.16-0.64-1.1734-0.42667-2.1334-1.1733-3.0934-2.0267l1.92-2.4533c1.3867 1.3867 3.2 2.0267 5.2267 2.0267 0.7467 0 1.4933-0.21334 2.0267-0.53334 0.5333-0.32 0.7466-0.85333 0.7466-1.3867 0-0.64-0.32-1.1733-0.8533-1.3867-0.5333-0.32-1.3867-0.42667-2.3467-0.42667h-1.92v-2.9867h1.8134c1.92 0 2.88-0.64 2.88-1.92 0-0.53333-0.2134-0.96-0.7467-1.28s-1.1733-0.53333-1.92-0.53333c-1.8133 0-3.2 0.64-4.3733 1.8133l-1.92-2.24c1.7066-1.8133 3.84-2.7733 6.6133-2.7733zm9.3867 16.533v-16.213h3.6266v6.4h6.6133v-6.4h3.6267v16.213h-3.6267v-6.5067h-6.6133v6.5067h-3.6266zm31.893-16.213v16.213h-3.52v-10.667l-7.1467 10.667h-3.4133v-16.213h3.52v10.667l7.1466-10.667h3.4134zm3.8399 16.213v-16.213h3.6267v7.04l6.6133-7.04h4.3734l-6.6134 6.8267 6.9334 9.28h-4.3734l-5.12-6.9333-1.92 1.92v4.9067h-3.52zm31.147-16.213v16.213h-3.52v-10.667l-7.1467 10.667h-3.4133v-16.213h3.52v10.667l7.1467-10.667h3.4133z"
       fill="#e2000d"
       id="path6"
       style="stroke:none;fill:#ffffff;fill-opacity:1" />
    <path
       d="m400.21 572.22v-10.147h2.255v4.0265h4.1875v-4.0265h2.2548v10.147h-2.2548v-4.0265h-4.1875v4.0265h-2.255zm10.308 0 4.3487-10.308h2.0937l4.3486 10.308h-2.4159l-0.9664-2.2548h-4.3485l-0.9663 2.2548h-2.0939zm4.0266-4.1876h2.738l-1.4496-3.3823-1.2884 3.3823zm8.5362 4.1876v-10.147h2.4159l2.738 4.3486 2.7379-4.3486h2.416v10.147h-2.2548v-6.6035l-2.8991 4.3486-2.8991-4.3486v6.6035h-2.2548zm17.072 0v-10.147h8.5363v10.147h-2.2549v-8.2141h-4.0264v8.2141h-2.255zm20.133-1.2885c-0.9664 0.96637-2.4159 1.6106-3.8655 1.6106-1.6106 0-2.8991-0.48318-3.8654-1.6106-0.9664-0.96636-1.6107-2.2548-1.6107-3.7044s0.4832-2.738 1.6107-3.7044c0.9663-0.96637 2.4159-1.6106 3.8654-1.6106 1.6105 0 2.8991 0.48318 3.8655 1.6106 0.9664 0.96636 1.6105 2.2548 1.6105 3.7044-0.161 1.4496-0.6441 2.577-1.6105 3.7044zm-6.1204-1.4496c0.6443 0.64425 1.2886 0.96637 2.2549 0.96637 0.9664 0 1.6105-0.32212 2.2548-0.96637 0.6443-0.64423 0.8053-1.4495 0.8053-2.2548 0-0.96636-0.3221-1.6106-0.8053-2.2548-0.6443-0.64425-1.2884-0.96637-2.2548-0.96637-0.9663 0-1.6106 0.32212-2.2549 0.96637-0.6442 0.64423-0.8053 1.4495-0.8053 2.2548-0.1611 0.8053 0.1611 1.6106 0.8053 2.2548zm14.012 2.738v-10.147h8.6972v10.147h-2.2548v-8.2141h-4.0265v8.2141h-2.4159zm15.462-4.8318 2.4159-5.4761h2.4159l-4.0266 7.892c-0.4831 0.80531-0.9663 1.4496-1.4495 1.9327-0.4832 0.32213-1.1273 0.64425-1.9327 0.64425-0.8053 0-1.4496-0.16107-2.2548-0.64425l0.8052-1.6106c0.3222 0.16105 0.8054 0.32212 1.2886 0.32212s0.9664-0.32212 1.2884-0.8053l-4.1875-7.5698h2.5769l3.0602 5.315zm8.8584 4.8318v-8.2141h-3.0602v-2.0938h8.5361v2.0938h-3.06v8.2141h-2.4159zm16.106-10.147v10.147h-2.2548v-6.7645l-4.5097 6.7645h-2.0937v-10.147h2.2548v6.7646l4.5098-6.7646h2.0936z"
       fill="#2f3031"
       id="path8"
       style="stroke:none;fill:#ffffff;fill-opacity:1" />
  </g>
</svg>
