<?xml version="1.0" encoding="UTF-8" standalone="no"?>
<!-- Created with Inkscape (http://www.inkscape.org/) -->

<svg
   xmlns:dc="http://purl.org/dc/elements/1.1/"
   xmlns:cc="http://creativecommons.org/ns#"
   xmlns:rdf="http://www.w3.org/1999/02/22-rdf-syntax-ns#"
   xmlns:svg="http://www.w3.org/2000/svg"
   xmlns="http://www.w3.org/2000/svg"
   xmlns:sodipodi="http://sodipodi.sourceforge.net/DTD/sodipodi-0.dtd"
   xmlns:inkscape="http://www.inkscape.org/namespaces/inkscape"
   width="10.442217mm"
   height="8.4384403mm"
   viewBox="0 0 10.442217 8.4384403"
   version="1.1"
   id="svg5222"
   inkscape:version="0.92.1 r15371"
   sodipodi:docname="twitter.svg">
  <defs
     id="defs5216" />
  <sodipodi:namedview
     id="base"
     pagecolor="#ffffff"
     bordercolor="#666666"
     borderopacity="1.0"
     inkscape:pageopacity="0.0"
     inkscape:pageshadow="2"
     inkscape:zoom="0.35"
     inkscape:cx="-529.2444"
     inkscape:cy="-937.87718"
     inkscape:document-units="mm"
     inkscape:current-layer="layer1"
     showgrid="false"
     fit-margin-top="0"
     fit-margin-left="0"
     fit-margin-right="0"
     fit-margin-bottom="0"
     inkscape:window-width="1280"
     inkscape:window-height="971"
     inkscape:window-x="0"
     inkscape:window-y="26"
     inkscape:window-maximized="1" />
  <metadata
     id="metadata5219">
    <rdf:RDF>
      <cc:Work
         rdf:about="">
        <dc:format>image/svg+xml</dc:format>
        <dc:type
           rdf:resource="http://purl.org/dc/dcmitype/StillImage" />
        <dc:title></dc:title>
      </cc:Work>
    </rdf:RDF>
  </metadata>
  <g
     inkscape:label="Layer 1"
     inkscape:groupmode="layer"
     id="layer1"
     transform="translate(-118.86258,107.75178)">
    <g
       transform="matrix(0.28222207,0,0,0.28222207,-14.106912,-241.88064)"
       id="g108">
      <path
         style="fill:#ffffff"
         inkscape:connector-curvature="0"
         d="m 496.152,475.26 h 1.4 c 0.1,0.1 0.3,0.1 0.5,0.1 1.7,0.3 3.1,1 4.3,2.2 0.1,0.1 0.1,0.1 0.2,0.1 1.3,-0.3 2.6,-0.7 3.8,-1.4 0.3,-0.1 0.5,-0.3 0.8,-0.4 -0.6,1.8 -1.6,3.1 -3.2,4.1 1.4,-0.2 2.8,-0.6 4.2,-1.1 0,0.1 -0.1,0.2 -0.2,0.2 -1,1.4 -2.1,2.6 -3.5,3.6 -0.1,0.1 -0.1,0.1 -0.1,0.2 0,0.8 0,1.6 -0.1,2.4 -0.1,0.7 -0.2,1.5 -0.3,2.2 -0.2,0.9 -0.4,1.8 -0.7,2.7 -1.3,4 -3.5,7.5 -6.8,10.2 -3.7,3.1 -8,4.6 -12.8,4.8 -1,0 -2,0 -2.9,-0.1 -0.8,-0.1 -1.7,-0.2 -2.5,-0.4 -2.5,-0.5 -4.7,-1.5 -6.9,-2.8 -0.1,0 -0.1,-0.1 -0.2,-0.1 4.1,0.4 7.8,-0.6 11.1,-3.1 -0.4,0 -0.8,-0.1 -1.1,-0.1 -1.6,-0.3 -3,-1.1 -4.2,-2.3 -0.7,-0.8 -1.3,-1.7 -1.7,-2.7 -0.1,-0.2 0,-0.2 0.1,-0.1 0.2,0 0.3,0.1 0.5,0.1 0.7,0 1.3,0 1.9,-0.1 0.2,0 0.5,-0.1 0.7,-0.2 h -0.2 c -1.5,-0.4 -2.8,-1.1 -3.8,-2.2 -1.3,-1.4 -2,-3.1 -2,-5.1 0,-0.2 0,-0.2 0.2,-0.1 0.9,0.5 2,0.7 3,0.9 h 0.1 c 0,-0.1 0,-0.1 -0.1,-0.1 -0.3,-0.2 -0.7,-0.5 -1,-0.8 -1.9,-2 -2.6,-4.3 -2,-7 0.1,-0.7 0.4,-1.4 0.8,-2 0.1,-0.1 0.1,-0.1 0.2,0 0.5,0.6 1.1,1.2 1.7,1.8 1.6,1.5 3.4,2.8 5.4,3.8 2,1 4.1,1.6 6.2,2 0.4,0.1 0.8,0.1 1.2,0.2 0.3,0 0.6,0 0.9,0.1 0.2,0 0.2,0 0.1,-0.2 0.2,-0.6 0.2,-1 0.2,-1.3 0,-0.7 0,-1.3 0.2,-2 0.3,-1.5 1,-2.7 2.1,-3.8 1.2,-1.2 2.6,-1.9 4.2,-2.1 0,0 0.2,0 0.3,-0.1 z"
         id="path106" />
    </g>
  </g>
</svg>
