<?xml version="1.0" encoding="UTF-8"?>
<!-- Created with Inkscape (http://www.inkscape.org/) -->
<svg width="12.474mm" height="14.288mm" version="1.1" viewBox="0 0 12.47431 14.28782" xmlns="http://www.w3.org/2000/svg" xmlns:cc="http://creativecommons.org/ns#" xmlns:dc="http://purl.org/dc/elements/1.1/" xmlns:rdf="http://www.w3.org/1999/02/22-rdf-syntax-ns#">
 <metadata>
  <rdf:RDF>
   <cc:Work rdf:about="">
    <dc:format>image/svg+xml</dc:format>
    <dc:type rdf:resource="http://purl.org/dc/dcmitype/StillImage"/>
    <dc:title/>
   </cc:Work>
  </rdf:RDF>
 </metadata>
 <g transform="translate(-87.501 -147.74)">
  <path d="m93.921 147.74h-0.39158c-0.39238 0.14684-0.61278 0.44106-0.58844 0.88212 0.0736 1.2012 0.14711 2.3773 0.22067 3.578 0.0489 0.73554 0.1225 1.4949 0.1471 2.2304 0.0243 0.17145-0.0736 0.3429-0.245 0.36777-0.19579 0.0238-0.26988-0.12303-0.31882-0.26988 0-0.0246-0.0244-0.0492-0.0244-0.0735-0.17197-0.76014-0.36777-1.5198-0.53922-2.2794-0.1471-0.68633-0.31855-1.348-0.46566-2.0341-0.14711-0.66146-0.78423-0.88238-1.2742-0.46566-0.24526 0.19579-0.34343 0.46566-0.26987 0.78422 0.26987 1.1033 0.51461 2.2058 0.80883 3.3332 0.31856 1.2012 0.41645 2.4262 0.44106 3.6761 0.0243 0.39211-0.245 0.53896-0.58817 0.36777-0.0733-0.0249-0.12224-0.0741-0.17145-0.12276-0.51461-0.29422-1.0292-0.61278-1.5684-0.90673-0.73501-0.41645-1.2496-0.245-1.5928 0.46567v0.44132c0.14711 0.36777 0.44106 0.56356 0.78423 0.73554 0.44106 0.17119 0.83343 0.39159 1.2499 0.58791 0.98028 0.44106 1.7648 1.1763 2.622 1.8134 0.46566 0.34317 0.98028 0.63712 1.5195 0.88212 0.34316 0.14711 0.73554 0.19579 1.0784 0.29422h0.85805c0.14684-0.0246 0.3429-0.0736 0.49-0.0979 1.5195-0.29422 2.5733-1.4706 2.7448-3.039 0.0979-0.95594 0.17119-1.9116 0.3183-2.8429 0.1471-1.1766 0.36777-2.3283 0.53922-3.4801 0.0979-0.53922 0.17198-1.1028 0.26987-1.642v-0.39158c-0.24527-0.44133-0.49027-0.56356-0.83344-0.49054-0.36777 0.0736-0.51461 0.29422-0.58817 0.78423-0.19579 1.2991-0.39211 2.5982-0.58816 3.8968-0.0489 0.245-0.14685 0.3429-0.39212 0.3429-0.19579-0.0243-0.3429-0.17145-0.3429-0.41645 0.0243-0.44107 0.0489-0.90673 0.0979-1.3481 0.0979-1.4457 0.19579-2.8919 0.26987-4.3376 0.0244-0.44079-0.26987-0.80856-0.68633-0.8329-0.46566-0.0246-0.83343 0.26987-0.85777 0.73501-0.14711 1.8381-0.24501 3.6761-0.39212 5.4896-0.0246 0.26988-0.0979 0.36777-0.36777 0.36777-0.3429 0.0243-0.44106-0.0736-0.46566-0.41671a202.19 202.19 0 0 1 -0.29369 -5.4406c0.0243-0.53896-0.0979-0.95568-0.61304-1.1271z" fill="#fff" stroke-width=".26458"/>
 </g>
</svg>
