<svg id="svg4438" xmlns:rdf="http://www.w3.org/1999/02/22-rdf-syntax-ns#" xmlns="http://www.w3.org/2000/svg" height="42.27mm" width="42.069mm" version="1.1" xmlns:cc="http://creativecommons.org/ns#" xmlns:dc="http://purl.org/dc/elements/1.1/" viewBox="0 0 149.06252 149.7771">
 <g id="layer1" transform="translate(-125.31 -128.82)">
  <path id="path3425-5-1" d="m143.12 277.82c-4.5443-0.9169-8.3757-3.0976-11.913-6.7802-5.9615-6.2059-5.8993-5.4959-5.8993-67.342s-0.062-61.134 5.8993-67.344c1.6538-1.7228 4.6945-4.0447 6.757-5.1597 3.7031-2.0019 4.4327-2.0308 58.353-2.3103 35.673-0.1849 56.474 0.062 60 0.7109 7.037 1.296 12.196 5.0606 15.475 11.293l2.5781 4.8998v57.834 57.834l-2.4704 4.9574c-2.9736 5.9673-8.0158 9.8905-14.498 11.281-5.2628 1.1287-108.75 1.244-114.28 0.1273zm109.69-31.943v-5.6328l-52.734 0.2422-52.734 0.2422-0.2936 4.0916c-0.5211 7.2639-5.0909 6.6896 53.233 6.6896h52.529zm0-28.117v-5.625h-52.969-52.969v5.625 5.625h52.969 52.969zm0-28.133v-5.6328l-52.734 0.2422-52.734 0.2422-0.2936 4.0916c-0.5211 7.2639-5.0909 6.6896 53.233 6.6896h52.529zm0-28.117v-5.625h-52.969-52.969v5.625 5.625h52.969 52.969z"/>
 </g>
</svg>
