<svg id="svg4438" xmlns:rdf="http://www.w3.org/1999/02/22-rdf-syntax-ns#" xmlns="http://www.w3.org/2000/svg" height="42.168mm" width="41.903mm" version="1.1" xmlns:cc="http://creativecommons.org/ns#" xmlns:dc="http://purl.org/dc/elements/1.1/" viewBox="0 0 148.47637 149.41484">
 <g id="layer1" transform="translate(-105.56 -174.3)">
  <path id="path3425-5-9" d="m121.5 322.76c-5.3277-1.2465-10.495-5.1425-13.42-10.119l-2.5188-4.2845v-59.531c0-53.661 0.1531-59.81 1.5535-62.363 2.1557-3.9295 6.1745-7.7709 10.622-10.153 3.7335-1.9998 4.2068-2.0151 61.887-2.0151h58.125l4.9381 2.7359c5.7786 3.2016 10.172 9.1651 11.006 14.938 0.3088 2.1388 0.4336 29.201 0.2774 60.139l-0.2841 56.25-2.5189 4.2845c-3.0075 5.1158-8.1157 8.8588-13.887 10.176-5.365 1.2241-110.53 1.1725-115.78-0.057zm94.217-31.747v-5.625h-36.094-36.094v5.625 5.625h36.094 36.094zm16.875-28.125v-5.625h-52.969-52.969v5.625 5.625h52.969 52.969zm-16.875-28.125v-5.625h-36.094-36.094v5.625 5.625h36.094 36.094zm16.875-28.125v-5.625h-52.969-52.969v5.625 5.625h52.969 52.969z"/>
 </g>
</svg>
