<svg id="svg4438" xmlns:rdf="http://www.w3.org/1999/02/22-rdf-syntax-ns#" xmlns="http://www.w3.org/2000/svg" height="42.21mm" width="42.04mm" version="1.1" xmlns:cc="http://creativecommons.org/ns#" xmlns:dc="http://purl.org/dc/elements/1.1/" viewBox="0 0 148.96106 149.56131">
 <g id="layer1" transform="translate(-108.37 -202.3)">
  <path id="path3425-5-2" d="m126.08 351.31c-8.2319-1.7049-15.179-8.4354-16.897-16.371-0.7151-3.3025-0.9469-22.199-0.743-60.581 0.2926-55.081 0.3217-55.828 2.3198-59.531 2.5854-4.7913 6.359-8.3594 11.102-10.497 3.4463-1.5534 8.071-1.7134 57.102-1.9749 33.192-0.177 55.678 0.078 59.508 0.6738 8.0936 1.2601 12.889 4.5791 16.281 11.269l2.5781 5.0841v57.145c0 40.106-0.3191 58.21-1.0701 60.717-1.5002 5.0071-5.6564 9.6915-10.882 12.265l-4.4543 2.1936-55.781 0.144c-30.68 0.079-57.258-0.1618-59.062-0.5355zm109.69-31.952v-5.625h-36.094-36.094v5.625 5.625h36.094 36.094zm0-28.125v-5.625h-52.969-52.969v5.625 5.625h52.969 52.969zm0-28.125v-5.625h-36.094-36.094v5.625 5.625h36.094 36.094zm0-28.125v-5.625h-52.969-52.969v5.625 5.625h52.969 52.969z"/>
 </g>
</svg>
