<svg id="svg4438" xmlns:rdf="http://www.w3.org/1999/02/22-rdf-syntax-ns#" xmlns="http://www.w3.org/2000/svg" height="42.175mm" width="41.936mm" version="1.1" xmlns:cc="http://creativecommons.org/ns#" xmlns:dc="http://purl.org/dc/elements/1.1/" viewBox="0 0 148.5938 149.43811">
 <g id="layer1" transform="translate(-105.7 -141.93)">
  <path id="path3425-5-7" d="m123.05 290.58c-6.6585-1.3436-12.039-5.5687-15.596-12.247-1.6516-3.1009-1.7477-6.5029-1.7477-61.875 0-58.504 0-58.6 2.0542-62.432 2.57-4.8028 7.4772-9.1716 12.162-10.828 2.8761-1.0166 15.045-1.2711 60.784-1.2711h57.188l4.4313 2.1824c4.8382 2.3828 8.7397 6.4432 10.711 11.147 1.0148 2.4216 1.2642 14.551 1.2642 61.493v58.476l-2.1808 4.1318c-2.8348 5.3711-8.699 9.7898-14.7 11.077-5.3448 1.1463-108.76 1.2784-114.37 0.1461zm76.406-31.935v-5.1562h-36.094-36.094l-0.2935 4.0916c-0.519 7.2349-3.3225 6.7396 36.596 6.4664l35.884-0.2455zm33.488-26.953c0.2178-2.4492 0.2139-4.9839-0.01-5.6328-0.3202-0.9329-11.413-1.1289-53.036-0.9375l-52.632 0.2422-0.2936 4.0916c-0.521 7.2637-5.0806 6.6896 53.138 6.6896h52.435l0.396-4.4531zm-33.488-29.297v-5.1562h-36.094-36.094l-0.2935 4.0916c-0.519 7.2349-3.3225 6.7396 36.596 6.4664l35.884-0.2455zm33.281-28.133v-5.6328l-52.734 0.2422-52.734 0.2422-0.2935 4.0916c-0.5211 7.2639-5.0909 6.6896 53.233 6.6896h52.529z"/>
 </g>
</svg>
