<?xml version="1.0" encoding="UTF-8" standalone="no"?>
<!-- Created with Inkscape (http://www.inkscape.org/) -->

<svg
   xmlns:dc="http://purl.org/dc/elements/1.1/"
   xmlns:cc="http://creativecommons.org/ns#"
   xmlns:rdf="http://www.w3.org/1999/02/22-rdf-syntax-ns#"
   xmlns:svg="http://www.w3.org/2000/svg"
   xmlns="http://www.w3.org/2000/svg"
   xmlns:sodipodi="http://sodipodi.sourceforge.net/DTD/sodipodi-0.dtd"
   xmlns:inkscape="http://www.inkscape.org/namespaces/inkscape"
   width="210mm"
   height="297mm"
   viewBox="0 0 744.09448819 1052.3622047"
   id="svg4712"
   version="1.1"
   inkscape:version="0.91 r13725"
   sodipodi:docname="drawing3.svg">
  <defs
     id="defs4714" />
  <sodipodi:namedview
     id="base"
     pagecolor="#ffffff"
     bordercolor="#666666"
     borderopacity="1.0"
     inkscape:pageopacity="0.0"
     inkscape:pageshadow="2"
     inkscape:zoom="0.24748737"
     inkscape:cx="740.53262"
     inkscape:cy="1774.5778"
     inkscape:document-units="px"
     inkscape:current-layer="layer1"
     showgrid="false"
     inkscape:window-width="1152"
     inkscape:window-height="839"
     inkscape:window-x="1920"
     inkscape:window-y="0"
     inkscape:window-maximized="1" />
  <metadata
     id="metadata4717">
    <rdf:RDF>
      <cc:Work
         rdf:about="">
        <dc:format>image/svg+xml</dc:format>
        <dc:type
           rdf:resource="http://purl.org/dc/dcmitype/StillImage" />
        <dc:title></dc:title>
      </cc:Work>
    </rdf:RDF>
  </metadata>
  <g
     inkscape:label="Layer 1"
     inkscape:groupmode="layer"
     id="layer1">
    <path
       inkscape:connector-curvature="0"
       id="path5330"
       d="m 211.6401,-269.36775 c -3.0791,-3.5615 -14.8097,-25.3877 -14.8097,-27.5551 0,-3.112 1.6559,-4.5542 5.2289,-4.5542 1.6384,0 3.4052,-0.5274 3.9261,-1.1719 0.5337,-0.6603 0.8756,-5.6737 0.7833,-11.4844 -0.2325,-14.6389 -0.7995,-13.7158 8.2273,-13.3954 l 7.6156,0.2704 0.2306,10.7813 c 0.3144,14.7017 0.409,15 4.756,15 7.7988,0 7.623,3.584 -0.9142,18.6384 -7.8305,13.8084 -8.8285,15.1116 -11.5724,15.1116 -1.1292,0 -2.6914,-0.7383 -3.4715,-1.6407 z m 297.0581,-0.2846 c -1.3462,-1.0589 -2.8816,-3.537 -3.4121,-5.5069 -0.6288,-2.3353 -0.8814,-26.4375 -0.7257,-69.2565 0.2367,-65.1209 0.2554,-65.6972 2.2123,-68.3212 l 1.9737,-2.6464 21.9326,-0.7022 c 12.0629,-0.3861 37.0516,-0.5971 55.5303,-0.4687 l 33.5976,0.2334 2.2016,2.5606 c 1.211,1.4083 2.4613,4.3615 2.7785,6.5625 0.3173,2.2011 0.4497,33.2515 0.2945,69.001 l -0.2824,64.9993 -3.0617,2.7351 -3.0617,2.7353 -53.7649,0 c -52.8134,0 -53.8084,-0.034 -56.2126,-1.9253 z m 21.8822,-18.231 0,-7.9687 -6.0938,0 -6.0937,0 0,7.9687 0,7.9688 6.0937,0 6.0938,0 0,-7.9688 z m 60.9375,0 0,-7.9687 -26.7188,0 -26.7187,0 0,7.9687 0,7.9688 26.7187,0 26.7188,0 0,-7.9688 z m 19.6875,0 0,-7.9687 -6.0938,0 -6.0937,0 0,7.9687 0,7.9688 6.0937,0 6.0938,0 0,-7.9688 z m -81.2436,-15.2344 c 0.4462,-0.7305 1.0268,-52.893 0.767,-68.9062 l -0.1484,-9.1406 -6.0938,0 -6.0937,0 -0.037,9.1406 c -0.1301,32.0359 0.1834,68.1502 0.5974,68.8201 0.6041,0.9772 10.4172,1.054 11.0086,0.086 z m 61.332,-38.9062 0.2446,-39.1406 -26.729,0 -26.729,0 -0.089,11.4843 c -0.1812,23.4312 0.2675,65.859 0.7039,66.5651 0.2482,0.4015 12.1292,0.6179 26.4024,0.4809 l 25.9512,-0.2491 0.2447,-39.1406 z m 19.6875,0 0.2446,-39.1406 -6.104,0 -6.104,0 0,38.7499 c 0,21.3126 0.2996,39.0497 0.6659,39.416 0.3662,0.3662 3.003,0.542 5.8593,0.3906 l 5.1935,-0.2753 0.2447,-39.1406 z m -80.9735,-46.6931 c 0.2404,-0.2404 0.5353,-3.8022 0.6554,-7.915 l 0.2184,-7.478 -4.1351,-0.7217 c -2.2741,-0.397 -5.2951,-0.4741 -6.713,-0.1715 l -2.5781,0.5501 0,8.4723 0,8.4722 6.0577,-0.3858 c 3.3318,-0.212 6.2544,-0.5823 6.4947,-0.8226 z m 61.0413,-7.4475 0,-7.9688 -25.7812,-0.5275 c -14.1797,-0.2902 -26.3329,-0.3412 -27.0071,-0.1134 -0.9469,0.3199 -1.0797,2.1453 -0.5835,8.0275 0.3533,4.1874 0.7939,7.8807 0.9792,8.2074 0.1855,0.3267 12.0496,0.5377 26.3649,0.4688 l 26.0277,-0.1253 0,-7.9687 z m 19.6875,0 0,-7.9688 -5.625,0 -5.625,0 -0.2784,6.9435 c -0.3814,9.5126 -0.3163,9.6113 6.1264,9.2756 l 5.402,-0.2816 0,-7.9687 z m 178.2026,126.4561 -2.5189,-1.9815 0.2831,-29.1904 c 0.3282,-33.8246 0.01,-32.5062 10.289,-42.3976 10.7175,-10.3117 23.2942,-21.0652 25.7113,-21.9841 1.3889,-0.5281 19.28,-0.9025 43.124,-0.9025 33.4639,0 41.3317,0.2429 44.0015,1.3584 1.7882,0.7471 3.3426,1.4854 3.4542,1.6406 0.1117,0.1552 0.4281,14.626 0.7031,32.1572 l 0.5001,31.875 4.6875,0 4.6875,0 0.2451,-37.1419 c 0.2047,-31.0468 0.028,-37.3222 -1.0778,-38.2399 -0.7276,-0.6038 -6.062,-1.9109 -11.8543,-2.9047 -5.7922,-0.9938 -10.7917,-2.0658 -11.1097,-2.3821 -0.318,-0.3164 -0.7917,-5.1728 -1.0525,-10.792 -0.7092,-15.2813 0.8157,-14.4769 -27.4412,-14.4769 l -22.7096,0 -0.2289,12.1875 c -0.3191,16.9834 -0.1607,16.5643 -6.1291,16.2199 l -4.892,-0.2824 -0.2615,-16.875 c -0.1782,-11.4949 0.086,-17.5278 0.8284,-18.9226 2.0641,-3.8775 4.754,-4.1951 32.8338,-3.8778 l 26.5993,0.3004 5.5204,2.7938 c 3.8308,1.9387 6.5959,4.2342 9.0345,7.5 1.9327,2.5884 7.5644,8.9027 12.5148,14.0315 4.9502,5.129 9.4184,10.6134 9.9291,12.1875 0.5702,1.7578 0.8461,19.0417 0.7149,44.7895 l -0.2137,41.9272 -2.1313,2.1353 c -1.7971,1.8003 -3.4144,2.2087 -10.3125,2.604 l -8.1812,0.4687 -0.2703,8.1634 c -0.4361,13.1714 5.8479,11.9929 -63.9484,11.9929 -58.4431,0 -58.8254,-0.012 -61.3287,-1.9814 z m 114.5424,-47.003 -0.245,-37.7344 -36.7191,-0.2451 c -30.6208,-0.2045 -36.9391,-0.025 -38.0436,1.0793 -0.7285,0.7285 -2.0823,5.6904 -3.0084,11.0264 -0.9259,5.3361 -2.0472,10.4027 -2.4916,11.2593 -0.6629,1.2777 -2.6767,1.6144 -11.2166,1.875 -14.8234,0.4523 -13.9894,-1.1936 -13.9894,27.609 l 0,22.8649 52.9793,0 52.9794,0 -0.245,-37.7344 z m 187.2551,45.5512 c -5.8327,-2.997 -7.9688,-4.8417 -7.9688,-6.882 0,-0.8728 2.5643,-4.0328 5.6984,-7.0223 l 5.6984,-5.4353 6.4891,6.4394 c 3.569,3.5417 6.4891,6.8924 6.4891,7.4461 0,0.5537 -1.5998,2.5689 -3.5552,4.4783 -4.2281,4.1287 -6.3945,4.2931 -12.851,0.9758 z m -1180.781298,-6.7755 c -1.9047,-0.5255 -2.3999,-1.3255 -2.6434,-4.2703 -0.465,-5.6239 0.4698,-8.1794 2.8683,-7.8403 1.8839,0.2664 2.0166,-0.058 1.7637,-4.314 -0.1808,-3.0406 -0.8578,-5.108 -1.9956,-6.0937 -0.9471,-0.8204 -1.9975,-3.253 -2.3342,-5.4055 -0.6921,-4.4238 0.1333,-5.255 6.3832,-6.4275 4.5988,-0.8627 11.164,1.5861 13.4025,4.9991 1.2727,1.9405 1.7111,4.8092 1.8826,12.3179 0.2518,11.0299 -0.7307,14.1171 -5.234,16.4459 -2.81,1.4531 -9.8884,1.7487 -14.0931,0.5884 z m 1195.060498,-10.1987 c -5.0176,-5.0366 -9.123,-9.649 -9.123,-10.2497 0,-0.6009 1.8274,-2.5898 4.0608,-4.4199 8.1812,-6.7038 11.5733,-16.4575 12.9065,-37.1105 0.582,-9.0171 1.4108,-15.2534 2.1841,-16.4342 0.6855,-1.0467 14.3726,-14.7577 30.4156,-30.4688 19.2613,-18.8628 30.0474,-28.767 31.7543,-29.158 4.2779,-0.9801 51.6347,-0.9084 52.245,0.079 0.3035,0.4911 0.551,14.7152 0.5497,31.609 l 0,30.716 -27.4476,27.5153 c -15.0961,15.1334 -28.5023,28.0617 -29.7913,28.7297 -1.3514,0.7003 -7.5039,1.4544 -14.5313,1.7812 -19.9082,0.9258 -31.2388,4.6473 -37.5319,12.3272 -1.9113,2.3326 -4.1706,4.2411 -5.0205,4.2411 -0.8499,0 -5.6506,-4.1209 -10.6683,-9.1574 z m -1490.0775,7.216 c -7.0023,-2.0944 -11.4567,-10.1245 -9.5677,-17.2478 3.2676,-12.3215 19.564,-14.8281 26.1522,-4.0225 6.6259,10.8672 -4.3408,24.9325 -16.5845,21.2703 z m 34.9641,-7.9711 c -1.0909,-2.8429 -0.6076,-11.391 0.7057,-12.4809 0.9239,-0.7668 15.268,-0.9934 51.7969,-0.818 l 50.519,0.2426 0,7.0313 0,7.0312 -51.2248,0.2424 c -46.1025,0.218 -51.2819,0.094 -51.7968,-1.2486 z m 295.373302,0.8579 c -0.3481,-0.3481 -0.6329,-3.4706 -0.6329,-6.9389 0,-4.8853 0.334,-6.4342 1.4829,-6.875 0.8156,-0.313 23.7561,-0.569 50.9789004,-0.569 41.4931996,0 49.6737996,0.2141 50.5951996,1.3244 0.6611,0.7965 0.9871,3.6924 0.8179,7.2656 l -0.2812,5.9412 -51.1638996,0.2424 c -28.1402004,0.1332 -51.4488004,-0.042 -51.7969004,-0.3907 z m 301.636398,-0.645 c -0.27,-0.7036 -0.3637,-3.977 -0.2082,-7.2741 l 0.2826,-5.9951 46.4063,-0.2598 c 25.5234,-0.1427 47.3736,-0.024 48.5561,0.2624 2.0284,0.4927 2.1343,0.9046 1.875,7.2911 l -0.2749,6.7688 -48.073,0.2429 c -39.9093,0.2017 -48.1564,0.025 -48.5639,-1.0362 z m -332.972498,-37.9137 c -6.0213,-0.1872 -8.6718,-0.617 -8.6716,-1.4063 2e-4,-0.6252 2.732,-5.518 6.0708,-10.8728 3.3387,-5.3549 5.8473,-10.0973 5.5745,-10.5385 -0.2727,-0.4413 -2.0245,-0.1637 -3.8927,0.6169 -3.6043,1.506 -4.8945,0.8536 -4.926,-2.4907 -0.01,-0.8379 -0.2636,-2.7699 -0.5683,-4.2932 -0.5154,-2.5769 -0.2684,-2.8789 3.547,-4.3359 13.7401,-5.2475 23.2459,4.7452 16.2144,17.0451 -1.2828,2.244 -2.3324,4.1952 -2.3324,4.336 0,0.1407 1.2878,0.5133 2.8619,0.8282 2.8036,0.5608 2.8562,0.673 2.5781,5.5078 l -0.2838,4.9354 -3.75,0.4688 c -2.0625,0.2578 -7.6523,0.3474 -12.4219,0.1992 z m -304.069602,-5.5899 c -6.4774,-6.0521 -6.68,-14.5316 -0.4949,-20.7166 2.8757,-2.8758 3.9927,-3.3421 8.7356,-3.6468 4.2767,-0.2747 6.091,0.06 8.4937,1.5688 9.0578,5.6862 9.0578,18.9178 0,24.4403 -2.0289,1.2371 -4.7212,1.8642 -8.0136,1.8665 -4.4378,0 -5.353,-0.3655 -8.7208,-3.5122 z m 40.4004,-4.4499 c -1.6468,-1.9843 -0.7161,-10.7566 1.2974,-12.2289 1.1642,-0.8514 13.8436,-1.1013 51.4506,-1.0145 l 49.9056,0.1152 0,7.0313 0,7.0312 -50.7379,0.2424 c -44.3601,0.2119 -50.886,0.064 -51.9157,-1.1767 z m 294.997402,0.778 c -0.3438,-0.3436 -0.625,-3.4626 -0.625,-6.9309 0,-4.8853 0.334,-6.4342 1.4829,-6.875 0.8156,-0.313 23.7234,-0.569 50.9062004,-0.569 37.1903996,0 49.7017996,0.2784 50.5483996,1.125 0.6187,0.6187 1.125,3.4875 1.125,6.375 0,2.8875 -0.5063,5.7562 -1.125,6.375 -0.8471,0.847 -13.5487,1.125 -51.4062996,1.125 -27.6547004,0 -50.5625004,-0.2813 -50.9062004,-0.6251 z m 301.883398,0.01 c -0.3484,-0.3493 -0.6334,-3.4887 -0.6334,-6.9774 0,-5.231 0.2876,-6.4283 1.6406,-6.8288 0.9023,-0.2672 22.4369,-0.4433 47.8546,-0.3915 52.7932,0.1077 48.3239,-0.7315 47.8164,8.9785 l -0.2804,5.3661 -47.8822,0.2428 c -26.3352,0.1335 -48.1672,-0.042 -48.5156,-0.3906 z m -38.8366,-20.6302 c -0.8448,-0.3415 -1.1718,-3.5697 -1.1718,-11.5686 0,-6.1024 -0.2561,-11.7626 -0.5691,-12.5782 -0.3223,-0.84 -1.6545,-1.4829 -3.0726,-1.4829 -3.4835,0 -6.6708,-2.4725 -6.6708,-5.1747 0,-3.1627 14.0862,-27.6771 16.4062,-28.552 1.0313,-0.3888 2.7188,-0.3217 3.75,0.149 2.3039,1.0519 16.4063,25.4764 16.4063,28.4149 0,2.7493 -2.0635,4.399 -6.3773,5.0986 l -3.4665,0.5621 -0.2639,12.1358 c -0.1797,8.2658 -0.6281,12.3672 -1.4062,12.8617 -1.2476,0.7927 -11.6762,0.8956 -13.5643,0.1337 z m 588.3465,-2.8535 c -3.0287,-3.4607 -9.3349,-16.2176 -9.0405,-18.2877 0.2187,-1.5374 1.0879,-2.2668 3.1159,-2.6151 l 2.8125,-0.483 0.2588,-14.2886 0.2588,-14.2887 6.5255,0 6.5255,0 1.3231,-3.1668 c 0.7278,-1.7418 1.8049,-3.4645 2.3936,-3.8284 1.4275,-0.8822 18.6648,8.725 19.9444,11.116 0.8468,1.5822 0.5498,2.256 -1.882,4.2695 -4.7522,3.935 -16.5489,9.8214 -18.3204,9.1416 -0.8781,-0.337 -1.8517,-1.8882 -2.1635,-3.4473 -0.3118,-1.5591 -1.147,-2.8346 -1.856,-2.8346 -0.9986,0 -1.289,1.9079 -1.289,8.4669 0,7.2456 0.2366,8.5401 1.6406,8.9739 5.9931,1.8519 5.9838,3.6259 -0.073,13.9654 -5.195,8.8678 -7.4134,10.4611 -10.1739,7.3069 z m -883.430698,-16.223 c -0.3499,-0.5661 -0.3357,-5.4365 0.031,-10.8232 l 0.6676,-9.794 -3.3933,-1.4178 c -3.0524,-1.2759 -3.3934,-1.7751 -3.3934,-4.9683 0,-1.9524 0.5063,-4.0562 1.125,-4.6749 1.6366,-1.6366 16.1395,-1.5087 17.5198,0.1545 0.7188,0.866 0.9831,6.242 0.8179,16.6406 l -0.2439,15.3611 -6.2475,0.2754 c -3.8154,0.1682 -6.4951,-0.1254 -6.8836,-0.754 z m -300.931402,-2.6719 c -3.9581,-2.4449 -5.7617,-4.7504 -6.8498,-8.7565 -2.5385,-9.346 4.2115,-17.9848 14.0527,-17.9848 10.2126,0 17.0945,11.7291 12.3021,20.9669 -3.5995,6.9385 -13.0777,9.7445 -19.505,5.7744 z m 38.1348,-5.9647 c -1.2913,-1.2913 -1.5015,-11.6219 -0.2522,-12.394 0.4683,-0.2894 23.7769,-0.6308 51.7969,-0.7585 l 50.9455,-0.2323 0,7.0313 0,7.0312 -50.6934,0.2129 c -37.8751,0.159 -50.9724,-0.066 -51.7968,-0.8906 z m 294.600002,-0.1241 c -0.2681,-0.6989 -0.3604,-3.9685 -0.2049,-7.2656 l 0.2826,-5.9951 51.5625004,0 51.5624996,0 0.2812,5.9412 c 0.1692,3.5732 -0.1568,6.4692 -0.8179,7.2657 -1.6055,1.9345 -101.9241,1.9871 -102.666,0.053 z m 301.877198,0.01 c -0.2694,-0.702 -0.3626,-3.9742 -0.2071,-7.2714 l 0.2826,-5.9987 48.2813,0.2627 48.2812,0.2626 0.2806,6.2159 c 0.196,4.3411 -0.087,6.4434 -0.9375,6.9699 -0.6699,0.4148 -22.4296,0.7715 -48.3547,0.7929 -38.9286,0.032 -47.2219,-0.1836 -47.6264,-1.2376 z m -624.7682,-179.61772 c -6.6586,-1.34362 -12.039,-5.56875 -15.5961,-12.24731 -1.6516,-3.10088 -1.7477,-6.50288 -1.7477,-61.875 0,-58.50413 0,-58.59966 2.0542,-62.43253 2.57,-4.80281 7.4772,-9.17156 12.1623,-10.82756 2.8761,-1.01663 15.0454,-1.27116 60.7835,-1.27116 l 57.1875,0 4.4312,2.18241 c 4.8383,2.38284 8.7398,6.44325 10.7109,11.14687 1.0148,2.42166 1.2642,14.55122 1.2642,61.49316 l 0,58.47637 -2.1808,4.13185 c -2.8349,5.37103 -8.699,9.78975 -14.7001,11.07675 -5.3449,1.14628 -108.7577,1.27837 -114.3691,0.14615 z m 76.4062,-31.93481 0,-5.15625 -36.0937,0 -36.0938,0 -0.2935,4.09162 c -0.519,7.23488 -3.3225,6.7396 36.5965,6.46641 l 35.8845,-0.24553 0,-5.15625 z m 33.4885,-26.95313 c 0.2178,-2.44921 0.2138,-4.98393 -0.01,-5.63278 -0.3202,-0.9329 -11.4127,-1.12893 -53.036,-0.9375 l -52.6316,0.24216 -0.2935,4.09162 c -0.521,7.26366 -5.0806,6.68963 53.1385,6.68963 l 52.435,0 0.396,-4.45313 z m -33.4885,-29.29687 0,-5.15625 -36.0937,0 -36.0938,0 -0.2935,4.09162 c -0.519,7.23488 -3.3225,6.7396 36.5965,6.46641 l 35.8845,-0.24553 0,-5.15625 z m 33.2813,-28.13278 0,-5.63288 -52.7344,0.24225 -52.7344,0.24216 -0.2935,4.09162 c -0.5211,7.26394 -5.091,6.68963 53.2328,6.68963 l 52.5295,0 0,-5.63278 z m 185.625002,116.33503 c -8.232,-1.70484 -15.1786,-8.43534 -16.8971,-16.37128 -0.715102,-3.30253 -0.946902,-22.19925 -0.743002,-60.58097 0.292602,-55.08122 0.321702,-55.82831 2.319802,-59.53125 2.5854,-4.79128 6.3589,-8.35941 11.1015,-10.49719 3.4463,-1.55343 8.0709,-1.71337 57.1015,-1.97494 33.1920004,-0.17699 55.6779,0.0778 59.508,0.67388 8.0936,1.26009 12.8887,4.57903 16.2811,11.26903 l 2.5782,5.08416 0,57.14503 c 0,40.10606 -0.3191,58.20994 -1.0701,60.71662 -1.5002,5.0071 -5.6564,9.6915 -10.8819,12.26485 l -4.4543,2.19356 -55.7812,0.144 c -30.6797,0.0787 -57.2579,-0.16181 -59.0625,-0.5355 z m 109.6875,-31.95225 0,-5.625 -36.0937996,0 -36.0937004,0 0,5.625 0,5.625 36.0937004,0 36.0937996,0 0,-5.625 z m 0,-28.125 0,-5.625 -52.9688,0 -52.9687,0 0,5.625 0,5.625 52.9687,0 52.9688,0 0,-5.625 z m 0,-28.125 0,-5.625 -36.0937996,0 -36.0937004,0 0,5.625 0,5.625 36.0937004,0 36.0937996,0 0,-5.625 z m 0,-28.125 0,-5.625 -52.9688,0 -52.9687,0 0,5.625 0,5.625 52.9687,0 52.9688,0 0,-5.625 z M 212.7679,-563.91727 c -4.5443,-0.91697 -8.3758,-3.09759 -11.9133,-6.78019 -5.9614,-6.20596 -5.8992,-5.4959 -5.8992,-67.34212 0,-61.84584 -0.062,-61.13381 5.8992,-67.34428 1.6539,-1.72285 4.6945,-4.04475 6.757,-5.15972 3.7031,-2.00194 4.4328,-2.03081 58.3531,-2.31028 35.673,-0.18497 56.4742,0.0619 60,0.7109 7.0371,1.296 12.1959,5.06054 15.475,11.29266 l 2.5782,4.89984 0,57.83382 0,57.8339 -2.4704,4.95741 c -2.9737,5.96728 -8.0158,9.89053 -14.4983,11.28075 -5.2628,1.12866 -108.7473,1.24397 -114.2813,0.12731 z m 109.6875,-31.94259 0,-5.63288 -52.7344,0.24225 -52.7344,0.24216 -0.2935,4.09162 c -0.5211,7.26394 -5.091,6.68963 53.2328,6.68963 l 52.5295,0 0,-5.63278 z m 0,-28.11722 0,-5.625 -52.9688,0 -52.9687,0 0,5.625 0,5.625 52.9687,0 52.9688,0 0,-5.625 z m 0,-28.13278 0,-5.63288 -52.7344,0.24225 -52.7344,0.24216 -0.2935,4.09162 c -0.5211,7.26394 -5.091,6.68963 53.2328,6.68963 l 52.5295,0 0,-5.63278 z m 0,-28.11722 0,-5.625 -52.9688,0 -52.9687,0 0,5.625 0,5.625 52.9687,0 52.9688,0 0,-5.625 z m 184.2205,116.12212 c -5.3277,-1.24659 -10.495,-5.14256 -13.4204,-10.11881 l -2.5189,-4.28456 0,-59.53125 c 0,-53.66147 0.1532,-59.81053 1.5535,-62.36325 2.1557,-3.92944 6.1745,-7.77084 10.6217,-10.15284 3.7335,-1.99979 4.2069,-2.01516 61.8873,-2.01516 l 58.125,0 4.9381,2.73591 c 5.7786,3.20165 10.1723,9.16509 11.0061,14.93784 0.3088,2.13881 0.4336,29.20125 0.2774,60.13875 l -0.2841,56.25 -2.5189,4.28456 c -3.0075,5.11575 -8.1157,8.85872 -13.8873,10.17572 -5.365,1.22419 -110.5252,1.17253 -115.7795,-0.0572 z m 94.217,-31.74712 0,-5.625 -36.0938,0 -36.0937,0 0,5.625 0,5.625 36.0937,0 36.0938,0 0,-5.625 z m 16.875,-28.125 0,-5.625 -52.9688,0 -52.9687,0 0,5.625 0,5.625 52.9687,0 52.9688,0 0,-5.625 z m -16.875,-28.125 0,-5.625 -36.0938,0 -36.0937,0 0,5.625 0,5.625 36.0937,0 36.0938,0 0,-5.625 z m 16.875,-28.125 0,-5.625 -52.9688,0 -52.9687,0 0,5.625 0,5.625 52.9687,0 52.9688,0 0,-5.625 z m 184.3757,115.86412 c -5.592,-1.52878 -8.7066,-3.78018 -12.3445,-8.92321 l -2.8125,-3.97622 -0.2827,-58.74797 c -0.1991,-41.3731 0.028,-59.814 0.7674,-62.35256 1.321,-4.53441 7.9011,-11.21072 12.7294,-12.91538 5.3371,-1.88428 115.369,-1.90387 120.6945,-0.0216 4.685,1.656 9.5922,6.02475 12.1622,10.82756 2.051,3.83288 2.0542,3.92841 2.0542,62.43253 0,55.37213 -0.096,58.77413 -1.7477,61.875 -2.446,4.59253 -6.0518,8.265 -10.4398,10.63275 -3.7107,2.00232 -4.3387,2.02547 -60,2.2155 -44.1862,0.15085 -57.2216,-0.0741 -60.7805,-1.04662 z m 47.6555,-31.48912 0,-5.15625 -21.5625,0 -21.5625,0 -0.2935,4.09162 c -0.5103,7.11375 -1.7372,6.75394 22.0677,6.47288 l 21.3508,-0.252 0,-5.15625 z m 64.6875,0 0,-5.15625 -21.5625,0 -21.5625,0 -0.2935,4.09162 c -0.5103,7.11375 -1.7372,6.75394 22.0677,6.47288 l 21.3508,-0.252 0,-5.15625 z m -64.4063,-27.89063 -0.2812,-5.39062 -21.5625,0 -21.5625,0 -0.2812,5.39062 -0.2811,5.39063 22.1248,0 22.1248,0 -0.2811,-5.39063 z m 64.6875,0 -0.2812,-5.39062 -21.5625,0 -21.5625,0 -0.2935,4.09162 c -0.5062,7.05563 -1.7287,6.68963 22.3421,6.68963 l 21.6387,0 -0.2811,-5.39063 z m -64.9687,-28.35937 0,-5.15625 -21.5625,0 -21.5625,0 -0.2935,4.09162 c -0.5103,7.11375 -1.7372,6.75394 22.0677,6.47288 l 21.3508,-0.252 0,-5.15625 z m 64.6875,0 0,-5.15625 -21.5625,0 -21.5625,0 -0.2935,4.09162 c -0.5103,7.11375 -1.7372,6.75394 22.0677,6.47288 l 21.3508,-0.252 0,-5.15625 z m -64.2187,-28.125 0,-5.625 -22.0313,0 -22.0312,0 0,4.99997 c 0,2.75006 0.2812,5.28131 0.625,5.625 0.3437,0.34378 10.2577,0.62503 22.0312,0.62503 l 21.4063,0 0,-5.625 z m 64.6875,-0.0169 0,-5.64234 -21.7969,0.25172 -21.7969,0.25162 -0.2935,4.09163 c -0.5061,7.05497 -1.7236,6.68962 22.2953,6.68962 l 21.592,0 0,-5.64225 z m 207.9789,115.95516 c -9.7856,-3.65812 -17.9433,-11.06091 -22.2035,-20.14875 -2.0876,-4.45322 -2.4941,-6.61931 -2.4941,-13.28916 0,-7.00096 0.3231,-8.55178 2.661,-12.7694 1.8321,-3.30497 12.785,-14.86481 35.1563,-37.10428 27.399,-27.23756 33.1003,-32.47603 36.3539,-33.40247 8.1425,-2.31872 14.0217,-0.61472 20.6664,5.98969 6.7248,6.684 8.5931,14.17612 5.4285,21.76968 -1.6986,4.07616 -50.6078,53.64178 -52.9313,53.64178 -2.103,0 -11.2411,-9.55612 -11.2411,-11.75521 0,-1.17113 8.6221,-10.46954 23.4375,-25.27604 12.8906,-12.88284 23.4375,-23.96718 23.4375,-24.63178 0,-0.66459 -0.6746,-1.46718 -1.4992,-1.78359 -1.0819,-0.41522 -9.9565,7.87884 -31.8756,29.79019 -24.1204,24.11175 -30.493,30.98765 -30.943,33.38644 -1.3951,7.43643 7.6403,17.145 15.9563,17.145 3.7084,0 4.3491,-0.576 38.3223,-34.45313 19.1529,-19.09884 35.4507,-36.12431 36.5702,-38.20312 2.7051,-5.0236 2.8517,-16.26375 0.275,-21.09375 -7.1762,-13.45182 -21.3743,-19.4055 -33.3685,-13.99238 -3.0853,1.39247 -11.7925,9.44709 -32.4084,29.97947 -15.5043,15.44147 -28.7131,28.07541 -29.353,28.07541 -2.0838,0 -11.3636,-9.52744 -11.3636,-11.66682 0,-2.95087 56.934,-59.23715 63.3515,-62.63062 16.8873,-8.92997 35.7006,-6.28135 49.7475,7.0035 16.4299,15.53878 19.4527,38.32678 7.4651,56.27709 -4.97,7.44206 -73.2157,75.03891 -78.3766,77.63147 -5.2298,2.62716 -15.7398,3.39159 -20.7711,1.51078 z M -383.0134,-860.83363 c -4.1425,-2.1964 -7.8751,-5.93294 -10.164,-10.1747 -2.0114,-3.72761 -2.0235,-4.09976 -2.0235,-62.34375 0,-58.24395 0.012,-58.61615 2.0235,-62.34375 2.5929,-4.80517 6.419,-8.41717 10.8976,-10.28807 3.1061,-1.2975 10.7764,-1.4767 61.8364,-1.4448 57.0642,0.036 58.3751,0.077 62.3145,1.9845 4.7359,2.2926 9.3117,7.48357 10.6591,12.09217 0.6227,2.13 0.8601,23.86337 0.6766,61.94409 l -0.2827,58.6629 -2.5861,3.90722 c -1.4224,2.14897 -4.3444,5.07099 -6.4934,6.49336 l -3.9073,2.58613 -60.0691,0.20796 c -53.3736,0.18477 -60.3826,0.0417 -62.8816,-1.28326 z m 85.8136,-21.74327 c 6.8919,-2.21351 11.7796,-6.22687 14.5974,-11.98623 2.3424,-4.78777 2.6693,-6.50226 2.6546,-13.92145 -0.014,-7.10395 -0.4065,-9.30542 -2.4462,-13.7237 -1.3821,-2.99357 -3.8919,-6.42926 -5.8213,-7.96875 -1.8655,-1.48847 -3.3918,-3.05085 -3.3918,-3.47197 0,-0.42113 1.0024,-2.10863 2.2277,-3.75 4.2619,-5.70945 5.9586,-15.12321 4.3372,-24.06469 -1.9142,-10.55628 -6.7494,-17.27502 -15.5697,-21.63513 -4.4368,-2.19323 -5.3938,-2.27885 -28.8646,-2.58211 -19.4053,-0.25074 -24.4338,-0.0642 -25.0638,0.92947 -0.4335,0.68371 -0.7946,23.83454 -0.8025,51.44626 -0.011,38.91511 0.2491,50.47218 1.1575,51.39978 1.5178,1.54985 51.9184,0.95595 56.9855,-0.67148 z m -36.3605,-18.58357 c -0.8403,-0.33909 -1.1718,-3.46659 -1.1718,-11.05556 l 0,-10.58271 10.4838,-0.43195 c 5.7662,-0.23757 12.1878,-0.12037 14.2703,0.26045 11.0476,2.02019 12.3283,16.7546 1.8373,21.13802 -3.0028,1.25465 -22.6859,1.77482 -25.4196,0.67175 z m -0.9672,-53.51974 0.2641,-11.01562 11.4114,0 c 10.808,0 11.5401,0.12098 13.8439,2.2876 5.2318,4.92024 5.1645,13.68374 -0.1371,17.85399 -2.1151,1.66374 -3.7918,1.88966 -14.0244,1.88966 l -11.622,0 0.2641,-11.01563 z m 246.219502,93.50109 c -4.7703,-2.52036 -9.7866,-8.70544 -11.0142,-13.58047 -1.445602,-5.74132 -1.434902,-111.48614 0.012,-117.23204 0.6113,-2.4277 2.5687,-5.8863 4.7047,-8.31297 6.5735,-7.4678 3.8452,-7.2018 70.809,-6.9043 l 59.2167,0.2631 4.0645,2.8183 c 2.6617,1.8456 4.9544,4.57297 6.6427,7.90247 l 2.5781,5.0842 0,57.14497 c 0,40.10601 -0.3191,58.20995 -1.0701,60.71664 -1.4681,4.90007 -5.6376,9.68883 -10.4748,12.03046 -3.9766,1.92506 -5.0749,1.95846 -63.048,1.91774 -56.4052,-0.0396 -59.1513,-0.12091 -62.4204,-1.8481 z m 79.9054004,-26.27142 c 0.8171,-3.37135 1.7398,-7.69556 2.0504,-9.60938 l 0.5647,-3.47966 -6.7380004,-0.0143 c -3.7058,-0.008 -7.3332,-0.39127 -8.0609,-0.85189 -1.1076,-0.70114 -0.3584,-5.69785 4.6013,-30.68878 3.2584,-16.4182 6.2691004,-30.80049 6.6905004,-31.96065 0.7126,-1.96212 1.3227,-2.10937 8.74009996,-2.10937 7.49940004,0 8.00330004,-0.12557 8.46360004,-2.10938 1.0929,-4.70994 3.2962996,-15.88402 3.2962996,-16.71652 0,-0.54758 -10.1893996,-0.79488 -26.445,-0.64183 l -26.445,0.24897 -1.6371,7.96875 c -2.4711,12.02794 -2.8303,11.25 5.1935,11.25 4.4286,0 7.2701,0.42605 7.8995,1.18442 0.7033,0.84749 -0.7975,9.89371 -5.2759,31.80017 -3.4423,16.83865 -6.6085,30.96582 -7.036,31.39369 -0.4275,0.42789 -4.2107,0.98891 -8.407,1.24672 l -7.6298,0.46875 -1.6327,7.03125 c -0.898,3.86719 -1.65,8.19808 -1.6711,9.62421 l -0.038,2.59295 26.0156,-0.2492 26.0156004,-0.24921 1.4858,-6.12971 z M 207.1429,-861.11448 c -4.7736,-2.56652 -9.0869,-7.43526 -10.7414,-12.12458 -2.169,-6.14763 -2.169,-114.07841 0,-120.22607 1.6983,-4.8136 6.0442,-9.63397 10.978,-12.17677 3.3858,-1.745 5.7668,-1.8035 63.4239,-1.5585 l 59.9061,0.2546 4.076,2.9416 c 2.4539,1.7709 5.1022,4.89157 6.6542,7.84137 l 2.5782,4.8999 0,57.91085 0,57.91089 -2.6188,5.01292 c -1.6344,3.12865 -4.1313,6.07611 -6.6427,7.84143 l -4.0239,2.82851 -60.1542,0.20401 c -57.3236,0.19441 -60.3086,0.12099 -63.4354,-1.56016 z m 106.4062,-20.6751 0,-4.21875 -44.5312,0 -44.5313,0 -0.3004,3.13612 c -0.593,6.19018 -3.6602,5.81258 45.0401,5.54495 l 44.3228,-0.24357 0,-4.21875 z m -28.445,-17.52333 c 10.0868,-4.72307 16.307,-12.57096 18.6356,-23.51223 0.5556,-2.61025 0.8389,-16.96202 0.689,-34.90194 l -0.2546,-30.46875 -8.9062,0 -8.9063,0 -0.4687,31.875 c -0.3415,23.21961 -0.7904,32.43743 -1.6533,33.94627 -0.6514,1.1392 -2.7142,3.23811 -4.584,4.66425 -2.7723,2.11453 -4.5431,2.64735 -9.5968,2.88765 -7.3961,0.35167 -12.4216,-2.00561 -15.5199,-7.27995 -1.8125,-3.08531 -1.9552,-5.1514 -2.396,-34.68697 l -0.4688,-31.40625 -8.9062,0 -8.9063,0 -0.2786,29.53125 c -0.1826,19.36138 0.09,31.45761 0.7903,35.125 3.4039,17.81463 16.8003,27.99959 36.0508,27.40866 7.1628,-0.21987 9.3806,-0.7006 14.68,-3.18199 z m 219.2263,39.38678 c -3.7397,-1.35467 -8.8063,-5.75108 -11.0749,-9.61016 l -2.5189,-4.28454 -0.2841,-56.25 c -0.1562,-30.9375 -0.031,-57.99992 0.2774,-60.1387 0.8146,-5.6406 5.2383,-11.75027 10.6342,-14.68707 l 4.5661,-2.4852 58.7699,-0.054 58.7699,-0.054 4.6651,2.539 c 5.4978,2.9923 9.912,9.05487 10.7332,14.74107 0.3088,2.13874 0.4336,29.20116 0.2774,60.13866 l -0.2841,56.25 -2.5189,4.28455 c -1.3853,2.3565 -4.3021,5.52056 -6.4817,7.03125 l -3.9629,2.7467 -60.0808,0.17081 c -33.0443,0.0939 -60.7135,-0.0584 -61.4869,-0.33861 z m 64.1175,-19.08457 c 3.5537,-0.51369 8.2685,-1.73336 10.4772,-2.71039 5.5329,-2.44744 12.2794,-8.90784 15.2073,-14.5621 2.0895,-4.03572 2.4535,-5.95622 2.4942,-13.16264 l 0.048,-8.4375 -11.133,-0.26514 -11.133,-0.26515 0.6839,2.14015 c 2.3907,7.48156 1.2184,11.36039 -4.4845,14.83764 -5.9055,3.60079 -21.6831,1.99519 -31.758,-3.23182 -2.4626,-1.27764 -4.6571,-2.03165 -4.8767,-1.67558 -0.2196,0.35607 -0.8931,4.78526 -1.4966,9.84264 -0.8464,7.09284 -0.842,9.50288 0.02,10.54075 1.9687,2.37211 19.3548,7.19296 28.0848,7.78737 0.7735,0.0527 4.3138,-0.32454 7.8676,-0.83823 z m 52.6012,-56.21638 0,-4.21875 -22.5,-0.25057 -22.5,-0.25056 -8.308,-3.44205 c -8.7123,-3.60956 -13.6238,-7.46769 -13.869,-10.89456 -0.4979,-6.95688 1.6303,-11.14608 6.6912,-13.17106 5.0099,-2.00455 8.3966,-1.92097 17.7225,0.43735 4.2625,1.07789 7.9691,1.74065 8.237,1.47281 0.2678,-0.26784 1.0135,-4.31682 1.6571,-8.99774 0.8451,-6.1465 0.8853,-8.74473 0.1447,-9.35296 -2.6792,-2.20024 -12.7425,-4.22501 -21.1817,-4.26182 -11.4591,-0.05 -17.046,1.82318 -23.7717,7.96996 -7.1394,6.52508 -10.2634,13.79213 -10.2427,23.82656 0.01,4.89529 0.5524,8.7621 1.5462,11.02515 0.8419,1.91704 1.5307,3.90996 1.5307,4.42872 0,0.58004 -5.5047,1.04282 -14.2969,1.20197 l -14.2969,0.2588 -0.3005,3.13613 c -0.596,6.2221 -4.8646,5.80865 57.227,5.54308 l 56.511,-0.24171 0,-4.21875 z m 175.9722,73.94232 c -2.2152,-1.09654 -5.0498,-3.33375 -6.299,-4.9716 -5.2849,-6.92877 -5.1419,-5.05402 -5.1419,-67.4273 l 0,-57.57927 2.5781,-4.8999 c 1.5521,-2.9498 4.2003,-6.07047 6.6542,-7.84137 l 4.076,-2.9416 59.9061,-0.2546 c 57.6571,-0.245 60.0381,-0.1865 63.4239,1.5585 4.9338,2.5428 9.2797,7.36317 10.9781,12.17677 2.092,5.92949 2.1766,114.05698 0.094,119.9602 -1.9796,5.61072 -4.861,9.03978 -9.9009,11.78285 l -4.4693,2.4325 -58.9356,-7.4e-4 c -58.2169,-7.3e-4 -58.9848,-0.025 -62.9634,-1.99444 z m 91.2153,-20.94183 0,-3.71826 -7.5,-2.90406 -7.5,-2.90406 -0.2447,-39.72223 c -0.1919,-31.15542 0.01,-39.88408 0.9375,-40.4727 2.0881,-1.32555 20.1189,-0.9273 21.5215,0.47534 0.69,0.68999 2.2615,4.80327 3.4921,9.14062 2.7025,9.52438 3.3186,10.40516 7.0262,10.04336 l 2.8924,-0.28225 0,-17.8125 0,-17.8125 -48.75,0 -48.75,0 0,17.8125 0,17.8125 2.9846,0.28912 c 3.5851,0.34731 4.009,-0.3102 6.8333,-10.60162 1.132,-4.125 2.7363,-8.02734 3.565,-8.67188 2.0233,-1.57364 20.02,-1.61271 21.5859,-0.0469 1.7296,1.72965 1.6061,77.93365 -0.1288,79.3734 -0.6895,0.57227 -4.17,2.21079 -7.7343,3.64118 -5.662,2.27215 -6.5191,2.93503 -6.785,5.24725 -0.6384,5.5527 -1.776,5.3509 28.6396,5.08028 l 27.9147,-0.24836 0,-3.71826 z m 196.4639,21.29638 c -1.1138,-0.90234 -2.4162,-3.32812 -2.894,-5.39062 -1.2399,-5.35162 -1.1698,-130.2897 0.076,-134.77447 1.8055,-6.5013 1.437,-6.4427 38.5244,-6.13 l 33.1424,0.2795 4.6875,2.5064 c 6.5433,3.4987 11.2032,8.10217 26.1517,25.83536 2.2467,2.66531 1.7671,3.2686 -8.4804,10.66639 l -7.8017,5.63209 -6.2498,-1.24362 c -3.4711,-0.6907 -6.5853,-1.86117 -7.0044,-2.63263 -0.415,-0.76396 -1.0268,-6.37285 -1.3594,-12.46421 -0.5309,-9.72279 -0.869,-11.38271 -2.7697,-13.59371 l -2.1651,-2.5186 -26.8102,-0.288 c -21.4152,-0.23 -26.9043,-0.041 -27.2786,0.9375 -0.2577,0.674 -0.3591,27.59269 -0.2255,59.81925 l 0.243,58.59375 15.3496,-20.625 c 8.4422,-11.34375 16.8797,-22.24373 18.75,-24.22219 1.8703,-1.97845 15.1217,-12.24811 29.4478,-22.82146 29.8592,-22.03777 26.3575,-20.98762 35.5076,-10.64834 5.5164,6.23329 14.8513,20.97223 14.8513,23.44887 0,0.86489 -0.9492,2.42492 -2.1094,3.46674 -5.0612,4.54493 -49.274,36.2854 -53.5919,38.4737 -2.6221,1.32888 -13.8378,5.54403 -24.9237,9.36698 -11.0859,3.82295 -20.5618,7.353 -21.0576,7.84456 -0.5715,0.56676 13.1484,0.8041 37.5,0.6487 l 38.4014,-0.24506 0.4687,-13.90665 0.4688,-13.90666 5.0825,-3.6275 c 2.7954,-1.99513 5.4321,-3.41146 5.8594,-3.14739 0.4272,0.26406 0.7768,9.67486 0.7768,20.91288 0,20.38948 -0.01,20.43803 -2.299,22.91343 l -2.299,2.48064 -51.9722,0 c -48.1007,0 -52.1229,-0.12221 -53.9972,-1.64062 z m 53.8023,-33.18037 c 7.4279,-2.98746 8.1635,-4.3771 5.2026,-9.8286 -2.7894,-5.13581 -6.7078,-7.85829 -9.1507,-6.35793 -2.2003,1.35135 -19.8615,23.06429 -19.8896,24.45247 -0.021,1.00887 5.7672,-0.99801 23.8377,-8.26594 z m 77.5809,-44.94412 c -4.2095,-7.61793 -11.2414,-17.5178 -16.2333,-22.85412 -3.036,-3.24552 -5.52,-6.35521 -5.52,-6.91041 0,-0.5552 1.9591,-2.50535 4.3536,-4.33365 6.841,-5.22354 10.79,-4.37612 19.078,4.09391 8.2552,8.43653 12.87,19.15985 10.6902,24.84031 -0.5484,1.42915 -8.8977,8.05408 -10.1504,8.05408 -0.3416,0 -1.3398,-1.30056 -2.2181,-2.89012 z m -1588.2242,-215.7036 c -0.9392,-0.3438 -2.6097,-1.7718 -3.7122,-3.1733 l -2.0044,-2.5483 0,-68.2391 0,-68.2392 2.4552,-2.9179 2.4552,-2.9178 33.4729,0.2678 33.4729,0.2678 5.5332,2.8311 c 4.576,2.3412 8.006,5.585 19.8267,18.75 7.8614,8.7554 14.9382,17.2483 15.7262,18.8731 1.6313,3.3638 1.9465,13.9613 0.4429,14.8906 -1.8032,1.1144 -10.64,-3.1924 -12.2176,-5.9544 -1.3916,-2.4364 -2.3076,-2.7474 -14.0625,-4.7734 -6.9156,-1.192 -12.9958,-2.5622 -13.5114,-3.045 -0.5156,-0.4827 -1.1484,-5.9573 -1.4062,-12.1657 -0.4547,-10.9483 -0.548,-11.3562 -3.0992,-13.5503 l -2.6304,-2.2622 -26.6665,0 -26.6664,0 -0.1762,32.1093 c -0.097,17.6602 -0.2024,44.7657 -0.2344,60.2344 l -0.058,28.125 15.9375,0 15.9375,0 -0.1023,4.2188 c -0.056,2.3203 -0.5731,5.3789 -1.1486,6.7968 -0.9999,2.4635 -1.3499,2.5832 -7.8665,2.6913 -21.3177,0.3536 -28.1646,0.2915 -29.6972,-0.2694 z m 587.079,0.2214 c -1.1264,-0.4933 -2.4975,-1.7367 -3.0469,-2.7631 -0.6688,-1.2498 -0.9987,-17.4913 -0.9987,-49.1678 0,-45.1569 0.081,-47.4019 1.7902,-49.5148 1.7402,-2.1515 2.25,-2.2214 18.2812,-2.508 l 16.4911,-0.2948 0,-19.992 c 0,-17.6768 0.1908,-20.2276 1.6479,-22.027 1.613,-1.992 2.135,-2.0336 24.6094,-1.9647 29.2033,0.09 28.1129,-0.3327 43.0537,16.6679 l 10.463,11.9052 -0.2139,35.9569 c -0.2116,35.5643 -0.2359,35.9742 -2.2317,37.5441 -1.8164,1.4287 -5.586,1.5859 -37.7644,1.5744 -33.0392,-0.012 -35.8735,-0.1393 -37.421,-1.6847 -1.4817,-1.4797 -1.7282,-4.1757 -2.143,-23.4375 l -0.4688,-21.7655 -11.7187,0 -11.7188,0 0,40.3125 0,40.3125 27.8608,0.2483 27.8607,0.2483 0.2643,-11.0269 0.2642,-11.0269 3.9291,-0.8273 c 6.8863,-1.45 6.8522,-1.5235 6.8522,14.7512 0,12.5436 -0.2242,14.7336 -1.6936,16.5482 -1.6872,2.0836 -1.8245,2.0928 -36.7968,2.4599 -21.1608,0.2221 -35.9169,0.012 -37.1515,-0.5284 z m 99.358,-55.8344 c 1.5788,-0.6703 1.6616,-2.4338 1.3159,-28.0199 -0.2029,-15.0175 -0.6881,-28.0383 -1.0781,-28.935 -0.3901,-0.8968 -2.4588,-2.0761 -4.5972,-2.6207 -2.1384,-0.5446 -5.5755,-1.4984 -7.638,-2.1195 l -3.75,-1.1294 -0.5977,-7.3611 c -0.8729,-10.7506 -0.2784,-10.4514 -20.7621,-10.4514 l -17.0777,0 0,40.3125 0,40.3125 7.5,0.4688 c 11.1406,0.6962 44.7434,0.3675 46.6849,-0.4568 z m 205.2904,55.7693 c -12.8488,-0.781 -11.64,5.9152 -11.5567,-64.0215 0.039,-32.7961 0.3283,-60.3001 0.6429,-61.1199 1.4292,-3.7242 11.9545,-5.7829 14.4141,-2.8192 0.9286,1.119 1.0283,13.1615 0.4775,57.645 -0.6417,51.8143 -0.5746,56.2772 0.8528,56.825 0.8521,0.327 13.1628,0.2266 27.3572,-0.2231 l 25.8081,-0.8176 3.9207,-4.2514 c 2.1563,-2.3383 4.7644,-5.4101 5.7956,-6.8262 l 1.875,-2.5748 3.9363,1.9785 c 3.4687,1.7435 4.245,1.8305 6.5351,0.7325 4.9923,-2.3938 4.9687,-2.1355 4.9836,-54.3489 0.015,-53.6473 -0.4995,-49.5534 6.2307,-49.5534 3.8067,0 8.3087,2.099 9.1382,4.2607 0.3203,0.8347 0.5824,28.4096 0.5824,61.2775 l 0,59.7599 -2.4212,2.2728 -2.4211,2.2728 -44.2196,0 c -24.3207,0 -47.6898,-0.2109 -51.9316,-0.4687 z m -809.9519,-2.5782 c -1.3301,-1.4179 -3.4754,-4.1601 -4.7673,-6.0937 -1.9139,-2.8645 -2.9157,-3.5156 -5.4086,-3.5156 -3.0982,0 -5.3918,1.9513 -10.3876,8.8374 l -1.9777,2.726 -5.0536,-1.4184 -5.0536,-1.4185 0,-7.6103 c 0,-6.8694 -0.2288,-7.8403 -2.3497,-9.973 -2.2627,-2.2751 -2.572,-2.3268 -8.3497,-1.3964 -3.3,0.5315 -6.5883,0.7405 -7.3074,0.4645 -1.677,-0.6434 -5.2643,-8.6962 -4.6209,-10.3728 0.269,-0.7011 2.8336,-2.7745 5.6991,-4.6075 5.1681,-3.306 5.2099,-3.3699 5.2099,-7.9617 0,-4.6256 0,-4.6315 -5.5729,-8.2148 -3.0651,-1.9722 -5.5963,-4.2045 -5.625,-4.9607 -0.099,-2.6136 3.0007,-9.3562 4.5185,-9.8284 0.8377,-0.2605 4.0404,0.1156 7.117,0.8358 9.2119,2.1566 11.3896,-0.322 10.3865,-11.8216 l -0.6434,-7.3748 4.0503,-1.8381 c 2.2276,-1.0109 4.7907,-1.8473 5.6957,-1.8587 0.9051,-0.011 3.4363,2.2982 5.625,5.1321 3.6719,4.7545 4.2758,5.153 7.8134,5.1563 3.5769,0 4.1267,-0.3734 8.2001,-5.6188 l 4.3662,-5.6223 4.8518,1.8435 c 5.1229,1.9466 6.6041,3.3459 5.9819,5.6512 -0.2087,0.7734 -0.648,3.5298 -0.9762,6.1253 -0.5047,3.9921 -0.2791,5.1227 1.4645,7.3393 2.0492,2.6052 2.1059,2.6164 9.8901,1.968 l 7.829,-0.6521 1.8887,4.4062 c 1.0388,2.4234 1.8888,4.9363 1.8888,5.5843 0,0.6479 -2.5313,3.1438 -5.625,5.5463 -5.1955,4.0346 -5.625,4.6522 -5.625,8.0869 0,3.4793 0.3621,3.974 5.625,7.6855 3.0937,2.1818 5.6157,4.6221 5.6044,5.4229 -0.011,0.8009 -0.8536,3.2917 -1.8716,5.5352 -1.8346,4.043 -1.8862,4.0746 -5.8388,3.5761 -2.1933,-0.2766 -5.387,-0.793 -7.0971,-1.1477 -2.624,-0.5442 -3.551,-0.2244 -5.9389,2.0488 -2.7872,2.6533 -2.8201,2.7961 -2.1978,9.5283 0.7129,7.7124 0.188,8.8787 -4.9657,11.0321 -4.086,1.7072 -3.6174,1.7962 -6.4524,-1.2261 z m -3.5611,-31.2714 c 1.4947,-0.7187 3.7039,-2.7717 4.9092,-4.5622 1.7807,-2.6451 2.0741,-3.9635 1.5648,-7.0312 -1.3146,-7.9196 -5.4333,-12.0559 -13.1579,-13.2143 -4.6687,-0.7001 -6.9159,0.3411 -10.2936,4.7696 -5.1285,6.7238 -3.1263,17.5816 3.8277,20.7571 3.2584,1.488 9.24,1.1609 13.1498,-0.719 z m 248.569002,33.2246 c -0.3438,-0.3438 -0.625,-2.408 -0.625,-4.5872 0,-2.7482 0.4543,-4.1366 1.4829,-4.5313 2.1144,-0.8114 20.331,-0.6785 21.6459,0.1578 1.7129,1.0896 2.4533,5.4551 1.2929,7.6233 -0.9747,1.8212 -1.8456,1.9624 -12.111,1.9624 -6.0834,0 -11.342,-0.2813 -11.6857,-0.625 z m 34.6875,0 c -0.3438,-0.3438 -0.625,-2.408 -0.625,-4.5872 0,-2.7482 0.4543,-4.1366 1.4829004,-4.5313 0.8156,-0.313 6.0047,-0.569 11.5312,-0.569 10.8904996,0 12.2983996,0.5492 12.2983996,4.7983 0,5.441 -0.1672,5.5142 -12.6002996,5.5142 -6.3043,0 -11.7435004,-0.2813 -12.0872004,-0.625 z m 34.6419,-0.8308 c -0.9471,-2.4681 -0.6608,-6.5254 0.5456,-7.7317 0.7408,-0.7408 4.7036,-1.125 11.6039,-1.125 11.8906,0 12.8841,0.5013 12.4097,6.2627 l -0.2949,3.581 -11.8424,0.2616 c -10.1795,0.2248 -11.9237,0.05 -12.4219,-1.2486 z m 763.021498,-0.6013 c -0.288,-1.1889 -0.4073,-34.4351 -0.2654,-73.8804 l 0.2582,-71.7188 73.5938,0 73.5937,0 0,72.9251 c 0,59.8893 -0.2242,73.0637 -1.2545,73.7001 -0.6899,0.4263 -33.6877,0.8562 -73.3283,0.9554 l -72.074,0.1804 -0.5235,-2.1618 z m 136.193,-22.2427 c 0.1445,-6.9196 -0.084,-12.9281 -0.5084,-13.3522 -0.424,-0.4241 -8.0305,-0.497 -16.9033,-0.162 l -16.1322,0.6091 0,12.4789 0,12.479 11.0156,0.3161 c 6.0586,0.1739 13.5469,0.2928 16.6406,0.2641 l 5.625,-0.052 0.2627,-12.581 z m -91.2002,-0.544 0,-12.1875 -16.4062,0 -16.4063,0 -0.2657,11.1954 c -0.1461,6.1575 -0.05,11.7574 0.2135,12.4441 0.3788,0.9873 3.8695,1.195 16.6719,0.9921 l 16.1928,-0.2566 0,-12.1875 z m 45,0 0,-12.1875 -16.4062,0 -16.4063,0 -0.2657,11.1954 c -0.1461,6.1575 -0.05,11.7574 0.2135,12.4441 0.3788,0.9873 3.8695,1.195 16.6719,0.9921 l 16.1928,-0.2566 0,-12.1875 z m -45.1003,-26.3267 c 1.1351,-2.958 0.6284,-22.743 -0.6028,-23.539 -1.6766,-1.0839 -30.0009,-1.1066 -31.4063,-0.025 -1.2524,0.9637 -1.7508,23.2183 -0.5468,24.4222 0.3437,0.3437 7.6814,0.625 16.3059,0.625 13.4341,0 15.7625,-0.2125 16.25,-1.4829 z m 45.3644,-10.5727 c 0.1527,-6.7021 -0.1281,-12.0594 -0.666,-12.7076 -1.0734,-1.2934 -29.7445,-1.5271 -31.7075,-0.2585 -1.2363,0.7991 -1.7357,20.5866 -0.5944,23.5605 0.5042,1.3143 2.6087,1.4722 16.6406,1.2486 l 16.0632,-0.2561 0.2641,-11.5869 z m 44.9997,10.415 c 0.7603,-1.8515 0.7117,-22.5401 -0.055,-23.3066 -0.2727,-0.2728 -7.6032,-0.572 -16.29,-0.665 l -15.7935,-0.169 -0.2608,12.8906 -0.2608,12.8907 15.9934,0 c 14.3501,0 16.0625,-0.1686 16.667,-1.6407 z m -90.92,-36.9843 c 1.2904,-1.2905 1.5823,-22.0154 0.3376,-23.9766 -0.5768,-0.909 -4.5594,-1.1335 -16.6262,-0.9375 l -15.8677,0.2578 -0.2636,12.1141 c -0.1972,9.0619 0.039,12.3062 0.9375,12.8763 1.9938,1.2651 30.1822,0.9659 31.4824,-0.3341 z m 45.1023,-0.1787 c 0.723,-0.8711 0.9944,-5.1485 0.818,-12.8907 l -0.2641,-11.5869 -15.8677,-0.2578 c -12.0668,-0.196 -16.0494,0.029 -16.6262,0.9375 -1.2447,1.9612 -0.9528,22.6861 0.3377,23.9766 1.7248,1.7247 30.156,1.564 31.6023,-0.1787 z m 45.5539,-11.8213 0,-12.6563 -16.1719,-0.2565 -16.1718,-0.2565 0,12.5221 c 0,6.8872 0.291,12.8132 0.6468,13.169 0.3558,0.3558 7.6332,0.5316 16.1719,0.3906 l 15.525,-0.2562 0,-12.6562 z m -992.355098,97.7343 c -0.01,-0.3867 3.1779,-7.6834 7.076,-16.2148 l 7.0875,-15.5117 9.9279,-4.9374 c 5.4603,-2.7157 10.2851,-4.5803 10.7216,-4.1438 0.8685,0.8685 -9.2549,16.6908 -15.4626,24.1671 -5.1703,6.2269 -16.8631,17.3438 -18.2422,17.3438 -0.6033,0 -1.102,-0.3165 -1.1082,-0.7032 z m 1191.882098,-16.5797 c -4.6067,-2.0369 -5.4639,-4.4705 -5.4693,-15.5296 0,-5.4141 -0.1081,-14.8008 -0.2344,-20.8594 l -0.2295,-11.0156 -10.874,0 c -12.0588,0 -16.2192,-1.2085 -18.0586,-5.2456 -0.7106,-1.5595 -1.0674,-10.472 -1.0674,-26.6588 l 0,-24.3161 2.7341,-3.0616 2.7341,-3.0617 23.4059,-0.2929 c 19.0328,-0.2382 24.0259,-0.034 26.7242,1.0936 6.4139,2.6798 6.4133,2.6768 6.0723,34.9712 l -0.3052,28.9156 -3.488,10.7813 c -1.9183,5.9296 -3.9911,11.625 -4.6061,12.6562 -0.6151,1.0313 -2.0354,5.3918 -3.1562,9.6901 -2.8996,11.1197 -7.4198,14.9232 -14.1819,11.9333 z m 78.6411,-0.067 c -4.5648,-1.9833 -6.0158,-6.2793 -5.6596,-16.7552 0.16,-4.7031 0.1884,-13.5082 0.063,-19.5668 l -0.2275,-11.0156 -10.874,0 c -12.0588,0 -16.2192,-1.2085 -18.0586,-5.2456 -0.7106,-1.5594 -1.0674,-10.472 -1.0674,-26.6587 l 0,-24.3161 2.7356,-3.0617 2.7356,-3.0617 25.4663,0 25.4663,0 2.7846,3.1165 2.7846,3.1165 -0.303,29.2273 -0.3029,29.2272 -6.4019,20.0841 c -3.5211,11.0463 -6.8834,20.855 -7.4717,21.7972 -1.0205,1.634 -6.1099,4.5658 -7.7914,4.4883 -0.4377,-0.02 -2.1827,-0.6393 -3.8778,-1.3758 z m -1295.824298,-10.5742 c 0,-1.6454 15.2922,-18.4949 20.3512,-22.4237 2.9865,-2.3194 12.3909,-8.8882 20.8988,-14.5973 8.5078,-5.7092 15.7787,-10.8345 16.1575,-11.3895 1.6144,-2.3654 0.603,-11.1785 -2.2931,-19.9824 -4.3739,-13.2959 -4.2323,-20.049 0.6265,-29.8801 4.139,-8.3748 10.2781,-14.9457 17.1032,-18.3062 3.4588,-1.703 6.0505,-2.2155 11.2042,-2.2155 6.0320004,0 7.1134004,0.2961 10.77930036,2.9516 10.40560004,7.5378 11.15999964,22.0301 2.07950004,39.9495 -1.29010004,2.546 -2.14960004,4.8252 -1.91000004,5.0648 0.2396,0.2396 3.32730004,-1.0205 6.86150004,-2.8003 19.6138996,-9.8774 33.5487996,-8.1672 40.1772996,4.9308 3.8811,7.6692 -0.8526,22.314 -9.7801,30.2573 -5.5814,4.9659 -14.5732,9.1652 -21.059,9.8346 -3.9918,0.4119 -8.0765996,-0.1744 -17.9681996,-2.5791 -18.3922004,-4.4713 -18.3448004,-4.4827 -52.4474004,12.5582 -23.9824,11.9838 -39.3959,19.3639 -40.4422,19.3639 -0.1865,0 -0.339,-0.3315 -0.339,-0.7366 z m 114.5197,-42.5902 c 5.8606,-1.6744 12.2215,-7.1869 15.2239,-13.1932 2.2949,-4.5912 2.5492,-5.7844 1.6521,-7.7532 -4.0646,-8.921 -25.8940996,-2.111 -32.0759996,10.0064 -2.021,3.9616 -2.4118,9.7277 -0.7297,10.7673 3.5424,2.1893 8.6766996,2.245 15.9296996,0.1727 z m -35.3422,-33.3912 c 13.1513004,-9.4029 15.64240036,-34.6279 3.0635,-31.0203 -6.9473,1.9925 -12.7067,7.8151 -15.8107,15.984 -2.7487,7.234 -2.0891,15.4351 1.4444,17.9601 1.8268,1.3055 7.4063,-0.1378 11.3028,-2.9238 z m 576.297198,73.1159 c -1.3783,-1.4654 -3.6629,-4.524 -5.0769,-6.7968 -1.4139,-2.2728 -4.8944,-7.0242 -7.7344,-10.5586 -2.8399,-3.5344 -5.1634,-6.9847 -5.1634,-7.6674 0,-2.4678 2.9151,-4.1876 7.0981,-4.1876 l 4.1519,0 0,-14.0625 c 0,-17.7693 0.028,-17.8125 11.7187,-17.8125 11.6903,0 11.7188,0.043 11.7188,17.8125 l 0,14.0625 4.1518,0 c 4.0238,0 7.0982,1.7075 7.0982,3.9425 0,1.1725 -14.3433,21.34 -17.9543,25.2448 -3.2465,3.5105 -6.721,3.5185 -10.0085,0.023 z m -21.5134,-79.5356 c -3.8655,-0.7909 -5.0019,-3.9527 -4.7025,-13.084 l 0.2724,-8.3096 3.856,-1.875 c 2.1209,-1.0312 5.7069,-3.7826 7.9688,-6.1142 4.8925,-5.0429 9.1648,-6.542 18.644,-6.542 9.4791,0 13.7514,1.4991 18.6439,6.542 2.2619,2.3316 5.8479,5.083 7.9688,6.1142 l 3.856,1.875 0.2677,8.5269 c 0.2291,7.2999 0.01,8.8514 -1.5566,10.7813 l -1.8241,2.2543 -25.631,0.1337 c -14.097,0.073 -26.5906,-0.063 -27.7634,-0.3026 z m 31.2376,-16.6635 c 2.8939,-2.894 2.9311,-6.2369 0.1057,-9.5216 -1.5687,-1.8237 -3.083,-2.5522 -5.3046,-2.5522 -3.6806,0 -7.5,3.7882 -7.5,7.4386 0,3.2915 3.941,6.9364 7.5,6.9364 1.8266,0 3.7483,-0.8506 5.1989,-2.3012 z m -940.5576,-166.1532 c -1.1425,-0.2297 -3.1464,-1.6882 -4.4531,-3.2411 l -2.3757,-2.8234 0,-68.2936 0,-68.2937 2.4552,-2.9179 2.4552,-2.9178 33.4729,0.2678 33.4729,0.2678 5.5515,2.8404 c 4.6041,2.3557 7.9854,5.5558 19.8115,18.75 7.8429,8.7503 14.9223,17.2618 15.7319,18.9145 1.2917,2.6369 1.4403,9.0918 1.2135,52.7136 l -0.2584,49.7087 -2.5988,2.5989 -2.5988,2.5989 -49.9012,0.1223 c -27.4457,0.067 -50.836,-0.066 -51.9786,-0.2954 z m 94.4212,-55.4934 c 0,-34.0358 -0.2643,-44.158 -1.1719,-44.8801 -0.6446,-0.5128 -6.6563,-1.8758 -13.3594,-3.0289 -7.9924,-1.375 -12.5909,-2.6074 -13.3594,-3.5804 -0.7663,-0.9702 -1.1718,-4.839 -1.1718,-11.1784 0,-12.2712 -1.2394,-15.6632 -6.2555,-17.121 -2.3464,-0.6818 -12.0246,-0.9458 -27.9633,-0.7625 l -24.375,0.2803 -0.2411,62.1094 -0.241,62.1094 44.0692,0 44.0692,0 0,-43.9478 z m 180.234302,55.5144 c -0.9236,-0.3727 -1.1718,-16.1332 -1.1718,-74.3885 0,-67.6591 0.1297,-73.9413 1.5324,-74.2188 0.8428,-0.1667 8.9639,-0.092 18.0469,0.1657 l 16.5144,0.4687 0.2503,24.7983 c 0.1847,18.2961 0.5507,24.9839 1.396,25.5063 0.6301,0.3894 16.8288,0.7034 35.9971,0.6976 31.7769004,-0.01 34.9048,-0.1495 35.4562,-1.5865 0.3326,-0.8668 0.3523,-9.3868 0.044,-18.9333 -0.3084,-9.5466 -0.2279,-20.3105 0.1791,-23.9199 l 0.74,-6.5625 8.5943,-0.2685 8.5943,-0.2686 8.0313,7.7686 8.0313,7.7685 0.5603,65.7854 c 0.5561,65.2867 0.546,65.7931 -1.3296,66.7969 -1.9131,1.0239 -138.9591,1.4022 -141.4663,0.3906 z m 118.3531,-17.1815 c 0.8951,-1.4482 0.6664,-61.1313 -0.2377,-62.0354 -0.4427,-0.4427 -21.87359964,-0.6955 -47.6242,-0.5617 l -46.8193,0.2432 -0.2477,30.4611 c -0.1362,16.7537 -0.044,30.9919 0.205,31.6407 0.5753,1.4993 93.7997,1.7475 94.7239,0.2521 z m -81.4919,-20.3368 c -1.4148,-3.6869 0.1367,-3.8577 33.7536,-3.716 26.70730036,0.1126 32.4869004,0.3667 33.1610004,1.4576 2.2647,3.6653 1.147,3.7918 -33.2402004,3.7613 -29.2192,-0.026 -33.1754,-0.2025 -33.6744,-1.5029 z m 0.4554,-18.5182 c -0.5614,-0.6765 -0.7554,-1.9216 -0.4311,-2.7668 0.5337,-1.3908 3.7649,-1.5134 34.0006,-1.2907 l 33.4108004,0.2461 0,2.3438 0,2.3437 -32.9797004,0.177 c -26.2407,0.1408 -33.1883,-0.074 -34.0006,-1.0531 z m 257.323198,55.1476 c -1.3721,-1.3721 -1.4562,-8.0617 -0.923,-73.3594 0.4651,-56.9571 0.8388,-72.1115 1.8025,-73.1133 0.9362,-0.9732 4.9337,-1.2383 17.3827,-1.1529 8.8918,0.061 16.486,0.3082 16.8761,0.5493 0.39,0.2411 0.7143,11.3821 0.7205,24.7578 0.01,13.3758 0.2906,24.7715 0.632,25.3239 0.398,0.644 5.815,1.0044 15.0966,1.0044 7.9618,0 14.4553,0.3164 14.4301,0.7031 -0.025,0.3867 -3.3696,4.24 -7.4319,8.563 l -7.386,7.8598 -13.1127,-0.166 c -7.212,-0.091 -13.3189,0.1686 -13.5708,0.5777 -0.506,0.8216 -1.1084,40.7164 -0.8218,54.4241 l 0.1816,8.6804 47.5781,-0.2429 47.5781,-0.243 0.248,-29.4568 0.2479,-29.4568 8.8991,-9.1709 c 9.5433,-9.8349 10.7613,-11.8769 10.7613,-18.0425 0,-11.1363 -14.7569,-26.8274 -27.4737,-29.2131 l -3.4638,-0.6498 0,-7.7957 c 0,-9.0315 -0.6424,-8.5441 10.6824,-8.1044 l 7.6617,0.2975 8.4061,7.2467 8.406,7.2467 0.2436,66.0496 c 0.2259,61.2622 0.128,66.1344 -1.3511,67.2214 -1.2419,0.9126 -16.9896,1.1719 -71.1922,1.1719 -62.7353,0 -69.7465,-0.1489 -71.1074,-1.5098 z m 612.6259,-2.7899 c 0,-1.8492 0.9099,-6.4939 2.0221,-10.3216 1.1122,-3.8277 1.7204,-7.2613 1.3514,-7.6302 -0.3689,-0.3689 -2.3166,1.1118 -4.3283,3.2904 l -3.6575,3.9611 -8.4081,0 c -6.5051,0 -8.7524,-0.3442 -9.9288,-1.5207 -1.3479,-1.3479 -1.4848,-4.6213 -1.2052,-28.8281 0.2969,-25.6978 0.4352,-27.5612 2.3465,-31.6111 1.117,-2.367 2.9108,-7.5866 3.9861,-11.5991 1.0752,-4.0126 2.5503,-8.7205 3.278,-10.4621 l 1.323,-3.1664 10.3805,0 c 9.8883,0 10.4207,-0.1001 11.2298,-2.1094 0.4671,-1.1602 1.5905,-11.2808 2.4966,-22.4902 0.906,-11.2094 1.9672,-20.8983 2.3581,-21.5309 1.0793,-1.7463 42.7587,-1.1664 49.2372,0.6851 8.8324,2.5242 20.7794,13.5919 25.2745,23.4141 1.1798,2.5781 2.5807,8.1945 3.1132,12.4808 0.5324,4.2863 1.2124,8.1887 1.511,8.6719 0.2987,0.4832 5.1738,0.8786 10.8335,0.8786 l 10.2905,0 1.7529,4.0893 c 0.9641,2.2491 3.3535,8.8936 5.31,14.7656 l 3.557,10.6763 0.3665,27.4581 c 0.2749,20.5985 0.082,27.8003 -0.7706,28.8281 -0.8501,1.0243 -3.3655,1.3701 -9.9661,1.3701 l -8.8291,0 -3.6575,-3.9611 c -2.0117,-2.1786 -3.9731,-3.6456 -4.3588,-3.2599 -0.3857,0.3857 0.2225,3.5692 1.3514,7.0745 1.1289,3.5053 2.0527,8.1363 2.0527,10.2911 l 0,3.9179 -50.1563,0 -50.1562,0 0,-3.3622 z m 41.3782,-7.3392 c 0.9838,-3.6839 2.1869,-4.2675 8.8332,-4.2843 6.2945,-0.016 8.5687,1.1625 9.0191,4.6732 l 0.3007,2.3437 14.3168,0.2589 c 11.4456,0.207 14.416,9e-4 14.8105,-1.0271 0.4945,-1.2887 -4.8917,-21.1014 -6.1024,-22.4475 -0.3541,-0.3936 -14.951,-0.8041 -32.4376,-0.9122 l -31.7937,-0.1966 -1.1124,2.3185 c -1.7991,3.7495 -6.0498,20.6374 -5.4421,21.6207 0.329,0.5324 6.3613,0.7962 14.7178,0.6437 l 14.1603,-0.2584 0.7298,-2.7326 z m 35.623,-42.9206 c 2.5977,-0.9056 4.5613,-3.2212 4.5613,-5.3789 0,-0.6873 -9.8023,-0.9991 -31.4063,-0.9991 -27.7022,0 -31.4062,0.1708 -31.4062,1.4488 0,0.7969 1.0536,2.5025 2.3414,3.7903 l 2.3414,2.3414 25.4213,-0.1262 c 14.3959,-0.071 26.6035,-0.5382 28.1471,-1.0763 z m 10.0398,-26.8436 14.3849,-0.1594 -0.6647,-4.9219 c -0.9016,-6.6764 -1.8526,-8.2031 -5.1098,-8.2031 -2.376,0 -2.7573,0.3807 -3.0139,3.01 -0.2252,2.3072 -0.8411,3.1484 -2.6375,3.6028 -4.4459,1.1244 -5.3464,-0.2452 -6.0246,-9.1634 -1.402,-18.4351 -3.1242,-21.9755 -11.5719,-23.7889 -7.5659,-1.624 -8.4596,-2.2492 -9.612,-6.7234 -2.3222,-9.0168 -2.9488,-10.2239 -5.9411,-11.4471 -1.7403,-0.7114 -9.7473,-1.4759 -19.5815,-1.8696 -13.5237,-0.5414 -16.7171,-0.4307 -17.0631,0.5912 -0.2343,0.6914 -1.2761,12.614 -2.3153,26.4947 -1.2075,16.1273 -2.2794,25.4785 -2.9695,25.9049 -2.2843,1.4118 -5.9929,-0.5488 -6.9242,-3.6606 -0.796,-2.66 -1.2633,-3.004 -3.75,-2.7603 -2.5577,0.2507 -3.0145,0.8138 -4.5871,5.6545 -0.9605,2.9569 -1.5382,5.9188 -1.2837,6.5821 0.4429,1.1542 33.253,1.4715 88.665,0.8575 z m 240.6153,79.5473 -30.9375,-0.488 -0.2782,-4.7708 c -0.179,-3.0696 0.1553,-5.1276 0.9375,-5.7716 0.6686,-0.5504 4.8016,-2.4357 9.1844,-4.1895 l 7.9688,-3.1888 0,-45.4146 0,-45.4147 -12.161,0 -12.1609,0 -3.3725,11.25 -3.3724,11.25 -5.5604,0 -5.5603,0 0,-22.0312 0,-22.0313 58.125,0 58.125,0 0,22.0313 0,22.0312 -5.5604,0 -5.5604,0 -3.3724,-11.25 -3.3725,-11.25 -12.1609,0 -12.1609,0 0,45.4147 0,45.4146 7.9687,3.1888 c 4.3828,1.7538 8.4961,3.6227 9.1406,4.1532 0.6446,0.5305 1.1719,3.0074 1.1719,5.5043 0,4.6045 -1.714,6.8142 -4.8603,6.2656 -0.6784,-0.1183 -15.1553,-0.4347 -32.1709,-0.7032 z m 47.9128,-1.5022 c -0.3131,-0.8156 -0.5691,-14.9669 -0.5691,-31.4473 l 0,-29.9644 -6.652,0.2755 -6.6522,0.2754 -1.551,4.6875 c -0.8531,2.5781 -1.9729,4.5842 -2.4885,4.4579 -1.0245,-0.2509 -1.8132,-17.2081 -0.9594,-20.6298 l 0.5263,-2.1093 30.3956,0 c 21.3249,0 30.5881,0.3116 31.041,1.0443 0.8219,1.3299 1.1138,23.1176 0.3268,24.3911 -0.3242,0.5245 -1.9963,0.8169 -3.7157,0.6497 -2.9561,-0.2873 -3.2314,-0.6357 -5.0579,-6.3976 l -1.9317,-6.0938 -6.5625,0 -6.5625,0 -0.2495,25.552 -0.2495,25.5521 5.1714,2.287 c 4.8714,2.1544 5.1713,2.4802 5.1713,5.6198 l 0,3.3329 -14.4309,0 c -12.2943,0 -14.5153,-0.2196 -15,-1.483 z m -684.5633,-4.5018 c -0.2738,-0.7135 -2.7441,-15.3737 -5.4895,-32.5781 -3.4432,-21.5776 -4.6982,-31.6444 -4.0455,-32.4528 1.3925,-1.7245 144.6827,-1.7146 145.3446,0.01 0.4251,1.1081 -9.0498,62.5216 -10.0467,65.1197 -0.7102,1.8507 -125.0523,1.7529 -125.7629,-0.099 z m -268.8183,-19.9527 c -1.3337,-1.3337 -0.2764,-3.7748 10.3856,-23.979 l 11.0107,-20.8648 18.3563,-18.6585 c 21.4141,-21.7665 19.5211,-21.0882 30.2939,-10.8551 8.8697,8.4253 12.3065,13.2802 11.0496,15.6085 -0.51,0.9447 -9.0863,9.7332 -19.0585,19.5301 l -18.1314,17.8125 -20.9116,11.0156 c -11.5013,6.0586 -21.2396,11.0157 -21.6406,11.0157 -0.401,0 -1.0103,-0.2813 -1.354,-0.625 z m 27.0361,-21.877 c 7.8855,-4.5533 9.7891,-6.0451 9.8245,-7.6998 0.01,-0.3688 -1.295,-2.1617 -2.8953,-3.9844 -4.8449,-5.5181 -6.2442,-4.7794 -12.868,6.7929 -3.1816,5.5587 -5.7848,10.4251 -5.7848,10.8142 0,0.8159 0.4234,0.602 11.7236,-5.9229 z m 4.2139,18.4759 c 0,-0.6884 1.4908,-1.9626 3.313,-2.8316 2.6896,-1.2825 6.1739,-1.5771 18.5156,-1.5655 8.3615,0.01 15.7715,0.3749 16.4667,0.8155 0.6953,0.4406 1.1117,1.5943 0.9253,2.5637 -0.3168,1.6478 -1.6063,1.7792 -19.7797,2.0161 -15.715,0.2048 -19.4409,0.014 -19.4409,-0.9982 z m 235.5274,-53.3712 c -0.615,-0.741 -1.2515,-9.0108 -1.6086,-20.8989 -0.3252,-10.8199 -0.7777,-20.5913 -1.0058,-21.7142 -0.9237,-4.5472 1.0266,-4.9949 21.4508,-4.9237 10.4045,0.036 19.6242,0.3526 20.4881,0.7031 0.8638,0.3505 3.1604,2.7466 5.1035,5.3247 1.943,2.5781 3.9784,4.9994 4.523,5.3805 0.5447,0.3812 18.846,0.6447 40.6696,0.5856 29.284,-0.079 39.968,0.1813 40.7813,0.9949 1.3973,1.3978 1.2224,28.4444 -0.2081,32.1796 -0.9268,2.42 -1.3355,2.5782 -6.6649,2.5782 -3.6816,0 -5.833,-0.412 -6.1195,-1.1719 -0.2429,-0.6446 -0.5461,-5.3906 -0.6737,-10.5469 l -0.2319,-9.375 -49.6875,-0.2594 c -27.3281,-0.1428 -50.6409,-0.028 -51.8063,0.2546 -2.0625,0.5004 -2.1124,0.7937 -1.875,11.0407 l 0.2438,10.5266 -6.1806,0.2738 c -4.2337,0.1876 -6.5011,-0.1123 -7.1982,-0.9523 z m 25.4437,-5.8654 c -0.3614,-0.9419 -0.074,-1.9874 0.6891,-2.5105 1.887,-1.2928 76.4753,-0.5288 77.801,0.7969 0.7279,0.7278 0.6603,1.2343 -0.239,1.7919 -0.6894,0.4275 -18.4386,0.948 -39.4427,1.1565 -35.4718,0.3522 -38.2331,0.2644 -38.8084,-1.2348 z m -209.9568,-9.9613 c -2.5251,-3.1482 -7.2316,-7.8252 -10.4589,-10.3933 -3.2274,-2.568 -5.8679,-5.222 -5.8679,-5.8976 0,-0.6756 1.542,-2.5823 3.4266,-4.2371 2.8673,-2.5175 3.9535,-2.9232 6.6531,-2.4851 7.3427,1.1915 18.9828,13.4061 18.9828,19.9196 0,3.495 -3.9233,8.8175 -6.4994,8.8175 -0.9049,0 -3.7112,-2.5758 -6.2363,-5.724 z m -340.946098,-13.6376 c -0.2574,-0.4371 -0.3561,-7.7556 -0.2192,-16.2634 l 0.2489,-15.4688 8.3104,0.338 c 4.5707,0.1859 8.5213004,0.5399 8.7792004,0.7867 0.7093,0.6788 0.2738,29.3826 -0.4569,30.1139 -0.9581,0.9589 -16.1237004,1.4082 -16.6624004,0.4936 z m 295.047398,-0.5626 c -0.2628,-0.6847 -0.3611,-7.9779 -0.2186,-16.2072 l 0.2592,-14.9624 8.9063,0 8.9062,0 0,15.9375 0,15.9375 -8.6877,0.2698 c -6.5525,0.2034 -8.8051,-0.036 -9.1654,-0.9752 z"
       style="fill:#000000;fill-opacity:1" />
  </g>
</svg>
