<svg id="svg4438" xmlns:rdf="http://www.w3.org/1999/02/22-rdf-syntax-ns#" xmlns="http://www.w3.org/2000/svg" height="41.962mm" width="37.008mm" version="1.1" xmlns:cc="http://creativecommons.org/ns#" xmlns:dc="http://purl.org/dc/elements/1.1/" viewBox="0 0 131.13103 148.68482">
 <g id="layer1" transform="translate(73.241 11.777)">
  <path id="path3425-5" d="m-48.543 135.87c-9.7856-3.6581-17.943-11.061-22.204-20.149-2.0876-4.4533-2.4941-6.6194-2.4941-13.289 0-7.001 0.3232-8.5518 2.6611-12.769 1.8321-3.305 12.785-14.865 35.156-37.104 27.399-27.237 33.1-32.476 36.354-33.402 8.1424-2.3187 14.022-0.6147 20.666 5.9897 6.7248 6.684 8.593 14.176 5.4285 21.77-1.6987 4.0762-50.608 53.642-52.931 53.642-2.103 0-11.241-9.5561-11.241-11.755 0-1.1711 8.6221-10.47 23.438-25.276 12.891-12.883 23.437-23.967 23.437-24.632 0-0.6646-0.6747-1.4672-1.4993-1.7836-1.0819-0.4152-9.9564 7.8788-31.875 29.79-24.12 24.112-30.493 30.988-30.943 33.386-1.3951 7.4364 7.6404 17.145 15.956 17.145 3.7083 0 4.349-0.576 38.322-34.453 19.153-19.099 35.451-36.124 36.57-38.203 2.7052-5.0236 2.8518-16.264 0.2751-21.094-7.1762-13.452-21.374-19.406-33.369-13.992-3.0853 1.3925-11.793 9.4471-32.408 29.98-15.504 15.441-28.713 28.075-29.353 28.075-2.0838 0-11.364-9.5274-11.364-11.667 0-2.9509 56.934-59.237 63.351-62.631 16.887-8.93 35.701-6.2814 49.748 7.0035 16.43 15.539 19.453 38.327 7.4652 56.277-4.97 7.442-73.216 75.039-78.377 77.631-5.2298 2.6272-15.74 3.3916-20.771 1.5108z"/>
 </g>
</svg>
