<svg id="svg4438" xmlns:rdf="http://www.w3.org/1999/02/22-rdf-syntax-ns#" xmlns="http://www.w3.org/2000/svg" height="41.72mm" width="42.12mm" version="1.1" xmlns:cc="http://creativecommons.org/ns#" xmlns:dc="http://purl.org/dc/elements/1.1/" viewBox="0 0 149.24314 147.82672">
 <g id="layer1" transform="translate(-391.9 -345.52)">
  <path id="path3425-35-0" d="m404.27 491.71c-4.7736-2.5665-9.0869-7.4352-10.741-12.124-2.169-6.1477-2.169-114.08 0-120.23 1.6984-4.8136 6.0442-9.634 10.978-12.177 3.3859-1.745 5.7669-1.8035 63.424-1.5585l59.906 0.2546 4.0761 2.9416c2.4539 1.7709 5.1021 4.8916 6.6542 7.8414l2.5781 4.8999v57.911 57.911l-2.6188 5.013c-1.6344 3.1286-4.1313 6.0761-6.6426 7.8414l-4.0239 2.8285-60.154 0.204c-57.324 0.1944-60.309 0.121-63.436-1.5602zm106.41-20.675v-4.2187h-44.531-44.531l-0.3005 3.1361c-0.593 6.1902-3.6601 5.8126 45.04 5.545l44.323-0.2436zm-28.445-17.523c10.087-4.7231 16.307-12.571 18.636-23.512 0.5555-2.6103 0.8388-16.962 0.6889-34.902l-0.2545-30.469h-8.9063-8.9062l-0.4688 31.875c-0.3415 23.22-0.7904 32.437-1.6532 33.946-0.6515 1.1392-2.7143 3.2381-4.5841 4.6642-2.7722 2.1145-4.543 2.6474-9.5967 2.8877-7.3962 0.3516-12.422-2.0056-15.52-7.28-1.8124-3.0853-1.9552-5.1514-2.396-34.687l-0.4687-31.406h-8.9063-8.9062l-0.2786 29.531c-0.1826 19.361 0.09 31.458 0.7903 35.125 3.4039 17.815 16.8 28 36.051 27.409 7.1627-0.2199 9.3806-0.7006 14.68-3.182z"/>
 </g>
</svg>
