<svg id="svg4438" xmlns:rdf="http://www.w3.org/1999/02/22-rdf-syntax-ns#" xmlns="http://www.w3.org/2000/svg" height="41.754mm" width="41.901mm" version="1.1" xmlns:cc="http://creativecommons.org/ns#" xmlns:dc="http://purl.org/dc/elements/1.1/" viewBox="0 0 148.46807 147.94695">
 <g id="layer1" transform="translate(-145.36 -388.91)">
  <path id="path3425-35-3" d="m157.55 535.51c-4.1425-2.1964-7.8751-5.9329-10.164-10.175-2.0114-3.7276-2.0235-4.0998-2.0235-62.344s0.012-58.616 2.0235-62.344c2.5929-4.8052 6.419-8.4172 10.898-10.288 3.1062-1.2975 10.776-1.4767 61.836-1.4448 57.064 0.036 58.375 0.077 62.314 1.9845 4.736 2.2926 9.3117 7.4836 10.659 12.092 0.6227 2.1301 0.8601 23.864 0.6766 61.944l-0.2827 58.663-2.5861 3.9072c-1.4224 2.149-4.3444 5.071-6.4934 6.4934l-3.9073 2.5861-60.069 0.208c-53.374 0.1847-60.383 0.042-62.882-1.2833zm85.814-21.743c6.8919-2.2135 11.78-6.2268 14.597-11.986 2.3424-4.7878 2.6693-6.5023 2.6546-13.922-0.014-7.1039-0.4064-9.3054-2.4462-13.724-1.3821-2.9935-3.8919-6.4292-5.8213-7.9687-1.8655-1.4885-3.3918-3.0509-3.3918-3.472s1.0025-2.1086 2.2277-3.75c4.2619-5.7094 5.9586-15.123 4.3372-24.065-1.9142-10.556-6.7493-17.275-15.57-21.635-4.4368-2.1932-5.3938-2.2788-28.865-2.5821-19.405-0.2507-24.434-0.064-25.064 0.9295-0.4335 0.6837-0.7946 23.834-0.8025 51.446-0.011 38.915 0.2492 50.472 1.1575 51.4 1.5178 1.5499 51.918 0.956 56.986-0.6715zm-36.36-18.584c-0.8404-0.3391-1.1719-3.4666-1.1719-11.056v-10.583l10.484-0.432c5.7661-0.2375 12.188-0.1203 14.27 0.2605 11.048 2.0202 12.328 16.755 1.8373 21.138-3.0028 1.2547-22.686 1.7748-25.42 0.6718zm-0.9673-53.52 0.2641-11.016h11.412c10.808 0 11.54 0.121 13.844 2.2876 5.2318 4.9202 5.1645 13.684-0.1371 17.854-2.1151 1.6637-3.7918 1.8896-14.024 1.8896h-11.622z"/>
 </g>
</svg>
