<svg id="svg4438" xmlns:rdf="http://www.w3.org/1999/02/22-rdf-syntax-ns#" xmlns="http://www.w3.org/2000/svg" height="41.769mm" width="42.081mm" version="1.1" xmlns:cc="http://creativecommons.org/ns#" xmlns:dc="http://purl.org/dc/elements/1.1/" viewBox="0 0 149.10638 147.99961">
 <g id="layer1" transform="translate(-177.95 -412.86)">
  <path id="path3425-35-9" d="m190.04 559c-4.7704-2.5204-9.7867-8.7054-11.014-13.58-1.4457-5.7413-1.435-111.49 0.012-117.23 0.6112-2.4277 2.5687-5.8863 4.7047-8.313 6.5735-7.4679 3.8451-7.2018 70.809-6.9043l59.217 0.2631 4.0645 2.8183c2.6617 1.8456 4.9544 4.573 6.6427 7.9025l2.5781 5.0842v57.145c0 40.106-0.3191 58.21-1.0701 60.717-1.4681 4.9001-5.6376 9.6888-10.475 12.03-3.9767 1.925-5.075 1.9584-63.048 1.9177-56.405-0.04-59.151-0.1209-62.42-1.8481zm79.905-26.271c0.8172-3.3714 1.7399-7.6956 2.0504-9.6094l0.5647-3.4797-6.7379-0.014c-3.7059-0.01-7.3333-0.3912-8.061-0.8518-1.1076-0.7011-0.3584-5.6979 4.6014-30.689 3.2583-16.418 6.269-30.8 6.6904-31.961 0.7126-1.9622 1.3227-2.1094 8.7402-2.1094 7.4994 0 8.0032-0.1256 8.4635-2.1094 1.0929-4.7099 3.2963-15.884 3.2963-16.716 0-0.5476-10.189-0.7949-26.445-0.6418l-26.445 0.2489-1.6372 7.9688c-2.4711 12.028-2.8303 11.25 5.1935 11.25 4.4286 0 7.2701 0.426 7.8995 1.1844 0.7033 0.8475-0.7975 9.8937-5.2759 31.8-3.4423 16.839-6.6085 30.966-7.036 31.394-0.4275 0.4279-4.2106 0.9889-8.407 1.2467l-7.6298 0.4687-1.6327 7.0313c-0.8979 3.8672-1.65 8.1981-1.6711 9.6242l-0.038 2.5929 26.016-0.2492 26.016-0.2492 1.4857-6.1297z"/>
 </g>
</svg>
