<svg id="svg4438" xmlns:rdf="http://www.w3.org/1999/02/22-rdf-syntax-ns#" xmlns="http://www.w3.org/2000/svg" height="41.749mm" width="42.003mm" version="1.1" xmlns:cc="http://creativecommons.org/ns#" xmlns:dc="http://purl.org/dc/elements/1.1/" viewBox="0 0 148.8278 147.9299">
 <g id="layer1" transform="translate(86.247 -43.207)">
  <path id="path3425-35" d="m-72.301 190.77c-3.7397-1.3547-8.8062-5.7511-11.075-9.6102l-2.5188-4.2845-0.2841-56.25c-0.1563-30.937-0.031-58 0.2774-60.139 0.8146-5.6406 5.2383-11.75 10.634-14.687l4.566-2.4852 58.77-0.054 58.77-0.054 4.6651 2.539c5.4978 2.9923 9.912 9.0549 10.733 14.741 0.3088 2.1388 0.4336 29.201 0.2774 60.139l-0.2841 56.25-2.5189 4.2845c-1.3853 2.3565-4.3021 5.5206-6.4816 7.0313l-3.963 2.7467-60.081 0.1708c-33.044 0.094-60.714-0.058-61.487-0.3386zm64.118-19.085c3.5537-0.5137 8.2685-1.7333 10.477-2.7104 5.5329-2.4474 12.279-8.9078 15.207-14.562 2.0896-4.0357 2.4535-5.9562 2.4942-13.163l0.048-8.4375-11.133-0.2651-11.133-0.2652 0.6839 2.1402c2.3907 7.4815 1.2184 11.36-4.4845 14.838-5.9055 3.6008-21.683 1.9952-31.758-3.2318-2.4626-1.2777-4.6571-2.0317-4.8768-1.6756-0.2195 0.3561-0.893 4.7853-1.4965 9.8426-0.8465 7.0929-0.8421 9.5029 0.02 10.541 1.9686 2.3721 19.355 7.1929 28.085 7.7874 0.7735 0.053 4.3138-0.3246 7.8676-0.8383zm52.601-56.216v-4.2187l-22.5-0.2506-22.5-0.2505-8.308-3.4421c-8.7123-3.6095-13.624-7.4677-13.869-10.894-0.4979-6.9569 1.6303-11.146 6.6912-13.171 5.0099-2.0046 8.3966-1.921 17.723 0.4373 4.2625 1.0779 7.9691 1.7407 8.237 1.4729 0.2678-0.2679 1.0135-4.3169 1.6571-8.9978 0.8452-6.1465 0.8853-8.7447 0.1447-9.3529-2.6792-2.2003-12.742-4.2251-21.182-4.2619-11.459-0.05-17.046 1.8232-23.772 7.97-7.1395 6.5251-10.264 13.792-10.243 23.827 0.01 4.8952 0.5525 8.7621 1.5462 11.025 0.8419 1.917 1.5307 3.91 1.5307 4.4287 0 0.5801-5.5046 1.0428-14.297 1.202l-14.297 0.2588-0.3005 3.1361c-0.5961 6.2221-4.8646 5.8087 57.227 5.5431l56.511-0.2417z"/>
 </g>
</svg>
