<?xml version="1.0" encoding="UTF-8" standalone="no"?>
<!-- Created with Inkscape (http://www.inkscape.org/) -->

<svg
   xmlns:dc="http://purl.org/dc/elements/1.1/"
   xmlns:cc="http://creativecommons.org/ns#"
   xmlns:rdf="http://www.w3.org/1999/02/22-rdf-syntax-ns#"
   xmlns:svg="http://www.w3.org/2000/svg"
   xmlns="http://www.w3.org/2000/svg"
   xmlns:sodipodi="http://sodipodi.sourceforge.net/DTD/sodipodi-0.dtd"
   xmlns:inkscape="http://www.inkscape.org/namespaces/inkscape"
   width="40.810371mm"
   height="47.624451mm"
   viewBox="0 0 144.60367 168.74806"
   id="svg4616"
   version="1.1"
   inkscape:version="0.91 r13725"
   sodipodi:docname="border_control.svg"
   inkscape:export-filename="/home/hacker/Изображения/mHundred.png"
   inkscape:export-xdpi="90"
   inkscape:export-ydpi="90">
  <defs
     id="defs4618" />
  <sodipodi:namedview
     id="base"
     pagecolor="#ffffff"
     bordercolor="#666666"
     borderopacity="1.0"
     inkscape:pageopacity="0.0"
     inkscape:pageshadow="2"
     inkscape:zoom="1.979899"
     inkscape:cx="77.8002"
     inkscape:cy="107.1799"
     inkscape:document-units="px"
     inkscape:current-layer="layer1"
     showgrid="false"
     inkscape:snap-bbox="true"
     inkscape:bbox-paths="true"
     inkscape:bbox-nodes="true"
     inkscape:snap-bbox-edge-midpoints="true"
     inkscape:snap-bbox-midpoints="true"
     inkscape:object-paths="true"
     inkscape:snap-intersection-paths="true"
     inkscape:object-nodes="false"
     inkscape:snap-smooth-nodes="false"
     inkscape:snap-midpoints="false"
     showguides="true"
     inkscape:guide-bbox="true"
     fit-margin-top="0"
     fit-margin-left="0"
     fit-margin-right="0"
     fit-margin-bottom="0"
     inkscape:window-width="1366"
     inkscape:window-height="710"
     inkscape:window-x="0"
     inkscape:window-y="0"
     inkscape:window-maximized="1"
     inkscape:snap-global="true" />
  <metadata
     id="metadata4621">
    <rdf:RDF>
      <cc:Work
         rdf:about="">
        <dc:format>image/svg+xml</dc:format>
        <dc:type
           rdf:resource="http://purl.org/dc/dcmitype/StillImage" />
        <dc:title></dc:title>
      </cc:Work>
    </rdf:RDF>
  </metadata>
  <g
     inkscape:label="Layer 1"
     inkscape:groupmode="layer"
     id="layer1"
     transform="translate(-283.29596,-98.450405)">
    <rect
       style="fill:#13445e;fill-opacity:1;stroke:none;stroke-opacity:1"
       id="rect4167"
       width="117.82443"
       height="115.9203"
       x="296.68869"
       y="111.61228"
       ry="8.0231533" />
    <path
       style="fill:#e2000d;fill-opacity:1;stroke:none;stroke-width:1.156479;stroke-opacity:1"
       d="m 287.64947,98.450405 -4.35352,4.345715 0,133.77738 4.35157,4.35937 8.53711,0 6.74804,-8.9043 -6.24609,0 -4.35352,-4.36132 0,-115.96878 4.40039,-4.34375 100.6602,0 6.74804,-8.904315 -116.49222,0 z m 127.36136,0 -6.74804,8.904315 6.10742,-0.13867 4.49023,4.48438 0,115.834 -4.24609,4.25196 -100.82034,0 -6.75,8.90429 34.89844,0.0703 13.99024,26.4375 14.02344,-26.38086 53.58986,0.10742 4.34766,-4.34766 0.006,-133.78128 -4.35757,-4.345695 -8.53125,0 z"
       id="rect4136"
       inkscape:connector-curvature="0" />
    <g
       id="g353"
       transform="matrix(1.4986556,0,0,1.7684136,-123.96889,106.70533)"
       style="fill:#ffffff;fill-opacity:1">
      <path
         d="m 301.5,38.9 4.9,1.6 c -0.7,2.8 -2,4.8 -3.8,6.1 -1.8,1.3 -4,2 -6.6,2 -3.3,0 -6.1,-1.1 -8.2,-3.4 -2.1,-2.3 -3.2,-5.4 -3.2,-9.3 0,-4.2 1.1,-7.5 3.2,-9.8 2.1,-2.3 5,-3.5 8.5,-3.5 3,0 5.5,0.9 7.5,2.8 1.1,1.1 2,2.6 2.6,4.6 l -5,1.2 c -0.3,-1.3 -0.9,-2.3 -1.8,-3 -0.9,-0.7 -2.1,-1.1 -3.4,-1.1 -1.8,0 -3.4,0.6 -4.5,2 -1.2,1.3 -1.8,3.5 -1.8,6.5 0,3.1 0.6,5.4 1.8,6.8 1.1,1.4 2.6,2 4.4,2 1.4,0 2.5,-0.5 3.5,-1.3 0.8,-1 1.4,-2.4 1.9,-4.2 z"
         id="path355"
         inkscape:connector-curvature="0"
         style="fill:#ffffff;fill-opacity:1" />
      <path
         d="m 310.9,48.1 0,-24.9 5.1,0 0,20.7 12.6,0 0,4.2 -17.7,0 z"
         id="path357"
         inkscape:connector-curvature="0"
         style="fill:#ffffff;fill-opacity:1" />
      <path
         d="m 331.2,35.7 c 0,-2.6 0.4,-4.7 1.1,-6.5 0.6,-1.3 1.4,-2.4 2.3,-3.4 1,-1 2,-1.8 3.2,-2.3 1.6,-0.6 3.4,-1 5.4,-1 3.7,0 6.6,1.1 8.9,3.4 2.2,2.3 3.3,5.5 3.3,9.6 0,4.1 -1.1,7.2 -3.3,9.5 -2.2,2.3 -5.2,3.4 -8.9,3.4 -3.8,0 -6.7,-1.1 -9,-3.4 -1.9,-2.2 -3,-5.3 -3,-9.3 z m 5.2,-0.2 c 0,2.9 0.6,5 1.9,6.5 1.3,1.5 3,2.2 5,2.2 2,0 3.7,-0.7 5,-2.2 1.3,-1.5 1.9,-3.6 1.9,-6.6 0,-2.9 -0.6,-5.1 -1.9,-6.5 -1.3,-1.4 -3,-2.1 -5.1,-2.1 -2.1,0 -3.8,0.7 -5.1,2.1 -1.1,1.6 -1.7,3.7 -1.7,6.6 z"
         id="path359"
         inkscape:connector-curvature="0"
         style="fill:#ffffff;fill-opacity:1" />
    </g>
  </g>
</svg>
