<?xml version="1.0" encoding="UTF-8" standalone="no"?>
<!-- Created with Inkscape (http://www.inkscape.org/) -->

<svg
   xmlns:dc="http://purl.org/dc/elements/1.1/"
   xmlns:cc="http://creativecommons.org/ns#"
   xmlns:rdf="http://www.w3.org/1999/02/22-rdf-syntax-ns#"
   xmlns:svg="http://www.w3.org/2000/svg"
   xmlns="http://www.w3.org/2000/svg"
   xmlns:sodipodi="http://sodipodi.sourceforge.net/DTD/sodipodi-0.dtd"
   xmlns:inkscape="http://www.inkscape.org/namespaces/inkscape"
   width="40.810371mm"
   height="47.624447mm"
   viewBox="0 0 144.60367 168.74804"
   id="svg4616"
   version="1.1"
   inkscape:version="0.91 r13725"
   sodipodi:docname="disinfection.svg"
   inkscape:export-filename="/home/hacker/Изображения/mHundred.png"
   inkscape:export-xdpi="90"
   inkscape:export-ydpi="90">
  <defs
     id="defs4618" />
  <sodipodi:namedview
     id="base"
     pagecolor="#ffffff"
     bordercolor="#666666"
     borderopacity="1.0"
     inkscape:pageopacity="0.0"
     inkscape:pageshadow="2"
     inkscape:zoom="2.8284271"
     inkscape:cx="59.549677"
     inkscape:cy="86.428672"
     inkscape:document-units="px"
     inkscape:current-layer="layer1"
     showgrid="false"
     inkscape:snap-bbox="true"
     inkscape:bbox-paths="true"
     inkscape:bbox-nodes="true"
     inkscape:snap-bbox-edge-midpoints="true"
     inkscape:snap-bbox-midpoints="true"
     inkscape:object-paths="true"
     inkscape:snap-intersection-paths="true"
     inkscape:object-nodes="false"
     inkscape:snap-smooth-nodes="false"
     inkscape:snap-midpoints="false"
     showguides="true"
     inkscape:guide-bbox="true"
     fit-margin-top="0"
     fit-margin-left="0"
     fit-margin-right="0"
     fit-margin-bottom="0"
     inkscape:window-width="1366"
     inkscape:window-height="710"
     inkscape:window-x="0"
     inkscape:window-y="0"
     inkscape:window-maximized="1">
    <sodipodi:guide
       position="52.517783,26.281718"
       orientation="1,0"
       id="guide5187" />
    <sodipodi:guide
       position="44.660624,26.281718"
       orientation="1,0"
       id="guide5189" />
    <sodipodi:guide
       position="60.017771,26.281718"
       orientation="1,0"
       id="guide5191" />
    <sodipodi:guide
       position="60.017771,26.281718"
       orientation="0,1"
       id="guide5193" />
    <sodipodi:guide
       position="44.660624,11.281739"
       orientation="0,1"
       id="guide5195" />
  </sodipodi:namedview>
  <metadata
     id="metadata4621">
    <rdf:RDF>
      <cc:Work
         rdf:about="">
        <dc:format>image/svg+xml</dc:format>
        <dc:type
           rdf:resource="http://purl.org/dc/dcmitype/StillImage" />
        <dc:title></dc:title>
      </cc:Work>
    </rdf:RDF>
  </metadata>
  <g
     inkscape:label="Layer 1"
     inkscape:groupmode="layer"
     id="layer1"
     transform="translate(-270.33937,-85.967324)">
    <rect
       style="fill:#13445e;fill-opacity:1;stroke:none;stroke-opacity:1"
       id="rect4167"
       width="117.82443"
       height="115.9203"
       x="283.73209"
       y="99.129204"
       ry="8.0231533" />
    <path
       style="fill:#e2000d;fill-opacity:1;stroke:none;stroke-width:1.156479;stroke-opacity:1"
       d="m 274.69288,85.967324 -4.35352,4.345706 0,133.77738 4.35157,4.35937 8.53711,0 6.74804,-8.9043 -6.24609,0 -4.35352,-4.36132 0,-115.96878 4.40039,-4.34375 100.6602,0 6.74804,-8.904306 -116.49222,0 z m 127.36136,0 -6.74804,8.904306 6.10742,-0.13867 4.49023,4.48438 0,115.834 -4.24609,4.25196 -100.82034,0 -6.75,8.90429 34.89844,0.0703 13.99024,26.4375 14.02344,-26.38086 53.58986,0.10742 4.34766,-4.34766 0.006,-133.78128 -4.35757,-4.345686 -8.53125,0 z"
       id="rect4136"
       inkscape:connector-curvature="0" />
    <g
       id="g227"
       transform="matrix(1.4923321,0,0,1.6737246,189.4733,-139.80269)"
       style="stroke:#ffffff;stroke-opacity:1">
      <path
         stroke-miterlimit="10"
         d="M 135.1,172.4"
         id="path229"
         inkscape:connector-curvature="0"
         style="fill:none;stroke:#ffffff;stroke-miterlimit:10;stroke-opacity:1" />
      <path
         stroke-miterlimit="10"
         d="M 87.4,172.4"
         id="path231"
         inkscape:connector-curvature="0"
         style="fill:none;stroke:#ffffff;stroke-miterlimit:10;stroke-opacity:1" />
    </g>
    <g
       id="g267"
       transform="matrix(1.5199063,0,0,1.495047,72.26065,-108.55873)"
       style="fill:#ffffff;fill-opacity:1">
      <path
         d="m 181.3,156.7 -3.4,-1.6 c -0.2,-0.1 -0.3,-0.4 -0.2,-0.6 l 2.1,-4.6 c 0.1,-0.2 0.4,-0.3 0.6,-0.2 l 3.4,1.6 c 0.2,0.1 0.3,0.4 0.2,0.6 l -2.1,4.6 c -0.1,0.2 -0.3,0.3 -0.6,0.2 z"
         id="path269"
         inkscape:connector-curvature="0"
         style="fill:#ffffff;fill-opacity:1" />
      <path
         d="m 167.1,158 19.3,8.8 c 0,0 0.5,-6.1 -7.2,-9.6 -7.8,-3.6 -12.1,0.8 -12.1,0.8 z"
         id="path271"
         inkscape:connector-curvature="0"
         style="fill:#ffffff;fill-opacity:1" />
      <g
         id="g273"
         style="fill:#ffffff;fill-opacity:1">
        <path
           d="m 187.2,177.3 2,-4.5 c 0.7,-1.6 0,-3.4 -1.6,-4.2 L 165,158.4 c -1.8,-0.8 -3.8,0 -4.6,1.8 l -1.9,4.2 28.7,12.9 z"
           id="path275"
           inkscape:connector-curvature="0"
           style="fill:#ffffff;fill-opacity:1" />
        <path
           d="m 145.3,193.7 -2,4.4 c -0.8,1.8 0,3.8 1.8,4.6 l 22.6,10.2 c 1.6,0.7 3.4,0 4.2,-1.6 l 2.1,-4.8 -28.7,-12.8 z"
           id="path277"
           inkscape:connector-curvature="0"
           style="fill:#ffffff;fill-opacity:1" />
        <rect
           x="151.60001"
           y="169.89999"
           transform="matrix(0.4129,-0.9108,0.9108,0.4129,-71.421,260.2945)"
           width="29.200001"
           height="31.4"
           id="rect279"
           style="fill:#ffffff;fill-opacity:1" />
      </g>
      <polygon
         points="186.6,149.6 204.3,142.2 205.1,144.4 186.8,150.1 "
         id="polygon281"
         style="fill:#ffffff;fill-opacity:1" />
      <polygon
         points="187,150.6 209.6,145.8 210.1,148 187.1,151.1 "
         id="polygon283"
         style="fill:#ffffff;fill-opacity:1" />
      <polygon
         points="187.2,151.6 207.2,150.7 207.2,153 187.2,152.1 "
         id="polygon285"
         style="fill:#ffffff;fill-opacity:1" />
      <polygon
         points="187.2,152.5 212.8,156 212.4,158.4 187.2,153.1 "
         id="polygon287"
         style="fill:#ffffff;fill-opacity:1" />
      <polygon
         points="187.1,153.6 208.2,160.3 207.3,162.7 186.9,154.2 "
         id="polygon289"
         style="fill:#ffffff;fill-opacity:1" />
      <polygon
         points="186.7,154.6 204.5,163.8 203.3,165.8 186.5,155.1 "
         id="polygon291"
         style="fill:#ffffff;fill-opacity:1" />
      <polygon
         points="186.2,155.6 205.4,170.2 203.8,172.1 185.9,156.1 "
         id="polygon293"
         style="fill:#ffffff;fill-opacity:1" />
      <polygon
         points="185.7,156.6 199.3,171 197.4,172.6 185.2,156.9 "
         id="polygon295"
         style="fill:#ffffff;fill-opacity:1" />
    </g>
  </g>
</svg>
