<?xml version="1.0" encoding="UTF-8" standalone="no"?>
<!-- Created with Inkscape (http://www.inkscape.org/) -->

<svg
   xmlns:dc="http://purl.org/dc/elements/1.1/"
   xmlns:cc="http://creativecommons.org/ns#"
   xmlns:rdf="http://www.w3.org/1999/02/22-rdf-syntax-ns#"
   xmlns:svg="http://www.w3.org/2000/svg"
   xmlns="http://www.w3.org/2000/svg"
   xmlns:sodipodi="http://sodipodi.sourceforge.net/DTD/sodipodi-0.dtd"
   xmlns:inkscape="http://www.inkscape.org/namespaces/inkscape"
   width="40.810371mm"
   height="47.624447mm"
   viewBox="0 0 144.60367 168.74804"
   id="svg4616"
   version="1.1"
   inkscape:version="0.91 r13725"
   sodipodi:docname="GAI_post.svg"
   inkscape:export-filename="/home/hacker/Изображения/mHundred.png"
   inkscape:export-xdpi="90"
   inkscape:export-ydpi="90">
  <defs
     id="defs4618" />
  <sodipodi:namedview
     id="base"
     pagecolor="#ffffff"
     bordercolor="#666666"
     borderopacity="1.0"
     inkscape:pageopacity="0.0"
     inkscape:pageshadow="2"
     inkscape:zoom="2.0000001"
     inkscape:cx="85.098432"
     inkscape:cy="103.8604"
     inkscape:document-units="px"
     inkscape:current-layer="layer1"
     showgrid="false"
     inkscape:snap-bbox="true"
     inkscape:bbox-paths="true"
     inkscape:bbox-nodes="true"
     inkscape:snap-bbox-edge-midpoints="true"
     inkscape:snap-bbox-midpoints="true"
     inkscape:object-paths="true"
     inkscape:snap-intersection-paths="true"
     inkscape:object-nodes="false"
     inkscape:snap-smooth-nodes="false"
     inkscape:snap-midpoints="false"
     showguides="true"
     inkscape:guide-bbox="true"
     fit-margin-top="0"
     fit-margin-left="0"
     fit-margin-right="0"
     fit-margin-bottom="0"
     inkscape:window-width="1366"
     inkscape:window-height="710"
     inkscape:window-x="0"
     inkscape:window-y="0"
     inkscape:window-maximized="1"
     inkscape:snap-global="true">
    <sodipodi:guide
       position="52.873983,26.415778"
       orientation="1,0"
       id="guide5187" />
    <sodipodi:guide
       position="45.016823,26.415778"
       orientation="1,0"
       id="guide5189" />
    <sodipodi:guide
       position="60.373971,26.415778"
       orientation="1,0"
       id="guide5191" />
    <sodipodi:guide
       position="45.016823,11.415799"
       orientation="0,1"
       id="guide5195" />
  </sodipodi:namedview>
  <metadata
     id="metadata4621">
    <rdf:RDF>
      <cc:Work
         rdf:about="">
        <dc:format>image/svg+xml</dc:format>
        <dc:type
           rdf:resource="http://purl.org/dc/dcmitype/StillImage" />
        <dc:title></dc:title>
      </cc:Work>
    </rdf:RDF>
  </metadata>
  <g
     inkscape:label="Layer 1"
     inkscape:groupmode="layer"
     id="layer1"
     transform="translate(-269.98317,-86.101386)">
    <rect
       style="fill:#13445e;fill-opacity:1;stroke:none;stroke-opacity:1"
       id="rect4167"
       width="117.82443"
       height="115.9203"
       x="283.37589"
       y="99.26326"
       ry="8.0231533" />
    <path
       style="fill:#e2000d;fill-opacity:1;stroke:none;stroke-width:1.156479;stroke-opacity:1"
       d="m 274.33668,86.101386 -4.35352,4.345706 0,133.777378 4.35157,4.35937 8.53711,0 6.74804,-8.9043 -6.24609,0 -4.35352,-4.36132 0,-115.968778 4.40039,-4.34375 100.6602,0 6.74804,-8.904306 -116.49222,0 z m 127.36136,0 -6.74804,8.904306 6.10742,-0.13867 4.49023,4.48438 0,115.833998 -4.24609,4.25196 -100.82034,0 -6.75,8.90429 34.89844,0.0703 13.99024,26.4375 14.02344,-26.38086 53.58986,0.10742 4.34766,-4.34766 0.006,-133.781278 -4.35757,-4.345686 -8.53125,0 z"
       id="rect4136"
       inkscape:connector-curvature="0" />
    <g
       id="g109"
       transform="matrix(0.91738174,0,0,0.84305593,283.47113,-14.174942)"
       style="fill:#ffffff;fill-opacity:1">
      <g
         id="g163"
         transform="matrix(0.92003542,0,0,0.97726067,-62.617934,4.5855516)"
         style="fill:#ffffff;fill-opacity:1">
        <g
           id="g297"
           transform="matrix(1.0012402,0,0,1.051786,-71.263813,-12.819671)"
           style="fill:#ffffff;fill-opacity:1">
          <g
             id="g345"
             transform="matrix(1.7659263,0,0,2.0407493,-230.87568,-302.21747)"
             style="fill:#ffffff;fill-opacity:1">
            <path
               d="m 213.4,234.6 19.3,0 0,4.8 -13.5,0 0,23.6 -5.8,0 0,-28.4 z"
               id="path347"
               inkscape:connector-curvature="0"
               style="fill:#ffffff;fill-opacity:1" />
            <path
               d="m 258.8,263 -6.3,0 -2.5,-6.5 -11.4,0 -2.3,6.5 -6.1,0 11.1,-28.4 6.1,0 11.4,28.4 z m -10.6,-11.3 -3.9,-10.5 -3.9,10.5 7.8,0 z"
               id="path349"
               inkscape:connector-curvature="0"
               style="fill:#ffffff;fill-opacity:1" />
            <path
               d="m 261.9,234.6 5.4,0 0,18.9 11.5,-18.9 5.7,0 0,28.4 -5.4,0 0,-18.6 -11.5,18.6 -5.7,0 0,-28.4 z"
               id="path351"
               inkscape:connector-curvature="0"
               style="fill:#ffffff;fill-opacity:1" />
          </g>
        </g>
      </g>
    </g>
  </g>
</svg>
