<?xml version="1.0" encoding="UTF-8" standalone="no"?>
<!-- Created with Inkscape (http://www.inkscape.org/) -->

<svg
   xmlns:dc="http://purl.org/dc/elements/1.1/"
   xmlns:cc="http://creativecommons.org/ns#"
   xmlns:rdf="http://www.w3.org/1999/02/22-rdf-syntax-ns#"
   xmlns:svg="http://www.w3.org/2000/svg"
   xmlns="http://www.w3.org/2000/svg"
   xmlns:sodipodi="http://sodipodi.sourceforge.net/DTD/sodipodi-0.dtd"
   xmlns:inkscape="http://www.inkscape.org/namespaces/inkscape"
   width="40.810371mm"
   height="47.624447mm"
   viewBox="0 0 144.60367 168.74804"
   id="svg4616"
   version="1.1"
   inkscape:version="0.91 r13725"
   sodipodi:docname="logistics.svg"
   inkscape:export-filename="/home/hacker/Изображения/mHundred.png"
   inkscape:export-xdpi="90"
   inkscape:export-ydpi="90">
  <defs
     id="defs4618" />
  <sodipodi:namedview
     id="base"
     pagecolor="#ffffff"
     bordercolor="#666666"
     borderopacity="1.0"
     inkscape:pageopacity="0.0"
     inkscape:pageshadow="2"
     inkscape:zoom="2.0000001"
     inkscape:cx="22.927878"
     inkscape:cy="101.38143"
     inkscape:document-units="px"
     inkscape:current-layer="layer1"
     showgrid="false"
     inkscape:snap-bbox="true"
     inkscape:bbox-paths="true"
     inkscape:bbox-nodes="true"
     inkscape:snap-bbox-edge-midpoints="true"
     inkscape:snap-bbox-midpoints="true"
     inkscape:object-paths="true"
     inkscape:snap-intersection-paths="true"
     inkscape:object-nodes="false"
     inkscape:snap-smooth-nodes="false"
     inkscape:snap-midpoints="false"
     showguides="true"
     inkscape:guide-bbox="true"
     fit-margin-top="0"
     fit-margin-left="0"
     fit-margin-right="0"
     fit-margin-bottom="0"
     inkscape:window-width="1366"
     inkscape:window-height="710"
     inkscape:window-x="0"
     inkscape:window-y="0"
     inkscape:window-maximized="1"
     inkscape:snap-global="true">
    <sodipodi:guide
       position="46.379444,31.476187"
       orientation="1,0"
       id="guide5187" />
    <sodipodi:guide
       position="38.522285,31.476187"
       orientation="1,0"
       id="guide5189" />
    <sodipodi:guide
       position="53.879433,31.476187"
       orientation="1,0"
       id="guide5191" />
    <sodipodi:guide
       position="38.522285,16.476209"
       orientation="0,1"
       id="guide5195" />
  </sodipodi:namedview>
  <metadata
     id="metadata4621">
    <rdf:RDF>
      <cc:Work
         rdf:about="">
        <dc:format>image/svg+xml</dc:format>
        <dc:type
           rdf:resource="http://purl.org/dc/dcmitype/StillImage" />
        <dc:title></dc:title>
      </cc:Work>
    </rdf:RDF>
  </metadata>
  <g
     inkscape:label="Layer 1"
     inkscape:groupmode="layer"
     id="layer1"
     transform="translate(-276.47771,-91.161799)">
    <rect
       style="fill:#13445e;fill-opacity:1;stroke:none;stroke-opacity:1"
       id="rect4167"
       width="117.82443"
       height="115.9203"
       x="289.87042"
       y="104.32368"
       ry="8.0231533" />
    <path
       style="fill:#e2000d;fill-opacity:1;stroke:none;stroke-width:1.156479;stroke-opacity:1"
       d="m 280.83122,91.161799 -4.35352,4.345706 0,133.777375 4.35157,4.35937 8.53711,0 6.74804,-8.9043 -6.24609,0 -4.35352,-4.36132 0,-115.96878 4.40039,-4.34375 100.6602,0 6.74804,-8.904301 -116.49222,0 z m 127.36136,0 -6.74804,8.904301 6.10742,-0.138665 4.49023,4.484375 0,115.834 -4.24609,4.25196 -100.82034,0 -6.75,8.90429 34.89844,0.0703 13.99024,26.4375 14.02344,-26.38086 53.58986,0.10742 4.34766,-4.34766 0.006,-133.781275 -4.35757,-4.345686 -8.53125,0 z"
       id="rect4136"
       inkscape:connector-curvature="0" />
    <g
       id="g109"
       transform="matrix(0.91738174,0,0,0.84305593,290.11202,-14.174941)"
       style="fill:#ffffff;fill-opacity:1">
      <g
         id="g163"
         transform="matrix(0.92003542,0,0,0.97726067,-62.617934,4.5855516)"
         style="fill:#ffffff;fill-opacity:1">
        <g
           id="g297"
           transform="matrix(1.7706068,0,0,1.8599926,-177.24419,-259.32878)"
           style="fill:#ffffff;fill-opacity:1">
          <rect
             x="153.2"
             y="251.7"
             width="49.200001"
             height="3.2"
             id="rect299"
             style="fill:#ffffff;fill-opacity:1" />
          <rect
             x="153.2"
             y="257.5"
             width="49.200001"
             height="3.2"
             id="rect301"
             style="fill:#ffffff;fill-opacity:1" />
          <rect
             x="153.2"
             y="262.29999"
             width="49.200001"
             height="3.2"
             id="rect303"
             style="fill:#ffffff;fill-opacity:1" />
          <rect
             x="153.2"
             y="268"
             width="49.200001"
             height="3.2"
             id="rect305"
             style="fill:#ffffff;fill-opacity:1" />
          <rect
             x="153.2"
             y="273.20001"
             width="49.200001"
             height="3.2"
             id="rect307"
             style="fill:#ffffff;fill-opacity:1" />
          <path
             d="m 206.6,242 -9.5,0 0,-4 6.4,-0.1 0,-18 -52.1,0 0,18 6.2,0.1 0,4 -8.5,0 -6.7,0 0,6.5 0,29.1 6.8,0 0,-29.1 57.4,0 0,29.1 6.8,0 0,-29.1 0,-6.5 -6.8,0 z m -51,-18.7 44,0 0,11.4 -44,0 0,-11.4 z m 8.6,18.7 0,-4 26.3,0 0,4 -26.3,0 z"
             id="path309"
             inkscape:connector-curvature="0"
             style="fill:#ffffff;fill-opacity:1" />
          <g
             id="g311"
             style="fill:#ffffff;fill-opacity:1">
            <path
               d="m 160.5,226 0.8,0 0,5.4 2.7,0 0,0.6 -3.5,0 0,-6 0,0 z"
               id="path313"
               inkscape:connector-curvature="0"
               style="fill:#ffffff;fill-opacity:1" />
            <path
               d="m 170,228.9 c 0,2 -1.3,3.1 -3,3.1 -1.7,0 -2.9,-1.2 -2.9,-3 0,-1.9 1.3,-3.1 3,-3.1 1.8,0 2.9,1.2 2.9,3 z m -4.8,0.1 c 0,1.3 0.7,2.4 2,2.4 1.3,0 2,-1.1 2,-2.5 0,-1.2 -0.6,-2.4 -2,-2.4 -1.4,0 -2,1.2 -2,2.5 z"
               id="path315"
               inkscape:connector-curvature="0"
               style="fill:#ffffff;fill-opacity:1" />
            <path
               d="m 175.9,231.7 c -0.4,0.1 -1.1,0.4 -1.9,0.4 -0.9,0 -1.8,-0.2 -2.4,-0.8 -0.6,-0.5 -0.9,-1.3 -0.9,-2.2 0,-1.8 1.3,-3 3.4,-3 0.7,0 1.3,0.2 1.6,0.3 l -0.2,0.6 c -0.4,-0.2 -0.7,-0.3 -1.4,-0.3 -1.6,0 -2.5,0.9 -2.5,2.4 0,1.5 0.9,2.4 2.4,2.4 0.6,0 0.9,-0.1 1.1,-0.2 l 0,-1.8 -1.3,0 0,-0.6 2.1,0 0,2.8 z"
               id="path317"
               inkscape:connector-curvature="0"
               style="fill:#ffffff;fill-opacity:1" />
            <path
               d="m 177.9,226 0,6 -0.8,0 0,-6 0.8,0 0,0 z"
               id="path319"
               inkscape:connector-curvature="0"
               style="fill:#ffffff;fill-opacity:1" />
            <path
               d="m 179.2,231.1 c 0.4,0.2 0.9,0.4 1.5,0.4 0.8,0 1.3,-0.5 1.3,-1 0,-0.5 -0.4,-0.9 -1.2,-1.2 -1,-0.4 -1.7,-0.8 -1.7,-1.7 0,-0.9 0.8,-1.7 2,-1.7 0.6,0 1.1,0.2 1.4,0.3 l -0.2,0.6 c -0.2,-0.1 -0.6,-0.3 -1.2,-0.3 -0.8,0 -1.2,0.5 -1.2,0.9 0,0.6 0.4,0.8 1.3,1.2 1.1,0.4 1.6,0.8 1.6,1.8 0,1 -0.7,1.8 -2.2,1.8 -0.6,0 -1.3,-0.2 -1.6,-0.4 l 0.2,-0.7 z"
               id="path321"
               inkscape:connector-curvature="0"
               style="fill:#ffffff;fill-opacity:1" />
            <path
               d="m 185.1,226.6 -1.9,0 0,-0.6 4.7,0 0,0.6 -1.9,0 0,5.4 -0.8,0 0,-5.4 z"
               id="path323"
               inkscape:connector-curvature="0"
               style="fill:#ffffff;fill-opacity:1" />
            <path
               d="m 189.3,226 0,6 -0.8,0 0,-6 0.8,0 0,0 z"
               id="path325"
               inkscape:connector-curvature="0"
               style="fill:#ffffff;fill-opacity:1" />
            <path
               d="m 195.2,231.8 c -0.3,0.2 -0.9,0.3 -1.7,0.3 -1.8,0 -3.1,-1.1 -3.1,-3 0,-1.8 1.3,-3.1 3.3,-3.1 0.8,0 1.3,0.2 1.5,0.3 l -0.2,0.6 c -0.3,-0.2 -0.7,-0.3 -1.3,-0.3 -1.5,0 -2.5,0.9 -2.5,2.5 0,1.5 0.9,2.4 2.4,2.4 0.5,0 1,-0.1 1.3,-0.3 l 0.3,0.6 z"
               id="path327"
               inkscape:connector-curvature="0"
               style="fill:#ffffff;fill-opacity:1" />
          </g>
        </g>
      </g>
    </g>
  </g>
</svg>
