<?xml version="1.0" encoding="UTF-8" standalone="no"?>
<!-- Created with Inkscape (http://www.inkscape.org/) -->

<svg
   xmlns:dc="http://purl.org/dc/elements/1.1/"
   xmlns:cc="http://creativecommons.org/ns#"
   xmlns:rdf="http://www.w3.org/1999/02/22-rdf-syntax-ns#"
   xmlns:svg="http://www.w3.org/2000/svg"
   xmlns="http://www.w3.org/2000/svg"
   xmlns:sodipodi="http://sodipodi.sourceforge.net/DTD/sodipodi-0.dtd"
   xmlns:inkscape="http://www.inkscape.org/namespaces/inkscape"
   width="40.810371mm"
   height="47.624451mm"
   viewBox="0 0 144.60367 168.74806"
   id="svg4616"
   version="1.1"
   inkscape:version="0.91 r13725"
   sodipodi:docname="parking.svg"
   inkscape:export-filename="/home/hacker/Изображения/mHundred.png"
   inkscape:export-xdpi="90"
   inkscape:export-ydpi="90">
  <defs
     id="defs4618" />
  <sodipodi:namedview
     id="base"
     pagecolor="#ffffff"
     bordercolor="#666666"
     borderopacity="1.0"
     inkscape:pageopacity="0.0"
     inkscape:pageshadow="2"
     inkscape:zoom="2.0000001"
     inkscape:cx="2.3346579"
     inkscape:cy="89.056183"
     inkscape:document-units="px"
     inkscape:current-layer="layer1"
     showgrid="false"
     inkscape:snap-bbox="true"
     inkscape:bbox-paths="true"
     inkscape:bbox-nodes="true"
     inkscape:snap-bbox-edge-midpoints="true"
     inkscape:snap-bbox-midpoints="true"
     inkscape:object-paths="true"
     inkscape:snap-intersection-paths="true"
     inkscape:object-nodes="true"
     inkscape:snap-smooth-nodes="true"
     inkscape:snap-midpoints="true"
     showguides="true"
     inkscape:guide-bbox="true"
     fit-margin-top="0"
     fit-margin-left="0"
     fit-margin-right="0"
     fit-margin-bottom="0"
     inkscape:window-width="1366"
     inkscape:window-height="710"
     inkscape:window-x="0"
     inkscape:window-y="0"
     inkscape:window-maximized="1">
    <sodipodi:guide
       position="46.231394,26.588951"
       orientation="1,0"
       id="guide5187" />
    <sodipodi:guide
       position="38.374235,26.588951"
       orientation="1,0"
       id="guide5189" />
    <sodipodi:guide
       position="53.731383,26.588951"
       orientation="1,0"
       id="guide5191" />
    <sodipodi:guide
       position="53.731383,26.588951"
       orientation="0,1"
       id="guide5193" />
    <sodipodi:guide
       position="38.374235,11.588971"
       orientation="0,1"
       id="guide5195" />
    <sodipodi:guide
       position="72.304904,155.58618"
       orientation="1,0"
       id="guide4156" />
    <sodipodi:guide
       position="132.30068,96.854271"
       orientation="0,1"
       id="guide4158" />
  </sodipodi:namedview>
  <metadata
     id="metadata4621">
    <rdf:RDF>
      <cc:Work
         rdf:about="">
        <dc:format>image/svg+xml</dc:format>
        <dc:type
           rdf:resource="http://purl.org/dc/dcmitype/StillImage" />
        <dc:title></dc:title>
      </cc:Work>
    </rdf:RDF>
  </metadata>
  <g
     inkscape:label="Layer 1"
     inkscape:groupmode="layer"
     id="layer1"
     transform="translate(-276.62576,-86.274551)">
    <rect
       style="fill:#13445e;fill-opacity:1;stroke:none;stroke-opacity:1"
       id="rect4167"
       width="117.82443"
       height="115.9203"
       x="290.01846"
       y="99.436432"
       ry="8.0231533" />
    <path
       style="fill:#e2000d;fill-opacity:1;stroke:none;stroke-width:1.156479;stroke-opacity:1"
       d="m 280.97927,86.274551 -4.35352,4.345706 0,133.777383 4.35157,4.35937 8.53711,0 6.74804,-8.9043 -6.24609,0 -4.35352,-4.36132 0,-115.968783 4.40039,-4.34375 100.6602,0 6.74804,-8.904306 -116.49222,0 z m 127.36136,0 -6.74804,8.904306 6.10742,-0.13867 4.49023,4.48438 0,115.834003 -4.24609,4.25196 -100.82034,0 -6.75,8.90429 34.89844,0.0703 13.99024,26.4375 14.02344,-26.38086 53.58986,0.10742 4.34766,-4.34766 0.006,-133.781283 -4.35757,-4.345686 -8.53125,0 z"
       id="rect4136"
       inkscape:connector-curvature="0" />
    <path
       d="m 365.75928,105.11584 -36.457,0 -24.57977,0 0,106.10501 24.57977,0 0,-40.44228 36.457,0 c 15.01173,0 27.3841,-11.19252 27.3841,-24.77276 l 0,-16.11723 c 0,-13.58024 -12.04238,-24.77274 -27.3841,-24.77274 z m 2.96933,37.15913 c 0,5.82009 -5.1139,10.59557 -11.71239,10.59557 l -27.71394,0 0,-30.29439 27.71394,0 c 6.43367,0 11.71239,4.62622 11.71239,10.59557 l 0,9.10325 z"
       id="path329"
       inkscape:connector-curvature="0"
       style="fill:#ffffff;fill-opacity:1" />
  </g>
</svg>
