<?xml version="1.0" encoding="UTF-8" standalone="no"?>
<!-- Created with Inkscape (http://www.inkscape.org/) -->

<svg
   xmlns:dc="http://purl.org/dc/elements/1.1/"
   xmlns:cc="http://creativecommons.org/ns#"
   xmlns:rdf="http://www.w3.org/1999/02/22-rdf-syntax-ns#"
   xmlns:svg="http://www.w3.org/2000/svg"
   xmlns="http://www.w3.org/2000/svg"
   xmlns:sodipodi="http://sodipodi.sourceforge.net/DTD/sodipodi-0.dtd"
   xmlns:inkscape="http://www.inkscape.org/namespaces/inkscape"
   width="40.810371mm"
   height="47.624451mm"
   viewBox="0 0 144.60367 168.74806"
   id="svg4616"
   version="1.1"
   inkscape:version="0.91 r13725"
   sodipodi:docname="pay_road.svg"
   inkscape:export-filename="/home/hacker/Изображения/mHundred.png"
   inkscape:export-xdpi="90"
   inkscape:export-ydpi="90">
  <defs
     id="defs4618" />
  <sodipodi:namedview
     id="base"
     pagecolor="#ffffff"
     bordercolor="#666666"
     borderopacity="1.0"
     inkscape:pageopacity="0.0"
     inkscape:pageshadow="2"
     inkscape:zoom="2.8284271"
     inkscape:cx="35.562907"
     inkscape:cy="83.542843"
     inkscape:document-units="px"
     inkscape:current-layer="layer1"
     showgrid="false"
     inkscape:snap-bbox="true"
     inkscape:bbox-paths="true"
     inkscape:bbox-nodes="true"
     inkscape:snap-bbox-edge-midpoints="true"
     inkscape:snap-bbox-midpoints="true"
     inkscape:object-paths="true"
     inkscape:snap-intersection-paths="true"
     inkscape:object-nodes="false"
     inkscape:snap-smooth-nodes="false"
     inkscape:snap-midpoints="false"
     showguides="true"
     inkscape:guide-bbox="true"
     fit-margin-top="0"
     fit-margin-left="0"
     fit-margin-right="0"
     fit-margin-bottom="0"
     inkscape:window-width="1366"
     inkscape:window-height="710"
     inkscape:window-x="0"
     inkscape:window-y="0"
     inkscape:window-maximized="1">
    <sodipodi:guide
       position="45.870114,25.815351"
       orientation="1,0"
       id="guide5187" />
    <sodipodi:guide
       position="38.012955,25.815351"
       orientation="1,0"
       id="guide5189" />
    <sodipodi:guide
       position="53.370103,25.815351"
       orientation="1,0"
       id="guide5191" />
    <sodipodi:guide
       position="38.012955,10.815371"
       orientation="0,1"
       id="guide5195" />
  </sodipodi:namedview>
  <metadata
     id="metadata4621">
    <rdf:RDF>
      <cc:Work
         rdf:about="">
        <dc:format>image/svg+xml</dc:format>
        <dc:type
           rdf:resource="http://purl.org/dc/dcmitype/StillImage" />
        <dc:title></dc:title>
      </cc:Work>
    </rdf:RDF>
  </metadata>
  <g
     inkscape:label="Layer 1"
     inkscape:groupmode="layer"
     id="layer1"
     transform="translate(-276.98704,-85.500953)">
    <rect
       style="fill:#13445e;fill-opacity:1;stroke:none;stroke-opacity:1"
       id="rect4167"
       width="117.82443"
       height="115.9203"
       x="290.37973"
       y="98.662834"
       ry="8.0231533" />
    <path
       style="fill:#e2000d;fill-opacity:1;stroke:none;stroke-width:1.156479;stroke-opacity:1"
       d="m 281.34055,85.500953 -4.35352,4.345706 0,133.777381 4.35157,4.35937 8.53711,0 6.74804,-8.9043 -6.24609,0 -4.35352,-4.36132 0,-115.968778 4.40039,-4.343748 100.6602,0 6.74804,-8.904311 -116.49222,0 z m 127.36136,0 -6.74804,8.904311 6.10742,-0.13867 4.49023,4.484378 0,115.833998 -4.24609,4.25196 -100.82034,0 -6.75,8.90429 34.89844,0.0703 13.99024,26.4375 14.02344,-26.38086 53.58986,0.10742 4.34766,-4.34766 0.006,-133.781281 -4.35757,-4.345686 -8.53125,0 z"
       id="rect4136"
       inkscape:connector-curvature="0" />
    <g
       id="g109"
       transform="matrix(1.6223103,0,0,1.4908715,291.02204,-212.12485)"
       style="fill:#ffffff;fill-opacity:1">
      <g
         id="g163"
         transform="matrix(0.92003542,0,0,0.97726067,-62.617934,4.5855516)"
         style="fill:#ffffff;fill-opacity:1">
        <g
           id="g165"
           style="fill:#ffffff;fill-opacity:1">
          <path
             d="m 106.2,240.4 c -0.2,0.8 -0.3,1.8 -0.3,2.7 0,0.5 0.1,0.8 0.1,1.2 0,-0.4 -0.1,-0.7 -0.1,-1.1 0,-2.7 0.8,-5.2 2.3,-7.2 L 90.3,219.1 c -0.9,-0.8 -2.3,-0.8 -3.1,0.1 l -1.5,1.5 20.5,19.7 z"
             id="path167"
             inkscape:connector-curvature="0"
             style="fill:#ffffff;fill-opacity:1" />
          <path
             d="m 107.3,248.8 c 0.5,1 1.1,1.9 1.8,2.8 l -27.3,-26.8 -9.9,10.4 c -0.8,0.9 -0.8,2.3 0.1,3.1 l 25.8,24.4 c 0.9,0.8 2.3,0.8 3.1,-0.1 l 9.5,-10.1 c -1.3,-0.9 -2.4,-2.2 -3.1,-3.7 z"
             id="path169"
             inkscape:connector-curvature="0"
             style="fill:#ffffff;fill-opacity:1" />
          <path
             d="m 107.1,248.4 c -0.6,-1.1 -0.9,-2.4 -1,-3.7 0.1,1.3 0.4,2.5 1,3.7 z"
             id="path171"
             inkscape:connector-curvature="0"
             style="fill:#ffffff;fill-opacity:1" />
        </g>
        <g
           id="g173"
           style="fill:#ffffff;fill-opacity:1">
          <g
             id="g175"
             style="fill:#ffffff;fill-opacity:1">
            <path
               d="m 72.3,279 0,-10 3.2,0 c 1.2,0 2,0.1 2.4,0.2 0.6,0.2 1,0.5 1.5,1 0.4,0.5 0.6,1.1 0.6,1.9 0,0.6 -0.1,1.1 -0.4,1.6 -0.2,0.5 -0.5,0.7 -0.8,1 -0.4,0.3 -0.6,0.4 -1,0.5 -0.5,0.1 -1.2,0.2 -2.1,0.2 l -1.3,0 0,3.8 -2,0 0,-0.2 z m 2,-8.3 0,2.9 1.1,0 c 0.8,0 1.3,-0.1 1.6,-0.2 0.3,-0.1 0.5,-0.3 0.6,-0.5 0.1,-0.2 0.2,-0.5 0.2,-0.7 0,-0.4 -0.1,-0.6 -0.3,-0.9 -0.2,-0.3 -0.5,-0.4 -0.8,-0.5 -0.3,0 -0.7,-0.1 -1.5,-0.1 l -0.9,0 z"
               id="path177"
               inkscape:connector-curvature="0"
               style="fill:#ffffff;fill-opacity:1" />
            <path
               d="m 89.5,279 -2.2,0 -0.8,-2.3 -4,0 -0.8,2.3 -2.1,0 3.9,-10 2.1,0 3.9,10 z m -3.6,-4 -1.4,-3.7 -1.4,3.7 2.8,0 z"
               id="path179"
               inkscape:connector-curvature="0"
               style="fill:#ffffff;fill-opacity:1" />
            <path
               d="m 91.9,279 0,-4.2 -3.7,-5.8 2.4,0 2.3,4 2.3,-4 2.3,0 -3.7,5.8 0,4.2 -1.9,0 0,0 z"
               id="path181"
               inkscape:connector-curvature="0"
               style="fill:#ffffff;fill-opacity:1" />
            <path
               d="m 102.3,279 0,-10 4.2,0 c 1.1,0 1.8,0.1 2.3,0.3 0.5,0.2 0.8,0.5 1.2,0.9 0.4,0.5 0.5,1 0.5,1.6 0,0.7 -0.2,1.4 -0.6,1.8 -0.5,0.5 -1.1,0.8 -1.9,0.9 0.5,0.3 0.8,0.6 1.1,0.8 0.3,0.3 0.6,0.8 1.1,1.7 l 1.2,1.9 -2.4,0 -1.5,-2.2 c -0.6,-0.7 -0.8,-1.3 -1.1,-1.5 -0.2,-0.2 -0.4,-0.4 -0.6,-0.5 -0.2,-0.1 -0.6,-0.1 -1,-0.1 l -0.4,0 0,4.2 -2.1,0.2 0,0 z m 2,-5.8 1.5,0 c 0.9,0 1.6,0 1.8,-0.1 0.3,-0.1 0.5,-0.2 0.6,-0.5 0.1,-0.2 0.2,-0.5 0.2,-0.7 0,-0.4 -0.1,-0.6 -0.3,-0.8 -0.2,-0.2 -0.5,-0.4 -0.7,-0.4 -0.2,0 -0.6,0 -1.5,0 l -1.6,0 c 0,0 0,2.5 0,2.5 z"
               id="path183"
               inkscape:connector-curvature="0"
               style="fill:#ffffff;fill-opacity:1" />
            <path
               d="m 112,274 c 0,-1 0.2,-1.8 0.5,-2.6 0.2,-0.6 0.6,-0.9 0.9,-1.4 0.4,-0.4 0.8,-0.7 1.3,-0.9 0.6,-0.3 1.4,-0.4 2.1,-0.4 1.5,0 2.7,0.5 3.5,1.4 0.9,0.9 1.3,2.2 1.3,3.8 0,1.6 -0.5,2.9 -1.3,3.8 -0.8,0.9 -2,1.4 -3.5,1.4 -1.5,0 -2.7,-0.5 -3.5,-1.4 -1,-0.9 -1.3,-2.1 -1.3,-3.7 z m 2,0 c 0,1.1 0.3,2 0.7,2.6 0.6,0.6 1.2,0.8 2,0.8 0.8,0 1.5,-0.3 1.9,-0.8 0.6,-0.6 0.7,-1.5 0.7,-2.6 0,-1.1 -0.3,-2 -0.7,-2.6 -0.5,-0.6 -1.2,-0.8 -2,-0.8 -0.8,0 -1.5,0.3 -2,0.8 -0.3,0.6 -0.6,1.4 -0.6,2.6 z"
               id="path185"
               inkscape:connector-curvature="0"
               style="fill:#ffffff;fill-opacity:1" />
            <path
               d="m 132.2,279 -2.2,0 -0.8,-2.3 -4,0 -0.8,2.3 -2.1,0 3.9,-10 2.1,0 3.9,10 z m -3.7,-4 -1.4,-3.7 -1.4,3.7 2.8,0 z"
               id="path187"
               inkscape:connector-curvature="0"
               style="fill:#ffffff;fill-opacity:1" />
            <path
               d="m 133.3,269 3.7,0 c 0.8,0 1.5,0.1 1.9,0.2 0.6,0.2 1.1,0.5 1.5,0.9 0.5,0.5 0.7,1 0.9,1.7 0.2,0.7 0.4,1.4 0.4,2.4 0,0.8 -0.1,1.6 -0.3,2.1 -0.3,0.7 -0.6,1.3 -1.1,1.8 -0.4,0.4 -0.8,0.6 -1.4,0.8 -0.5,0.2 -1,0.2 -1.8,0.2 l -3.8,0 0,-10.1 0,0 z m 2,1.7 0,6.6 1.5,0 c 0.6,0 1,0 1.2,-0.1 0.4,-0.1 0.6,-0.2 0.8,-0.5 0.2,-0.2 0.4,-0.6 0.6,-0.9 0.1,-0.5 0.2,-1 0.2,-1.8 0,-0.8 -0.1,-1.4 -0.2,-1.8 -0.1,-0.4 -0.4,-0.7 -0.6,-0.9 -0.3,-0.3 -0.6,-0.4 -0.9,-0.5 -0.3,-0.1 -0.8,-0.1 -1.7,-0.1 l -0.9,0 0,0 z"
               id="path189"
               inkscape:connector-curvature="0"
               style="fill:#ffffff;fill-opacity:1" />
          </g>
          <g
             id="g191"
             style="fill:#ffffff;fill-opacity:1">
            <path
               d="m 129.8,244.6 c -4.3,0 -8.1,-2.2 -10.3,-5.4 0.6,0.8 1.3,1.7 2,2.4 -0.1,0.2 -0.3,0.3 -0.4,0.5 -0.6,0.6 -1.4,1.1 -2.5,1.8 l -1.6,1.1 0.8,1.4 2.6,-1.7 1.4,2.1 -2.6,1.7 2,3.2 -2.5,1.7 -2,-3.2 -2.4,1.6 -1.4,-2.1 2.4,-1.6 -5.9,-9.1 4.1,-2.6 c 1.6,-1 2.6,-1.6 3.1,-1.8 0.3,-0.1 0.6,-0.2 0.9,-0.2 0,0.1 0,0.2 0.1,0.2 -0.1,-0.7 -0.2,-1.5 -0.2,-2.2 0,-0.5 0,-0.9 0.1,-1.4 -6.4,0.6 -11.4,5.9 -11.4,12.4 0,6.9 5.5,12.5 12.5,12.5 6.5,0 11.7,-4.9 12.4,-11.1 -0.5,-0.3 -0.8,-0.2 -1.2,-0.2 z"
               id="path193"
               inkscape:connector-curvature="0"
               style="fill:#ffffff;fill-opacity:1" />
            <path
               d="m 118.3,236.7 c -0.2,-0.5 -0.4,-1 -0.5,-1.5 0.1,0.5 0.3,1 0.5,1.5 z"
               id="path195"
               inkscape:connector-curvature="0"
               style="fill:#ffffff;fill-opacity:1" />
            <path
               d="m 118.4,237.2 c 0.1,0.2 0.2,0.5 0.3,0.6 -0.3,-0.3 -0.6,-0.6 -0.9,-0.6 -0.5,-0.1 -0.9,-0.1 -1.4,0.1 -0.4,0.1 -0.9,0.5 -1.8,1.1 l -1.2,0.8 2.3,3.5 1.4,-0.9 c 1,-0.6 1.7,-1.1 1.8,-1.5 0.3,-0.4 0.4,-0.7 0.4,-1.1 0,-0.2 0,-0.4 -0.1,-0.6 0.1,0.2 0.2,0.3 0.3,0.4 -0.4,-0.5 -0.7,-1.1 -1.1,-1.8 z"
               id="path197"
               inkscape:connector-curvature="0"
               style="fill:#ffffff;fill-opacity:1" />
          </g>
        </g>
        <g
           id="g199"
           style="fill:#ffffff;fill-opacity:1">
          <path
             d="m 132.2,226.3 c -0.4,-0.1 -1.1,-0.1 -2.1,-0.1 l -1.5,0 0,4.2 1.7,0 c 1.2,0 1.9,-0.1 2.4,-0.3 0.4,-0.2 0.7,-0.4 0.9,-0.7 0.2,-0.4 0.4,-0.7 0.4,-1.2 0,-0.6 -0.2,-1 -0.5,-1.4 -0.5,-0.3 -0.8,-0.4 -1.3,-0.5 z"
             id="path201"
             inkscape:connector-curvature="0"
             style="fill:#ffffff;fill-opacity:1" />
          <path
             d="m 129.9,219.8 c -6.9,0 -12.5,5.5 -12.5,12.5 0,7 5.5,12.5 12.5,12.5 6.9,0 12.5,-5.5 12.5,-12.5 0,-7 -5.6,-12.5 -12.5,-12.5 z m 6.5,10.7 c -0.4,0.6 -0.7,1.1 -1.3,1.5 -0.6,0.4 -1,0.6 -1.6,0.7 -0.7,0.2 -1.8,0.2 -3.1,0.2 l -1.9,0 0,1.6 3.1,0 0,2.6 -3.1,0 0,3.8 -3,0 0,-3.8 -2.8,0 0,-2.6 2.8,0 0,-10.9 4.8,0 c 1.8,0 3,0.1 3.6,0.2 0.8,0.2 1.6,0.7 2.1,1.5 0.6,0.7 0.8,1.8 0.8,2.9 0.2,0.9 0,1.7 -0.4,2.3 z"
             id="path203"
             inkscape:connector-curvature="0"
             style="fill:#ffffff;fill-opacity:1" />
        </g>
      </g>
    </g>
  </g>
</svg>
