<?xml version="1.0" encoding="UTF-8" standalone="no"?>
<!-- Created with Inkscape (http://www.inkscape.org/) -->

<svg
   xmlns:dc="http://purl.org/dc/elements/1.1/"
   xmlns:cc="http://creativecommons.org/ns#"
   xmlns:rdf="http://www.w3.org/1999/02/22-rdf-syntax-ns#"
   xmlns:svg="http://www.w3.org/2000/svg"
   xmlns="http://www.w3.org/2000/svg"
   xmlns:sodipodi="http://sodipodi.sourceforge.net/DTD/sodipodi-0.dtd"
   xmlns:inkscape="http://www.inkscape.org/namespaces/inkscape"
   width="40.810326mm"
   height="47.624451mm"
   viewBox="0 0 144.60351 168.74806"
   id="svg4616"
   version="1.1"
   inkscape:version="0.91 r13725"
   sodipodi:docname="spare_parts.svg"
   inkscape:export-filename="/home/hacker/Изображения/mHundred.png"
   inkscape:export-xdpi="90"
   inkscape:export-ydpi="90">
  <defs
     id="defs4618" />
  <sodipodi:namedview
     id="base"
     pagecolor="#ffffff"
     bordercolor="#666666"
     borderopacity="1.0"
     inkscape:pageopacity="0.0"
     inkscape:pageshadow="2"
     inkscape:zoom="1.4142136"
     inkscape:cx="-10.235776"
     inkscape:cy="133.89407"
     inkscape:document-units="px"
     inkscape:current-layer="layer1"
     showgrid="false"
     inkscape:snap-bbox="true"
     inkscape:bbox-paths="true"
     inkscape:bbox-nodes="true"
     inkscape:snap-bbox-edge-midpoints="true"
     inkscape:snap-bbox-midpoints="true"
     inkscape:object-paths="true"
     inkscape:snap-intersection-paths="true"
     inkscape:object-nodes="false"
     inkscape:snap-smooth-nodes="false"
     inkscape:snap-midpoints="false"
     showguides="true"
     inkscape:guide-bbox="true"
     fit-margin-top="0"
     fit-margin-left="0"
     fit-margin-right="0"
     fit-margin-bottom="0"
     inkscape:window-width="1366"
     inkscape:window-height="710"
     inkscape:window-x="0"
     inkscape:window-y="0"
     inkscape:window-maximized="1"
     inkscape:snap-global="true">
    <sodipodi:guide
       position="-195.88318,247.6952"
       orientation="1,0"
       id="guide4172" />
    <sodipodi:guide
       position="72.616796,168.1952"
       orientation="1,0"
       id="guide4174" />
    <sodipodi:guide
       position="1.7677693,166.17048"
       orientation="-0.70710678,0.70710678"
       id="guide4168"
       inkscape:label=""
       inkscape:color="rgb(0,0,255)" />
    <sodipodi:guide
       position="-0.011716379,164.39883"
       orientation="0,1"
       id="guide4170" />
    <sodipodi:guide
       position="144.59765,164.39492"
       orientation="-0.70710678,-0.70710678"
       id="guide4173"
       inkscape:label=""
       inkscape:color="rgb(0,0,255)" />
    <sodipodi:guide
       position="131.21706,159.84286"
       orientation="-0.70710678,-0.70710678"
       id="guide4175"
       inkscape:label=""
       inkscape:color="rgb(0,0,255)" />
    <sodipodi:guide
       position="13.392647,159.84286"
       orientation="-0.70710678,0.70710678"
       id="guide4179"
       inkscape:label=""
       inkscape:color="rgb(0,0,255)" />
    <sodipodi:guide
       position="13.392647,35.18386"
       orientation="-0.70710678,-0.70710678"
       id="guide4181"
       inkscape:label=""
       inkscape:color="rgb(0,0,255)" />
    <sodipodi:guide
       position="4.3593217,26.264685"
       orientation="-0.70710678,-0.70710678"
       id="guide4183"
       inkscape:label=""
       inkscape:color="rgb(0,0,255)" />
    <sodipodi:guide
       position="140.23931,26.264685"
       orientation="-0.70710678,0.70710678"
       id="guide4185"
       inkscape:label=""
       inkscape:color="rgb(0,0,255)" />
    <sodipodi:guide
       position="131.1353,35.236106"
       orientation="-0.70710678,0.70710678"
       id="guide4187"
       inkscape:label=""
       inkscape:color="rgb(0,0,255)" />
    <sodipodi:guide
       position="131.21706,159.84286"
       orientation="1,0"
       id="guide4189" />
    <sodipodi:guide
       position="13.392647,159.84286"
       orientation="1,0"
       id="guide4191" />
    <sodipodi:guide
       position="9.0374297,155.48764"
       orientation="0,1"
       id="guide4193" />
    <sodipodi:guide
       position="135.56511,39.665912"
       orientation="0,1"
       id="guide4195" />
  </sodipodi:namedview>
  <metadata
     id="metadata4621">
    <rdf:RDF>
      <cc:Work
         rdf:about="">
        <dc:format>image/svg+xml</dc:format>
        <dc:type
           rdf:resource="http://purl.org/dc/dcmitype/StillImage" />
        <dc:title></dc:title>
      </cc:Work>
    </rdf:RDF>
  </metadata>
  <g
     inkscape:label="Layer 1"
     inkscape:groupmode="layer"
     id="layer1"
     transform="translate(-279.81093,-101.38072)">
    <rect
       style="fill:#13445e;fill-opacity:1;stroke:none;stroke-opacity:1"
       id="rect4167"
       width="117.82441"
       height="115.92027"
       x="293.20358"
       y="114.54259"
       ry="8.0231514" />
    <g
       id="g227"
       transform="matrix(1.4923321,0,0,1.6737246,191.59462,-129.19609)"
       style="stroke:#ffffff;stroke-opacity:1">
      <path
         stroke-miterlimit="10"
         d="M 135.1,172.4"
         id="path229"
         inkscape:connector-curvature="0"
         style="fill:none;stroke:#ffffff;stroke-miterlimit:10;stroke-opacity:1" />
      <path
         stroke-miterlimit="10"
         d="M 87.4,172.4"
         id="path231"
         inkscape:connector-curvature="0"
         style="fill:none;stroke:#ffffff;stroke-miterlimit:10;stroke-opacity:1" />
    </g>
    <g
       id="g109"
       transform="matrix(0.86069161,0,0,0.84305593,295.80204,-1.568338)"
       style="fill:#ffffff;fill-opacity:1">
      <rect
         x="178.55589"
         y="31.981073"
         transform="matrix(0.7499254,0.66152241,-0.66152241,0.7499254,0,0)"
         width="5.835567"
         height="9.3722744"
         id="rect111"
         style="fill:#ffffff;fill-opacity:1" />
      <path
         d="m 104.26733,156.01895 c -3.18314,-3.00631 -2.82946,-6.01261 -2.82946,-6.01261 0,0 3.35999,-0.88421 6.71997,2.29894 3.53683,3.35998 2.82946,6.36629 2.82946,6.36629 0,0 -3.89051,0.17684 -6.71997,-2.65262 z"
         id="path113"
         inkscape:connector-curvature="0"
         style="fill:#ffffff;fill-opacity:1" />
      <path
         d="M 78.448495,211.19345 58.28858,194.03984 c 0,0 10.964164,-14.14731 15.031515,-18.56834 15.031516,-16.79993 26.172521,-21.04413 26.172521,-21.04413 l 8.842064,7.07366 c 0,0 -3.0063,15.91572 -14.147305,30.23987 -4.244192,4.59788 -15.73888,19.45255 -15.73888,19.45255 z"
         id="path115"
         inkscape:connector-curvature="0"
         style="fill:#ffffff;fill-opacity:1" />
      <path
         d="m 79.863225,223.74919 -33.423016,-27.7641 c -0.530524,-0.35368 -0.530524,-1.06105 -0.176841,-1.41473 l 2.122096,-2.65262 c 0.353683,-0.53052 1.061048,-0.53052 1.414731,-0.17684 l 33.423016,27.76409 c 0.530524,0.35369 0.530524,1.06105 0.176842,1.41473 l -2.122097,2.65262 c -0.530524,0.35369 -1.061048,0.53053 -1.414731,0.17685 z"
         id="path117"
         inkscape:connector-curvature="0"
         style="fill:#ffffff;fill-opacity:1" />
      <rect
         x="-169.25044"
         y="-131.64001"
         transform="matrix(-0.76560833,-0.643307,0.643307,-0.76560833,0,0)"
         width="13.086119"
         height="9.3724899"
         id="rect119"
         style="fill:#ffffff;fill-opacity:1" />
      <rect
         x="-209.17728"
         y="-131.07587"
         transform="matrix(-0.76560833,-0.643307,0.643307,-0.76560833,0,0)"
         width="13.086119"
         height="9.3724899"
         id="rect121"
         style="fill:#ffffff;fill-opacity:1" />
      <rect
         x="-205.79951"
         y="-145.28571"
         transform="matrix(-0.76560833,-0.643307,0.643307,-0.76560833,0,0)"
         width="3.7136281"
         height="13.086119"
         id="rect123"
         style="fill:#ffffff;fill-opacity:1" />
      <rect
         x="-163.58446"
         y="-146.20517"
         transform="matrix(-0.76560833,-0.643307,0.643307,-0.76560833,0,0)"
         width="3.7136281"
         height="13.086119"
         id="rect125"
         style="fill:#ffffff;fill-opacity:1" />
      <rect
         x="-177.47153"
         y="-146.02197"
         transform="matrix(-0.76560833,-0.643307,0.643307,-0.76560833,0,0)"
         width="4.9515042"
         height="13.086119"
         id="rect127"
         style="fill:#ffffff;fill-opacity:1" />
      <rect
         x="-197.20193"
         y="-145.98271"
         transform="matrix(-0.76560833,-0.643307,0.643307,-0.76560833,0,0)"
         width="14.500834"
         height="13.086119"
         id="rect129"
         style="fill:#ffffff;fill-opacity:1" />
      <rect
         x="-170.49942"
         y="-145.89474"
         transform="matrix(-0.76560833,-0.643307,0.643307,-0.76560833,0,0)"
         width="4.9515042"
         height="13.086119"
         id="rect131"
         style="fill:#ffffff;fill-opacity:1" />
      <rect
         x="-193.58447"
         y="-131.45184"
         transform="matrix(-0.76560833,-0.643307,0.643307,-0.76560833,0,0)"
         width="20.867054"
         height="9.3724899"
         id="rect133"
         style="fill:#ffffff;fill-opacity:1" />
      <path
         d="m 58.111738,245.14699 -30.06303,-24.22727 c -0.353683,-0.17684 -0.353683,-0.70736 -0.176842,-0.8842 l 1.23789,-1.59157 c 0.176841,-0.35369 0.707365,-0.35369 0.884207,-0.17685 l 30.06303,24.22727 c 0.353683,0.17684 0.353683,0.70737 0.176842,0.88421 l -1.23789,1.59157 c -0.176841,0.35368 -0.530524,0.53052 -0.884207,0.17684 z"
         id="path135"
         inkscape:connector-curvature="0"
         style="fill:#ffffff;fill-opacity:1" />
      <path
         d="m 49.977036,243.55542 -9.726275,-8.31155 c -0.176841,-0.17684 -0.176841,-0.53052 0,-0.70736 l 1.061049,-1.06105 c 0.176841,-0.17684 0.530524,-0.17684 0.707365,0 l 9.726275,8.31154 c 0.176841,0.17685 0.176841,0.53053 0,0.70737 l -1.061049,1.06105 c -0.176841,0.17684 -0.530524,0.17684 -0.707365,0 z"
         id="path137"
         inkscape:connector-curvature="0"
         style="fill:#ffffff;fill-opacity:1" />
      <path
         d="m 48.031781,246.20804 -9.726275,-8.31155 c -0.176841,-0.17684 -0.176841,-0.53052 0,-0.70736 l 1.061049,-1.06105 c 0.176841,-0.17684 0.530524,-0.17684 0.707365,0 l 9.726275,8.31154 c 0.176841,0.17685 0.176841,0.53053 0,0.70737 l -1.061048,1.06105 c -0.353683,0 -0.530525,0 -0.707366,0 z"
         id="path139"
         inkscape:connector-curvature="0"
         style="fill:#ffffff;fill-opacity:1" />
      <path
         d="m 45.379161,248.86066 -9.726275,-8.31155 c -0.176841,-0.17684 -0.176841,-0.53052 0,-0.70736 l 1.061048,-1.06105 c 0.176842,-0.17684 0.530524,-0.17684 0.707366,0 l 9.726274,8.31155 c 0.176842,0.17684 0.176842,0.53052 0,0.70736 l -1.061048,1.06105 c -0.176841,0.17684 -0.530524,0.17684 -0.707365,0 z"
         id="path141"
         inkscape:connector-curvature="0"
         style="fill:#ffffff;fill-opacity:1" />
      <path
         d="m 43.610747,251.51328 -9.726274,-8.31154 c -0.176842,-0.17685 -0.176842,-0.53053 0,-0.70737 l 1.061048,-1.06105 c 0.176841,-0.17684 0.530524,-0.17684 0.707365,0 l 9.549433,8.31155 c 0.176842,0.17684 0.176842,0.53052 0,0.70736 l -1.061048,1.06105 c 0,0 -0.353682,0.17684 -0.530524,0 z"
         id="path143"
         inkscape:connector-curvature="0"
         style="fill:#ffffff;fill-opacity:1" />
      <path
         d="m 41.665492,254.1659 -9.726274,-8.31154 c -0.176842,-0.17685 -0.176842,-0.53053 0,-0.70737 l 1.061048,-1.06105 c 0.176841,-0.17684 0.530524,-0.17684 0.707365,0 l 9.726275,8.31155 c 0.176841,0.17684 0.176841,0.53052 0,0.70736 l -1.061048,1.06105 c -0.353683,0 -0.530524,0.17684 -0.707366,0 z"
         id="path145"
         inkscape:connector-curvature="0"
         style="fill:#ffffff;fill-opacity:1" />
      <path
         d="m 39.012872,256.81852 -9.726275,-8.31154 c -0.176841,-0.17685 -0.176841,-0.53053 0,-0.70737 l 1.061048,-1.06105 c 0.176842,-0.17684 0.530525,-0.17684 0.707366,0 l 9.726274,8.31155 c 0.176842,0.17684 0.176842,0.53052 0,0.70736 l -1.061048,1.06105 c -0.176841,0.17684 -0.530524,0.17684 -0.707365,0 z"
         id="path147"
         inkscape:connector-curvature="0"
         style="fill:#ffffff;fill-opacity:1" />
      <path
         d="m 36.890776,232.41441 -4.244193,-3.53682 c -0.176841,-0.17685 -0.176841,-0.53053 0,-0.70737 l 1.061048,-1.06105 c 0.176842,-0.17684 0.530524,-0.17684 0.707366,0 l 4.244192,3.53683 c 0.176842,0.17684 0.176842,0.53052 0,0.70736 l -1.061048,1.06105 c -0.176841,0.17684 -0.530524,0.17684 -0.707365,0 z"
         id="path149"
         inkscape:connector-curvature="0"
         style="fill:#ffffff;fill-opacity:1" />
      <path
         d="m 34.768679,235.06703 -4.244192,-3.53682 c -0.176842,-0.17685 -0.176842,-0.53053 0,-0.70737 l 1.061048,-1.06105 c 0.176841,-0.17684 0.530524,-0.17684 0.707365,0 l 4.244193,3.53683 c 0.176841,0.17684 0.176841,0.53052 0,0.70736 l -1.061048,1.06105 c -0.176842,0 -0.353683,0.17684 -0.707366,0 z"
         id="path151"
         inkscape:connector-curvature="0"
         style="fill:#ffffff;fill-opacity:1" />
      <path
         d="m 32.2929,237.89649 -4.244192,-3.53682 c -0.176842,-0.17684 -0.176842,-0.53053 0,-0.70737 l 1.061048,-1.06105 c 0.176841,-0.17684 0.530524,-0.17684 0.707365,0 l 4.244193,3.53683 c 0.176841,0.17684 0.176841,0.53053 0,0.70737 l -1.061048,1.06104 c -0.176842,0 -0.530524,0 -0.707366,0 z"
         id="path153"
         inkscape:connector-curvature="0"
         style="fill:#ffffff;fill-opacity:1" />
      <path
         d="m 30.524487,240.19543 -4.244193,-3.53682 c -0.176841,-0.17685 -0.176841,-0.53053 0,-0.70737 l 1.061048,-1.06105 c 0.176842,-0.17684 0.530524,-0.17684 0.707366,0 l 4.244192,3.53683 c 0.176842,0.17684 0.176842,0.53052 0,0.70736 l -1.061048,1.06105 c -0.353682,0.17684 -0.530524,0.17684 -0.707365,0 z"
         id="path155"
         inkscape:connector-curvature="0"
         style="fill:#ffffff;fill-opacity:1" />
      <path
         d="m 28.402391,242.84805 -4.244193,-3.53682 c -0.176841,-0.17685 -0.176841,-0.53053 0,-0.70737 l 1.061048,-1.06105 c 0.176841,-0.17684 0.530524,-0.17684 0.707366,0 l 4.244192,3.53683 c 0.176841,0.17684 0.176841,0.53052 0,0.70736 l -1.061048,1.06105 c -0.176841,0.17684 -0.530524,0.17684 -0.707365,0 z"
         id="path157"
         inkscape:connector-curvature="0"
         style="fill:#ffffff;fill-opacity:1" />
      <path
         d="m 25.74977,245.85436 -4.244192,-3.53683 c -0.176842,-0.17684 -0.176842,-0.53053 0,-0.70737 l 1.061048,-1.06105 c 0.176841,-0.17684 0.530524,-0.17684 0.707365,0 l 4.244193,3.53683 c 0.176841,0.17684 0.176841,0.53053 0,0.70737 l -1.061048,1.06105 c -0.176842,0.17684 -0.353683,0.17684 -0.707366,0 z"
         id="path159"
         inkscape:connector-curvature="0"
         style="fill:#ffffff;fill-opacity:1" />
      <path
         d="m 29.109756,250.45223 -4.597875,5.30524 0,0 0,0 c -0.353683,0.53053 -1.061048,0.53053 -1.591573,0.17684 -0.530524,-0.35368 -0.530524,-1.06105 -0.176841,-1.59157 l 0,0 0,0 4.597875,-5.48208 -5.835764,-4.95156 -4.774717,5.48208 0.353683,0.35369 -4.951558,5.65892 c -1.591573,1.76841 -1.23789,4.59787 0.353682,6.01261 l 7.427337,6.54313 1.591573,-1.76842 -7.427337,-6.54313 c -0.884207,-0.70736 -0.884207,-1.94525 -0.176842,-2.82946 l 4.951558,-5.65892 0.884207,0.70736 c -0.884207,1.41473 -1.061048,3.18315 -0.884207,5.1284 0.707366,2.47578 2.652621,4.24419 5.1284,4.77472 2.122096,0.35368 4.067351,-0.17684 5.30524,-1.41473 l 3.183145,3.0063 4.597875,-5.30524 -7.957861,-7.60418 z"
         id="path161"
         inkscape:connector-curvature="0"
         style="fill:#ffffff;fill-opacity:1" />
    </g>
    <path
       style="fill:#e2000d;fill-opacity:1;stroke:none;stroke-width:1.156479;stroke-opacity:1"
       d="M 4.3535156,0 0,4.3457031 0,138.12305 l 4.3515625,4.35937 8.5371095,0 6.748047,-8.9043 -6.246094,0 -4.3535156,-4.36132 0,-115.968753 4.4003906,-4.3437501 100.66016,0 L 120.8457,0 Z M 131.71484,0 124.9668,8.9042969 131.07422,8.765625 135.56445,13.25 l 0,115.83398 -4.24609,4.25196 -100.820313,0 -6.75,8.90429 34.882812,0.0703 13.990235,26.4375 14.023437,-26.38086 53.605469,0.10742 4.34766,-4.34766 0.006,-133.7812469 L 140.24609,0 Z"
       transform="translate(279.81092,101.38072)"
       id="rect4136"
       inkscape:connector-curvature="0"
       sodipodi:nodetypes="ccccccccccccccccccccccccccccc" />
  </g>
</svg>
