<?xml version="1.0" encoding="UTF-8" standalone="no"?>
<!-- Created with Inkscape (http://www.inkscape.org/) -->

<svg
   xmlns:dc="http://purl.org/dc/elements/1.1/"
   xmlns:cc="http://creativecommons.org/ns#"
   xmlns:rdf="http://www.w3.org/1999/02/22-rdf-syntax-ns#"
   xmlns:svg="http://www.w3.org/2000/svg"
   xmlns="http://www.w3.org/2000/svg"
   xmlns:sodipodi="http://sodipodi.sourceforge.net/DTD/sodipodi-0.dtd"
   xmlns:inkscape="http://www.inkscape.org/namespaces/inkscape"
   width="40.810371mm"
   height="47.624447mm"
   viewBox="0 0 144.60367 168.74804"
   id="svg4616"
   version="1.1"
   inkscape:version="0.91 r13725"
   sodipodi:docname="tires_for_sale.svg"
   inkscape:export-filename="/home/hacker/Изображения/mHundred.png"
   inkscape:export-xdpi="90"
   inkscape:export-ydpi="90">
  <defs
     id="defs4618" />
  <sodipodi:namedview
     id="base"
     pagecolor="#ffffff"
     bordercolor="#666666"
     borderopacity="1.0"
     inkscape:pageopacity="0.0"
     inkscape:pageshadow="2"
     inkscape:zoom="2.8284271"
     inkscape:cx="57.757089"
     inkscape:cy="112.00832"
     inkscape:document-units="px"
     inkscape:current-layer="layer1"
     showgrid="false"
     inkscape:snap-bbox="true"
     inkscape:bbox-paths="true"
     inkscape:bbox-nodes="true"
     inkscape:snap-bbox-edge-midpoints="true"
     inkscape:snap-bbox-midpoints="true"
     inkscape:object-paths="true"
     inkscape:snap-intersection-paths="true"
     inkscape:object-nodes="false"
     inkscape:snap-smooth-nodes="false"
     inkscape:snap-midpoints="false"
     showguides="true"
     inkscape:guide-bbox="true"
     fit-margin-top="0"
     fit-margin-left="0"
     fit-margin-right="0"
     fit-margin-bottom="0"
     inkscape:window-width="1366"
     inkscape:window-height="710"
     inkscape:window-x="0"
     inkscape:window-y="0"
     inkscape:window-maximized="1"
     inkscape:snap-global="true">
    <sodipodi:guide
       position="45.420074,35.380777"
       orientation="1,0"
       id="guide5187" />
    <sodipodi:guide
       position="37.562915,35.380777"
       orientation="1,0"
       id="guide5189" />
    <sodipodi:guide
       position="52.920063,35.380777"
       orientation="1,0"
       id="guide5191" />
    <sodipodi:guide
       position="52.920063,35.380777"
       orientation="0,1"
       id="guide5193" />
    <sodipodi:guide
       position="37.562915,20.380798"
       orientation="0,1"
       id="guide5195" />
  </sodipodi:namedview>
  <metadata
     id="metadata4621">
    <rdf:RDF>
      <cc:Work
         rdf:about="">
        <dc:format>image/svg+xml</dc:format>
        <dc:type
           rdf:resource="http://purl.org/dc/dcmitype/StillImage" />
        <dc:title></dc:title>
      </cc:Work>
    </rdf:RDF>
  </metadata>
  <g
     inkscape:label="Layer 1"
     inkscape:groupmode="layer"
     id="layer1"
     transform="translate(-277.43708,-95.066393)">
    <rect
       style="fill:#13445e;fill-opacity:1;stroke:none;stroke-opacity:1"
       id="rect4167"
       width="117.82443"
       height="115.9203"
       x="290.82974"
       y="108.22826"
       ry="8.0231533" />
    <path
       style="fill:#e2000d;fill-opacity:1;stroke:none;stroke-width:1.156479;stroke-opacity:1"
       d="m 281.79059,95.066393 -4.35352,4.34571 0,133.777367 4.35157,4.35937 8.53711,0 6.74804,-8.9043 -6.24609,0 -4.35352,-4.36132 0,-115.96878 4.40039,-4.34374 100.6602,0 6.74804,-8.904307 -116.49222,0 z m 127.36136,0 -6.74804,8.904307 6.10742,-0.13867 4.49023,4.48437 0,115.834 -4.24609,4.25196 -100.82034,0 -6.75,8.90429 34.89844,0.0703 13.99024,26.4375 14.02344,-26.38086 53.58986,0.10742 4.34766,-4.34766 0.006,-133.781267 -4.35757,-4.34569 -8.53125,0 z"
       id="rect4136"
       inkscape:connector-curvature="0" />
    <g
       id="g57"
       transform="matrix(1.6027918,0,0,1.494434,292.52229,-99.372514)"
       style="fill:#ffffff;fill-opacity:1">
      <g
         id="g59"
         style="fill:#ffffff;fill-opacity:1">
        <path
           d="m 27.4,212.8 c -1.5,0.2 -2.5,-0.2 -3.5,-0.8 -2.9,-2.1 -5.1,-4.7 -6.6,-7.7 -1,-2 -1.8,-4.2 -2.7,-6.3 -0.5,-1.3 -0.6,-2.8 -0.9,-4.2 -1.1,-4.7 -0.9,-9.5 -0.6,-14.2 0.1,-2.1 0.6,-4.2 1,-6.4 0.4,-1.6 0.7,-3.2 1.3,-4.8 0.9,-2.7 2,-5.3 3.6,-7.7 1.4,-2.1 3.1,-4.1 5.2,-5.8 0.9,-0.7 1.9,-1 3.2,-0.8 -0.7,0.7 -1.5,1.5 -2.2,2.2 -2.3,2.3 -4.1,5 -5.3,7.8 -0.8,1.9 -1.6,4 -2.2,5.9 -0.5,1.4 -0.6,2.8 -0.8,4.2 -0.4,2.5 -0.8,5 -1,7.5 -0.2,2.2 0.1,4.3 0.2,6.6 0,0.2 0,0.4 0,0.5 0.1,2.5 0.5,4.9 1.2,7.3 0.5,1.6 0.7,3.1 1.3,4.6 1.6,4.4 4.2,8.3 8.1,11.4 0.2,0.3 0.4,0.5 0.7,0.7 z"
           id="path61"
           inkscape:connector-curvature="0"
           style="fill:#ffffff;fill-opacity:1" />
        <path
           d="m 26.7,176.6 c -0.2,1.5 -0.3,3 -0.6,4.4 0,0.2 -0.4,0.4 -0.6,0.5 -3.2,0.3 -5.7,1.6 -7.6,3.8 -0.1,0.1 -0.4,0.2 -0.8,0.5 0.1,-1.7 -0.1,-3.2 0.5,-4.6 0.7,-1.9 2.8,-3 4.9,-3.9 1.2,-0.5 2.6,-0.6 3.9,-0.9 0.1,0 0.2,0.1 0.3,0.2 z"
           id="path63"
           inkscape:connector-curvature="0"
           style="fill:#ffffff;fill-opacity:1" />
        <path
           d="m 26.5,188.9 c 0.2,1.8 0.4,3.3 0.6,4.9 -3.1,0.6 -5.8,1.8 -7.1,4.6 -0.3,-0.3 -0.6,-0.5 -0.6,-0.6 -0.3,-0.9 -0.6,-1.8 -0.7,-2.7 -0.2,-0.9 -0.1,-1.8 0.6,-2.5 1.5,-1.8 3.2,-3.1 5.8,-3.4 0.4,-0.1 0.8,-0.2 1.4,-0.3 z"
           id="path65"
           inkscape:connector-curvature="0"
           style="fill:#ffffff;fill-opacity:1" />
        <path
           d="m 27.9,170.3 c -0.3,1.6 -0.6,3.1 -0.9,4.8 -3.6,0.3 -6.7,1.4 -9,4.1 -0.1,0 -0.2,-0.1 -0.3,-0.1 0.1,-1 0.1,-2 0.3,-3 0.6,-3.1 3.3,-4.3 6.4,-5.4 1.1,-0.4 2.2,-0.6 3.3,-0.7 0,0.1 0.1,0.2 0.2,0.3 z"
           id="path67"
           inkscape:connector-curvature="0"
           style="fill:#ffffff;fill-opacity:1" />
        <path
           d="m 26.1,182.5 c 0,1.8 0,3.3 0,5 -3.3,0.5 -6,1.8 -7.8,4.4 -0.7,-1.6 -0.7,-3 -0.6,-4.5 0.2,-1.3 1.4,-2.1 2.6,-3 1.4,-0.9 2.9,-1.6 4.7,-1.8 0.3,0.2 0.7,0.1 1.1,-0.1 z"
           id="path69"
           inkscape:connector-curvature="0"
           style="fill:#ffffff;fill-opacity:1" />
        <path
           d="m 19,172.6 c -1.2,-4.8 6.2,-9 11.1,-8.3 -0.5,1.2 -0.9,2.3 -1.3,3.5 -0.4,1.2 -1.4,1.3 -2.6,1.5 -1.9,0.2 -3.6,0.8 -5.1,1.8 -0.6,0.4 -1.3,1 -2.1,1.5 z"
           id="path71"
           inkscape:connector-curvature="0"
           style="fill:#ffffff;fill-opacity:1" />
        <path
           d="m 28.4,200.1 c -2.9,0.8 -5.2,1.8 -5.8,4.9 -0.4,-0.5 -0.6,-0.8 -0.8,-1.1 -0.5,-0.9 -1.1,-1.9 -1.3,-3 -0.5,-1.9 0.9,-3.2 2.5,-4.3 0.8,-0.6 1.9,-0.9 3,-1.4 0.8,-0.4 1.3,-0.1 1.5,0.7 0.2,1.5 0.6,2.8 0.9,4.2 z"
           id="path73"
           inkscape:connector-curvature="0"
           style="fill:#ffffff;fill-opacity:1" />
        <path
           d="m 11.8,191.7 c -2.4,-2.4 -5.2,-4.1 -9,-4.5 -0.1,-1.3 -0.2,-2.5 -0.2,-3.8 0,-1.1 0.1,-1.1 1.3,-0.9 2.3,0.3 4.2,1.3 5.6,2.8 1.1,1 1.9,2.1 1.8,3.7 0,0.7 0.2,1.4 0.4,2.1 0.2,0.1 0.2,0.3 0.1,0.6 z"
           id="path75"
           inkscape:connector-curvature="0"
           style="fill:#ffffff;fill-opacity:1" />
        <path
           d="m 4,194.9 c 5.1,-0.2 11.5,4.9 11.7,9.2 -1.3,-0.8 -2.5,-1.6 -3.8,-2.3 -1.6,-0.9 -3.2,-1.7 -5.2,-1.9 -0.8,-0.1 -1.4,-0.5 -1.6,-1.3 -0.2,-1.2 -0.7,-2.4 -1.1,-3.7 z"
           id="path77"
           inkscape:connector-curvature="0"
           style="fill:#ffffff;fill-opacity:1" />
        <path
           d="m 20.9,166.3 c 0.4,-4.8 7.2,-8.5 13.3,-8.4 -0.6,0.8 -1.1,1.5 -1.6,2.2 -0.5,0.6 -0.9,1.3 -1.3,2 -0.3,0.5 -0.6,0.7 -1.2,0.7 -3,0 -5.4,1.1 -7.7,2.5 -0.5,0.3 -1,0.6 -1.5,1 z"
           id="path79"
           inkscape:connector-curvature="0"
           style="fill:#ffffff;fill-opacity:1" />
        <path
           d="m 11.2,185.3 c -1.8,-2 -3.8,-3.2 -6.3,-4.1 -0.1,0 -0.3,0 -0.4,-0.1 -1.5,-0.2 -1.6,-0.2 -1.5,-1.6 0.1,-1 0.3,-2 0.4,-3 0.1,-0.6 0.6,-0.5 0.9,-0.5 2.6,0.3 4.5,1.4 6,3.2 1.5,2 1.3,3.9 0.9,6.1 z"
           id="path81"
           inkscape:connector-curvature="0"
           style="fill:#ffffff;fill-opacity:1" />
        <path
           d="m 13.4,197.6 c -1.8,-1 -3.5,-2.2 -5.4,-3.1 -0.9,-0.5 -2.1,-0.6 -3.1,-0.9 -0.5,-0.2 -1.1,-0.5 -1.1,-0.8 -0.3,-1.4 -0.4,-2.7 -0.6,-4.1 4.8,-0.1 10,3.9 10.2,8.9 z"
           id="path83"
           inkscape:connector-curvature="0"
           style="fill:#ffffff;fill-opacity:1" />
        <path
           d="m 31.2,206.4 c -0.5,0.3 -1,0.6 -1.6,0.8 -1.2,0.6 -1.8,1.9 -1.9,2.8 -0.1,0.3 -0.1,0.8 -0.2,1.1 -0.3,-0.2 -0.7,-0.5 -0.9,-0.7 -0.8,-0.9 -1.7,-1.8 -2.5,-2.8 -1,-1.2 -0.6,-2.3 0.1,-3.4 0.8,-1.3 2.2,-2 3.7,-2.6 0.6,-0.3 1.1,-0.1 1.4,0.6 0.6,1.3 1.3,2.7 1.9,4.2 z"
           id="path85"
           inkscape:connector-curvature="0"
           style="fill:#ffffff;fill-opacity:1" />
        <path
           d="m 12.5,172.7 c -0.6,-0.7 -1.2,-1.4 -1.8,-2 -1,-1.1 -2.4,-1.7 -4,-1.8 -0.7,-0.1 -1.3,-0.1 -0.7,-1 0.6,-0.9 0.9,-2 1.5,-3 0.6,-1 1.4,-1.3 2.5,-0.9 2.6,0.7 4,2.7 3.7,4.7 -0.2,1 -0.6,2 -0.9,3 0,0.2 -0.1,0.5 -0.3,1 z"
           id="path87"
           inkscape:connector-curvature="0"
           style="fill:#ffffff;fill-opacity:1" />
        <path
           d="m 11.5,178.9 c -1.2,-1 -2.1,-2 -3.3,-2.8 -1.3,-0.7 -2.8,-1 -4.2,-1.5 0.4,-1.4 0.7,-2.8 1.2,-4.2 0.1,-0.2 0.5,-0.4 0.7,-0.4 1.9,-0.1 3.4,0.6 4.7,1.8 1.8,1.7 1.9,3.5 1.2,5.5 -0.3,0.6 -0.3,1 -0.3,1.6 z"
           id="path89"
           inkscape:connector-curvature="0"
           style="fill:#ffffff;fill-opacity:1" />
        <path
           d="m 6.5,200.9 c 6.6,1.4 10.8,4.9 13.8,9.8 -0.6,-0.3 -1.2,-0.6 -1.8,-0.8 -1.8,-0.8 -3.4,-1.8 -5.3,-2.6 -0.8,-0.4 -1.7,-0.7 -2.5,-0.8 -1.4,-0.2 -2.1,-1 -2.7,-1.9 -0.6,-0.8 -1,-1.6 -1.5,-2.4 0.1,-0.6 0.1,-0.9 0,-1.3 z"
           id="path91"
           inkscape:connector-curvature="0"
           style="fill:#ffffff;fill-opacity:1" />
        <path
           d="m 9.1,162.3 c 1.4,-1.4 2.7,-2.8 4.1,-4.1 0.7,-0.6 1.8,-0.5 2.7,-0.3 0.7,0.2 1,0.8 1.1,1.6 0.3,1.8 -0.4,3.5 -1.4,5.1 -0.3,0.4 -0.4,0.8 -0.6,1.3 -0.1,0.2 -0.3,0.3 -0.6,0.6 -0.5,-2.7 -2.4,-3.7 -5.3,-3.9 0,-0.1 0,-0.2 0,-0.3 z"
           id="path93"
           inkscape:connector-curvature="0"
           style="fill:#ffffff;fill-opacity:1" />
        <path
           d="m 40,154.5 c -1.2,0.6 -2.3,1.1 -3.4,1.5 -1,0.4 -2.2,0.6 -3.2,0.6 -3.1,0.1 -5.6,1.6 -8.3,2.9 -0.2,0.1 -0.4,0.2 -0.6,0.2 1.6,-2.5 3.7,-4.5 7,-5.3 2.5,-0.6 5,-0.4 7.5,-0.1 0.3,0.1 0.6,0.2 1,0.2 z"
           id="path95"
           inkscape:connector-curvature="0"
           style="fill:#ffffff;fill-opacity:1" />
        <path
           d="m 39.1,212.9 c -0.6,0.2 -1,0.3 -1.5,0.3 -2.3,0 -4.6,0 -6.9,0 -1.1,0 -1.2,-0.9 -1.4,-1.5 -0.6,-1.8 0.5,-3.3 2.6,-3.8 0.2,0 0.6,0.2 0.7,0.4 1.1,1.6 2.6,2.8 4.4,3.7 0.7,0.2 1.2,0.5 2.1,0.9 z"
           id="path97"
           inkscape:connector-curvature="0"
           style="fill:#ffffff;fill-opacity:1" />
        <path
           d="m 18.6,159.6 c -0.2,-1.4 -0.4,-2.7 -1.9,-3.2 0.9,-0.8 5.5,-1.8 6.9,-1.8 -1.7,1.7 -3.3,3.3 -5,5 z"
           id="path99"
           inkscape:connector-curvature="0"
           style="fill:#ffffff;fill-opacity:1" />
        <path
           d="m 11,207.4 c 3.8,0.9 6.9,2.4 10,4.2 -2.1,0.5 -8,-1.6 -10,-4.2 z"
           id="path101"
           inkscape:connector-curvature="0"
           style="fill:#ffffff;fill-opacity:1" />
        <path
           d="m 42.7,155.8 c -7.8,-0.3 -14.2,12.6 -14.2,28.2 0,15.6 6,27.2 13.8,27.3 7.1,0.1 14.5,-11.7 14.5,-27.3 0,-15.6 -4.5,-27.8 -14.1,-28.2 z m 0,51.4 c -6,-0.1 -10.6,-9.9 -10.6,-23.2 0,-13.3 4.9,-24.3 10.9,-24 7.4,0.3 10.9,10.7 10.9,24 -0.1,13.3 -5.8,23.2 -11.2,23.2 z"
           id="path103"
           inkscape:connector-curvature="0"
           style="fill:#ffffff;fill-opacity:1" />
        <path
           d="m 51.5,184 c 0,10.9 -4.6,19.1 -9,19.1 -4.9,-0.1 -8.7,-8.1 -8.7,-19.1 0,-11 4,-19.9 8.9,-19.8 6,0.2 8.8,8.9 8.8,19.8 z"
           id="path105"
           inkscape:connector-curvature="0"
           style="fill:#ffffff;fill-opacity:1" />
      </g>
      <path
         d="m 64.9,142.2 -5.1,0 -3.3,0 0,11.4 -3,0 0,2.9 3,0 0,3.9 3.4,0 0,-3.9 3.1,0 0,-2.9 -3.1,0 0,-1.4 5.1,0 c 2.1,0 3.8,-1.7 3.8,-3.8 l 0,-2.5 c -0.1,-2.1 -1.8,-3.7 -3.9,-3.7 z m 0.5,5.7 c 0,0.9 -0.7,1.6 -1.6,1.6 l -3.9,0 0,-4.6 3.9,0 c 0.9,0 1.6,0.7 1.6,1.6 l 0,1.4 z"
         id="path107"
         inkscape:connector-curvature="0"
         style="fill:#ffffff;fill-opacity:1" />
    </g>
  </g>
</svg>
