<?xml version="1.0" encoding="UTF-8" standalone="no"?>
<!-- Created with Inkscape (http://www.inkscape.org/) -->

<svg
   xmlns:dc="http://purl.org/dc/elements/1.1/"
   xmlns:cc="http://creativecommons.org/ns#"
   xmlns:rdf="http://www.w3.org/1999/02/22-rdf-syntax-ns#"
   xmlns:svg="http://www.w3.org/2000/svg"
   xmlns="http://www.w3.org/2000/svg"
   xmlns:sodipodi="http://sodipodi.sourceforge.net/DTD/sodipodi-0.dtd"
   xmlns:inkscape="http://www.inkscape.org/namespaces/inkscape"
   width="40.810379mm"
   height="47.624454mm"
   viewBox="0 0 144.6037 168.74807"
   id="svg4616"
   version="1.1"
   inkscape:version="0.91 r13725"
   sodipodi:docname="video_registrations.svg">
  <defs
     id="defs4618" />
  <sodipodi:namedview
     id="base"
     pagecolor="#ffffff"
     bordercolor="#666666"
     borderopacity="1.0"
     inkscape:pageopacity="0.0"
     inkscape:pageshadow="2"
     inkscape:zoom="3.959798"
     inkscape:cx="84.022743"
     inkscape:cy="89.367542"
     inkscape:document-units="px"
     inkscape:current-layer="layer1"
     showgrid="false"
     inkscape:snap-bbox="true"
     inkscape:bbox-paths="true"
     inkscape:bbox-nodes="true"
     inkscape:snap-bbox-edge-midpoints="true"
     inkscape:snap-bbox-midpoints="true"
     inkscape:object-paths="true"
     inkscape:snap-intersection-paths="true"
     inkscape:object-nodes="false"
     inkscape:snap-smooth-nodes="false"
     inkscape:snap-midpoints="false"
     showguides="true"
     inkscape:guide-bbox="true"
     fit-margin-top="0"
     fit-margin-left="0"
     fit-margin-right="0"
     fit-margin-bottom="0"
     inkscape:window-width="1440"
     inkscape:window-height="959"
     inkscape:window-x="0"
     inkscape:window-y="0"
     inkscape:window-maximized="1">
    <sodipodi:guide
       position="40.373322,27.363242"
       orientation="1,0"
       id="guide5187" />
    <sodipodi:guide
       position="32.516162,27.363242"
       orientation="1,0"
       id="guide5189" />
    <sodipodi:guide
       position="47.873311,27.363242"
       orientation="1,0"
       id="guide5191" />
    <sodipodi:guide
       position="47.873311,27.363242"
       orientation="0,1"
       id="guide5193" />
    <sodipodi:guide
       position="32.516162,12.363262"
       orientation="0,1"
       id="guide5195" />
    <sodipodi:guide
       position="125.35733,150.67845"
       orientation="0,1"
       id="guide3349" />
    <sodipodi:guide
       position="40.373322,44.808562"
       orientation="0,1"
       id="guide3351" />
    <sodipodi:guide
       position="125.35733,131.82491"
       orientation="1,0"
       id="guide3353" />
    <sodipodi:guide
       position="19.252533,67.680223"
       orientation="1,0"
       id="guide3355" />
    <sodipodi:guide
       position="131.21714,97.626055"
       orientation="0,1"
       id="guide3363" />
  </sodipodi:namedview>
  <metadata
     id="metadata4621">
    <rdf:RDF>
      <cc:Work
         rdf:about="">
        <dc:format>image/svg+xml</dc:format>
        <dc:type
           rdf:resource="http://purl.org/dc/dcmitype/StillImage" />
        <dc:title />
      </cc:Work>
    </rdf:RDF>
  </metadata>
  <g
     inkscape:label="Layer 1"
     inkscape:groupmode="layer"
     id="layer1"
     transform="translate(-282.48384,-87.048828)">
    <rect
       style="fill:#13445e;fill-opacity:1;stroke:none;stroke-opacity:1"
       id="rect4167"
       width="117.82443"
       height="115.9203"
       x="295.87656"
       y="100.2107"
       ry="8.0231533" />
    <path
       style="fill:#e2000d;fill-opacity:1;stroke:none;stroke-width:1.156479;stroke-opacity:1"
       d="m 286.83735,87.048828 -4.35352,4.34571 0,133.777372 4.35157,4.35937 8.53711,0 6.74804,-8.9043 -6.24609,0 -4.35352,-4.36132 0,-115.96877 4.40039,-4.343752 100.6602,0 6.74804,-8.90431 -116.49222,0 z m 127.36136,0 -6.74804,8.90431 6.10742,-0.13867 4.49023,4.484382 0,115.83399 -4.24609,4.25196 -100.82034,0 -6.75,8.90429 34.89844,0.0703 13.99024,26.4375 14.02344,-26.38086 53.58986,0.10742 4.34766,-4.34766 0.006,-133.781272 -4.35757,-4.34569 -8.53125,0 z"
       id="rect4136"
       inkscape:connector-curvature="0" />
    <path
       style="fill:#ffffff;fill-opacity:1"
       d="m 303.48432,187.40512 c -1.29433,-1.10517 -1.34746,-1.90578 -1.54418,-23.27335 l -0.20377,-22.12888 1.54421,-1.25542 c 1.46135,-1.18813 2.86483,-1.25565 26.16425,-1.25975 23.68358,0 24.69474,-0.0554 26.58242,-1.33619 4.0192,-2.72811 11.19507,-5.17816 15.20797,-5.19287 2.04278,0 2.12585,-0.11097 2.12585,-2.62416 0,-1.43917 0.22066,-2.63526 0.49058,-2.65817 0.934,-0.0796 6.3813,-0.10126 7.27146,-0.0313 0.53705,0.0434 0.76705,0.5573 0.57612,1.28749 -0.38453,1.47028 0.57489,3.36328 1.70469,3.36328 0.77922,0 5.00162,-3.93167 5.00162,-4.65727 0,-0.18811 -1.32458,-1.0051 -2.94349,-1.81367 -1.61893,-0.80858 -2.94347,-1.74373 -2.94347,-2.07821 0,-0.33448 1.74869,-0.60817 3.88603,-0.60817 2.13732,0 4.05246,-0.26936 4.25589,-0.59853 0.20353,-0.32917 0.55625,-2.38157 0.78404,-4.56081 0.22788,-2.1795 0.63743,-3.82463 0.91033,-3.65583 0.27289,0.16881 1.03898,1.81611 1.7024,3.66113 0.66345,1.84478 1.53683,3.4812 1.94091,3.63626 0.40407,0.15433 2.08189,-0.47024 3.72852,-1.38949 3.54585,-1.97982 3.91384,-2.03528 3.48913,-0.52691 -0.17724,0.62964 -0.51376,2.09653 -0.74779,3.25982 -0.41497,2.06278 -0.35117,2.13489 2.57612,2.91788 1.6509,0.44155 2.90616,1.08927 2.7895,1.43918 -0.11672,0.3499 -1.33154,1.21731 -2.69974,1.92724 -2.42399,1.25807 -2.4777,1.36369 -2.0983,4.13158 0.44765,3.2661 -0.0241,3.48554 -3.22741,1.505 l -2.16093,-1.33548 -1.67739,2.46839 c -0.92258,1.35766 -1.67739,2.69169 -1.67739,2.96418 0,0.27249 1.57329,1.5402 3.49622,2.81708 l 3.49623,2.32128 0.42622,10.27697 c 0.2344,5.65227 0.42721,14.76546 0.42842,20.2518 0.002,11.24541 -0.23512,11.86975 -5.02469,13.19968 -1.64465,0.45673 -17.80168,0.69425 -47.39274,0.69642 -41.8158,0 -44.9894,-0.0747 -46.23786,-1.14086 z m 75.5437,-2.38639 c 10.62186,-2.82817 17.78728,-10.20728 19.91512,-20.50933 2.13962,-10.35896 -3.92318,-21.84794 -14.26884,-27.03887 -4.25137,-2.13319 -4.75864,-2.23038 -11.64027,-2.23038 -6.68438,0 -7.49781,0.14469 -11.45857,2.02057 -5.37734,2.54821 -10.29852,7.31135 -12.78022,12.3699 -1.74121,3.54896 -1.92546,4.55045 -1.92546,10.46555 0,5.72796 0.21799,7.00605 1.75304,10.28131 5.34215,11.39783 18.60316,17.78365 30.4052,14.64125 z m -13.84326,-3.00951 c -7.14769,-2.38929 -12.34133,-7.41456 -15.02626,-14.53853 -0.89473,-2.37385 -1.09585,-4.34692 -0.86681,-8.50333 0.3747,-6.7994 2.25928,-10.74817 7.35043,-15.40111 4.85913,-4.44097 9.48038,-6.18302 16.47752,-6.21123 4.58279,-0.0241 5.90591,0.2532 9.56526,1.96559 5.65779,2.6478 9.20485,5.98431 11.65703,10.96521 5.81229,11.80657 0.69901,25.2428 -11.78055,30.95607 -4.95648,2.26919 -11.9591,2.57859 -17.37662,0.76733 z m 15.99803,-5.44824 c 6.23672,-2.91957 9.93403,-8.45993 10.36559,-15.53278 0.60841,-9.97168 -6.8693,-18.02117 -17.417,-18.74848 -10.86436,-0.749 -19.90037,7.36175 -19.90222,17.86444 -0.002,13.6077 14.3197,22.33096 26.95363,16.41682 z m -13.24902,-1.34271 c -7.14751,-2.66419 -11.1948,-8.16693 -11.12928,-15.13151 0.12878,-13.68438 16.55956,-20.40057 27.43894,-11.21551 4.37844,3.69654 6.13715,11.69756 3.80192,17.29652 -1.2908,3.09489 -4.47737,6.42609 -7.76877,8.1216 -3.30299,1.70154 -9.09964,2.13777 -12.34281,0.9289 z m 11.67015,-5.74895 c 2.96676,-2.03287 4.98601,-5.80851 4.98601,-9.32275 0,-10.14241 -12.75726,-15.15804 -20.03748,-7.87781 -7.54229,7.54237 -1.39559,20.03452 9.36288,19.0287 2.13512,-0.20015 4.35124,-0.91178 5.68859,-1.82814 z m -10.16746,-1.00462 c -1.52541,-0.55753 -3.95485,-2.95478 -4.96795,-4.9018 -3.82751,-7.35643 5.9565,-15.47827 13.27226,-11.01754 2.9374,1.791 4.34174,4.23335 4.34174,7.55081 0,3.3177 -1.40434,5.76004 -4.34174,7.55104 -1.99529,1.21683 -6.1056,1.62124 -8.30431,0.81749 z m -49.5276,-16.77059 c 2.97899,-1.24504 4.00421,-2.63718 3.13641,-4.25865 -2.13594,-3.99124 -14.44076,-3.01193 -14.44076,1.14907 0,3.14383 6.76813,5.00573 11.30435,3.10958 z m -7.05266,-1.54889 c -3.89692,-0.93733 -1.92956,-3.45804 2.69888,-3.45804 3.06545,0 6.13157,0.94119 6.13157,1.88215 0,1.41867 -5.44427,2.39049 -8.83045,1.57589 z m 78.81174,-15.25184 c -0.67246,-1.6234 -1.1016,-1.88166 -2.81481,-1.69405 -2.88965,0.31638 -2.79253,1.13532 0.37516,3.16361 3.0077,1.92604 3.67869,1.52188 2.43965,-1.46956 z m 3.92774,-0.95325 c 1.38054,-2.23375 1.44898,-2.26099 3.29139,-1.30822 2.54758,1.31739 2.80958,1.2407 2.32691,-0.68269 -0.34366,-1.36899 -0.0738,-1.84984 1.56021,-2.77995 2.5065,-1.42614 2.49824,-2.03528 -0.0345,-2.54169 -2.33853,-0.46782 -2.95199,-1.53418 -1.95472,-3.39752 1.00188,-1.87203 -0.0324,-2.19469 -2.28156,-0.71211 -2.63926,1.73988 -3.5114,1.60097 -4.30891,-0.68703 -0.8937,-2.5634 -1.73009,-2.49466 -1.98639,0.16398 -0.18013,1.86913 -0.46155,2.15055 -2.33081,2.33069 -2.57716,0.24863 -2.68696,0.91226 -0.39888,2.41147 l 1.72695,1.13146 -2.05401,1.6075 c -2.73854,2.14331 -2.5887,2.76813 0.5624,2.34563 1.63644,-0.21944 2.61642,-0.0893 2.61642,0.34677 0,0.93999 1.2026,4.0532 1.56574,4.0532 0.15941,0 0.92433,-1.02655 1.69976,-2.28125 z"
       id="path4142"
       inkscape:connector-curvature="0"
       sodipodi:nodetypes="sscscscsccsssssssscsssssscssscssscscsssssssssssssssssssssssscsssssssssssssssssssssssssssssscsssssssssscsssscc" />
  </g>
</svg>
