<?xml version="1.0" encoding="UTF-8" standalone="no"?>
<!-- Created with Inkscape (http://www.inkscape.org/) -->

<svg
   xmlns:dc="http://purl.org/dc/elements/1.1/"
   xmlns:cc="http://creativecommons.org/ns#"
   xmlns:rdf="http://www.w3.org/1999/02/22-rdf-syntax-ns#"
   xmlns:svg="http://www.w3.org/2000/svg"
   xmlns="http://www.w3.org/2000/svg"
   xmlns:sodipodi="http://sodipodi.sourceforge.net/DTD/sodipodi-0.dtd"
   xmlns:inkscape="http://www.inkscape.org/namespaces/inkscape"
   width="40.810371mm"
   height="47.624451mm"
   viewBox="0 0 144.60367 168.74806"
   id="svg4616"
   version="1.1"
   inkscape:version="0.91 r13725"
   sodipodi:docname="washing.svg"
   inkscape:export-filename="/home/hacker/Изображения/mHundred.png"
   inkscape:export-xdpi="90"
   inkscape:export-ydpi="90">
  <defs
     id="defs4618" />
  <sodipodi:namedview
     id="base"
     pagecolor="#ffffff"
     bordercolor="#666666"
     borderopacity="1.0"
     inkscape:pageopacity="0.0"
     inkscape:pageshadow="2"
     inkscape:zoom="2.8284271"
     inkscape:cx="29.695234"
     inkscape:cy="86.901792"
     inkscape:document-units="px"
     inkscape:current-layer="layer1"
     showgrid="false"
     inkscape:snap-bbox="true"
     inkscape:bbox-paths="true"
     inkscape:bbox-nodes="true"
     inkscape:snap-bbox-edge-midpoints="true"
     inkscape:snap-bbox-midpoints="true"
     inkscape:object-paths="true"
     inkscape:snap-intersection-paths="true"
     inkscape:object-nodes="false"
     inkscape:snap-smooth-nodes="false"
     inkscape:snap-midpoints="false"
     showguides="true"
     inkscape:guide-bbox="true"
     fit-margin-top="0"
     fit-margin-left="0"
     fit-margin-right="0"
     fit-margin-bottom="0"
     inkscape:window-width="1366"
     inkscape:window-height="710"
     inkscape:window-x="0"
     inkscape:window-y="0"
     inkscape:window-maximized="1">
    <sodipodi:guide
       position="46.944704,26.058361"
       orientation="1,0"
       id="guide5187" />
    <sodipodi:guide
       position="39.087545,26.058361"
       orientation="1,0"
       id="guide5189" />
    <sodipodi:guide
       position="54.444693,26.058361"
       orientation="1,0"
       id="guide5191" />
    <sodipodi:guide
       position="54.444693,26.058361"
       orientation="0,1"
       id="guide5193" />
    <sodipodi:guide
       position="39.087545,11.058381"
       orientation="0,1"
       id="guide5195" />
  </sodipodi:namedview>
  <metadata
     id="metadata4621">
    <rdf:RDF>
      <cc:Work
         rdf:about="">
        <dc:format>image/svg+xml</dc:format>
        <dc:type
           rdf:resource="http://purl.org/dc/dcmitype/StillImage" />
        <dc:title></dc:title>
      </cc:Work>
    </rdf:RDF>
  </metadata>
  <g
     inkscape:label="Layer 1"
     inkscape:groupmode="layer"
     id="layer1"
     transform="translate(-275.91245,-85.743959)">
    <rect
       style="fill:#13445e;fill-opacity:1;stroke:none;stroke-opacity:1"
       id="rect4167"
       width="117.82443"
       height="115.9203"
       x="289.30515"
       y="98.905838"
       ry="8.0231533" />
    <path
       style="fill:#e2000d;fill-opacity:1;stroke:none;stroke-width:1.156479;stroke-opacity:1"
       d="m 280.26596,85.743959 -4.35352,4.34571 0,133.777381 4.35157,4.35937 8.53711,0 6.74804,-8.9043 -6.24609,0 -4.35352,-4.36132 0,-115.968784 4.40039,-4.34375 100.6602,0 6.74804,-8.904307 -116.49222,0 z m 127.36136,0 -6.74804,8.904307 6.10742,-0.13867 4.49023,4.48438 0,115.834004 -4.24609,4.25196 -100.82034,0 -6.75,8.90429 34.89844,0.0703 13.99024,26.4375 14.02344,-26.38086 53.58986,0.10742 4.34766,-4.34766 0.006,-133.781281 -4.35757,-4.34569 -8.53125,0 z"
       id="rect4136"
       inkscape:connector-curvature="0" />
    <g
       id="g245"
       transform="matrix(1.6125352,0,0,1.4923321,61.988543,-1.0227468)"
       style="fill:#ffffff;fill-opacity:1">
      <g
         id="g247"
         style="fill:#ffffff;fill-opacity:1">
        <path
           d="m 187.8,105.8 c 2.2,0 3.2,0.8 3.9,3 1,3 2,6.2 3,9.2 0.2,0.5 0.4,0.7 0.9,0.8 1.2,0.2 2.1,1.4 2.1,2.7 0,2.7 0,5.2 0,7.9 0.1,1.7 -1.4,3.1 -2.8,3.3 -0.6,0.1 -1.2,0.2 -1.8,0.1 -10.7,0 -21.3,-0.1 -32,-0.1 -1.2,0 -2.2,-0.2 -3,-1.1 -0.6,-0.6 -0.8,-1.3 -0.8,-2.2 0,-2.5 0,-5 0,-7.6 0,-1.6 0.8,-2.6 2.3,-3 0.3,-0.1 0.6,-0.5 0.6,-0.7 0.9,-3 1.8,-6.1 2.7,-9.1 0.6,-2 2.1,-3.1 4.2,-3.1 3.6,-0.1 17.2,-0.1 20.7,-0.1 z m 4.3,13 c 0,-0.3 0,-0.4 0,-0.5 -0.8,-2.8 -1.7,-5.5 -2.5,-8.3 -0.4,-1.2 -0.9,-1.6 -2.3,-1.6 -6.5,0 -12.8,0 -19.3,-0.1 -1.5,0 -1.9,0.4 -2.4,1.8 -0.3,1.2 -0.6,2.4 -0.9,3.5 -0.5,1.7 -0.8,3.3 -1.3,5.1 9.7,0.1 19.1,0.1 28.7,0.1 z"
           id="path249"
           inkscape:connector-curvature="0"
           style="fill:#ffffff;fill-opacity:1" />
      </g>
      <path
         d="m 167.6,142.2 -4.3,0 c -0.8,0 -1.5,-0.6 -1.5,-1.5 l 0,-6.2 7.2,0 0,6.2 c -0.1,0.8 -0.7,1.5 -1.4,1.5 z"
         id="path251"
         inkscape:connector-curvature="0"
         style="fill:#ffffff;fill-opacity:1" />
      <path
         d="m 191.7,142.2 -4.3,0 c -0.8,0 -1.5,-0.6 -1.5,-1.5 l 0,-6.2 7.2,0 0,6.2 c 0.1,0.8 -0.5,1.5 -1.4,1.5 z"
         id="path253"
         inkscape:connector-curvature="0"
         style="fill:#ffffff;fill-opacity:1" />
      <rect
         x="177.10001"
         y="85.599998"
         width="2.2"
         height="17.4"
         id="rect255"
         style="fill:#ffffff;fill-opacity:1" />
      <polygon
         points="145,140.9 165.3,85.6 167.6,85.6 147.3,140.9 "
         id="polygon257"
         style="fill:#ffffff;fill-opacity:1" />
      <polygon
         points="210.8,140.9 190.4,85.6 188.1,85.6 208.4,140.9 "
         id="polygon259"
         style="fill:#ffffff;fill-opacity:1" />
      <polygon
         points="167.2,102.9 171,85.6 173.3,85.6 169.5,102.9 "
         id="polygon261"
         style="fill:#ffffff;fill-opacity:1" />
      <polygon
         points="189.2,102.9 185.6,85.6 183.2,85.6 187,102.9 "
         id="polygon263"
         style="fill:#ffffff;fill-opacity:1" />
      <path
         d="m 187,77.4 -4.3,0 c -0.6,0 -1.2,-0.6 -1.2,-1.2 l 0,-5.1 -6.4,0 0,5.1 c 0,0.6 -0.6,1.2 -1.2,1.2 l -4.6,0 c -2.1,0 -3.8,1.7 -3.8,3.8 l 0,3 25.4,0 0,-3 C 190.8,79 189.2,77.4 187,77.4 Z"
         id="path265"
         inkscape:connector-curvature="0"
         style="fill:#ffffff;fill-opacity:1" />
    </g>
  </g>
</svg>
